<svg xmlns="http://www.w3.org/2000/svg" xmlns:xlink="http://www.w3.org/1999/xlink" xmlns:lucid="lucid" width="1604.13" height="1257.91"><g transform="translate(-638.5 -1375.950156647517)" lucid:page-tab-id="0_0"><path d="M500 1000h2000v2000H500z" fill="#fff"/><path d="M1765.26 1520.95v29.62m0 29.63v59.24m0 29.62v59.25m0 29.63v59.25m0 29.62v59.25m0 29.62v59.24m0 29.64v59.24m0 29.63v59.25m0 29.62v59.25m0 29.62v59.25m0 29.6v59.26m0 29.62v29.62" stroke="#333" stroke-width="3" fill="none"/><path d="M1766.73 1521h-2.95v-1.55h2.95z" stroke="#333" stroke-width=".05" fill="#333"/><path d="M1765.26 2498.46v1.54M1400 1520.95v28.8m0 28.8v57.62m0 28.8v57.62m0 28.8v57.6m0 28.82v57.6m0 28.8v57.63m0 28.8v57.6m0 28.82v57.6m0 28.82v57.6m0 28.8v57.62m0 28.8v57.62m0 28.8v57.6m0 28.82v28.8" stroke="#333" stroke-width="3" fill="none"/><path d="M1401.47 1521h-2.94v-1.55h2.94z" stroke="#333" stroke-width=".05" fill="#333"/><path d="M1400 2557.93v4.54M1043.58 1520.95l-.1 29.38m-.1 29.37l-.2 58.76m-.1 29.37l-.2 58.76m-.1 29.36l-.2 58.75m-.1 29.4l-.2 58.74m-.1 29.38l-.2 58.75m-.1 29.38l-.2 58.75m-.1 29.38l-.18 58.75m-.1 29.38l-.2 58.76m-.1 29.38l-.2 58.75m-.1 29.36l-.2 58.76m-.1 29.37l-.2 58.75m-.1 29.37l-.1 29.38" stroke="#333" stroke-width="3" fill="none"/><path d="M1045.06 1521l-2.95-.02v-1.53h2.96z" stroke="#333" stroke-width=".05" fill="#333"/><path d="M1040 2578.46v1.54" stroke="#333" stroke-width="3" fill="none"/><path d="M1745.26 1668a8 8 0 0 1 8-8h24a8 8 0 0 1 8 8v84a8 8 0 0 1-8 8h-24a8 8 0 0 1-8-8zM1382 1648a8 8 0 0 1 8-8h24a8 8 0 0 1 8 8v224a8 8 0 0 1-8 8h-24a8 8 0 0 1-8-8zM1023.6 1628a8 8 0 0 1 8-8h24a8 8 0 0 1 8 8v864a8 8 0 0 1-8 8h-24a8 8 0 0 1-8-8z" stroke="#3a414a" stroke-width="3" fill="#41a1cd"/><path d="M760 1499.1v29.43m0 29.43v58.85m0 29.44v58.86m0 29.43v58.85m0 29.43v58.86m0 29.43v58.85m0 29.42v58.86m0 29.43v58.85m0 29.44v58.86m0 29.42v58.86m0 29.43v58.86m0 29.43v58.84m0 29.43v29.43M760 2558.46v1.54" stroke="#333" stroke-width="3" fill="none"/><path d="M948.55 1405.45a8 8 0 0 1 8-8h174.08a8 8 0 0 1 8 8v106a8 8 0 0 1-8 8H956.55a8 8 0 0 1-8-8z" stroke="#000" stroke-opacity="0" stroke-width="3" fill="#41a1cd"/><use xlink:href="#a" transform="matrix(1,0,0,1,956.5508274182996,1405.450156647517) translate(42.886284722222214 59.154513888888886)"/><use xlink:href="#b" transform="matrix(1,0,0,1,956.5508274182996,1405.450156647517) translate(84.70052083333333 59.154513888888886)"/><path d="M1309.38 1405.45a8 8 0 0 1 8-8h174.08a8 8 0 0 1 8 8v106a8 8 0 0 1-8 8h-174.08a8 8 0 0 1-8-8z" stroke="#000" stroke-opacity="0" stroke-width="3" fill="#41a1cd"/><use xlink:href="#c" transform="matrix(1,0,0,1,1317.3848257465197,1405.450156647517) translate(21.067708333333343 59.154513888888886)"/><use xlink:href="#d" transform="matrix(1,0,0,1,1317.3848257465197,1405.450156647517) translate(98.18576388888889 59.154513888888886)"/><path d="M1670.22 1405.45a8 8 0 0 1 8-8h174.07a8 8 0 0 1 8 8v106a8 8 0 0 1-8 8H1678.2a8 8 0 0 1-8-8z" stroke="#000" stroke-opacity="0" stroke-width="3" fill="#41a1cd"/><use xlink:href="#e" transform="matrix(1,0,0,1,1678.2188240747391,1405.450156647517) translate(48.75868055555556 59.154513888888886)"/><path d="M779.75 1419.75c0 10.9-8.84 19.75-19.75 19.75-10.9 0-19.75-8.84-19.75-19.75 0-10.9 8.84-19.75 19.75-19.75 10.9 0 19.75 8.84 19.75 19.75z" stroke="#333" stroke-width="3" fill="#41a1cd"/><path d="M760 1439.5v47.3a27.6 27.6 0 0 0 4.28 14.76L800 1558m-40-63.2l-40 63.2m0-98.75h80" stroke="#333" stroke-width="3" fill="none"/><path d="M720 1408a8 8 0 0 1 8-8h64a8 8 0 0 1 8 8v164a8 8 0 0 1-8 8h-64a8 8 0 0 1-8-8z" fill="none"/><use xlink:href="#f" transform="matrix(1,0,0,1,640,1558) translate(97.265625 17.15451388888889)"/><path d="M761.5 1649.27h129a.8.8 0 0 0 .8-.8.8.8 0 0 1 .8-.8h109.87M761.54 1649.27H760" stroke="#3a414a" stroke-width="3" fill="none"/><path d="M1017.73 1647.66l-14.26 4.64v-9.27z" stroke="#3a414a" stroke-width="3" fill="#3a414a"/><use xlink:href="#g" transform="matrix(1,0,0,1,869.7917246223849,1622.7264084770438) translate(0.004999999999999005 16.7080078125)"/><path d="M1000 1708a8 8 0 0 1 8-8h84a8 8 0 0 1 8 8v4.93a17.07 17.07 0 0 1-5 12.07 17.07 17.07 0 0 1-12.07 5H1008a8 8 0 0 1-8-8z" fill="#41a1cd"/><path d="M1100 1700v20l-10 10h-90" stroke="#3a414a" stroke-width="3" fill="none"/><path d="M1000 1708a8 8 0 0 1 8-8h424a8 8 0 0 1 8 8v144a8 8 0 0 1-8 8h-424a8 8 0 0 1-8-8zM1000 1782.16h20m15 0h20m15 0h20m15 0h20m15 0h20m15 0h20m15 0h20m15 0h20m15 0h20m15 0h20m15 0h20m15 0h20m15 0h20" stroke="#3a414a" stroke-width="3" fill="none"/><use xlink:href="#h" transform="matrix(1,0,0,1,1008,1700) translate(-6.865234374999943 21.231445312499993)"/><use xlink:href="#i" transform="matrix(1,0,0,1,1012,1738) translate(13.522949218750032 21.231445312499993)"/><use xlink:href="#j" transform="matrix(1,0,0,1,1012,1738) translate(30.60009765625001 21.231445312499993)"/><use xlink:href="#k" transform="matrix(1,0,0,1,1012,1790.162162162162) translate(16.256347656250025 21.231445312499993)"/><path d="M660 1610.72a8 8 0 0 1 8-8h84a8 8 0 0 1 8 8v4.93a17.07 17.07 0 0 1-5 12.07 17.07 17.07 0 0 1-12.07 5H668a8 8 0 0 1-8-8z" fill="#41a1cd"/><path d="M760 1602.72v20l-10 10h-90" stroke="#3a414a" stroke-width="3" fill="none"/><path d="M660 1610.72a8 8 0 0 1 8-8h424a8 8 0 0 1 8 8V2132a8 8 0 0 1-8 8H668a8 8 0 0 1-8-8zM660 1888.88h20m15 0h20m15 0h20m15 0h20m15 0h20m15 0h20m15 0h20m15 0h20m15 0h20m15 0h20m15 0h20m15 0h20m15 0h20" stroke="#3a414a" stroke-width="3" fill="none"/><use xlink:href="#l" transform="matrix(1,0,0,1,668,1602.7250783237585) translate(-0.9559461805554861 20.46213107638888)"/><use xlink:href="#m" transform="matrix(1,0,0,1,672,1640.7250783237585) translate(7.9780815972223 22.000759548611104)"/><use xlink:href="#n" transform="matrix(1,0,0,1,672,1640.7250783237585) translate(46.57606336805559 22.000759548611104)"/><use xlink:href="#o" transform="matrix(1,0,0,1,672,1640.7250783237585) translate(76.25770399305556 22.000759548611104)"/><use xlink:href="#p" transform="matrix(1,0,0,1,672,1896.8823735643653) translate(9.296386718750085 21.231445312499993)"/><use xlink:href="#q" transform="matrix(1,0,0,1,672,1896.8823735643653) translate(50.112792968750036 21.231445312499993)"/><use xlink:href="#r" transform="matrix(1,0,0,1,672,1896.8823735643653) translate(76.78759765625 21.231445312499993)"/><path d="M761.5 2026.4h128.66a.88.88 0 0 0 .88-.9.88.88 0 0 1 .88-.87h109.55M761.54 2026.4H760" stroke="#3a414a" stroke-width="3" fill="none"/><path d="M1017.23 2024.63l-14.26 4.64V2020z" stroke="#3a414a" stroke-width="3" fill="#3a414a"/><use xlink:href="#s" transform="matrix(1,0,0,1,845.5774220924375,2001.439996436524) translate(0.004999999999999005 16.70800781249998)"/><use xlink:href="#t" transform="matrix(1,0,0,1,845.5774220924375,2001.439996436524) translate(39.85460937499995 16.70800781249998)"/><path d="M2031.05 1408a8 8 0 0 1 8-8h174.08a8 8 0 0 1 8 8v106a8 8 0 0 1-8 8h-174.08a8 8 0 0 1-8-8z" stroke="#000" stroke-opacity="0" stroke-width="3" fill="#41a1cd"/><use xlink:href="#u" transform="matrix(1,0,0,1,2039.0528224029586,1408) translate(49.22309027777777 59.154513888888886)"/><use xlink:href="#v" transform="matrix(1,0,0,1,2039.0528224029586,1408) translate(72.90364583333333 59.154513888888886)"/><path d="M2120 1523.5v29.55m0 29.54v59.08m0 29.55v59.1m0 29.53v59.1m0 29.54v59.1m0 29.54v59.1m0 29.53v59.1m0 29.54v59.1m0 29.55v59.1m0 29.53v59.1m0 29.54v59.1m0 29.53v29.55" stroke="#333" stroke-width="3" fill="none"/><path d="M2121.47 1523.54h-2.94V1522h2.94z" stroke="#333" stroke-width=".05" fill="#333"/><path d="M2120 2498.46v1.54" stroke="#333" stroke-width="3" fill="none"/><path d="M1425 1678.1h158.03a.6.6 0 0 1 .6.6.6.6 0 0 0 .6.6h138.9" stroke="#3a414a" stroke-width="3" fill="none"/><path d="M1425.04 1679.57h-1.54v-2.95h1.54z" stroke="#3a414a" stroke-width=".05" fill="#3a414a"/><path d="M1738.9 1679.3l-14.26 4.62v-9.27z" stroke="#3a414a" stroke-width="3" fill="#3a414a"/><path d="M1460 1648a8 8 0 0 1 8-8h224a8 8 0 0 1 8 8v44a8 8 0 0 1-8 8h-224a8 8 0 0 1-8-8z" fill="none"/><use xlink:href="#w" transform="matrix(1,0,0,1,1460,1640) translate(59.86083984375007 36.23144531249999)"/><use xlink:href="#x" transform="matrix(1,0,0,1,1460,1640) translate(113.84326171875 36.23144531249999)"/><use xlink:href="#y" transform="matrix(1,0,0,1,1460,1640) translate(145.91455078124997 36.23144531249999)"/><path d="M1066.1 1664h155.3a1.14 1.14 0 0 0 1.15-1.14 1.14 1.14 0 0 1 1.14-1.15h136.18" stroke="#3a414a" stroke-width="3" fill="none"/><path d="M1066.13 1665.47h-1.04v-2.94h1.03z" stroke="#3a414a" stroke-width=".05" fill="#3a414a"/><path d="M1375.65 1661.7l-14.27 4.65v-9.27z" stroke="#3a414a" stroke-width="3" fill="#3a414a"/><use xlink:href="#z" transform="matrix(1,0,0,1,1175.1726077863414,1636.7678299007125) translate(0.005000000000002558 16.70800781249998)"/><use xlink:href="#A" transform="matrix(1,0,0,1,1175.1726077863414,1636.7678299007125) translate(55.61339843749993 16.70800781249998)"/><path d="M1379 1827.2h-17.3m-17.3 0h-34.6m-17.28 0h-34.6m-17.3 0h-17.3l-.12-.02-.12-.03-.1-.04-.1-.06-.1-.08-.1-.1-.05-.1-.05-.1-.02-.13v-.12l-.02-.1-.03-.13-.04-.1-.06-.12-.08-.1-.1-.07-.1-.06-.1-.05-.13-.03h-15.31m-15.18 0h-30.35m-15.17 0h-30.35m-15.17 0h-15.17" stroke="#3a414a" stroke-width="3" fill="none"/><path d="M1380.5 1828.67h-1.54v-2.95h1.54z" stroke="#3a414a" stroke-width=".05" fill="#3a414a"/><path d="M1069.44 1825.63l14.27-4.63v9.27z" stroke="#3a414a" stroke-width="3" fill="#3a414a"/><path d="M1104 1788a8 8 0 0 1 8-8h224a8 8 0 0 1 8 8v44a8 8 0 0 1-8 8h-224a8 8 0 0 1-8-8z" fill="none"/><use xlink:href="#B" transform="matrix(1,0,0,1,1104.005445647333,1780) translate(62.84912109375007 36.23144531249999)"/><use xlink:href="#C" transform="matrix(1,0,0,1,1104.005445647333,1780) translate(123.02783203125 36.23144531249999)"/><path d="M1066.6 2048.55h216.92a.13.13 0 0 1 .13.13.13.13 0 0 0 .14.14h76.58" stroke="#3a414a" stroke-width="3" fill="none"/><path d="M1066.63 2050.02h-1.54v-2.95h1.53z" stroke="#3a414a" stroke-width=".05" fill="#3a414a"/><path d="M1376.15 2048.8l-14.27 4.65v-9.27z" stroke="#3a414a" stroke-width="3" fill="#3a414a"/><path d="M1100 2008a8 8 0 0 1 8-8h224a8 8 0 0 1 8 8v44a8 8 0 0 1-8 8h-224a8 8 0 0 1-8-8z" fill="none"/><use xlink:href="#D" transform="matrix(1,0,0,1,1100,2000) translate(34.702148437500114 36.23144531249999)"/><use xlink:href="#E" transform="matrix(1,0,0,1,1100,2000) translate(73.80468750000006 36.23144531249999)"/><use xlink:href="#F" transform="matrix(1,0,0,1,1100,2000) translate(148.11621093749997 36.23144531249999)"/><path d="M1424.5 2079.43h299.13M1424.54 2079.43H1423" stroke="#3a414a" stroke-width="3" fill="none"/><path d="M1739.4 2079.43l-14.26 4.63v-9.27z" stroke="#3a414a" stroke-width="3" fill="#3a414a"/><path d="M1460 2048a8 8 0 0 1 8-8h224a8 8 0 0 1 8 8v44a8 8 0 0 1-8 8h-224a8 8 0 0 1-8-8z" fill="none"/><use xlink:href="#G" transform="matrix(1,0,0,1,1460,2040) translate(33.370605468750114 36.23144531249999)"/><use xlink:href="#H" transform="matrix(1,0,0,1,1460,2040) translate(70.27587890625007 36.23144531249999)"/><use xlink:href="#I" transform="matrix(1,0,0,1,1460,2040) translate(109.17626953125003 36.23144531249999)"/><use xlink:href="#J" transform="matrix(1,0,0,1,1460,2040) translate(130.21728515625 36.23144531249999)"/><path d="M1742.76 2115.2h-16.07m-16.08 0h-32.13m-16.08 0h-32.14m-16.07 0h-32.12m-16.07 0h-32.13m-16.06 0h-32.13m-16.07 0h-32.13m-16.07 0h-16.17l-.1.03-.1.04-.1.05-.07.07-.06.07-.06.1-.04.08-.02.1v.1l-.02.1-.02.1-.04.1-.05.1-.07.07-.08.07-.1.04-.08.04-.1.02h-15.26m-15.16 0h-30.32m-15.15 0h-30.32m-15.14 0h-30.32m-15.16 0h-30.3m-15.17 0h-30.3m-15.16 0h-30.32m-15.15 0h-15.16M1742.72 2115.2h1.54" stroke="#3a414a" stroke-width="3" fill="none"/><path d="M1069.94 2116.5l14.27-4.62v9.27z" stroke="#3a414a" stroke-width="3" fill="#3a414a"/><path d="M1104 2108a8 8 0 0 1 8-8h224a8 8 0 0 1 8 8v44a8 8 0 0 1-8 8h-224a8 8 0 0 1-8-8z" fill="none"/><use xlink:href="#K" transform="matrix(1,0,0,1,1104.005445647333,2100) translate(42.4980468750001 36.23144531249999)"/><use xlink:href="#L" transform="matrix(1,0,0,1,1104.005445647333,2100) translate(106.49121093750003 36.23144531249999)"/><path d="M761.5 2343.05h129.6a.2.2 0 0 0 .2-.2.2.2 0 0 1 .2-.18h110.47M761.54 2343.05H760" stroke="#3a414a" stroke-width="3" fill="none"/><path d="M1017.73 2342.67l-14.26 4.63v-9.27z" stroke="#3a414a" stroke-width="3" fill="#3a414a"/><use xlink:href="#M" transform="matrix(1,0,0,1,759.854832555302,2351.6824601495828) translate(0.0049999999999954525 16.70800781249998)"/><use xlink:href="#N" transform="matrix(1,0,0,1,759.854832555302,2351.6824601495828) translate(65.68566406249992 16.70800781249998)"/><use xlink:href="#O" transform="matrix(1,0,0,1,759.854832555302,2351.6824601495828) translate(123.93957031249985 16.70800781249998)"/><use xlink:href="#P" transform="matrix(1,0,0,1,759.854832555302,2351.6824601495828) translate(165.8018749999998 16.70800781249998)"/><use xlink:href="#Q" transform="matrix(1,0,0,1,759.854832555302,2351.6824601495828) translate(203.26964843749974 16.70800781249998)"/><path d="M1066.1 2356.48h294.28" stroke="#3a414a" stroke-width="3" fill="none"/><path d="M1066.13 2357.95h-1.04V2355h1.03z" stroke="#3a414a" stroke-width=".05" fill="#3a414a"/><path d="M1376.15 2356.48l-14.27 4.63v-9.26z" stroke="#3a414a" stroke-width="3" fill="#3a414a"/><path d="M1424.5 2369.07h336.06a.2.2 0 0 0 .2-.2.2.2 0 0 1 .18-.18h316.94M1424.54 2369.07H1423" stroke="#3a414a" stroke-width="3" fill="none"/><path d="M2093.65 2368.7l-14.27 4.63v-9.27z" stroke="#3a414a" stroke-width="3" fill="#3a414a"/><use xlink:href="#R" transform="matrix(1,0,0,1,1513.037374726944,2344.1192729765326) translate(0.0049999999999954525 16.70800781249998)"/><use xlink:href="#N" transform="matrix(1,0,0,1,1513.037374726944,2344.1192729765326) translate(45.09289062499994 16.70800781249998)"/><use xlink:href="#S" transform="matrix(1,0,0,1,1513.037374726944,2344.1192729765326) translate(103.34679687499987 16.70800781249998)"/><use xlink:href="#T" transform="matrix(1,0,0,1,1513.037374726944,2344.1192729765326) translate(124.38781249999984 16.70800781249998)"/><path d="M1100 2328a8 8 0 0 1 8-8h224a8 8 0 0 1 8 8v44a8 8 0 0 1-8 8h-224a8 8 0 0 1-8-8z" fill="none"/><use xlink:href="#w" transform="matrix(1,0,0,1,1100,2320) translate(66.21972656250006 36.23144531249999)"/><use xlink:href="#U" transform="matrix(1,0,0,1,1100,2320) translate(120.2021484375 36.23144531249999)"/><path d="M2097 2415.9h-17.18m-17.18 0h-34.35m-17.2 0h-34.34m-17.18 0h-17.18l-.02-.02v-.02h-15.08m-15.05 0h-30.1m-15.06 0h-30.12m-15.05 0h-15.05" stroke="#3a414a" stroke-width="3" fill="none"/><path d="M2098.5 2417.1l.02.27h-1.56v-2.95h1.54z" stroke="#3a414a" stroke-width=".05" fill="#3a414a"/><path d="M1791.1 2415.85l14.28-4.64v9.28z" stroke="#3a414a" stroke-width="3" fill="#3a414a"/><use xlink:href="#R" transform="matrix(1,0,0,1,1814.9012247090834,2419.8907838897076) translate(0.0049999999999954525 16.70800781249998)"/><use xlink:href="#V" transform="matrix(1,0,0,1,1814.9012247090834,2419.8907838897076) translate(45.09289062499994 16.70800781249998)"/><use xlink:href="#W" transform="matrix(1,0,0,1,1814.9012247090834,2419.8907838897076) translate(103.42589843749987 16.70800781249998)"/><use xlink:href="#S" transform="matrix(1,0,0,1,1814.9012247090834,2419.8907838897076) translate(157.5049999999998 16.70800781249998)"/><use xlink:href="#X" transform="matrix(1,0,0,1,1814.9012247090834,2419.8907838897076) translate(178.54601562499977 16.70800781249998)"/><path d="M1742.76 2432.04h-14.62m-14.6 0h-29.23m-14.6 0h-29.23m-14.6 0h-29.23m-14.62 0h-29.22m-14.6 0h-29.24m-14.6 0h-29.23m-14.62 0h-29.2m-14.62 0h-29.23m-14.6 0h-29.23m-14.62 0h-29.22m-14.6 0h-29.24m-14.6 0h-29.23m-14.6 0h-29.23m-14.6 0h-29.24m-14.6 0h-14.62M1742.72 2432.04h1.54" stroke="#3a414a" stroke-width="3" fill="none"/><path d="M1069.44 2432.04l14.27-4.64v9.27z" stroke="#3a414a" stroke-width="3" fill="#3a414a"/><use xlink:href="#Y" transform="matrix(1,0,0,1,1489.0663169440288,2407.085736321963) translate(0.0049999999999954525 16.70800781249998)"/><use xlink:href="#W" transform="matrix(1,0,0,1,1489.0663169440288,2407.085736321963) translate(49.95324218749993 16.70800781249998)"/><use xlink:href="#S" transform="matrix(1,0,0,1,1489.0663169440288,2407.085736321963) translate(104.03234374999987 16.70800781249998)"/><use xlink:href="#Z" transform="matrix(1,0,0,1,1489.0663169440288,2407.085736321963) translate(125.07335937499984 16.70800781249998)"/><path d="M1021.1 2448.33l-16.04.02m-16.03 0l-32.07.03m-16.03 0l-32.06.04m-16.03 0l-32.06.03m-16.03.02l-32.07.02m-16.03 0h-16.03" stroke="#3a414a" stroke-width="3" fill="none"/><path d="M1022.1 2449.8h-1.05v-2.94h1.04z" stroke="#3a414a" stroke-width=".05" fill="#3a414a"/><path d="M764.85 2448.53l14.27-4.65v9.27z" stroke="#3a414a" stroke-width="3" fill="#3a414a"/><use xlink:href="#Y" transform="matrix(1,0,0,1,765.9072762115032,2457.0795605502026) translate(0.0049999999999954525 16.70800781249998)"/><use xlink:href="#W" transform="matrix(1,0,0,1,765.9072762115032,2457.0795605502026) translate(49.95324218749993 16.70800781249998)"/><use xlink:href="#aa" transform="matrix(1,0,0,1,765.9072762115032,2457.0795605502026) translate(104.03234374999987 16.70800781249998)"/><use xlink:href="#ab" transform="matrix(1,0,0,1,765.9072762115032,2457.0795605502026) translate(148.76867187499982 16.70800781249998)"/><use xlink:href="#ac" transform="matrix(1,0,0,1,765.9072762115032,2457.0795605502026) translate(172.3145703124998 16.70800781249998)"/><path d="M1379 1760h-14m-13.98 0h-27.98m-14 0h-27.97m-14 0h-27.97m-14 0h-27.97m-14 0h-27.97m-14 0h-27.97m-14 0h-14" stroke="#3a414a" stroke-width="3" fill="none"/><path d="M1380.5 1761.47h-1.54v-2.94h1.54z" stroke="#3a414a" stroke-width=".05" fill="#3a414a"/><path d="M1069.44 1760l14.27-4.63v9.27z" stroke="#3a414a" stroke-width="3" fill="#3a414a"/><use xlink:href="#ad" transform="matrix(1,0,0,1,1151.8242753063005,1735.0468800903152) translate(0.0049999999999954525 16.70800781249998)"/><use xlink:href="#ae" transform="matrix(1,0,0,1,1151.8242753063005,1735.0468800903152) translate(53.16124999999993 16.70800781249998)"/><path d="M1742.26 1740.7l-14.2-.04m-14.2-.06l-28.4-.1m-14.2-.06l-28.38-.1m-14.2-.05l-28.4-.12m-14.2-.05l-28.38-.1m-14.2-.06l-28.4-.1m-14.2-.06l-28.38-.1m-14.2-.05l-14.2-.05" stroke="#3a414a" stroke-width="3" fill="none"/><path d="M1743.76 1739.24v2.95l-1.55-.02.02-2.95z" stroke="#3a414a" stroke-width=".05" fill="#3a414a"/><path d="M1428.36 1739.54l14.28-4.58-.04 9.27z" stroke="#3a414a" stroke-width="3" fill="#3a414a"/><path d="M1460 1708a8 8 0 0 1 8-8h224a8 8 0 0 1 8 8v44a8 8 0 0 1-8 8h-224a8 8 0 0 1-8-8z" fill="none"/><g><use xlink:href="#af" transform="matrix(1,0,0,1,1460,1700) translate(33.137695312500114 36.23144531249999)"/><use xlink:href="#ag" transform="matrix(1,0,0,1,1460,1700) translate(93.78222656250003 36.23144531249999)"/><use xlink:href="#ah" transform="matrix(1,0,0,1,1460,1700) translate(174.81738281249994 36.23144531249999)"/></g><path d="M1379.5 2167.6l-293.8 2.37M1379.46 2167.6l1.54-.02" stroke="#3a414a" stroke-width="3" fill="none"/><path d="M1069.94 2170.1l14.23-4.75.07 9.27z" stroke="#3a414a" stroke-width="3" fill="#3a414a"/><g><use xlink:href="#Y" transform="matrix(1,0,0,1,1098.9265346011618,2172.8135052378425) translate(0.0049999999999954525 16.70800781249998)"/><use xlink:href="#ai" transform="matrix(1,0,0,1,1098.9265346011618,2172.8135052378425) translate(49.95324218749993 16.70800781249998)"/><use xlink:href="#aj" transform="matrix(1,0,0,1,1098.9265346011618,2172.8135052378425) translate(161.40734374999982 16.70800781249998)"/><use xlink:href="#S" transform="matrix(1,0,0,1,1098.9265346011618,2172.8135052378425) translate(212.57726562499977 16.70800781249998)"/><use xlink:href="#ak" transform="matrix(1,0,0,1,1098.9265346011618,2172.8135052378425) translate(233.61828124999974 16.70800781249998)"/></g><path d="M1021.1 2190.97l-240.48.6" stroke="#3a414a" stroke-width="3" fill="none"/><path d="M1022.1 2192.44h-1.05v-2.94h1.04z" stroke="#3a414a" stroke-width=".05" fill="#3a414a"/><path d="M764.85 2191.6l14.26-4.67.03 9.27z" stroke="#3a414a" stroke-width="3" fill="#3a414a"/><g><use xlink:href="#al" transform="matrix(1,0,0,1,845.5473547888992,2195.2900627749796) translate(0.005000000000002558 16.70800781249998)"/><use xlink:href="#am" transform="matrix(1,0,0,1,845.5473547888992,2195.2900627749796) translate(46.006953124999946 16.70800781249998)"/></g><path d="M761.5 2234.7l16.03-.02m16.03-.04l32.07-.07m16.03-.03l32.06-.07m16.03-.04l32.06-.07m16.04-.03l32.07-.07m16.04-.04l16.03-.03M761.54 2234.7l-1.54.02" stroke="#3a414a" stroke-width="3" fill="none"/><path d="M1017.73 2234.16l-14.25 4.66-.02-9.27z" stroke="#3a414a" stroke-width="3" fill="#3a414a"/><g><use xlink:href="#an" transform="matrix(1,0,0,1,826.5355173380838,2238.460463094888) translate(0.005000000000002558 16.70800781249998)"/><use xlink:href="#ao" transform="matrix(1,0,0,1,826.5355173380838,2238.460463094888) translate(63.497187499999924 16.70800781249998)"/></g><path d="M1066.1 2248.54h294.28" stroke="#3a414a" stroke-width="3" fill="none"/><path d="M1066.13 2250h-1.04v-2.94h1.03z" stroke="#3a414a" stroke-width=".05" fill="#3a414a"/><path d="M1376.15 2248.54l-14.27 4.63v-9.27z" stroke="#3a414a" stroke-width="3" fill="#3a414a"/><g><use xlink:href="#ap" transform="matrix(1,0,0,1,1145.3990661255502,2223.583252469497) translate(0.0049999999999954525 16.70800781249998)"/><use xlink:href="#aq" transform="matrix(1,0,0,1,1145.3990661255502,2223.583252469497) translate(40.575312499999946 16.70800781249998)"/><use xlink:href="#S" transform="matrix(1,0,0,1,1145.3990661255502,2223.583252469497) translate(57.344843749999924 16.70800781249998)"/><use xlink:href="#X" transform="matrix(1,0,0,1,1145.3990661255502,2223.583252469497) translate(78.3858593749999 16.70800781249998)"/></g><path d="M1424.5 2259.5h299.14M1424.54 2259.5H1423" stroke="#3a414a" stroke-width="3" fill="none"/><path d="M1739.4 2259.5l-14.26 4.64v-9.28z" stroke="#3a414a" stroke-width="3" fill="#3a414a"/><g><use xlink:href="#ar" transform="matrix(1,0,0,1,1436.9663705750781,2229.911302260087) translate(0.0049999999999954525 16.70800781249998)"/><use xlink:href="#as" transform="matrix(1,0,0,1,1436.9663705750781,2229.911302260087) translate(54.620234374999924 16.70800781249998)"/><use xlink:href="#at" transform="matrix(1,0,0,1,1436.9663705750781,2229.911302260087) translate(129.72277343749982 16.70800781249998)"/><use xlink:href="#S" transform="matrix(1,0,0,1,1436.9663705750781,2229.911302260087) translate(172.77160156249977 16.70800781249998)"/><use xlink:href="#au" transform="matrix(1,0,0,1,1436.9663705750781,2229.911302260087) translate(193.81261718749974 16.70800781249998)"/><use xlink:href="#av" transform="matrix(1,0,0,1,1436.9663705750781,2229.911302260087) translate(236.14953124999968 16.70800781249998)"/></g><path d="M1742.76 2281.33h-299.14M1742.72 2281.33h1.54" stroke="#3a414a" stroke-width="3" fill="none"/><path d="M1427.86 2281.33l14.26-4.63v9.27z" stroke="#3a414a" stroke-width="3" fill="#3a414a"/><g><use xlink:href="#aw" transform="matrix(1,0,0,1,1496.9080145144767,2285.33335474698) translate(0.0049999999999954525 16.70800781249998)"/><use xlink:href="#ax" transform="matrix(1,0,0,1,1496.9080145144767,2285.33335474698) translate(60.64953124999992 16.70800781249998)"/></g><path d="M1379.5 2292h-294.3M1379.46 2292h1.54" stroke="#3a414a" stroke-width="3" fill="none"/><path d="M1069.44 2292l14.27-4.64v9.28z" stroke="#3a414a" stroke-width="3" fill="#3a414a"/><g><use xlink:href="#ay" transform="matrix(1,0,0,1,1128.0012868665212,2295.9999761435724) translate(0.0049999999999954525 16.70800781249998)"/><use xlink:href="#az" transform="matrix(1,0,0,1,1128.0012868665212,2295.9999761435724) translate(111.45910156249988 16.70800781249998)"/></g><path d="M1351.72 2528a8 8 0 0 1 8-8h80.56a8 8 0 0 1 8 8v73.86a8 8 0 0 1-8 8h-80.56a8 8 0 0 1-8-8z" fill="none"/><path d="M1361.38 2529l77.24 71.88m0-71.9l-77.24 71.9" stroke="#5d646f" stroke-width="8" fill="none"/><path d="M1382 2028a8 8 0 0 1 8-8h24a8 8 0 0 1 8 8v64a8 8 0 0 1-8 8h-24a8 8 0 0 1-8-8zM1380 2168a8 8 0 0 1 8-8h24a8 8 0 0 1 8 8v224a8 8 0 0 1-8 8h-24a8 8 0 0 1-8-8zM1745.26 2068a8 8 0 0 1 8-8h24a8 8 0 0 1 8 8v64a8 8 0 0 1-8 8h-24a8 8 0 0 1-8-8zM1745.26 2248a8 8 0 0 1 8-8h24a8 8 0 0 1 8 8v44a8 8 0 0 1-8 8h-24a8 8 0 0 1-8-8zM1745.26 2408a8 8 0 0 1 8-8h24a8 8 0 0 1 8 8v22.33a8 8 0 0 1-8 8h-24a8 8 0 0 1-8-8zM2100 2353.05a8 8 0 0 1 8-8h24a8 8 0 0 1 8 8v64a8 8 0 0 1-8 8h-24a8 8 0 0 1-8-8z" stroke="#3a414a" stroke-width="3" fill="#41a1cd"/><defs><path d="M887-864c2-112-62-153-174-148v-86h366v875c-3 108 66 141 174 137V0H928l-27-166h-10C829-49 733 21 559 20c-245-1-338-153-338-401v-491c2-108-66-143-174-140v-86h367v707c-1 168 46 283 215 280 191-4 258-139 258-331v-422" id="aA"/><path d="M834-301C834-70 665 20 430 20 250 20 92-26 92-197c0-88 47-135 129-141 1 157 63 257 221 260 156 3 257-97 214-252-47-85-142-109-240-157-153-75-310-122-310-340 0-212 169-289 386-289 130 0 232 36 280 116 31 53 24 126-20 162-26 22-62 33-109 33 0-130-49-217-176-217-120 1-195 48-195 164 0 149 143 163 254 217 154 74 308 124 308 340" id="aB"/><path d="M786-645c-4-191-36-363-223-363-76 0-134 30-175 92s-66 152-73 271h471zm123 393c43 21 51 90 17 136C862-29 744 20 588 20c-331 0-471-225-475-561-4-348 134-577 454-577 327 0 443 231 426 583H311c7 242 67 426 305 426 140 0 234-60 293-143" id="aC"/><path d="M434-223C430-95 529-79 659-86V0H68v-86c112 4 174-35 174-147v-639c2-108-66-143-174-140v-86h315l39 203h10c50-120 106-223 281-223 151 0 257 68 211 208-21 64-90 87-181 87-2-101-16-160-108-160-128 0-157 140-183 255-33 148-12 333-18 505" id="aD"/><g id="a"><use transform="matrix(0.008680555555555556,0,0,0.008680555555555556,0,0)" xlink:href="#aA"/><use transform="matrix(0.008680555555555556,0,0,0.008680555555555556,11.284722222222223,0)" xlink:href="#aB"/><use transform="matrix(0.008680555555555556,0,0,0.008680555555555556,19.305555555555557,0)" xlink:href="#aC"/><use transform="matrix(0.008680555555555556,0,0,0.008680555555555556,28.819444444444446,0)" xlink:href="#aD"/><path d="M-.9.9h43.6v.88H-.9z"/></g><path d="M946-553c0-230-32-430-254-434-242-4-278 193-278 436s40 440 280 440c221 0 252-212 252-442zm-219-565c321 0 418 237 418 567 0 331-96 571-418 571-163 0-254-75-313-180h-8c7 140 10 280 8 428-2 108 66 142 174 138v86H37v-86c118 6 184-32 184-148V-872c3-116-76-146-194-140v-86h358l21 185h8c57-116 142-205 313-205" id="aE"/><path d="M467-106c176 0 267-107 272-285v-166c-189 6-378 9-423 154-10 31-15 66-15 106 0 123 47 191 166 191zm272-535c5-199 13-375-190-375-142 0-190 83-187 223-106-2-174-27-174-129 0-169 191-191 369-196 250-7 375 104 375 354v531c-3 100 32 153 133 147V0H788l-32-176h-17C664-76 596 23 420 20 213 16 102-97 102-307c0-109 41-186 116-242 100-75 325-89 521-92" id="aF"/><path d="M434-223c-3 108 66 141 174 137V0H57v-86c118 6 185-31 185-147v-639c2-108-66-143-174-140v-86h331l27 166h10c63-113 148-188 320-186 244 3 343 152 344 401v484c-4 110 54 152 164 147V0H907v-707c0-170-55-282-225-280-187 3-248 145-248 332v432" id="aG"/><path d="M414-233c-4 120 72 154 194 147V0H27v-86c122 7 194-28 194-147v-1098c3-115-76-146-194-139v-86h387v1323" id="aH"/><g id="b"><use transform="matrix(0.008680555555555556,0,0,0.008680555555555556,0,0)" xlink:href="#aE"/><use transform="matrix(0.008680555555555556,0,0,0.008680555555555556,10.911458333333334,0)" xlink:href="#aF"/><use transform="matrix(0.008680555555555556,0,0,0.008680555555555556,20.92013888888889,0)" xlink:href="#aG"/><use transform="matrix(0.008680555555555556,0,0,0.008680555555555556,32.38715277777778,0)" xlink:href="#aC"/><use transform="matrix(0.008680555555555556,0,0,0.008680555555555556,41.90104166666667,0)" xlink:href="#aH"/><path d="M-.9.9h49.2v.88H-.9z"/></g><path d="M272-1237c3-115-76-146-194-139v-86c450 26 1075-122 1075 366 0 189-111 274-254 322v8c190 36 315 149 315 371 0 294-205 395-526 395H78v-86c122 7 194-27 194-147v-1004zm723 836c0-219-94-319-313-314H479v613h199c216 6 317-83 317-299zm-61-695c0-206-113-269-318-264H479v543h142c209 5 313-71 313-279" id="aI"/><path d="M893-256c39 28 47 103 13 150C845-22 730 20 580 20c-332 0-467-220-467-563 0-349 119-575 456-575 140 0 259 39 325 116 44 51 42 161-14 193-31 18-76 29-137 29-1-134-38-239-174-236-232 6-258 224-258 471 0 264 65 427 310 432 127 2 227-62 272-143" id="aJ"/><path d="M769-940c21-67-28-74-95-72v-86h452v86c-47 0-94 17-140 50-98 70-204 208-292 303l273 405c63 88 106 163 233 168V0c-163 2-281-2-352-92-100-127-191-290-283-428L414-408v185c-3 108 66 141 174 137V0H37v-86c117 6 184-31 184-147v-1098c2-112-70-144-184-139v-86h377c-3 350 7 709-8 1048 114-131 245-251 345-394 9-13 15-27 18-38" id="aK"/><path d="M844-1331c2-112-71-145-185-139v-86h377v1331c-2 112 71 145 185 139V0H874l-22-184h-8C786-68 701 20 530 20c-321 0-417-237-417-567 0-331 95-571 417-571 163 0 254 76 314 180h12c-10-128-14-255-12-393zM563-987c-219 0-252 212-252 442 0 145 20 254 59 326s104 108 195 108c242 2 279-192 279-436s-41-440-281-440" id="aL"/><g id="c"><use transform="matrix(0.008680555555555556,0,0,0.008680555555555556,0,0)" xlink:href="#aI"/><use transform="matrix(0.008680555555555556,0,0,0.008680555555555556,11.62326388888889,0)" xlink:href="#aF"/><use transform="matrix(0.008680555555555556,0,0,0.008680555555555556,21.631944444444443,0)" xlink:href="#aJ"/><use transform="matrix(0.008680555555555556,0,0,0.008680555555555556,30.381944444444443,0)" xlink:href="#aK"/><use transform="matrix(0.008680555555555556,0,0,0.008680555555555556,40.607638888888886,0)" xlink:href="#aC"/><use transform="matrix(0.008680555555555556,0,0,0.008680555555555556,50.12152777777777,0)" xlink:href="#aG"/><use transform="matrix(0.008680555555555556,0,0,0.008680555555555556,61.58854166666665,0)" xlink:href="#aL"/><path d="M-.9.9H78v.88H-.9z"/></g><path d="M1010-391c0 288-209 411-504 411-227 0-400-72-408-288-3-85 58-140 148-138 13 184 83 323 276 326 176 3 296-86 293-258-4-208-164-249-317-319-197-90-377-181-377-455 0-256 189-371 448-371 165 0 292 46 357 143 39 57 33 148-18 186-30 22-68 34-117 34-4-156-72-260-230-260-155 0-250 80-250 233 0 217 160 262 318 332 152 68 291 135 355 283 17 42 26 88 26 141" id="aM"/><path d="M886-871c30-101-37-149-145-141v-86h439v86c-127-12-147 70-181 160L676 0H489L160-903c-24-68-57-114-152-109v-86h512v86c-124-19-174 64-133 174 84 228 172 444 229 695h7c82-248 190-477 263-728" id="aN"/><g id="d"><use transform="matrix(0.008680555555555556,0,0,0.008680555555555556,0,0)" xlink:href="#aM"/><use transform="matrix(0.008680555555555556,0,0,0.008680555555555556,9.67013888888889,0)" xlink:href="#aC"/><use transform="matrix(0.008680555555555556,0,0,0.008680555555555556,19.18402777777778,0)" xlink:href="#aD"/><use transform="matrix(0.008680555555555556,0,0,0.008680555555555556,27.734375,0)" xlink:href="#aN"/><use transform="matrix(0.008680555555555556,0,0,0.008680555555555556,37.85590277777778,0)" xlink:href="#aC"/><use transform="matrix(0.008680555555555556,0,0,0.008680555555555556,47.36979166666667,0)" xlink:href="#aD"/><path d="M-.9.9h57.53v.88H-.9z"/></g><path d="M705-1462c450 9 667 274 667 729S1160 0 705 0H78v-86c122 7 194-27 194-147v-1004c3-115-76-146-194-139v-86h627zm440 729c2-374-134-623-486-627H479v1256h178c362-7 486-260 488-629" id="aO"/><path d="M387-291c-2 124 47 200 156 203 51 1 88-6 131-14v90C626 8 560 18 492 20 278 25 195-83 195-297v-684H39v-82c170-8 224-133 254-287h94v252h268v117H387v690" id="aP"/><path d="M727-1118c321 0 418 237 418 567 0 331-96 571-418 571-163 0-254-75-313-180h-13L365 0H37v-86c117 6 184-31 184-147v-1098c2-112-70-144-184-139v-86h377c-1 217 4 437-8 643h8c57-116 142-205 313-205zm219 565c0-230-32-430-254-434-242-4-278 193-278 436s40 440 280 440c221 0 252-212 252-442" id="aQ"/><g id="e"><use transform="matrix(0.008680555555555556,0,0,0.008680555555555556,0,0)" xlink:href="#aO"/><use transform="matrix(0.008680555555555556,0,0,0.008680555555555556,12.925347222222223,0)" xlink:href="#aF"/><use transform="matrix(0.008680555555555556,0,0,0.008680555555555556,22.760416666666668,0)" xlink:href="#aP"/><use transform="matrix(0.008680555555555556,0,0,0.008680555555555556,29.019097222222225,0)" xlink:href="#aF"/><use transform="matrix(0.008680555555555556,0,0,0.008680555555555556,39.02777777777778,0)" xlink:href="#aQ"/><use transform="matrix(0.008680555555555556,0,0,0.008680555555555556,49.939236111111114,0)" xlink:href="#aF"/><use transform="matrix(0.008680555555555556,0,0,0.008680555555555556,59.94791666666667,0)" xlink:href="#aB"/><use transform="matrix(0.008680555555555556,0,0,0.008680555555555556,67.96875,0)" xlink:href="#aC"/><path d="M-.9.9h79.27v.88H-.9z"/></g><path d="M322-226C292-111 376-75 500-86V0H0v-86c136 16 160-66 195-160l454-1216h160l463 1267c24 75 65 118 172 109V0H881v-86c113 10 195-27 165-133-27-93-63-180-94-270H414c-30 88-68 171-92 263zm593-366c-76-225-168-445-229-682-56 246-156 455-233 682h462" id="aR"/><path d="M594-1118c338 0 472 222 475 567 2 360-143 571-481 571S115-205 113-551c-2-359 142-567 481-567zm-4 108c-241 0-279 212-279 459 0 249 39 465 281 465s278-216 278-465c0-248-38-459-280-459" id="aS"/><g id="f"><use transform="matrix(0.008680555555555556,0,0,0.008680555555555556,0,0)" xlink:href="#aR"/><use transform="matrix(0.008680555555555556,0,0,0.008680555555555556,12.178819444444445,0)" xlink:href="#aJ"/><use transform="matrix(0.008680555555555556,0,0,0.008680555555555556,20.928819444444443,0)" xlink:href="#aP"/><use transform="matrix(0.008680555555555556,0,0,0.008680555555555556,26.831597222222218,0)" xlink:href="#aS"/><use transform="matrix(0.008680555555555556,0,0,0.008680555555555556,37.092013888888886,0)" xlink:href="#aD"/></g><path d="M956-1161c125-12 164 158 62 205-14 6-30 8-49 8 9-84-106-83-156-45 48 62 81 134 80 248-2 265-188 381-475 346-48 26-98 54-99 125-1 68 58 77 127 77h232c215 1 338 97 338 306 0 294-237 379-543 383-249 3-426-81-426-299C47 28 162-41 303-70c-62-29-113-79-113-168 0-105 57-142 134-192-112-50-185-152-185-309 0-249 134-379 385-379 97 0 179 25 234 67 49-50 103-100 198-110zM438-14c-139-3-225 52-225 194 0 158 102 212 264 211 212-1 363-46 371-248C856-58 624-10 438-14zm78-1004c-150 0-184 109-184 273 0 159 39 250 186 253 149 3 184-105 182-256-2-165-33-270-184-270" id="aT"/><path d="M434-233c-3 120 73 154 195 147V0H47v-86c118 6 195-21 195-137v-649c2-108-66-143-174-140v-86h366v865zM330-1303c-79 0-117-45-117-127s37-126 117-126c79 0 116 46 116 126 0 81-37 127-116 127" id="aU"/><g id="g"><use transform="matrix(0.0087890625,0,0,0.0087890625,0,0)" xlink:href="#aH"/><use transform="matrix(0.0087890625,0,0,0.0087890625,5.5810546875,0)" xlink:href="#aS"/><use transform="matrix(0.0087890625,0,0,0.0087890625,15.7939453125,0)" xlink:href="#aT"/><use transform="matrix(0.0087890625,0,0,0.0087890625,25.4794921875,0)" xlink:href="#aU"/><use transform="matrix(0.0087890625,0,0,0.0087890625,31.236328125,0)" xlink:href="#aG"/></g><g id="h"><use transform="matrix(0.00878906249999999,0,0,0.00878906249999999,0,0)" xlink:href="#aR"/><use transform="matrix(0.00878906249999999,0,0,0.00878906249999999,12.691406249999986,0)" xlink:href="#aH"/><use transform="matrix(0.00878906249999999,0,0,0.00878906249999999,18.27246093749998,0)" xlink:href="#aP"/><use transform="matrix(0.00878906249999999,0,0,0.00878906249999999,24.43359374999997,0)" xlink:href="#aC"/><use transform="matrix(0.00878906249999999,0,0,0.00878906249999999,34.06640624999996,0)" xlink:href="#aD"/><use transform="matrix(0.00878906249999999,0,0,0.00878906249999999,42.54785156249994,0)" xlink:href="#aG"/><use transform="matrix(0.00878906249999999,0,0,0.00878906249999999,54.15820312499993,0)" xlink:href="#aF"/><use transform="matrix(0.00878906249999999,0,0,0.00878906249999999,64.11621093749991,0)" xlink:href="#aP"/><use transform="matrix(0.00878906249999999,0,0,0.00878906249999999,70.45312499999991,0)" xlink:href="#aU"/><use transform="matrix(0.00878906249999999,0,0,0.00878906249999999,75.84960937499991,0)" xlink:href="#aN"/><use transform="matrix(0.00878906249999999,0,0,0.00878906249999999,86.0976562499999,0)" xlink:href="#aC"/></g><path d="M442-233C435-92 546-78 688-86V0H55v-86c123 7 195-27 195-147v-768H63v-97h187v-102c4-240 124-377 362-377 124 0 225 14 272 85 33 50 8 123-32 144-31 17-72 29-121 29-2-96-37-164-135-164-176 0-152 207-154 385h289v97H442v768" id="aV"/><g id="i"><use transform="matrix(0.00878906249999999,0,0,0.00878906249999999,0,0)" xlink:href="#aU"/><use transform="matrix(0.00878906249999999,0,0,0.00878906249999999,5.756835937499993,0)" xlink:href="#aV"/></g><g id="j"><use transform="matrix(0.00878906249999999,0,0,0.00878906249999999,0,0)" xlink:href="#aP"/><use transform="matrix(0.00878906249999999,0,0,0.00878906249999999,6.336914062499993,0)" xlink:href="#aD"/><use transform="matrix(0.00878906249999999,0,0,0.00878906249999999,14.818359374999982,0)" xlink:href="#aA"/><use transform="matrix(0.00878906249999999,0,0,0.00878906249999999,26.244140624999968,0)" xlink:href="#aC"/></g><path d="M406 29c-9 145 111 155 256 147v86H205v-1818h457v86c-145-8-256 1-256 147V29" id="aW"/><path d="M272-1229c4-120-72-154-194-147v-86h1032l10 358h-106c-7-141-39-256-191-256H479v545h494v100H479v613h395c120 0 178-65 195-168l14-88h107L1176 0H78v-86c117 6 194-21 194-137v-1006" id="aX"/><path d="M332-1323c2-109-60-150-168-147H76v-86h456V262H76v-86c145 8 256-2 256-147v-1352" id="aY"/><g id="k"><use transform="matrix(0.00878906249999999,0,0,0.00878906249999999,0,0)" xlink:href="#aW"/><use transform="matrix(0.00878906249999999,0,0,0.00878906249999999,6.459960937499992,0)" xlink:href="#aX"/><use transform="matrix(0.00878906249999999,0,0,0.00878906249999999,17.67480468749998,0)" xlink:href="#aH"/><use transform="matrix(0.00878906249999999,0,0,0.00878906249999999,23.25585937499997,0)" xlink:href="#aB"/><use transform="matrix(0.00878906249999999,0,0,0.00878906249999999,31.376953124999964,0)" xlink:href="#aC"/><use transform="matrix(0.00878906249999999,0,0,0.00878906249999999,41.00976562499996,0)" xlink:href="#aY"/></g><g id="l"><use transform="matrix(0.007703993055555544,0,0,0.007703993055555544,0,0)" xlink:href="#aR"/><use transform="matrix(0.007703993055555544,0,0,0.007703993055555544,11.124565972222205,0)" xlink:href="#aH"/><use transform="matrix(0.007703993055555544,0,0,0.007703993055555544,16.016601562499975,0)" xlink:href="#aP"/><use transform="matrix(0.007703993055555544,0,0,0.007703993055555544,21.41710069444441,0)" xlink:href="#aC"/><use transform="matrix(0.007703993055555544,0,0,0.007703993055555544,29.860677083333286,0)" xlink:href="#aD"/><use transform="matrix(0.007703993055555544,0,0,0.007703993055555544,37.295030381944386,0)" xlink:href="#aG"/><use transform="matrix(0.007703993055555544,0,0,0.007703993055555544,47.47200520833326,0)" xlink:href="#aF"/><use transform="matrix(0.007703993055555544,0,0,0.007703993055555544,56.200629340277686,0)" xlink:href="#aP"/><use transform="matrix(0.007703993055555544,0,0,0.007703993055555544,61.755208333333236,0)" xlink:href="#aU"/><use transform="matrix(0.007703993055555544,0,0,0.007703993055555544,66.48546006944434,0)" xlink:href="#aN"/><use transform="matrix(0.007703993055555544,0,0,0.007703993055555544,75.4683159722221,0)" xlink:href="#aC"/></g><path d="M414-223c-3 108 66 141 174 137V0H37v-86c117 6 184-31 184-147v-1098c2-112-70-144-184-139v-86h377c-3 208 7 429-8 624h10c61-124 162-186 301-186 253 1 362 144 362 401v484c-3 110 54 152 164 147V0H887v-707c0-170-55-283-225-280-186 3-248 143-248 332v432" id="aZ"/><g id="m"><use transform="matrix(0.009874131944444434,0,0,0.009874131944444434,0,0)" xlink:href="#aZ"/><use transform="matrix(0.009874131944444434,0,0,0.009874131944444434,12.836371527777764,0)" xlink:href="#aF"/><use transform="matrix(0.009874131944444434,0,0,0.009874131944444434,24.221245659722197,0)" xlink:href="#aB"/></g><g id="n"><use transform="matrix(0.009874131944444434,0,0,0.009874131944444434,0,0)" xlink:href="#aF"/><use transform="matrix(0.009874131944444434,0,0,0.009874131944444434,11.384874131944432,0)" xlink:href="#aG"/></g><g id="o"><use transform="matrix(0.009874131944444434,0,0,0.009874131944444434,0,0)" xlink:href="#aF"/><use transform="matrix(0.009874131944444434,0,0,0.009874131944444434,11.384874131944432,0)" xlink:href="#aJ"/><use transform="matrix(0.009874131944444434,0,0,0.009874131944444434,21.33799913194442,0)" xlink:href="#aJ"/><use transform="matrix(0.009874131944444434,0,0,0.009874131944444434,31.29112413194441,0)" xlink:href="#aS"/><use transform="matrix(0.009874131944444434,0,0,0.009874131944444434,42.96234809027773,0)" xlink:href="#aA"/><use transform="matrix(0.009874131944444434,0,0,0.009874131944444434,55.79871961805549,0)" xlink:href="#aG"/><use transform="matrix(0.009874131944444434,0,0,0.009874131944444434,68.6449652777777,0)" xlink:href="#aP"/></g><g id="p"><use transform="matrix(0.00878906249999999,0,0,0.00878906249999999,0,0)" xlink:href="#aW"/><use transform="matrix(0.00878906249999999,0,0,0.00878906249999999,6.459960937499992,0)" xlink:href="#aZ"/><use transform="matrix(0.00878906249999999,0,0,0.00878906249999999,17.88574218749998,0)" xlink:href="#aF"/><use transform="matrix(0.00878906249999999,0,0,0.00878906249999999,28.019531249999964,0)" xlink:href="#aB"/></g><g id="q"><use transform="matrix(0.00878906249999999,0,0,0.00878906249999999,0,0)" xlink:href="#aG"/><use transform="matrix(0.00878906249999999,0,0,0.00878906249999999,11.610351562499986,0)" xlink:href="#aS"/></g><g id="r"><use transform="matrix(0.00878906249999999,0,0,0.00878906249999999,0,0)" xlink:href="#aF"/><use transform="matrix(0.00878906249999999,0,0,0.00878906249999999,10.133789062499988,0)" xlink:href="#aJ"/><use transform="matrix(0.00878906249999999,0,0,0.00878906249999999,18.99316406249998,0)" xlink:href="#aJ"/><use transform="matrix(0.00878906249999999,0,0,0.00878906249999999,27.852539062499968,0)" xlink:href="#aS"/><use transform="matrix(0.00878906249999999,0,0,0.00878906249999999,38.24121093749996,0)" xlink:href="#aA"/><use transform="matrix(0.00878906249999999,0,0,0.00878906249999999,49.66699218749994,0)" xlink:href="#aG"/><use transform="matrix(0.00878906249999999,0,0,0.00878906249999999,61.10156249999993,0)" xlink:href="#aP"/><use transform="matrix(0.00878906249999999,0,0,0.00878906249999999,67.43847656249991,0)" xlink:href="#aY"/></g><g id="s"><use transform="matrix(0.00878906249999999,0,0,0.00878906249999999,0,0)" xlink:href="#aB"/><use transform="matrix(0.00878906249999999,0,0,0.00878906249999999,8.121093749999991,0)" xlink:href="#aU"/><use transform="matrix(0.00878906249999999,0,0,0.00878906249999999,13.877929687499984,0)" xlink:href="#aT"/><use transform="matrix(0.00878906249999999,0,0,0.00878906249999999,23.56347656249997,0)" xlink:href="#aG"/></g><g id="t"><use transform="matrix(0.00878906249999999,0,0,0.00878906249999999,0,0)" xlink:href="#aA"/><use transform="matrix(0.00878906249999999,0,0,0.00878906249999999,11.425781249999986,0)" xlink:href="#aE"/></g><path d="M479-233c-3 120 73 154 195 147V0H78v-86c122 7 194-27 194-147v-996c4-120-72-154-194-147v-86h596v86c-122-7-195 27-195 147v996" id="ba"/><g id="u"><use transform="matrix(0.008680555555555556,0,0,0.008680555555555556,0,0)" xlink:href="#aR"/><use transform="matrix(0.008680555555555556,0,0,0.008680555555555556,12.534722222222223,0)" xlink:href="#ba"/><path d="M-.9.9h25.47v.88H-.9z"/></g><path d="M1649-233c-4 120 72 154 194 147V0h-545v-86c102 5 154-32 154-129v-1094L983 0H872L397-1305v1072c-4 108 46 153 154 147V0H78v-86c117 6 194-21 194-137v-1014c3-115-76-146-194-139v-86h467L969-291l420-1171h454v86c-122-7-194 27-194 147v996" id="bb"/><g id="v"><use transform="matrix(0.008680555555555556,0,0,0.008680555555555556,0,0)" xlink:href="#bb"/><use transform="matrix(0.008680555555555556,0,0,0.008680555555555556,16.67534722222222,0)" xlink:href="#aS"/><use transform="matrix(0.008680555555555556,0,0,0.008680555555555556,26.93576388888889,0)" xlink:href="#aL"/><use transform="matrix(0.008680555555555556,0,0,0.008680555555555556,37.84722222222222,0)" xlink:href="#aC"/><use transform="matrix(0.008680555555555556,0,0,0.008680555555555556,47.361111111111114,0)" xlink:href="#aH"/><path d="M-.9.9h54.66v.88H-.9z"/></g><g id="w"><use transform="matrix(0.00878906249999999,0,0,0.00878906249999999,0,0)" xlink:href="#aJ"/><use transform="matrix(0.00878906249999999,0,0,0.00878906249999999,8.85937499999999,0)" xlink:href="#aZ"/><use transform="matrix(0.00878906249999999,0,0,0.00878906249999999,20.285156249999975,0)" xlink:href="#aC"/><use transform="matrix(0.00878906249999999,0,0,0.00878906249999999,29.917968749999964,0)" xlink:href="#aJ"/><use transform="matrix(0.00878906249999999,0,0,0.00878906249999999,38.77734374999996,0)" xlink:href="#aK"/></g><g id="x"><use transform="matrix(0.00878906249999999,0,0,0.00878906249999999,0,0)" xlink:href="#aP"/><use transform="matrix(0.00878906249999999,0,0,0.00878906249999999,6.336914062499993,0)" xlink:href="#aZ"/><use transform="matrix(0.00878906249999999,0,0,0.00878906249999999,17.76269531249998,0)" xlink:href="#aC"/></g><g id="y"><use transform="matrix(0.00878906249999999,0,0,0.00878906249999999,0,0)" xlink:href="#aU"/><use transform="matrix(0.00878906249999999,0,0,0.00878906249999999,5.756835937499993,0)" xlink:href="#aG"/><use transform="matrix(0.00878906249999999,0,0,0.00878906249999999,17.36718749999998,0)" xlink:href="#aV"/><use transform="matrix(0.00878906249999999,0,0,0.00878906249999999,23.83593749999997,0)" xlink:href="#aS"/></g><path d="M868-871c27-98-34-147-137-141v-86h426v86c-114-4-130 76-162 160C865-510 751-153 616 182c-65 163-156 280-360 302-50 6-113 8-178 8v-97c285-2 394-182 461-403L160-903c-28-65-56-114-152-109v-86h492v86c-114-14-152 77-113 174 88 217 187 419 248 662h6c62-238 163-461 227-695" id="bc"/><g id="z"><use transform="matrix(0.00878906249999999,0,0,0.00878906249999999,0,0)" xlink:href="#aN"/><use transform="matrix(0.00878906249999999,0,0,0.00878906249999999,10.248046874999988,0)" xlink:href="#aC"/><use transform="matrix(0.00878906249999999,0,0,0.00878906249999999,19.88085937499998,0)" xlink:href="#aD"/><use transform="matrix(0.00878906249999999,0,0,0.00878906249999999,28.362304687499968,0)" xlink:href="#aU"/><use transform="matrix(0.00878906249999999,0,0,0.00878906249999999,34.11914062499996,0)" xlink:href="#aV"/><use transform="matrix(0.00878906249999999,0,0,0.00878906249999999,40.76367187499995,0)" xlink:href="#bc"/></g><path d="M293 14c-88 0-129-49-129-139 0-91 41-139 129-139 87 0 129 49 129 139-1 89-42 139-129 139" id="bd"/><g id="A"><use transform="matrix(0.00878906249999999,0,0,0.00878906249999999,0,0)" xlink:href="#aU"/><use transform="matrix(0.00878906249999999,0,0,0.00878906249999999,5.756835937499993,0)" xlink:href="#aG"/><use transform="matrix(0.00878906249999999,0,0,0.00878906249999999,17.36718749999998,0)" xlink:href="#aV"/><use transform="matrix(0.00878906249999999,0,0,0.00878906249999999,23.83593749999997,0)" xlink:href="#aS"/><use transform="matrix(0.00878906249999999,0,0,0.00878906249999999,33.86425781249996,0)" xlink:href="#bd"/></g><path d="M508-1012c-85 0-151 4-150 86 0 28 11 63 17 88 59 216 125 426 168 658h6c20-100 53-202 84-293l213-619h129c98 304 212 592 293 912h6c46-231 140-457 196-684 26-106-33-156-145-148v-86h438v86c-127-12-151 65-180 160L1319 0h-164L911-721l-37-135L584 0H422L154-903c-24-68-57-114-152-109v-86h506v86" id="be"/><g id="B"><use transform="matrix(0.00878906249999999,0,0,0.00878906249999999,0,0)" xlink:href="#be"/><use transform="matrix(0.00878906249999999,0,0,0.00878906249999999,15.512695312499982,0)" xlink:href="#aD"/><use transform="matrix(0.00878906249999999,0,0,0.00878906249999999,23.81835937499997,0)" xlink:href="#aS"/><use transform="matrix(0.00878906249999999,0,0,0.00878906249999999,34.20703124999996,0)" xlink:href="#aG"/><use transform="matrix(0.00878906249999999,0,0,0.00878906249999999,45.81738281249994,0)" xlink:href="#aT"/></g><g id="C"><use transform="matrix(0.00878906249999999,0,0,0.00878906249999999,0,0)" xlink:href="#aU"/><use transform="matrix(0.00878906249999999,0,0,0.00878906249999999,5.756835937499993,0)" xlink:href="#aG"/><use transform="matrix(0.00878906249999999,0,0,0.00878906249999999,17.19140624999998,0)" xlink:href="#aE"/><use transform="matrix(0.00878906249999999,0,0,0.00878906249999999,28.23925781249996,0)" xlink:href="#aA"/><use transform="matrix(0.00878906249999999,0,0,0.00878906249999999,39.66503906249995,0)" xlink:href="#aP"/><use transform="matrix(0.00878906249999999,0,0,0.00878906249999999,46.00195312499994,0)" xlink:href="#aB"/></g><g id="D"><use transform="matrix(0.00878906249999999,0,0,0.00878906249999999,0,0)" xlink:href="#aR"/><use transform="matrix(0.00878906249999999,0,0,0.00878906249999999,12.331054687499986,0)" xlink:href="#aL"/><use transform="matrix(0.00878906249999999,0,0,0.00878906249999999,23.37890624999997,0)" xlink:href="#aL"/></g><g id="E"><use transform="matrix(0.00878906249999999,0,0,0.00878906249999999,0,0)" xlink:href="#aR"/><use transform="matrix(0.00878906249999999,0,0,0.00878906249999999,12.331054687499986,0)" xlink:href="#aJ"/><use transform="matrix(0.00878906249999999,0,0,0.00878906249999999,21.190429687499975,0)" xlink:href="#aJ"/><use transform="matrix(0.00878906249999999,0,0,0.00878906249999999,30.049804687499964,0)" xlink:href="#aS"/><use transform="matrix(0.00878906249999999,0,0,0.00878906249999999,40.43847656249995,0)" xlink:href="#aA"/><use transform="matrix(0.00878906249999999,0,0,0.00878906249999999,51.864257812499936,0)" xlink:href="#aG"/><use transform="matrix(0.00878906249999999,0,0,0.00878906249999999,63.29882812499992,0)" xlink:href="#aP"/></g><g id="F"><use transform="matrix(0.00878906249999999,0,0,0.00878906249999999,0,0)" xlink:href="#aE"/><use transform="matrix(0.00878906249999999,0,0,0.00878906249999999,11.047851562499988,0)" xlink:href="#aD"/><use transform="matrix(0.00878906249999999,0,0,0.00878906249999999,19.35351562499998,0)" xlink:href="#aS"/><use transform="matrix(0.00878906249999999,0,0,0.00878906249999999,29.566406249999964,0)" xlink:href="#aV"/><use transform="matrix(0.00878906249999999,0,0,0.00878906249999999,36.21093749999996,0)" xlink:href="#aU"/><use transform="matrix(0.00878906249999999,0,0,0.00878906249999999,41.96777343749995,0)" xlink:href="#aH"/><use transform="matrix(0.00878906249999999,0,0,0.00878906249999999,47.54882812499994,0)" xlink:href="#aC"/></g><g id="G"><use transform="matrix(0.00878906249999999,0,0,0.00878906249999999,0,0)" xlink:href="#aF"/><use transform="matrix(0.00878906249999999,0,0,0.00878906249999999,10.133789062499988,0)" xlink:href="#aL"/><use transform="matrix(0.00878906249999999,0,0,0.00878906249999999,21.181640624999975,0)" xlink:href="#aL"/></g><g id="H"><use transform="matrix(0.00878906249999999,0,0,0.00878906249999999,0,0)" xlink:href="#aU"/><use transform="matrix(0.00878906249999999,0,0,0.00878906249999999,5.756835937499993,0)" xlink:href="#aG"/><use transform="matrix(0.00878906249999999,0,0,0.00878906249999999,17.36718749999998,0)" xlink:href="#aV"/><use transform="matrix(0.00878906249999999,0,0,0.00878906249999999,23.83593749999997,0)" xlink:href="#aS"/></g><g id="I"><use transform="matrix(0.00878906249999999,0,0,0.00878906249999999,0,0)" xlink:href="#aP"/><use transform="matrix(0.00878906249999999,0,0,0.00878906249999999,5.976562499999993,0)" xlink:href="#aS"/></g><g id="J"><use transform="matrix(0.00878906249999999,0,0,0.00878906249999999,0,0)" xlink:href="#aL"/><use transform="matrix(0.00878906249999999,0,0,0.00878906249999999,11.047851562499988,0)" xlink:href="#aF"/><use transform="matrix(0.00878906249999999,0,0,0.00878906249999999,21.005859374999975,0)" xlink:href="#aP"/><use transform="matrix(0.00878906249999999,0,0,0.00878906249999999,27.342773437499968,0)" xlink:href="#aF"/><use transform="matrix(0.00878906249999999,0,0,0.00878906249999999,37.47656249999996,0)" xlink:href="#aQ"/><use transform="matrix(0.00878906249999999,0,0,0.00878906249999999,48.52441406249994,0)" xlink:href="#aF"/><use transform="matrix(0.00878906249999999,0,0,0.00878906249999999,58.65820312499993,0)" xlink:href="#aB"/><use transform="matrix(0.00878906249999999,0,0,0.00878906249999999,66.77929687499991,0)" xlink:href="#aC"/></g><g id="K"><use transform="matrix(0.00878906249999999,0,0,0.00878906249999999,0,0)" xlink:href="#aM"/><use transform="matrix(0.00878906249999999,0,0,0.00878906249999999,9.791015624999988,0)" xlink:href="#aU"/><use transform="matrix(0.00878906249999999,0,0,0.00878906249999999,15.54785156249998,0)" xlink:href="#aT"/><use transform="matrix(0.00878906249999999,0,0,0.00878906249999999,25.23339843749997,0)" xlink:href="#aG"/><use transform="matrix(0.00878906249999999,0,0,0.00878906249999999,36.84374999999996,0)" xlink:href="#aA"/><use transform="matrix(0.00878906249999999,0,0,0.00878906249999999,48.26953124999994,0)" xlink:href="#aE"/></g><path d="M1141-289c47 27 51 110 13 159C1076-28 927 20 739 20c-439 0-622-310-622-753 0-346 130-585 372-695 199-90 579-71 673 84 39 64 27 161-25 196-32 21-74 38-127 38-5-158-78-264-240-264-349 0-426 285-426 641 0 266 62 478 232 573 54 30 119 45 194 45 183 1 293-72 371-174" id="bf"/><path d="M434-223c-3 108 66 141 174 137V0H57v-86c121 8 185-28 185-147v-639c3-106-58-144-164-140v-86h321l27 166h10c60-112 141-188 309-186 158 2 252 69 297 186h17c61-114 150-188 321-186 240 3 333 155 334 401v484c-3 110 54 152 164 147V0h-356v-707c0-166-49-282-215-280-172 2-228 132-228 305v449c-3 110 54 152 164 147V0H887v-707c0-166-49-282-215-280-182 3-238 148-238 332v432" id="bg"/><g id="L"><use transform="matrix(0.00878906249999999,0,0,0.00878906249999999,0,0)" xlink:href="#bf"/><use transform="matrix(0.00878906249999999,0,0,0.00878906249999999,10.687499999999988,0)" xlink:href="#aS"/><use transform="matrix(0.00878906249999999,0,0,0.00878906249999999,21.076171874999975,0)" xlink:href="#bg"/><use transform="matrix(0.00878906249999999,0,0,0.00878906249999999,37.90722656249996,0)" xlink:href="#aE"/><use transform="matrix(0.00878906249999999,0,0,0.00878906249999999,48.95507812499994,0)" xlink:href="#aH"/><use transform="matrix(0.00878906249999999,0,0,0.00878906249999999,54.536132812499936,0)" xlink:href="#aC"/><use transform="matrix(0.00878906249999999,0,0,0.00878906249999999,64.16894531249993,0)" xlink:href="#aP"/><use transform="matrix(0.00878906249999999,0,0,0.00878906249999999,70.33007812499991,0)" xlink:href="#aC"/><use transform="matrix(0.00878906249999999,0,0,0.00878906249999999,79.9628906249999,0)" xlink:href="#aL"/></g><g id="M"><use transform="matrix(0.00878906249999999,0,0,0.00878906249999999,0,0)" xlink:href="#bf"/><use transform="matrix(0.00878906249999999,0,0,0.00878906249999999,11.047851562499988,0)" xlink:href="#aZ"/><use transform="matrix(0.00878906249999999,0,0,0.00878906249999999,22.473632812499975,0)" xlink:href="#aS"/><use transform="matrix(0.00878906249999999,0,0,0.00878906249999999,32.86230468749996,0)" xlink:href="#aS"/><use transform="matrix(0.00878906249999999,0,0,0.00878906249999999,43.25097656249994,0)" xlink:href="#aB"/><use transform="matrix(0.00878906249999999,0,0,0.00878906249999999,51.372070312499936,0)" xlink:href="#aC"/></g><g id="N"><use transform="matrix(0.00878906249999999,0,0,0.00878906249999999,0,0)" xlink:href="#bg"/><use transform="matrix(0.00878906249999999,0,0,0.00878906249999999,17.00683593749998,0)" xlink:href="#aC"/><use transform="matrix(0.00878906249999999,0,0,0.00878906249999999,26.639648437499968,0)" xlink:href="#aL"/><use transform="matrix(0.00878906249999999,0,0,0.00878906249999999,37.68749999999996,0)" xlink:href="#aU"/><use transform="matrix(0.00878906249999999,0,0,0.00878906249999999,43.44433593749995,0)" xlink:href="#aF"/></g><g id="O"><use transform="matrix(0.00878906249999999,0,0,0.00878906249999999,0,0)" xlink:href="#aP"/><use transform="matrix(0.00878906249999999,0,0,0.00878906249999999,6.336914062499993,0)" xlink:href="#bc"/><use transform="matrix(0.00878906249999999,0,0,0.00878906249999999,16.50585937499998,0)" xlink:href="#aE"/><use transform="matrix(0.00878906249999999,0,0,0.00878906249999999,27.553710937499964,0)" xlink:href="#aC"/></g><g id="P"><use transform="matrix(0.00878906249999999,0,0,0.00878906249999999,0,0)" xlink:href="#aF"/><use transform="matrix(0.00878906249999999,0,0,0.00878906249999999,10.133789062499988,0)" xlink:href="#aG"/><use transform="matrix(0.00878906249999999,0,0,0.00878906249999999,21.74414062499997,0)" xlink:href="#aL"/></g><g id="Q"><use transform="matrix(0.00878906249999999,0,0,0.00878906249999999,0,0)" xlink:href="#aA"/><use transform="matrix(0.00878906249999999,0,0,0.00878906249999999,11.425781249999986,0)" xlink:href="#aE"/><use transform="matrix(0.00878906249999999,0,0,0.00878906249999999,22.473632812499975,0)" xlink:href="#aH"/><use transform="matrix(0.00878906249999999,0,0,0.00878906249999999,28.054687499999964,0)" xlink:href="#aS"/><use transform="matrix(0.00878906249999999,0,0,0.00878906249999999,38.44335937499994,0)" xlink:href="#aF"/><use transform="matrix(0.00878906249999999,0,0,0.00878906249999999,48.577148437499936,0)" xlink:href="#aL"/></g><g id="R"><use transform="matrix(0.00878906249999999,0,0,0.00878906249999999,0,0)" xlink:href="#aB"/><use transform="matrix(0.00878906249999999,0,0,0.00878906249999999,8.121093749999991,0)" xlink:href="#aC"/><use transform="matrix(0.00878906249999999,0,0,0.00878906249999999,17.75390624999998,0)" xlink:href="#aG"/><use transform="matrix(0.00878906249999999,0,0,0.00878906249999999,29.364257812499964,0)" xlink:href="#aL"/></g><g id="S"><use transform="matrix(0.00878906249999999,0,0,0.00878906249999999,0,0)" xlink:href="#aP"/><use transform="matrix(0.00878906249999999,0,0,0.00878906249999999,5.976562499999993,0)" xlink:href="#aS"/></g><g id="T"><use transform="matrix(0.00878906249999999,0,0,0.00878906249999999,0,0)" xlink:href="#bg"/><use transform="matrix(0.00878906249999999,0,0,0.00878906249999999,17.00683593749998,0)" xlink:href="#aS"/><use transform="matrix(0.00878906249999999,0,0,0.00878906249999999,27.395507812499964,0)" xlink:href="#aL"/><use transform="matrix(0.00878906249999999,0,0,0.00878906249999999,38.44335937499994,0)" xlink:href="#aC"/><use transform="matrix(0.00878906249999999,0,0,0.00878906249999999,48.07617187499994,0)" xlink:href="#aH"/></g><g id="U"><use transform="matrix(0.00878906249999999,0,0,0.00878906249999999,0,0)" xlink:href="#bg"/><use transform="matrix(0.00878906249999999,0,0,0.00878906249999999,17.00683593749998,0)" xlink:href="#aC"/><use transform="matrix(0.00878906249999999,0,0,0.00878906249999999,26.639648437499968,0)" xlink:href="#aL"/><use transform="matrix(0.00878906249999999,0,0,0.00878906249999999,37.68749999999996,0)" xlink:href="#aU"/><use transform="matrix(0.00878906249999999,0,0,0.00878906249999999,43.44433593749995,0)" xlink:href="#aF"/></g><g id="V"><use transform="matrix(0.00878906249999999,0,0,0.00878906249999999,0,0)" xlink:href="#bg"/><use transform="matrix(0.00878906249999999,0,0,0.00878906249999999,17.00683593749998,0)" xlink:href="#aS"/><use transform="matrix(0.00878906249999999,0,0,0.00878906249999999,27.395507812499964,0)" xlink:href="#aL"/><use transform="matrix(0.00878906249999999,0,0,0.00878906249999999,38.44335937499994,0)" xlink:href="#aC"/><use transform="matrix(0.00878906249999999,0,0,0.00878906249999999,48.07617187499994,0)" xlink:href="#aH"/></g><g id="W"><use transform="matrix(0.00878906249999999,0,0,0.00878906249999999,0,0)" xlink:href="#aD"/><use transform="matrix(0.00878906249999999,0,0,0.00878906249999999,8.48144531249999,0)" xlink:href="#aC"/><use transform="matrix(0.00878906249999999,0,0,0.00878906249999999,18.11425781249998,0)" xlink:href="#aB"/><use transform="matrix(0.00878906249999999,0,0,0.00878906249999999,26.05957031249997,0)" xlink:href="#aA"/><use transform="matrix(0.00878906249999999,0,0,0.00878906249999999,37.48535156249996,0)" xlink:href="#aH"/><use transform="matrix(0.00878906249999999,0,0,0.00878906249999999,43.06640624999995,0)" xlink:href="#aP"/></g><g id="X"><use transform="matrix(0.00878906249999999,0,0,0.00878906249999999,0,0)" xlink:href="#aL"/><use transform="matrix(0.00878906249999999,0,0,0.00878906249999999,11.047851562499988,0)" xlink:href="#aF"/><use transform="matrix(0.00878906249999999,0,0,0.00878906249999999,21.005859374999975,0)" xlink:href="#aP"/><use transform="matrix(0.00878906249999999,0,0,0.00878906249999999,27.342773437499968,0)" xlink:href="#aF"/><use transform="matrix(0.00878906249999999,0,0,0.00878906249999999,37.47656249999996,0)" xlink:href="#aQ"/><use transform="matrix(0.00878906249999999,0,0,0.00878906249999999,48.52441406249994,0)" xlink:href="#aF"/><use transform="matrix(0.00878906249999999,0,0,0.00878906249999999,58.65820312499993,0)" xlink:href="#aB"/><use transform="matrix(0.00878906249999999,0,0,0.00878906249999999,66.77929687499991,0)" xlink:href="#aC"/></g><g id="Y"><use transform="matrix(0.00878906249999999,0,0,0.00878906249999999,0,0)" xlink:href="#aB"/><use transform="matrix(0.00878906249999999,0,0,0.00878906249999999,8.121093749999991,0)" xlink:href="#aZ"/><use transform="matrix(0.00878906249999999,0,0,0.00878906249999999,19.546874999999975,0)" xlink:href="#aS"/><use transform="matrix(0.00878906249999999,0,0,0.00878906249999999,29.759765624999964,0)" xlink:href="#be"/></g><g id="Z"><use transform="matrix(0.00878906249999999,0,0,0.00878906249999999,0,0)" xlink:href="#aA"/><use transform="matrix(0.00878906249999999,0,0,0.00878906249999999,11.425781249999986,0)" xlink:href="#aB"/><use transform="matrix(0.00878906249999999,0,0,0.00878906249999999,19.546874999999975,0)" xlink:href="#aC"/><use transform="matrix(0.00878906249999999,0,0,0.00878906249999999,29.179687499999968,0)" xlink:href="#aD"/></g><path d="M643-1464c-244 139-313 433-313 815s69 678 313 817v94C288 130 117-156 117-649c0-361 84-614 285-771 67-53 147-99 241-136v92" id="bh"/><g id="aa"><use transform="matrix(0.00878906249999999,0,0,0.00878906249999999,0,0)" xlink:href="#bh"/><use transform="matrix(0.00878906249999999,0,0,0.00878906249999999,6.231445312499993,0)" xlink:href="#aD"/><use transform="matrix(0.00878906249999999,0,0,0.00878906249999999,14.712890624999982,0)" xlink:href="#aC"/><use transform="matrix(0.00878906249999999,0,0,0.00878906249999999,24.34570312499997,0)" xlink:href="#aF"/><use transform="matrix(0.00878906249999999,0,0,0.00878906249999999,34.47949218749996,0)" xlink:href="#aH"/></g><g id="ab"><use transform="matrix(0.00878906249999999,0,0,0.00878906249999999,0,0)" xlink:href="#aS"/><use transform="matrix(0.00878906249999999,0,0,0.00878906249999999,10.388671874999988,0)" xlink:href="#aD"/></g><path d="M66 168C309 28 379-267 379-649s-70-676-313-815v-92c355 132 526 415 526 907 0 361-85 617-285 775-67 53-147 99-241 136v-94" id="bi"/><g id="ac"><use transform="matrix(0.00878906249999999,0,0,0.00878906249999999,0,0)" xlink:href="#aV"/><use transform="matrix(0.00878906249999999,0,0,0.00878906249999999,6.644531249999992,0)" xlink:href="#aF"/><use transform="matrix(0.00878906249999999,0,0,0.00878906249999999,16.77832031249998,0)" xlink:href="#aK"/><use transform="matrix(0.00878906249999999,0,0,0.00878906249999999,27.131835937499964,0)" xlink:href="#aC"/><use transform="matrix(0.00878906249999999,0,0,0.00878906249999999,36.76464843749996,0)" xlink:href="#bi"/></g><path d="M674-1376c-119-7-195 23-195 139v1135h404c178-1 180-179 200-338h107L1176 0H78v-86c122 7 194-27 194-147v-996c4-120-72-154-194-147v-86h596v86" id="bj"/><g id="ad"><use transform="matrix(0.00878906249999999,0,0,0.00878906249999999,0,0)" xlink:href="#bj"/><use transform="matrix(0.00878906249999999,0,0,0.00878906249999999,11.214843749999988,0)" xlink:href="#aS"/><use transform="matrix(0.00878906249999999,0,0,0.00878906249999999,21.427734374999975,0)" xlink:href="#aT"/><use transform="matrix(0.00878906249999999,0,0,0.00878906249999999,31.113281249999964,0)" xlink:href="#aU"/><use transform="matrix(0.00878906249999999,0,0,0.00878906249999999,36.87011718749996,0)" xlink:href="#aG"/></g><g id="ae"><use transform="matrix(0.00878906249999999,0,0,0.00878906249999999,0,0)" xlink:href="#aM"/><use transform="matrix(0.00878906249999999,0,0,0.00878906249999999,9.615234374999986,0)" xlink:href="#aA"/><use transform="matrix(0.00878906249999999,0,0,0.00878906249999999,21.04101562499997,0)" xlink:href="#aJ"/><use transform="matrix(0.00878906249999999,0,0,0.00878906249999999,29.90039062499996,0)" xlink:href="#aJ"/><use transform="matrix(0.00878906249999999,0,0,0.00878906249999999,38.75976562499996,0)" xlink:href="#aC"/><use transform="matrix(0.00878906249999999,0,0,0.00878906249999999,48.39257812499994,0)" xlink:href="#aB"/><use transform="matrix(0.00878906249999999,0,0,0.00878906249999999,56.513671874999936,0)" xlink:href="#aB"/><use transform="matrix(0.00878906249999999,0,0,0.00878906249999999,64.63476562499993,0)" xlink:href="#aV"/><use transform="matrix(0.00878906249999999,0,0,0.00878906249999999,71.27929687499991,0)" xlink:href="#aA"/><use transform="matrix(0.00878906249999999,0,0,0.00878906249999999,82.7050781249999,0)" xlink:href="#aH"/></g><g id="af"><use transform="matrix(0.00878906249999999,0,0,0.00878906249999999,0,0)" xlink:href="#aD"/><use transform="matrix(0.00878906249999999,0,0,0.00878906249999999,8.48144531249999,0)" xlink:href="#aC"/><use transform="matrix(0.00878906249999999,0,0,0.00878906249999999,18.11425781249998,0)" xlink:href="#aP"/><use transform="matrix(0.00878906249999999,0,0,0.00878906249999999,24.45117187499997,0)" xlink:href="#aA"/><use transform="matrix(0.00878906249999999,0,0,0.00878906249999999,35.87695312499996,0)" xlink:href="#aD"/><use transform="matrix(0.00878906249999999,0,0,0.00878906249999999,44.358398437499936,0)" xlink:href="#aG"/></g><g id="ag"><use transform="matrix(0.00878906249999999,0,0,0.00878906249999999,0,0)" xlink:href="#aJ"/><use transform="matrix(0.00878906249999999,0,0,0.00878906249999999,8.85937499999999,0)" xlink:href="#aZ"/><use transform="matrix(0.00878906249999999,0,0,0.00878906249999999,20.285156249999975,0)" xlink:href="#aC"/><use transform="matrix(0.00878906249999999,0,0,0.00878906249999999,29.917968749999964,0)" xlink:href="#aJ"/><use transform="matrix(0.00878906249999999,0,0,0.00878906249999999,38.77734374999996,0)" xlink:href="#aK"/><use transform="matrix(0.00878906249999999,0,0,0.00878906249999999,49.30664062499994,0)" xlink:href="#aU"/><use transform="matrix(0.00878906249999999,0,0,0.00878906249999999,55.063476562499936,0)" xlink:href="#aG"/><use transform="matrix(0.00878906249999999,0,0,0.00878906249999999,66.67382812499991,0)" xlink:href="#aT"/></g><g id="ah"><use transform="matrix(0.00878906249999999,0,0,0.00878906249999999,0,0)" xlink:href="#aV"/><use transform="matrix(0.00878906249999999,0,0,0.00878906249999999,6.644531249999992,0)" xlink:href="#aH"/><use transform="matrix(0.00878906249999999,0,0,0.00878906249999999,12.225585937499986,0)" xlink:href="#aF"/><use transform="matrix(0.00878906249999999,0,0,0.00878906249999999,22.359374999999975,0)" xlink:href="#aT"/></g><g id="ai"><use transform="matrix(0.00878906249999999,0,0,0.00878906249999999,0,0)" xlink:href="#aB"/><use transform="matrix(0.00878906249999999,0,0,0.00878906249999999,7.945312499999992,0)" xlink:href="#aA"/><use transform="matrix(0.00878906249999999,0,0,0.00878906249999999,19.37109374999998,0)" xlink:href="#aQ"/><use transform="matrix(0.00878906249999999,0,0,0.00878906249999999,30.418945312499964,0)" xlink:href="#aB"/><use transform="matrix(0.00878906249999999,0,0,0.00878906249999999,38.54003906249996,0)" xlink:href="#aJ"/><use transform="matrix(0.00878906249999999,0,0,0.00878906249999999,47.39941406249994,0)" xlink:href="#aD"/><use transform="matrix(0.00878906249999999,0,0,0.00878906249999999,55.88085937499993,0)" xlink:href="#aU"/><use transform="matrix(0.00878906249999999,0,0,0.00878906249999999,61.63769531249992,0)" xlink:href="#aE"/><use transform="matrix(0.00878906249999999,0,0,0.00878906249999999,72.68554687499991,0)" xlink:href="#aP"/><use transform="matrix(0.00878906249999999,0,0,0.00878906249999999,79.02246093749993,0)" xlink:href="#aU"/><use transform="matrix(0.00878906249999999,0,0,0.00878906249999999,84.77929687499991,0)" xlink:href="#aS"/><use transform="matrix(0.00878906249999999,0,0,0.00878906249999999,95.1679687499999,0)" xlink:href="#aG"/></g><g id="aj"><use transform="matrix(0.00878906249999999,0,0,0.00878906249999999,0,0)" xlink:href="#aE"/><use transform="matrix(0.00878906249999999,0,0,0.00878906249999999,11.047851562499988,0)" xlink:href="#aH"/><use transform="matrix(0.00878906249999999,0,0,0.00878906249999999,16.628906249999982,0)" xlink:href="#aF"/><use transform="matrix(0.00878906249999999,0,0,0.00878906249999999,26.76269531249997,0)" xlink:href="#aG"/><use transform="matrix(0.00878906249999999,0,0,0.00878906249999999,38.37304687499996,0)" xlink:href="#aB"/></g><g id="ak"><use transform="matrix(0.00878906249999999,0,0,0.00878906249999999,0,0)" xlink:href="#aA"/><use transform="matrix(0.00878906249999999,0,0,0.00878906249999999,11.425781249999986,0)" xlink:href="#aB"/><use transform="matrix(0.00878906249999999,0,0,0.00878906249999999,19.546874999999975,0)" xlink:href="#aC"/><use transform="matrix(0.00878906249999999,0,0,0.00878906249999999,29.179687499999968,0)" xlink:href="#aD"/></g><g id="al"><use transform="matrix(0.00878906249999999,0,0,0.00878906249999999,0,0)" xlink:href="#aN"/><use transform="matrix(0.00878906249999999,0,0,0.00878906249999999,10.423828124999988,0)" xlink:href="#aU"/><use transform="matrix(0.00878906249999999,0,0,0.00878906249999999,16.18066406249998,0)" xlink:href="#aC"/><use transform="matrix(0.00878906249999999,0,0,0.00878906249999999,25.813476562499968,0)" xlink:href="#be"/></g><g id="am"><use transform="matrix(0.00878906249999999,0,0,0.00878906249999999,0,0)" xlink:href="#aE"/><use transform="matrix(0.00878906249999999,0,0,0.00878906249999999,11.047851562499988,0)" xlink:href="#aH"/><use transform="matrix(0.00878906249999999,0,0,0.00878906249999999,16.628906249999982,0)" xlink:href="#aF"/><use transform="matrix(0.00878906249999999,0,0,0.00878906249999999,26.76269531249997,0)" xlink:href="#aG"/><use transform="matrix(0.00878906249999999,0,0,0.00878906249999999,38.37304687499996,0)" xlink:href="#aB"/></g><g id="an"><use transform="matrix(0.00878906249999999,0,0,0.00878906249999999,0,0)" xlink:href="#aJ"/><use transform="matrix(0.00878906249999999,0,0,0.00878906249999999,8.85937499999999,0)" xlink:href="#aZ"/><use transform="matrix(0.00878906249999999,0,0,0.00878906249999999,20.285156249999975,0)" xlink:href="#aS"/><use transform="matrix(0.00878906249999999,0,0,0.00878906249999999,30.673828124999964,0)" xlink:href="#aS"/><use transform="matrix(0.00878906249999999,0,0,0.00878906249999999,41.06249999999995,0)" xlink:href="#aB"/><use transform="matrix(0.00878906249999999,0,0,0.00878906249999999,49.18359374999994,0)" xlink:href="#aC"/></g><g id="ao"><use transform="matrix(0.00878906249999999,0,0,0.00878906249999999,0,0)" xlink:href="#aE"/><use transform="matrix(0.00878906249999999,0,0,0.00878906249999999,11.047851562499988,0)" xlink:href="#aH"/><use transform="matrix(0.00878906249999999,0,0,0.00878906249999999,16.628906249999982,0)" xlink:href="#aF"/><use transform="matrix(0.00878906249999999,0,0,0.00878906249999999,26.76269531249997,0)" xlink:href="#aG"/></g><g id="ap"><use transform="matrix(0.00878906249999999,0,0,0.00878906249999999,0,0)" xlink:href="#aE"/><use transform="matrix(0.00878906249999999,0,0,0.00878906249999999,11.047851562499988,0)" xlink:href="#aS"/><use transform="matrix(0.00878906249999999,0,0,0.00878906249999999,21.436523437499975,0)" xlink:href="#aB"/><use transform="matrix(0.00878906249999999,0,0,0.00878906249999999,29.557617187499964,0)" xlink:href="#aP"/></g><g id="aq"><use transform="matrix(0.00878906249999999,0,0,0.00878906249999999,0,0)" xlink:href="#aU"/><use transform="matrix(0.00878906249999999,0,0,0.00878906249999999,5.756835937499993,0)" xlink:href="#aP"/></g><g id="ar"><use transform="matrix(0.00878906249999999,0,0,0.00878906249999999,0,0)" xlink:href="#aU"/><use transform="matrix(0.00878906249999999,0,0,0.00878906249999999,5.756835937499993,0)" xlink:href="#aG"/><use transform="matrix(0.00878906249999999,0,0,0.00878906249999999,17.36718749999998,0)" xlink:href="#aB"/><use transform="matrix(0.00878906249999999,0,0,0.00878906249999999,25.48828124999997,0)" xlink:href="#aC"/><use transform="matrix(0.00878906249999999,0,0,0.00878906249999999,35.12109374999996,0)" xlink:href="#aD"/><use transform="matrix(0.00878906249999999,0,0,0.00878906249999999,43.60253906249994,0)" xlink:href="#aP"/></g><g id="as"><use transform="matrix(0.00878906249999999,0,0,0.00878906249999999,0,0)" xlink:href="#aJ"/><use transform="matrix(0.00878906249999999,0,0,0.00878906249999999,8.85937499999999,0)" xlink:href="#aZ"/><use transform="matrix(0.00878906249999999,0,0,0.00878906249999999,20.285156249999975,0)" xlink:href="#aS"/><use transform="matrix(0.00878906249999999,0,0,0.00878906249999999,30.673828124999964,0)" xlink:href="#aS"/><use transform="matrix(0.00878906249999999,0,0,0.00878906249999999,41.06249999999995,0)" xlink:href="#aB"/><use transform="matrix(0.00878906249999999,0,0,0.00878906249999999,49.18359374999994,0)" xlink:href="#aC"/><use transform="matrix(0.00878906249999999,0,0,0.00878906249999999,58.81640624999993,0)" xlink:href="#aG"/></g><g id="at"><use transform="matrix(0.00878906249999999,0,0,0.00878906249999999,0,0)" xlink:href="#aE"/><use transform="matrix(0.00878906249999999,0,0,0.00878906249999999,11.047851562499988,0)" xlink:href="#aH"/><use transform="matrix(0.00878906249999999,0,0,0.00878906249999999,16.628906249999982,0)" xlink:href="#aF"/><use transform="matrix(0.00878906249999999,0,0,0.00878906249999999,26.76269531249997,0)" xlink:href="#aG"/></g><g id="au"><use transform="matrix(0.00878906249999999,0,0,0.00878906249999999,0,0)" xlink:href="#aA"/><use transform="matrix(0.00878906249999999,0,0,0.00878906249999999,11.425781249999986,0)" xlink:href="#aB"/><use transform="matrix(0.00878906249999999,0,0,0.00878906249999999,19.546874999999975,0)" xlink:href="#aC"/><use transform="matrix(0.00878906249999999,0,0,0.00878906249999999,29.179687499999968,0)" xlink:href="#aD"/></g><g id="av"><use transform="matrix(0.00878906249999999,0,0,0.00878906249999999,0,0)" xlink:href="#aE"/><use transform="matrix(0.00878906249999999,0,0,0.00878906249999999,11.047851562499988,0)" xlink:href="#aD"/><use transform="matrix(0.00878906249999999,0,0,0.00878906249999999,19.35351562499998,0)" xlink:href="#aS"/><use transform="matrix(0.00878906249999999,0,0,0.00878906249999999,29.566406249999964,0)" xlink:href="#aV"/><use transform="matrix(0.00878906249999999,0,0,0.00878906249999999,36.21093749999996,0)" xlink:href="#aU"/><use transform="matrix(0.00878906249999999,0,0,0.00878906249999999,41.96777343749995,0)" xlink:href="#aH"/><use transform="matrix(0.00878906249999999,0,0,0.00878906249999999,47.54882812499994,0)" xlink:href="#aC"/></g><g id="aw"><use transform="matrix(0.00878906249999999,0,0,0.00878906249999999,0,0)" xlink:href="#aD"/><use transform="matrix(0.00878906249999999,0,0,0.00878906249999999,8.48144531249999,0)" xlink:href="#aC"/><use transform="matrix(0.00878906249999999,0,0,0.00878906249999999,18.11425781249998,0)" xlink:href="#aP"/><use transform="matrix(0.00878906249999999,0,0,0.00878906249999999,24.45117187499997,0)" xlink:href="#aA"/><use transform="matrix(0.00878906249999999,0,0,0.00878906249999999,35.87695312499996,0)" xlink:href="#aD"/><use transform="matrix(0.00878906249999999,0,0,0.00878906249999999,44.358398437499936,0)" xlink:href="#aG"/></g><g id="ax"><use transform="matrix(0.00878906249999999,0,0,0.00878906249999999,0,0)" xlink:href="#aJ"/><use transform="matrix(0.00878906249999999,0,0,0.00878906249999999,8.85937499999999,0)" xlink:href="#aS"/><use transform="matrix(0.00878906249999999,0,0,0.00878906249999999,19.24804687499998,0)" xlink:href="#aG"/><use transform="matrix(0.00878906249999999,0,0,0.00878906249999999,30.858398437499964,0)" xlink:href="#aV"/><use transform="matrix(0.00878906249999999,0,0,0.00878906249999999,37.50292968749996,0)" xlink:href="#aU"/><use transform="matrix(0.00878906249999999,0,0,0.00878906249999999,43.25976562499995,0)" xlink:href="#aD"/><use transform="matrix(0.00878906249999999,0,0,0.00878906249999999,51.74121093749995,0)" xlink:href="#bg"/><use transform="matrix(0.00878906249999999,0,0,0.00878906249999999,68.74804687499991,0)" xlink:href="#aF"/><use transform="matrix(0.00878906249999999,0,0,0.00878906249999999,78.7060546874999,0)" xlink:href="#aP"/><use transform="matrix(0.00878906249999999,0,0,0.00878906249999999,85.04296874999989,0)" xlink:href="#aU"/><use transform="matrix(0.00878906249999999,0,0,0.00878906249999999,90.79980468749989,0)" xlink:href="#aS"/><use transform="matrix(0.00878906249999999,0,0,0.00878906249999999,101.18847656249986,0)" xlink:href="#aG"/></g><g id="ay"><use transform="matrix(0.00878906249999999,0,0,0.00878906249999999,0,0)" xlink:href="#aB"/><use transform="matrix(0.00878906249999999,0,0,0.00878906249999999,7.945312499999992,0)" xlink:href="#aA"/><use transform="matrix(0.00878906249999999,0,0,0.00878906249999999,19.37109374999998,0)" xlink:href="#aQ"/><use transform="matrix(0.00878906249999999,0,0,0.00878906249999999,30.418945312499964,0)" xlink:href="#aB"/><use transform="matrix(0.00878906249999999,0,0,0.00878906249999999,38.54003906249996,0)" xlink:href="#aJ"/><use transform="matrix(0.00878906249999999,0,0,0.00878906249999999,47.39941406249994,0)" xlink:href="#aD"/><use transform="matrix(0.00878906249999999,0,0,0.00878906249999999,55.88085937499993,0)" xlink:href="#aU"/><use transform="matrix(0.00878906249999999,0,0,0.00878906249999999,61.63769531249992,0)" xlink:href="#aQ"/><use transform="matrix(0.00878906249999999,0,0,0.00878906249999999,72.68554687499991,0)" xlink:href="#aP"/><use transform="matrix(0.00878906249999999,0,0,0.00878906249999999,79.02246093749993,0)" xlink:href="#aU"/><use transform="matrix(0.00878906249999999,0,0,0.00878906249999999,84.77929687499991,0)" xlink:href="#aS"/><use transform="matrix(0.00878906249999999,0,0,0.00878906249999999,95.1679687499999,0)" xlink:href="#aG"/></g><g id="az"><use transform="matrix(0.00878906249999999,0,0,0.00878906249999999,0,0)" xlink:href="#aJ"/><use transform="matrix(0.00878906249999999,0,0,0.00878906249999999,8.85937499999999,0)" xlink:href="#aS"/><use transform="matrix(0.00878906249999999,0,0,0.00878906249999999,19.24804687499998,0)" xlink:href="#bg"/><use transform="matrix(0.00878906249999999,0,0,0.00878906249999999,36.07910156249996,0)" xlink:href="#aE"/><use transform="matrix(0.00878906249999999,0,0,0.00878906249999999,47.12695312499994,0)" xlink:href="#aH"/><use transform="matrix(0.00878906249999999,0,0,0.00878906249999999,52.708007812499936,0)" xlink:href="#aC"/><use transform="matrix(0.00878906249999999,0,0,0.00878906249999999,62.34082031249993,0)" xlink:href="#aP"/><use transform="matrix(0.00878906249999999,0,0,0.00878906249999999,68.50195312499991,0)" xlink:href="#aC"/></g></defs></g></svg>