<svg xmlns="http://www.w3.org/2000/svg" xmlns:xlink="http://www.w3.org/1999/xlink" xmlns:lucid="lucid" width="2500" height="2000"><g transform="translate(-500 -1000)" lucid:page-tab-id="0_0"><path d="M1765.26 1519.95v9.9m0 9.9v19.78m0 9.9v19.78m0 9.9v19.8m0 9.9v19.78m0 9.9v19.78m0 9.9v19.78m0 9.9v19.8m0 9.88v19.8m0 9.9v19.77m0 9.9v19.78m0 9.9v19.78m0 9.9v19.8m0 9.88v19.8m0 9.88v19.8m0 9.9v19.78m0 9.9v19.78m0 9.9v19.78m0 9.9v19.78m0 9.9v19.8m0 9.88v19.8m0 9.9v19.77m0 9.9v19.78m0 9.9v19.78m0 9.9v19.78m0 9.9v19.8m0 9.88v19.8m0 9.9v19.77m0 9.9v19.78m0 9.9v19.78m0 9.9v19.78m0 9.9v19.8m0 9.88v19.8m0 9.9v9.88" stroke="#333" fill="none"/><path d="M1765.76 1519.96h-1v-.5h1z" stroke="#333" stroke-width=".05" fill="#333"/><path d="M1765.26 2499.5v.5M1400 1519.95v10m0 10v19.98m0 10v20m0 9.98v20m0 10v20m0 10v19.98m0 10v20m0 9.98v20m0 10v19.98m0 10v20m0 9.98v20m0 10v19.98m0 10v20m0 9.98v20m0 10v19.98m0 10v20m0 9.98v20m0 10v19.98m0 10v20m0 9.98v20m0 10v19.98m0 10v20m0 9.98v20m0 10v19.98m0 10v20m0 9.98v20m0 10v19.98m0 10v20m0 9.98v20m0 10v19.98m0 10v20m0 9.98v20m0 10v19.98m0 10v20m0 9.98v10" stroke="#333" fill="none"/><path d="M1400.5 1519.96h-1v-.5h1z" stroke="#333" stroke-width=".05" fill="#333"/><path d="M1400 2539.5v.5M1043.6 1519.95v10m0 9.98v19.98m0 10v20m0 9.98v19.98m0 10v19.97m0 10v19.97m0 10v19.98m0 10v19.97m0 10v19.97m0 10v19.97m0 10v19.97m0 10v19.97m0 10v19.97m0 10v20m0 9.98v19.98m0 10v19.97m0 10v19.97m0 10v19.98m0 10v19.97m0 10v19.97m0 10v19.97m0 10v19.97m0 10v19.97m0 10v19.97m0 10v19.98m0 10v19.98m0 10v19.97m0 10v19.97m0 10v19.98m0 10v19.97m0 10v19.97m0 10v19.97m0 10v19.97m0 10v19.97m0 10V2549m0 10v20m0 9.98v10" stroke="#333" fill="none"/><path d="M1044.1 1519.96h-1v-.5h1z" stroke="#333" stroke-width=".05" fill="#333"/><path d="M1043.6 2598.95v3.52" stroke="#333" fill="none"/><path d="M1745.26 1668a8 8 0 0 1 8-8h24a8 8 0 0 1 8 8v84a8 8 0 0 1-8 8h-24a8 8 0 0 1-8-8zM1382 1648a8 8 0 0 1 8-8h24a8 8 0 0 1 8 8v224a8 8 0 0 1-8 8h-24a8 8 0 0 1-8-8zM1023.6 1628a8 8 0 0 1 8-8h24a8 8 0 0 1 8 8v864a8 8 0 0 1-8 8h-24a8 8 0 0 1-8-8z" stroke="#3a414a" stroke-width="2" fill="#fff"/><path d="M760 1496.23v10.13m0 10.13v20.24m0 10.13v20.25m0 10.13v20.25m0 10.12v20.26m0 10.12v20.26m0 10.12v20.25m0 10.13V1719m0 10.14v20.25m0 10.12v20.25m0 10.13v20.25m0 10.13v20.25m0 10.13v20.25m0 10.13v20.26m0 10.1v20.27m0 10.12v20.25m0 10.12v20.25m0 10.13v20.25m0 10.13v20.25m0 10.13v20.26m0 10.13v20.24m0 10.13v20.25m0 10.13v20.25m0 10.13v20.25m0 10.12v20.26m0 10.12v20.26m0 10.12v20.25m0 10.14v20.25m0 10.12v20.25m0 10.13v20.25m0 10.13v20.25m0 10.13v20.25m0 10.14v20.25m0 10.1v20.27m0 10.12v20.25m0 10.12v10.13M760 2559.5v.5" stroke="#333" fill="none"/><path d="M948.55 1405.45a8 8 0 0 1 8-8h174.08a8 8 0 0 1 8 8v106a8 8 0 0 1-8 8H956.55a8 8 0 0 1-8-8z" stroke="#000" stroke-opacity="0" fill="#6db1ff"/><use xlink:href="#a" transform="matrix(1,0,0,1,956.5508274182996,1405.450156647517) translate(46.0679012345679 56.55555555555555)"/><use xlink:href="#b" transform="matrix(1,0,0,1,956.5508274182996,1405.450156647517) translate(85.52469135802468 56.55555555555555)"/><path d="M1309.38 1405.45a8 8 0 0 1 8-8h174.08a8 8 0 0 1 8 8v106a8 8 0 0 1-8 8h-174.08a8 8 0 0 1-8-8z" stroke="#000" stroke-opacity="0" fill="#6db1ff"/><use xlink:href="#c" transform="matrix(1,0,0,1,1317.3848257465197,1405.450156647517) translate(24.3395061728395 56.55555555555555)"/><use xlink:href="#d" transform="matrix(1,0,0,1,1317.3848257465197,1405.450156647517) translate(98.41358024691357 56.55555555555555)"/><path d="M1670.22 1405.45a8 8 0 0 1 8-8h174.07a8 8 0 0 1 8 8v106a8 8 0 0 1-8 8H1678.2a8 8 0 0 1-8-8z" stroke="#000" stroke-opacity="0" fill="#6db1ff"/><use xlink:href="#e" transform="matrix(1,0,0,1,1678.2188240747391,1405.450156647517) translate(49.49999999999999 56.55555555555555)"/><path d="M779.75 1419.75c0 10.9-8.84 19.75-19.75 19.75-10.9 0-19.75-8.84-19.75-19.75 0-10.9 8.84-19.75 19.75-19.75 10.9 0 19.75 8.84 19.75 19.75z" stroke="#333" fill="#fff"/><path d="M760 1439.5v47.3a27.6 27.6 0 0 0 4.28 14.76L800 1558m-40-63.2l-40 63.2m0-98.75h80" stroke="#333" fill="none"/><path d="M720 1408a8 8 0 0 1 8-8h64a8 8 0 0 1 8 8v164a8 8 0 0 1-8 8h-64a8 8 0 0 1-8-8z" fill="none"/><use xlink:href="#f" transform="matrix(1,0,0,1,640,1558) translate(99.28395061728395 14.555555555555555)"/><path d="M760.5 1647.66H1006.2M760.5 1647.66h-.5" stroke="#3a414a" fill="none"/><path d="M1020.97 1647.66l-14.26 4.64v-9.27z" stroke="#3a414a" fill="#3a414a"/><use xlink:href="#g" transform="matrix(1,0,0,1,872.3442791315916,1622.0624133783494) translate(0.004999999999999005 14.4)"/><path d="M1000 1708a8 8 0 0 1 8-8h84a8 8 0 0 1 8 8v4.93a17.07 17.07 0 0 1-5 12.07 17.07 17.07 0 0 1-12.07 5H1008a8 8 0 0 1-8-8z" fill="#fff"/><path d="M1100 1700v20l-10 10h-90" stroke="#3a414a" stroke-width="2" fill="none"/><path d="M1000 1708a8 8 0 0 1 8-8h424a8 8 0 0 1 8 8v144a8 8 0 0 1-8 8h-424a8 8 0 0 1-8-8zM1000 1782.16h20m15 0h20m15 0h20m15 0h20m15 0h20m15 0h20m15 0h20m15 0h20m15 0h20m15 0h20m15 0h20m15 0h20m15 0h20" stroke="#3a414a" stroke-width="2" fill="none"/><use xlink:href="#h" transform="matrix(1,0,0,1,1008,1700) translate(-1.4249999999999403 18.599999999999994)"/><use xlink:href="#i" transform="matrix(1,0,0,1,1012,1738) translate(17.55000000000003 18.599999999999994)"/><use xlink:href="#j" transform="matrix(1,0,0,1,1012,1738) translate(31.50000000000001 18.599999999999994)"/><use xlink:href="#k" transform="matrix(1,0,0,1,1012,1790.162162162162) translate(17.525000000000027 18.599999999999994)"/><path d="M660 1610.72a8 8 0 0 1 8-8h84a8 8 0 0 1 8 8v4.93a17.07 17.07 0 0 1-5 12.07 17.07 17.07 0 0 1-12.07 5H668a8 8 0 0 1-8-8z" fill="#fff"/><path d="M760 1602.72v20l-10 10h-90" stroke="#3a414a" stroke-width="2" fill="none"/><path d="M660 1610.72a8 8 0 0 1 8-8h424a8 8 0 0 1 8 8V2132a8 8 0 0 1-8 8H668a8 8 0 0 1-8-8zM660 1888.88h20m15 0h20m15 0h20m15 0h20m15 0h20m15 0h20m15 0h20m15 0h20m15 0h20m15 0h20m15 0h20m15 0h20m15 0h20" stroke="#3a414a" stroke-width="2" fill="none"/><use xlink:href="#l" transform="matrix(1,0,0,1,668,1602.7250783237585) translate(3.8126543209877113 18.15555555555555)"/><use xlink:href="#m" transform="matrix(1,0,0,1,672,1640.7250783237585) translate(11.46913580246921 19.04444444444444)"/><use xlink:href="#n" transform="matrix(1,0,0,1,672,1640.7250783237585) translate(49.6666666666667 19.04444444444444)"/><use xlink:href="#o" transform="matrix(1,0,0,1,672,1640.7250783237585) translate(77.75308641975309 19.04444444444444)"/><use xlink:href="#p" transform="matrix(1,0,0,1,672,1896.8823735643653) translate(4.000000000000085 18.599999999999994)"/><use xlink:href="#q" transform="matrix(1,0,0,1,672,1896.8823735643653) translate(43.000000000000036 18.599999999999994)"/><use xlink:href="#r" transform="matrix(1,0,0,1,672,1896.8823735643653) translate(68 18.599999999999994)"/><path d="M761.5 2025.45H1001.97M761.54 2025.45H760" stroke="#3a414a" stroke-width="3" fill="none"/><path d="M1017.73 2025.45l-14.26 4.64v-9.28z" stroke="#3a414a" stroke-width="3" fill="#3a414a"/><use xlink:href="#s" transform="matrix(1,0,0,1,847.9270128355859,1999.8539495989912) translate(0.004999999999999005 14.399999999999984)"/><use xlink:href="#t" transform="matrix(1,0,0,1,847.9270128355859,1999.8539495989912) translate(37.954999999999956 14.399999999999984)"/><path d="M2031.05 1408a8 8 0 0 1 8-8h174.08a8 8 0 0 1 8 8v106a8 8 0 0 1-8 8h-174.08a8 8 0 0 1-8-8z" stroke="#000" stroke-opacity="0" fill="#6db1ff"/><use xlink:href="#u" transform="matrix(1,0,0,1,2039.0528224029586,1408) translate(52.48765432098765 56.55555555555555)"/><use xlink:href="#v" transform="matrix(1,0,0,1,2039.0528224029586,1408) translate(74.21604938271605 56.55555555555555)"/><path d="M2120 1522.5v9.87m0 9.87v19.73m0 9.87v19.74m0 9.87v19.74m0 9.86v19.73m0 9.86v19.74m0 9.87V1710m0 9.87v19.74m0 9.88v19.74m0 9.87v19.72m0 9.87v19.73m0 9.87v19.74m0 9.86v19.74m0 9.87v19.75m0 9.87v19.73m0 9.87v19.74m0 9.87v19.74m0 9.86v19.74m0 9.87v19.74m0 9.87v19.73m0 9.87v19.74m0 9.86v19.74m0 9.87v19.73m0 9.87v19.74m0 9.88v19.73m0 9.88v19.74m0 9.87v19.73m0 9.86v19.73m0 9.87v19.74m0 9.87v19.74m0 9.87v19.75m0 9.87v19.74m0 9.87v19.73m0 9.87v9.87" stroke="#333" fill="none"/><path d="M2120.5 1522.5h-1v-.5h1z" stroke="#333" stroke-width=".05" fill="#333"/><path d="M2120 2499.5v.5" stroke="#333" fill="none"/><path d="M1424 1680h301.75" stroke="#3a414a" stroke-width="2" fill="none"/><path d="M1424.03 1681H1423v-2h1.03z" stroke="#3a414a" stroke-width=".05" fill="#3a414a"/><path d="M1741.02 1680l-14.27 4.63v-9.27z" stroke="#3a414a" stroke-width="2" fill="#3a414a"/><path d="M1460 1648a8 8 0 0 1 8-8h224a8 8 0 0 1 8 8v44a8 8 0 0 1-8 8h-224a8 8 0 0 1-8-8z" fill="none"/><use xlink:href="#w" transform="matrix(1,0,0,1,1460,1640) translate(64.52500000000006 33.599999999999994)"/><use xlink:href="#x" transform="matrix(1,0,0,1,1460,1640) translate(116.525 33.599999999999994)"/><use xlink:href="#y" transform="matrix(1,0,0,1,1460,1640) translate(146.52499999999998 33.599999999999994)"/><path d="M1065.1 1664h299.52" stroke="#3a414a" fill="none"/><path d="M1065.1 1664.5h-.5v-1h.5z" stroke="#3a414a" stroke-width=".05" fill="#3a414a"/><path d="M1379.38 1664l-14.26 4.63v-9.27z" stroke="#3a414a" fill="#3a414a"/><use xlink:href="#z" transform="matrix(1,0,0,1,1181.8705403088948,1638.4000151934968) translate(0.005000000000002558 14.399999999999984)"/><use xlink:href="#A" transform="matrix(1,0,0,1,1181.8705403088948,1638.4000151934968) translate(47.904999999999944 14.399999999999984)"/><path d="M1380 1825.63h-10.48m-10.48 0h-20.96m-10.48 0h-20.96m-10.48 0h-20.96m-10.48 0h-20.96m-10.48 0h-19.8m-9.3 0h-18.64m-9.3 0h-18.64m-9.3 0h-18.64m-9.3 0h-18.64m-9.32 0h-9.3" stroke="#3a414a" stroke-width="2" fill="none"/><path d="M1381 1826.63h-1.02v-2h1.02z" stroke="#3a414a" stroke-width=".05" fill="#3a414a"/><path d="M1067.83 1825.63l14.26-4.63v9.27z" stroke="#3a414a" stroke-width="2" fill="#3a414a"/><path d="M1104 1788a8 8 0 0 1 8-8h224a8 8 0 0 1 8 8v44a8 8 0 0 1-8 8h-224a8 8 0 0 1-8-8z" fill="none"/><use xlink:href="#B" transform="matrix(1,0,0,1,1104.005445647333,1780) translate(69.07500000000006 33.599999999999994)"/><use xlink:href="#C" transform="matrix(1,0,0,1,1104.005445647333,1780) translate(122.975 33.599999999999994)"/><path d="M1065.6 2048.8h296.9" stroke="#3a414a" stroke-width="2" fill="none"/><path d="M1065.6 2049.8h-1v-2l1 .02z" stroke="#3a414a" stroke-width=".05" fill="#3a414a"/><path d="M1377.77 2048.8l-14.27 4.65v-9.27z" stroke="#3a414a" stroke-width="2" fill="#3a414a"/><path d="M1100 2008a8 8 0 0 1 8-8h224a8 8 0 0 1 8 8v44a8 8 0 0 1-8 8h-224a8 8 0 0 1-8-8z" fill="none"/><use xlink:href="#D" transform="matrix(1,0,0,1,1100,2000) translate(42.0750000000001 33.599999999999994)"/><use xlink:href="#E" transform="matrix(1,0,0,1,1100,2000) translate(79.07500000000005 33.599999999999994)"/><use xlink:href="#F" transform="matrix(1,0,0,1,1100,2000) translate(149.07499999999996 33.599999999999994)"/><path d="M1424 2079.43h301.75M1424.03 2079.43H1423" stroke="#3a414a" stroke-width="2" fill="none"/><path d="M1741.02 2079.43l-14.27 4.63v-9.27z" stroke="#3a414a" stroke-width="2" fill="#3a414a"/><path d="M1460 2048a8 8 0 0 1 8-8h224a8 8 0 0 1 8 8v44a8 8 0 0 1-8 8h-224a8 8 0 0 1-8-8z" fill="none"/><use xlink:href="#G" transform="matrix(1,0,0,1,1460,2040) translate(38.525000000000105 33.599999999999994)"/><use xlink:href="#H" transform="matrix(1,0,0,1,1460,2040) translate(73.52500000000006 33.599999999999994)"/><use xlink:href="#I" transform="matrix(1,0,0,1,1460,2040) translate(107.47500000000002 33.599999999999994)"/><use xlink:href="#J" transform="matrix(1,0,0,1,1460,2040) translate(127.475 33.599999999999994)"/><path d="M1743.26 2115.2H1733m-10.28 0h-20.53m-10.28 0h-20.54m-10.27 0h-20.52m-10.27 0h-20.52m-10.27 0h-20.53m-10.26 0h-20.53m-10.27 0h-20.53m-10.27 0h-20.54m-10.26 0h-20.54m-10.27 0h-20.54m-10.27 0h-20.02m-9.73 0h-19.48m-9.73 0h-19.48m-9.74 0h-19.47m-9.74 0h-19.46m-9.74 0h-19.47m-9.74 0h-19.5m-9.72 0h-19.48m-9.74 0H1161m-9.75 0h-19.47m-9.74 0h-19.47m-9.74 0h-9.74M1743.23 2115.2h1.03" stroke="#3a414a" stroke-width="2" fill="none"/><path d="M1067.83 2115.2l14.26-4.64v9.27z" stroke="#3a414a" stroke-width="2" fill="#3a414a"/><path d="M1104 2108a8 8 0 0 1 8-8h224a8 8 0 0 1 8 8v44a8 8 0 0 1-8 8h-224a8 8 0 0 1-8-8z" fill="none"/><use xlink:href="#K" transform="matrix(1,0,0,1,1104.005445647333,2100) translate(46.100000000000094 33.599999999999994)"/><use xlink:href="#L" transform="matrix(1,0,0,1,1104.005445647333,2100) translate(107.05000000000001 33.599999999999994)"/><path d="M761 2342.67H1004.1M761.03 2342.67H760" stroke="#3a414a" stroke-width="2" fill="none"/><path d="M1019.35 2342.67l-14.26 4.63v-9.27z" stroke="#3a414a" stroke-width="2" fill="#3a414a"/><use xlink:href="#M" transform="matrix(1,0,0,1,766.8942494408504,2351.301920360989) translate(0.0049999999999954525 14.399999999999984)"/><use xlink:href="#N" transform="matrix(1,0,0,1,766.8942494408504,2351.301920360989) translate(66.95499999999991 14.399999999999984)"/><use xlink:href="#O" transform="matrix(1,0,0,1,766.8942494408504,2351.301920360989) translate(120.85499999999985 14.399999999999984)"/><use xlink:href="#P" transform="matrix(1,0,0,1,766.8942494408504,2351.301920360989) translate(159.8549999999998 14.399999999999984)"/><use xlink:href="#Q" transform="matrix(1,0,0,1,766.8942494408504,2351.301920360989) translate(194.85499999999973 14.399999999999984)"/><path d="M1065.6 2356.48h296.9" stroke="#3a414a" stroke-width="2" fill="none"/><path d="M1065.6 2357.48h-1v-2h1z" stroke="#3a414a" stroke-width=".05" fill="#3a414a"/><path d="M1377.77 2356.48l-14.27 4.63v-9.26z" stroke="#3a414a" stroke-width="2" fill="#3a414a"/><path d="M1424 2369.07h656.5M1424.03 2369.07H1423" stroke="#3a414a" stroke-width="2" fill="none"/><path d="M2095.76 2369.07l-14.26 4.64v-9.26z" stroke="#3a414a" stroke-width="2" fill="#3a414a"/><use xlink:href="#R" transform="matrix(1,0,0,1,1518.7868146996484,2343.472397976532) translate(0.0049999999999954525 14.399999999999984)"/><use xlink:href="#S" transform="matrix(1,0,0,1,1518.7868146996484,2343.472397976532) translate(44.00499999999994 14.399999999999984)"/><use xlink:href="#T" transform="matrix(1,0,0,1,1518.7868146996484,2343.472397976532) translate(97.90499999999986 14.399999999999984)"/><use xlink:href="#U" transform="matrix(1,0,0,1,1518.7868146996484,2343.472397976532) translate(117.90499999999983 14.399999999999984)"/><path d="M1100 2328a8 8 0 0 1 8-8h224a8 8 0 0 1 8 8v44a8 8 0 0 1-8 8h-224a8 8 0 0 1-8-8z" fill="none"/><use xlink:href="#w" transform="matrix(1,0,0,1,1100,2320) translate(69.55000000000007 33.599999999999994)"/><use xlink:href="#V" transform="matrix(1,0,0,1,1100,2320) translate(121.55000000000001 33.599999999999994)"/><path d="M2098 2415.17h-10.34m-10.33 0h-20.67m-10.34 0h-20.67m-10.34 0h-20.66m-10.33 0h-20.66m-10.34 0h-10.39l-.04.02h-.05l-.03.04-.04.03-.04.04-.04.06-.02.05v.11l-.02.06v.05l-.03.06-.04.05-.03.05-.04.03-.06.03-.05.03h-.06l-.05.02h-9.18m-9.17 0h-18.33m-9.17 0h-18.34m-9.16 0h-18.34m-9.17 0h-18.33m-9.17 0h-9.17" stroke="#3a414a" stroke-width="2" fill="none"/><path d="M2099 2416.17h-1.03v-2h1.03z" stroke="#3a414a" stroke-width=".05" fill="#3a414a"/><path d="M1789.5 2415.85l14.26-4.64v9.28z" stroke="#3a414a" stroke-width="2" fill="#3a414a"/><use xlink:href="#R" transform="matrix(1,0,0,1,1822.2362957649989,2419.847084759112) translate(0.0049999999999954525 14.399999999999984)"/><use xlink:href="#W" transform="matrix(1,0,0,1,1822.2362957649989,2419.847084759112) translate(44.00499999999994 14.399999999999984)"/><use xlink:href="#X" transform="matrix(1,0,0,1,1822.2362957649989,2419.847084759112) translate(97.90499999999986 14.399999999999984)"/><use xlink:href="#Y" transform="matrix(1,0,0,1,1822.2362957649989,2419.847084759112) translate(146.8049999999998 14.399999999999984)"/><use xlink:href="#Z" transform="matrix(1,0,0,1,1822.2362957649989,2419.847084759112) translate(166.80499999999978 14.399999999999984)"/><path d="M1743.26 2432.04h-10m-10 0h-20m-10.02 0h-20m-10 0h-20m-10 0h-20.02m-10 0h-20m-10 0h-20m-10 0h-20.02m-10 0h-20m-10 0h-20m-10.02 0h-20m-10 0h-20m-10 0h-20.02m-10 0h-20m-10 0h-20m-10 0h-20.02m-10 0h-20m-10 0h-20m-10.02 0h-20m-10 0h-20m-10 0h-20.02m-10 0h-20m-10 0h-10M1743.23 2432.04h1.03" stroke="#3a414a" stroke-width="2" fill="none"/><path d="M1067.83 2432.04l14.26-4.64v9.27z" stroke="#3a414a" stroke-width="2" fill="#3a414a"/><use xlink:href="#aa" transform="matrix(1,0,0,1,1495.0310630377792,2406.4388613219626) translate(0.0049999999999954525 14.399999999999984)"/><use xlink:href="#ab" transform="matrix(1,0,0,1,1495.0310630377792,2406.4388613219626) translate(46.954999999999934 14.399999999999984)"/><use xlink:href="#T" transform="matrix(1,0,0,1,1495.0310630377792,2406.4388613219626) translate(95.85499999999988 14.399999999999984)"/><use xlink:href="#ac" transform="matrix(1,0,0,1,1495.0310630377792,2406.4388613219626) translate(115.85499999999985 14.399999999999984)"/><path d="M1021.6 2448.33h-10.14m-10.13 0h-20.26m-10.13 0H950.7m-10.14 0H920.3m-10.13 0h-20.25m-10.13 0h-20.27m-10.13 0h-20.25m-10.13 0h-20.26m-10.13 0H778.5" stroke="#3a414a" stroke-width="2" fill="none"/><path d="M1022.6 2447.33v2h-1.04v-2z" stroke="#3a414a" stroke-width=".05" fill="#3a414a"/><path d="M763.24 2448.33l14.26-4.63v9.27z" stroke="#3a414a" stroke-width="2" fill="#3a414a"/><use xlink:href="#ad" transform="matrix(1,0,0,1,774.2376432054245,2456.9680184280073) translate(0.0049999999999954525 14.399999999999984)"/><use xlink:href="#ae" transform="matrix(1,0,0,1,774.2376432054245,2456.9680184280073) translate(46.954999999999934 14.399999999999984)"/><use xlink:href="#af" transform="matrix(1,0,0,1,774.2376432054245,2456.9680184280073) translate(95.85499999999988 14.399999999999984)"/><use xlink:href="#ag" transform="matrix(1,0,0,1,774.2376432054245,2456.9680184280073) translate(136.7049999999998 14.399999999999984)"/><use xlink:href="#ah" transform="matrix(1,0,0,1,774.2376432054245,2456.9680184280073) translate(157.6549999999998 14.399999999999984)"/><path d="M1380 1760h-9.9m-9.9 0h-19.8m-9.88 0h-19.8m-9.9 0h-19.8m-9.88 0h-19.8m-9.9 0h-19.8m-9.9 0h-19.78m-9.9 0h-19.8m-9.9 0h-19.78m-9.9 0h-19.8m-9.9 0h-9.9" stroke="#3a414a" stroke-width="2" fill="none"/><path d="M1381 1761h-1.02v-2h1.02z" stroke="#3a414a" stroke-width=".05" fill="#3a414a"/><path d="M1067.82 1760l14.27-4.63v9.27z" stroke="#3a414a" stroke-width="2" fill="#3a414a"/><use xlink:href="#ai" transform="matrix(1,0,0,1,1154.8454767773392,1734.4000054626786) translate(0.0049999999999954525 14.399999999999984)"/><use xlink:href="#aj" transform="matrix(1,0,0,1,1154.8454767773392,1734.4000054626786) translate(48.954999999999934 14.399999999999984)"/><path d="M1743.26 1740h-10.06m-10.06 0h-20.12m-10.06 0h-20.1m-10.07 0h-20.13m-10.06 0h-20.1m-10.06 0h-20.12m-10.06 0h-20.1m-10.07 0h-20.13m-10.06 0h-20.1m-10.06 0h-20.12m-10.06 0h-10.05" stroke="#3a414a" stroke-width="2" fill="none"/><path d="M1744.26 1741h-1.03v-2h1.03z" stroke="#3a414a" stroke-width=".05" fill="#3a414a"/><path d="M1426.24 1740l14.27-4.63v9.27z" stroke="#3a414a" stroke-width="2" fill="#3a414a"/><path d="M1460 1708a8 8 0 0 1 8-8h224a8 8 0 0 1 8 8v44a8 8 0 0 1-8 8h-224a8 8 0 0 1-8-8z" fill="none"/><use xlink:href="#ak" transform="matrix(1,0,0,1,1460,1700) translate(41.600000000000094 33.599999999999994)"/><use xlink:href="#al" transform="matrix(1,0,0,1,1460,1700) translate(93.50000000000003 33.599999999999994)"/><use xlink:href="#am" transform="matrix(1,0,0,1,1460,1700) translate(169.44999999999993 33.599999999999994)"/><path d="M1380 2167.58h-296.9M1379.98 2167.58h1.02" stroke="#3a414a" stroke-width="2" fill="none"/><path d="M1067.82 2167.58l14.27-4.64v9.28z" stroke="#3a414a" stroke-width="2" fill="#3a414a"/><g><use xlink:href="#ad" transform="matrix(1,0,0,1,1097.4456718273861,2171.5794141271754) translate(0.0049999999999954525 14.399999999999984)"/><use xlink:href="#an" transform="matrix(1,0,0,1,1097.4456718273861,2171.5794141271754) translate(46.954999999999934 14.399999999999984)"/><use xlink:href="#ao" transform="matrix(1,0,0,1,1097.4456718273861,2171.5794141271754) translate(147.8049999999998 14.399999999999984)"/><use xlink:href="#Y" transform="matrix(1,0,0,1,1097.4456718273861,2171.5794141271754) translate(195.75499999999974 14.399999999999984)"/><use xlink:href="#ap" transform="matrix(1,0,0,1,1097.4456718273861,2171.5794141271754) translate(215.7549999999997 14.399999999999984)"/></g><path d="M1021.6 2190.97H778.5" stroke="#3a414a" stroke-width="2" fill="none"/><path d="M1022.6 2189.97v2h-1.04v-2z" stroke="#3a414a" stroke-width=".05" fill="#3a414a"/><path d="M763.24 2190.97l14.26-4.64v9.27z" stroke="#3a414a" stroke-width="2" fill="#3a414a"/><g><use xlink:href="#aq" transform="matrix(1,0,0,1,849.3686144653873,2194.966493236878) translate(0.005000000000002558 14.399999999999984)"/><use xlink:href="#ar" transform="matrix(1,0,0,1,849.3686144653873,2194.966493236878) translate(40.90499999999996 14.399999999999984)"/></g><path d="M761 2234.14h10.13m10.13 0h20.25m10.14 0h20.26m10.13 0h20.26m10.12 0h20.25m10.13 0h20.26m10.13 0h20.24m10.13 0h20.26m10.13 0h10.13M761.03 2234.14H760" stroke="#3a414a" stroke-width="2" fill="none"/><path d="M1019.35 2234.14l-14.26 4.64v-9.27z" stroke="#3a414a" stroke-width="2" fill="#3a414a"/><g><use xlink:href="#as" transform="matrix(1,0,0,1,828.4701817310348,2238.1434909853506) translate(0.005000000000002558 14.399999999999984)"/><use xlink:href="#at" transform="matrix(1,0,0,1,828.4701817310348,2238.1434909853506) translate(63.004999999999924 14.399999999999984)"/></g><path d="M1065.6 2248.54h296.9" stroke="#3a414a" stroke-width="2" fill="none"/><path d="M1065.6 2249.54h-1v-2h1z" stroke="#3a414a" stroke-width=".05" fill="#3a414a"/><path d="M1377.77 2248.54l-14.27 4.63v-9.27z" stroke="#3a414a" stroke-width="2" fill="#3a414a"/><g><use xlink:href="#au" transform="matrix(1,0,0,1,1149.3205567942164,2222.9363774694966) translate(0.0049999999999954525 14.399999999999984)"/><use xlink:href="#av" transform="matrix(1,0,0,1,1149.3205567942164,2222.9363774694966) translate(39.004999999999946 14.399999999999984)"/><use xlink:href="#Y" transform="matrix(1,0,0,1,1149.3205567942164,2222.9363774694966) translate(52.95499999999993 14.399999999999984)"/><use xlink:href="#Z" transform="matrix(1,0,0,1,1149.3205567942164,2222.9363774694966) translate(72.9549999999999 14.399999999999984)"/></g><path d="M1424 2259.5h301.76M1424.03 2259.5H1423" stroke="#3a414a" stroke-width="2" fill="none"/><path d="M1741.02 2259.5l-14.26 4.64v-9.28z" stroke="#3a414a" stroke-width="2" fill="#3a414a"/><g><use xlink:href="#aw" transform="matrix(1,0,0,1,1448.8044412896415,2233.899682175712) translate(0.0049999999999954525 14.399999999999984)"/><use xlink:href="#ax" transform="matrix(1,0,0,1,1448.8044412896415,2233.899682175712) translate(48.90499999999994 14.399999999999984)"/><use xlink:href="#ay" transform="matrix(1,0,0,1,1448.8044412896415,2233.899682175712) translate(121.90499999999986 14.399999999999984)"/><use xlink:href="#Y" transform="matrix(1,0,0,1,1448.8044412896415,2233.899682175712) translate(160.85499999999982 14.399999999999984)"/><use xlink:href="#az" transform="matrix(1,0,0,1,1448.8044412896415,2233.899682175712) translate(180.8549999999998 14.399999999999984)"/><use xlink:href="#aA" transform="matrix(1,0,0,1,1448.8044412896415,2233.899682175712) translate(220.80499999999975 14.399999999999984)"/></g><path d="M1743.26 2281.33H1441.5M1743.23 2281.33h1.03" stroke="#3a414a" stroke-width="2" fill="none"/><path d="M1426.24 2281.33l14.27-4.63v9.27z" stroke="#3a414a" stroke-width="2" fill="#3a414a"/><g><use xlink:href="#aB" transform="matrix(1,0,0,1,1508.7796729059337,2285.333354746982) translate(0.0049999999999954525 14.399999999999984)"/><use xlink:href="#aC" transform="matrix(1,0,0,1,1508.7796729059337,2285.333354746982) translate(51.90499999999993 14.399999999999984)"/></g><path d="M1380 2292h-296.9M1379.98 2292h1.02" stroke="#3a414a" stroke-width="2" fill="none"/><path d="M1067.82 2292l14.27-4.64v9.28z" stroke="#3a414a" stroke-width="2" fill="#3a414a"/><g><use xlink:href="#aD" transform="matrix(1,0,0,1,1135.9207025613196,2295.999976143574) translate(0.0049999999999954525 14.399999999999984)"/><use xlink:href="#aE" transform="matrix(1,0,0,1,1135.9207025613196,2295.999976143574) translate(100.85499999999988 14.399999999999984)"/></g><path d="M2380 1413.45a16 16 0 0 1 16-16h208a16 16 0 0 1 16 16v148a16 16 0 0 1-16 16h-208a16 16 0 0 1-16-16z" stroke="#dfe3e8" stroke-width="2" fill="#fff"/><path d="M2455.45 1489.07c0 8.93-7.24 16.16-16.17 16.16-8.93 0-16.17-7.23-16.17-16.16s7.25-16.17 16.18-16.17 16.17 7.24 16.17 16.17z" stroke="#000" stroke-opacity=".25" fill="#333"/><path d="M2455.45 1532.18c0 8.93-7.24 16.17-16.17 16.17-8.93 0-16.17-7.24-16.17-16.17 0-8.93 7.25-16.17 16.18-16.17s16.17 7.25 16.17 16.18z" stroke="#000" stroke-opacity=".25" fill="#6db1ff"/><g><use xlink:href="#aF" transform="matrix(1,0,0,1,2423.11377245509,1429.7854859888344) translate(0 19.22002805654473)"/><use xlink:href="#aG" transform="matrix(1,0,0,1,2423.11377245509,1429.7854859888344) translate(53.55145498363369 19.22002805654473)"/></g><g><use xlink:href="#aH" transform="matrix(1,0,0,1,2471.6167664670656,1472.899258443924) translate(0 19.070804236229947)"/><use xlink:href="#aI" transform="matrix(1,0,0,1,2471.6167664670656,1472.899258443924) translate(45.85647998273444 19.070804236229947)"/><use xlink:href="#aJ" transform="matrix(1,0,0,1,2471.6167664670656,1472.899258443924) translate(68.83694831121184 19.070804236229947)"/></g><g><use xlink:href="#aH" transform="matrix(1,0,0,1,2471.6167664670656,1516.013030899014) translate(0 19.070804236229947)"/><use xlink:href="#aI" transform="matrix(1,0,0,1,2471.6167664670656,1516.013030899014) translate(45.85647998273444 19.070804236229947)"/><use xlink:href="#aJ" transform="matrix(1,0,0,1,2471.6167664670656,1516.013030899014) translate(68.83694831121184 19.070804236229947)"/></g><path d="M995.3 2568a8 8 0 0 1 8-8h80.57a8 8 0 0 1 8 8v73.86a8 8 0 0 1-8 8h-80.56a8 8 0 0 1-8-8z" fill="none"/><path d="M1004.96 2569l77.25 71.88m0-71.9l-77.24 71.9" stroke="#5d646f" stroke-width="8" fill="none"/><path d="M1382 2028a8 8 0 0 1 8-8h24a8 8 0 0 1 8 8v64a8 8 0 0 1-8 8h-24a8 8 0 0 1-8-8zM1380 2168a8 8 0 0 1 8-8h24a8 8 0 0 1 8 8v224a8 8 0 0 1-8 8h-24a8 8 0 0 1-8-8zM1745.26 2068a8 8 0 0 1 8-8h24a8 8 0 0 1 8 8v64a8 8 0 0 1-8 8h-24a8 8 0 0 1-8-8zM1745.26 2248a8 8 0 0 1 8-8h24a8 8 0 0 1 8 8v44a8 8 0 0 1-8 8h-24a8 8 0 0 1-8-8zM1745.26 2408a8 8 0 0 1 8-8h24a8 8 0 0 1 8 8v22.33a8 8 0 0 1-8 8h-24a8 8 0 0 1-8-8zM2100 2353.05a8 8 0 0 1 8-8h24a8 8 0 0 1 8 8v64a8 8 0 0 1-8 8h-24a8 8 0 0 1-8-8z" stroke="#3a414a" stroke-width="2" fill="#fff"/><defs><path fill="#333" d="M84 4C-5 8 30-112 23-190h32v120c0 31 7 50 39 49 72-2 45-101 50-169h31l1 190h-30c-1-10 1-25-2-33-11 22-28 36-60 37" id="aK"/><path fill="#333" d="M135-143c-3-34-86-38-87 0 15 53 115 12 119 90S17 21 10-45l28-5c4 36 97 45 98 0-10-56-113-15-118-90-4-57 82-63 122-42 12 7 21 19 24 35" id="aL"/><path fill="#333" d="M100-194c63 0 86 42 84 106H49c0 40 14 67 53 68 26 1 43-12 49-29l28 8c-11 28-37 45-77 45C44 4 14-33 15-96c1-61 26-98 85-98zm52 81c6-60-76-77-97-28-3 7-6 17-6 28h103" id="aM"/><path fill="#333" d="M114-163C36-179 61-72 57 0H25l-1-190h30c1 12-1 29 2 39 6-27 23-49 58-41v29" id="aN"/><g id="a"><use transform="matrix(0.04938271604938272,0,0,0.04938271604938272,0,0)" xlink:href="#aK"/><use transform="matrix(0.04938271604938272,0,0,0.04938271604938272,9.876543209876544,0)" xlink:href="#aL"/><use transform="matrix(0.04938271604938272,0,0,0.04938271604938272,18.765432098765434,0)" xlink:href="#aM"/><use transform="matrix(0.04938271604938272,0,0,0.04938271604938272,28.641975308641978,0)" xlink:href="#aN"/><path fill="#333" d="M-.9 1.23h41.24v1.3H-.9z"/></g><path fill="#333" d="M115-194c55 1 70 41 70 98S169 2 115 4C84 4 66-9 55-30l1 105H24l-1-265h31l2 30c10-21 28-34 59-34zm-8 174c40 0 45-34 45-75s-6-73-45-74c-42 0-51 32-51 76 0 43 10 73 51 73" id="aO"/><path fill="#333" d="M141-36C126-15 110 5 73 4 37 3 15-17 15-53c-1-64 63-63 125-63 3-35-9-54-41-54-24 1-41 7-42 31l-33-3c5-37 33-52 76-52 45 0 72 20 72 64v82c-1 20 7 32 28 27v20c-31 9-61-2-59-35zM48-53c0 20 12 33 32 33 41-3 63-29 60-74-43 2-92-5-92 41" id="aP"/><path fill="#333" d="M117-194c89-4 53 116 60 194h-32v-121c0-31-8-49-39-48C34-167 62-67 57 0H25l-1-190h30c1 10-1 24 2 32 11-22 29-35 61-36" id="aQ"/><path fill="#333" d="M24 0v-261h32V0H24" id="aR"/><g id="b"><use transform="matrix(0.04938271604938272,0,0,0.04938271604938272,0,0)" xlink:href="#aO"/><use transform="matrix(0.04938271604938272,0,0,0.04938271604938272,9.876543209876544,0)" xlink:href="#aP"/><use transform="matrix(0.04938271604938272,0,0,0.04938271604938272,19.75308641975309,0)" xlink:href="#aQ"/><use transform="matrix(0.04938271604938272,0,0,0.04938271604938272,29.629629629629633,0)" xlink:href="#aM"/><use transform="matrix(0.04938271604938272,0,0,0.04938271604938272,39.50617283950618,0)" xlink:href="#aR"/><path fill="#333" d="M-.9 1.23h45.2v1.3H-.9z"/></g><path fill="#333" d="M160-131c35 5 61 23 61 61C221 17 115-2 30 0v-248c76 3 177-17 177 60 0 33-19 50-47 57zm-97-11c50-1 110 9 110-42 0-47-63-36-110-37v79zm0 115c55-2 124 14 124-45 0-56-70-42-124-44v89" id="aS"/><path fill="#333" d="M96-169c-40 0-48 33-48 73s9 75 48 75c24 0 41-14 43-38l32 2c-6 37-31 61-74 61-59 0-76-41-82-99-10-93 101-131 147-64 4 7 5 14 7 22l-32 3c-4-21-16-35-41-35" id="aT"/><path fill="#333" d="M143 0L79-87 56-68V0H24v-261h32v163l83-92h37l-77 82L181 0h-38" id="aU"/><path d="M117-194c89-4 53 116 60 194h-32v-121c0-31-8-49-39-48C34-167 62-67 57 0H25l-1-190h30c1 10-1 24 2 32 11-22 29-35 61-36" id="aV"/><path d="M85-194c31 0 48 13 60 33l-1-100h32l1 261h-30c-2-10 0-23-3-31C134-8 116 4 85 4 32 4 16-35 15-94c0-66 23-100 70-100zm9 24c-40 0-46 34-46 75 0 40 6 74 45 74 42 0 51-32 51-76 0-42-9-74-50-73" id="aW"/><g id="c"><use transform="matrix(0.04938271604938272,0,0,0.04938271604938272,0,0)" xlink:href="#aS"/><use transform="matrix(0.04938271604938272,0,0,0.04938271604938272,11.851851851851853,0)" xlink:href="#aP"/><use transform="matrix(0.04938271604938272,0,0,0.04938271604938272,21.7283950617284,0)" xlink:href="#aT"/><use transform="matrix(0.04938271604938272,0,0,0.04938271604938272,30.617283950617285,0)" xlink:href="#aU"/><use transform="matrix(0.04938271604938272,0,0,0.04938271604938272,39.50617283950618,0)" xlink:href="#aM"/><path fill="#333" d="M-.9 1.23h51.17v1.3H-.9z"/><use transform="matrix(0.04938271604938272,0,0,0.04938271604938272,49.38271604938272,0)" xlink:href="#aV"/><use transform="matrix(0.04938271604938272,0,0,0.04938271604938272,59.25925925925927,0)" xlink:href="#aW"/><path d="M48.5 1.23h26.46v1.3H48.5z"/></g><path d="M185-189c-5-48-123-54-124 2 14 75 158 14 163 119 3 78-121 87-175 55-17-10-28-26-33-46l33-7c5 56 141 63 141-1 0-78-155-14-162-118-5-82 145-84 179-34 5 7 8 16 11 25" id="aX"/><path d="M100-194c63 0 86 42 84 106H49c0 40 14 67 53 68 26 1 43-12 49-29l28 8c-11 28-37 45-77 45C44 4 14-33 15-96c1-61 26-98 85-98zm52 81c6-60-76-77-97-28-3 7-6 17-6 28h103" id="aY"/><path d="M114-163C36-179 61-72 57 0H25l-1-190h30c1 12-1 29 2 39 6-27 23-49 58-41v29" id="aZ"/><path d="M108 0H70L1-190h34L89-25l56-165h34" id="ba"/><g id="d"><use transform="matrix(0.04938271604938272,0,0,0.04938271604938272,0,0)" xlink:href="#aX"/><use transform="matrix(0.04938271604938272,0,0,0.04938271604938272,11.851851851851853,0)" xlink:href="#aY"/><use transform="matrix(0.04938271604938272,0,0,0.04938271604938272,21.7283950617284,0)" xlink:href="#aZ"/><use transform="matrix(0.04938271604938272,0,0,0.04938271604938272,27.604938271604947,0)" xlink:href="#ba"/><use transform="matrix(0.04938271604938272,0,0,0.04938271604938272,36.49382716049384,0)" xlink:href="#aY"/><use transform="matrix(0.04938271604938272,0,0,0.04938271604938272,46.37037037037038,0)" xlink:href="#aZ"/><path d="M-.9 1.23h54.03v1.3H-.9z"/></g><path d="M30-248c118-7 216 8 213 122C240-48 200 0 122 0H30v-248zM63-27c89 8 146-16 146-99s-60-101-146-95v194" id="bb"/><path d="M141-36C126-15 110 5 73 4 37 3 15-17 15-53c-1-64 63-63 125-63 3-35-9-54-41-54-24 1-41 7-42 31l-33-3c5-37 33-52 76-52 45 0 72 20 72 64v82c-1 20 7 32 28 27v20c-31 9-61-2-59-35zM48-53c0 20 12 33 32 33 41-3 63-29 60-74-43 2-92-5-92 41" id="bc"/><path d="M59-47c-2 24 18 29 38 22v24C64 9 27 4 27-40v-127H5v-23h24l9-43h21v43h35v23H59v120" id="bd"/><path d="M115-194c53 0 69 39 70 98 0 66-23 100-70 100C84 3 66-7 56-30L54 0H23l1-261h32v101c10-23 28-34 59-34zm-8 174c40 0 45-34 45-75 0-40-5-75-45-74-42 0-51 32-51 76 0 43 10 73 51 73" id="be"/><path d="M135-143c-3-34-86-38-87 0 15 53 115 12 119 90S17 21 10-45l28-5c4 36 97 45 98 0-10-56-113-15-118-90-4-57 82-63 122-42 12 7 21 19 24 35" id="bf"/><g id="e"><use transform="matrix(0.04938271604938272,0,0,0.04938271604938272,0,0)" xlink:href="#bb"/><use transform="matrix(0.04938271604938272,0,0,0.04938271604938272,12.790123456790125,0)" xlink:href="#bc"/><use transform="matrix(0.04938271604938272,0,0,0.04938271604938272,22.66666666666667,0)" xlink:href="#bd"/><use transform="matrix(0.04938271604938272,0,0,0.04938271604938272,27.604938271604947,0)" xlink:href="#bc"/><use transform="matrix(0.04938271604938272,0,0,0.04938271604938272,37.48148148148149,0)" xlink:href="#be"/><use transform="matrix(0.04938271604938272,0,0,0.04938271604938272,47.35802469135803,0)" xlink:href="#bc"/><use transform="matrix(0.04938271604938272,0,0,0.04938271604938272,57.23456790123457,0)" xlink:href="#bf"/><use transform="matrix(0.04938271604938272,0,0,0.04938271604938272,66.12345679012347,0)" xlink:href="#aY"/><path d="M-.9 1.23h77.8v1.3H-.9z"/></g><path fill="#3a414a" d="M205 0l-28-72H64L36 0H1l101-248h38L239 0h-34zm-38-99l-47-123c-12 45-31 82-46 123h93" id="bg"/><path fill="#3a414a" d="M96-169c-40 0-48 33-48 73s9 75 48 75c24 0 41-14 43-38l32 2c-6 37-31 61-74 61-59 0-76-41-82-99-10-93 101-131 147-64 4 7 5 14 7 22l-32 3c-4-21-16-35-41-35" id="bh"/><path fill="#3a414a" d="M59-47c-2 24 18 29 38 22v24C64 9 27 4 27-40v-127H5v-23h24l9-43h21v43h35v23H59v120" id="bi"/><path fill="#3a414a" d="M100-194c62-1 85 37 85 99 1 63-27 99-86 99S16-35 15-95c0-66 28-99 85-99zM99-20c44 1 53-31 53-75 0-43-8-75-51-75s-53 32-53 75 10 74 51 75" id="bj"/><path fill="#3a414a" d="M114-163C36-179 61-72 57 0H25l-1-190h30c1 12-1 29 2 39 6-27 23-49 58-41v29" id="bk"/><g id="f"><use transform="matrix(0.04938271604938272,0,0,0.04938271604938272,0,0)" xlink:href="#bg"/><use transform="matrix(0.04938271604938272,0,0,0.04938271604938272,11.851851851851853,0)" xlink:href="#bh"/><use transform="matrix(0.04938271604938272,0,0,0.04938271604938272,20.74074074074074,0)" xlink:href="#bi"/><use transform="matrix(0.04938271604938272,0,0,0.04938271604938272,25.679012345679016,0)" xlink:href="#bj"/><use transform="matrix(0.04938271604938272,0,0,0.04938271604938272,35.55555555555556,0)" xlink:href="#bk"/></g><path fill="#3a414a" d="M24 0v-261h32V0H24" id="bl"/><path fill="#3a414a" d="M177-190C167-65 218 103 67 71c-23-6-38-20-44-43l32-5c15 47 100 32 89-28v-30C133-14 115 1 83 1 29 1 15-40 15-95c0-56 16-97 71-98 29-1 48 16 59 35 1-10 0-23 2-32h30zM94-22c36 0 50-32 50-73 0-42-14-75-50-75-39 0-46 34-46 75s6 73 46 73" id="bm"/><path fill="#3a414a" d="M24-231v-30h32v30H24zM24 0v-190h32V0H24" id="bn"/><path fill="#3a414a" d="M117-194c89-4 53 116 60 194h-32v-121c0-31-8-49-39-48C34-167 62-67 57 0H25l-1-190h30c1 10-1 24 2 32 11-22 29-35 61-36" id="bo"/><g id="g"><use transform="matrix(0.05,0,0,0.05,0,0)" xlink:href="#bl"/><use transform="matrix(0.05,0,0,0.05,3.95,0)" xlink:href="#bj"/><use transform="matrix(0.05,0,0,0.05,13.949999999999998,0)" xlink:href="#bm"/><use transform="matrix(0.05,0,0,0.05,23.95,0)" xlink:href="#bn"/><use transform="matrix(0.05,0,0,0.05,27.899999999999995,0)" xlink:href="#bo"/></g><path fill="#3a414a" d="M100-194c63 0 86 42 84 106H49c0 40 14 67 53 68 26 1 43-12 49-29l28 8c-11 28-37 45-77 45C44 4 14-33 15-96c1-61 26-98 85-98zm52 81c6-60-76-77-97-28-3 7-6 17-6 28h103" id="bp"/><path fill="#3a414a" d="M141-36C126-15 110 5 73 4 37 3 15-17 15-53c-1-64 63-63 125-63 3-35-9-54-41-54-24 1-41 7-42 31l-33-3c5-37 33-52 76-52 45 0 72 20 72 64v82c-1 20 7 32 28 27v20c-31 9-61-2-59-35zM48-53c0 20 12 33 32 33 41-3 63-29 60-74-43 2-92-5-92 41" id="bq"/><path fill="#3a414a" d="M108 0H70L1-190h34L89-25l56-165h34" id="br"/><g id="h"><use transform="matrix(0.04999999999999994,0,0,0.04999999999999994,0,0)" xlink:href="#bg"/><use transform="matrix(0.04999999999999994,0,0,0.04999999999999994,11.999999999999986,0)" xlink:href="#bl"/><use transform="matrix(0.04999999999999994,0,0,0.04999999999999994,15.949999999999982,0)" xlink:href="#bi"/><use transform="matrix(0.04999999999999994,0,0,0.04999999999999994,20.949999999999974,0)" xlink:href="#bp"/><use transform="matrix(0.04999999999999994,0,0,0.04999999999999994,30.949999999999957,0)" xlink:href="#bk"/><use transform="matrix(0.04999999999999994,0,0,0.04999999999999994,36.899999999999956,0)" xlink:href="#bo"/><use transform="matrix(0.04999999999999994,0,0,0.04999999999999994,46.89999999999994,0)" xlink:href="#bq"/><use transform="matrix(0.04999999999999994,0,0,0.04999999999999994,56.899999999999935,0)" xlink:href="#bi"/><use transform="matrix(0.04999999999999994,0,0,0.04999999999999994,61.89999999999991,0)" xlink:href="#bn"/><use transform="matrix(0.04999999999999994,0,0,0.04999999999999994,65.84999999999991,0)" xlink:href="#br"/><use transform="matrix(0.04999999999999994,0,0,0.04999999999999994,74.8499999999999,0)" xlink:href="#bp"/></g><path fill="#3a414a" d="M101-234c-31-9-42 10-38 44h38v23H63V0H32v-167H5v-23h27c-7-52 17-82 69-68v24" id="bs"/><g id="i"><use transform="matrix(0.04999999999999994,0,0,0.04999999999999994,0,0)" xlink:href="#bn"/><use transform="matrix(0.04999999999999994,0,0,0.04999999999999994,3.9499999999999953,0)" xlink:href="#bs"/></g><path fill="#3a414a" d="M84 4C-5 8 30-112 23-190h32v120c0 31 7 50 39 49 72-2 45-101 50-169h31l1 190h-30c-1-10 1-25-2-33-11 22-28 36-60 37" id="bt"/><g id="j"><use transform="matrix(0.04999999999999994,0,0,0.04999999999999994,0,0)" xlink:href="#bi"/><use transform="matrix(0.04999999999999994,0,0,0.04999999999999994,4.999999999999994,0)" xlink:href="#bk"/><use transform="matrix(0.04999999999999994,0,0,0.04999999999999994,10.949999999999987,0)" xlink:href="#bt"/><use transform="matrix(0.04999999999999994,0,0,0.04999999999999994,20.949999999999974,0)" xlink:href="#bp"/></g><path fill="#3a414a" d="M26 75v-336h71v23H56V52h41v23H26" id="bu"/><path fill="#3a414a" d="M30 0v-248h187v28H63v79h144v27H63v87h162V0H30" id="bv"/><path fill="#3a414a" d="M135-143c-3-34-86-38-87 0 15 53 115 12 119 90S17 21 10-45l28-5c4 36 97 45 98 0-10-56-113-15-118-90-4-57 82-63 122-42 12 7 21 19 24 35" id="bw"/><path fill="#3a414a" d="M3 75V52h41v-290H3v-23h71V75H3" id="bx"/><g id="k"><use transform="matrix(0.04999999999999994,0,0,0.04999999999999994,0,0)" xlink:href="#bu"/><use transform="matrix(0.04999999999999994,0,0,0.04999999999999994,4.999999999999994,0)" xlink:href="#bv"/><use transform="matrix(0.04999999999999994,0,0,0.04999999999999994,16.99999999999998,0)" xlink:href="#bl"/><use transform="matrix(0.04999999999999994,0,0,0.04999999999999994,20.949999999999974,0)" xlink:href="#bw"/><use transform="matrix(0.04999999999999994,0,0,0.04999999999999994,29.949999999999964,0)" xlink:href="#bp"/><use transform="matrix(0.04999999999999994,0,0,0.04999999999999994,39.94999999999995,0)" xlink:href="#bx"/></g><g id="l"><use transform="matrix(0.043827160493827094,0,0,0.043827160493827094,0,0)" xlink:href="#bg"/><use transform="matrix(0.043827160493827094,0,0,0.043827160493827094,10.518518518518503,0)" xlink:href="#bl"/><use transform="matrix(0.043827160493827094,0,0,0.043827160493827094,13.980864197530844,0)" xlink:href="#bi"/><use transform="matrix(0.043827160493827094,0,0,0.043827160493827094,18.363580246913553,0)" xlink:href="#bp"/><use transform="matrix(0.043827160493827094,0,0,0.043827160493827094,27.129012345678973,0)" xlink:href="#bk"/><use transform="matrix(0.043827160493827094,0,0,0.043827160493827094,32.3444444444444,0)" xlink:href="#bo"/><use transform="matrix(0.043827160493827094,0,0,0.043827160493827094,41.10987654320982,0)" xlink:href="#bq"/><use transform="matrix(0.043827160493827094,0,0,0.043827160493827094,49.87530864197523,0)" xlink:href="#bi"/><use transform="matrix(0.043827160493827094,0,0,0.043827160493827094,54.258024691357946,0)" xlink:href="#bn"/><use transform="matrix(0.043827160493827094,0,0,0.043827160493827094,57.72037037037029,0)" xlink:href="#br"/><use transform="matrix(0.043827160493827094,0,0,0.043827160493827094,65.60925925925916,0)" xlink:href="#bp"/></g><path fill="#3a414a" d="M106-169C34-169 62-67 57 0H25v-261h32l-1 103c12-21 28-36 61-36 89 0 53 116 60 194h-32v-121c2-32-8-49-39-48" id="by"/><g id="m"><use transform="matrix(0.05617283950617278,0,0,0.05617283950617278,0,0)" xlink:href="#by"/><use transform="matrix(0.05617283950617278,0,0,0.05617283950617278,11.234567901234556,0)" xlink:href="#bq"/><use transform="matrix(0.05617283950617278,0,0,0.05617283950617278,22.46913580246911,0)" xlink:href="#bw"/></g><g id="n"><use transform="matrix(0.05617283950617278,0,0,0.05617283950617278,0,0)" xlink:href="#bq"/><use transform="matrix(0.05617283950617278,0,0,0.05617283950617278,11.234567901234556,0)" xlink:href="#bo"/></g><g id="o"><use transform="matrix(0.05617283950617278,0,0,0.05617283950617278,0,0)" xlink:href="#bq"/><use transform="matrix(0.05617283950617278,0,0,0.05617283950617278,11.234567901234556,0)" xlink:href="#bh"/><use transform="matrix(0.05617283950617278,0,0,0.05617283950617278,21.345679012345656,0)" xlink:href="#bh"/><use transform="matrix(0.05617283950617278,0,0,0.05617283950617278,31.456790123456756,0)" xlink:href="#bj"/><use transform="matrix(0.05617283950617278,0,0,0.05617283950617278,42.69135802469131,0)" xlink:href="#bt"/><use transform="matrix(0.05617283950617278,0,0,0.05617283950617278,53.92592592592587,0)" xlink:href="#bo"/><use transform="matrix(0.05617283950617278,0,0,0.05617283950617278,65.16049382716042,0)" xlink:href="#bi"/></g><g id="p"><use transform="matrix(0.04999999999999994,0,0,0.04999999999999994,0,0)" xlink:href="#bu"/><use transform="matrix(0.04999999999999994,0,0,0.04999999999999994,4.999999999999994,0)" xlink:href="#by"/><use transform="matrix(0.04999999999999994,0,0,0.04999999999999994,14.999999999999982,0)" xlink:href="#bq"/><use transform="matrix(0.04999999999999994,0,0,0.04999999999999994,24.99999999999997,0)" xlink:href="#bw"/></g><g id="q"><use transform="matrix(0.04999999999999994,0,0,0.04999999999999994,0,0)" xlink:href="#bo"/><use transform="matrix(0.04999999999999994,0,0,0.04999999999999994,9.999999999999988,0)" xlink:href="#bj"/></g><path d="M96-169c-40 0-48 33-48 73s9 75 48 75c24 0 41-14 43-38l32 2c-6 37-31 61-74 61-59 0-76-41-82-99-10-93 101-131 147-64 4 7 5 14 7 22l-32 3c-4-21-16-35-41-35" id="bz"/><path d="M100-194c62-1 85 37 85 99 1 63-27 99-86 99S16-35 15-95c0-66 28-99 85-99zM99-20c44 1 53-31 53-75 0-43-8-75-51-75s-53 32-53 75 10 74 51 75" id="bA"/><path d="M84 4C-5 8 30-112 23-190h32v120c0 31 7 50 39 49 72-2 45-101 50-169h31l1 190h-30c-1-10 1-25-2-33-11 22-28 36-60 37" id="bB"/><g id="r"><use transform="matrix(0.04999999999999994,0,0,0.04999999999999994,0,0)" xlink:href="#bq"/><use transform="matrix(0.04999999999999994,0,0,0.04999999999999994,9.999999999999988,0)" xlink:href="#bz"/><use transform="matrix(0.04999999999999994,0,0,0.04999999999999994,18.99999999999998,0)" xlink:href="#bz"/><use transform="matrix(0.04999999999999994,0,0,0.04999999999999994,27.999999999999968,0)" xlink:href="#bA"/><use transform="matrix(0.04999999999999994,0,0,0.04999999999999994,37.99999999999996,0)" xlink:href="#bB"/><use transform="matrix(0.04999999999999994,0,0,0.04999999999999994,47.99999999999994,0)" xlink:href="#aV"/><use transform="matrix(0.04999999999999994,0,0,0.04999999999999994,57.99999999999993,0)" xlink:href="#bd"/><use transform="matrix(0.04999999999999994,0,0,0.04999999999999994,62.99999999999992,0)" xlink:href="#bx"/></g><path d="M177-190C167-65 218 103 67 71c-23-6-38-20-44-43l32-5c15 47 100 32 89-28v-30C133-14 115 1 83 1 29 1 15-40 15-95c0-56 16-97 71-98 29-1 48 16 59 35 1-10 0-23 2-32h30zM94-22c36 0 50-32 50-73 0-42-14-75-50-75-39 0-46 34-46 75s6 73 46 73" id="bC"/><g id="s"><use transform="matrix(0.04999999999999994,0,0,0.04999999999999994,0,0)" xlink:href="#bw"/><use transform="matrix(0.04999999999999994,0,0,0.04999999999999994,8.99999999999999,0)" xlink:href="#bn"/><use transform="matrix(0.04999999999999994,0,0,0.04999999999999994,12.949999999999985,0)" xlink:href="#bC"/><use transform="matrix(0.04999999999999994,0,0,0.04999999999999994,22.949999999999974,0)" xlink:href="#aV"/></g><path d="M115-194c55 1 70 41 70 98S169 2 115 4C84 4 66-9 55-30l1 105H24l-1-265h31l2 30c10-21 28-34 59-34zm-8 174c40 0 45-34 45-75s-6-73-45-74c-42 0-51 32-51 76 0 43 10 73 51 73" id="bD"/><g id="t"><use transform="matrix(0.04999999999999994,0,0,0.04999999999999994,0,0)" xlink:href="#bB"/><use transform="matrix(0.04999999999999994,0,0,0.04999999999999994,9.999999999999988,0)" xlink:href="#bD"/></g><path d="M205 0l-28-72H64L36 0H1l101-248h38L239 0h-34zm-38-99l-47-123c-12 45-31 82-46 123h93" id="bE"/><path d="M33 0v-248h34V0H33" id="bF"/><g id="u"><use transform="matrix(0.04938271604938272,0,0,0.04938271604938272,0,0)" xlink:href="#bE"/><use transform="matrix(0.04938271604938272,0,0,0.04938271604938272,11.851851851851853,0)" xlink:href="#bF"/><path d="M-.9 1.23h23.52v1.3H-.88z"/></g><path d="M240 0l2-218c-23 76-54 145-80 218h-23L58-218 59 0H30v-248h44l77 211c21-75 51-140 76-211h43V0h-30" id="bG"/><path d="M24 0v-261h32V0H24" id="bH"/><g id="v"><use transform="matrix(0.04938271604938272,0,0,0.04938271604938272,0,0)" xlink:href="#bG"/><use transform="matrix(0.04938271604938272,0,0,0.04938271604938272,14.765432098765434,0)" xlink:href="#bA"/><use transform="matrix(0.04938271604938272,0,0,0.04938271604938272,24.641975308641978,0)" xlink:href="#aW"/><use transform="matrix(0.04938271604938272,0,0,0.04938271604938272,34.51851851851852,0)" xlink:href="#aY"/><use transform="matrix(0.04938271604938272,0,0,0.04938271604938272,44.39506172839506,0)" xlink:href="#bH"/><path d="M-.9 1.23H49.2v1.3H-.9z"/></g><path fill="#3a414a" d="M143 0L79-87 56-68V0H24v-261h32v163l83-92h37l-77 82L181 0h-38" id="bI"/><g id="w"><use transform="matrix(0.04999999999999994,0,0,0.04999999999999994,0,0)" xlink:href="#bh"/><use transform="matrix(0.04999999999999994,0,0,0.04999999999999994,8.99999999999999,0)" xlink:href="#by"/><use transform="matrix(0.04999999999999994,0,0,0.04999999999999994,18.99999999999998,0)" xlink:href="#bp"/><use transform="matrix(0.04999999999999994,0,0,0.04999999999999994,28.999999999999964,0)" xlink:href="#bh"/><use transform="matrix(0.04999999999999994,0,0,0.04999999999999994,37.99999999999996,0)" xlink:href="#bI"/></g><g id="x"><use transform="matrix(0.04999999999999994,0,0,0.04999999999999994,0,0)" xlink:href="#bi"/><use transform="matrix(0.04999999999999994,0,0,0.04999999999999994,4.999999999999994,0)" xlink:href="#by"/><use transform="matrix(0.04999999999999994,0,0,0.04999999999999994,14.999999999999982,0)" xlink:href="#bp"/></g><g id="y"><use transform="matrix(0.04999999999999994,0,0,0.04999999999999994,0,0)" xlink:href="#bn"/><use transform="matrix(0.04999999999999994,0,0,0.04999999999999994,3.9499999999999953,0)" xlink:href="#bo"/><use transform="matrix(0.04999999999999994,0,0,0.04999999999999994,13.949999999999983,0)" xlink:href="#bs"/><use transform="matrix(0.04999999999999994,0,0,0.04999999999999994,18.949999999999978,0)" xlink:href="#bj"/></g><path d="M24-231v-30h32v30H24zM24 0v-190h32V0H24" id="bJ"/><path d="M101-234c-31-9-42 10-38 44h38v23H63V0H32v-167H5v-23h27c-7-52 17-82 69-68v24" id="bK"/><path d="M179-190L93 31C79 59 56 82 12 73V49c39 6 53-20 64-50L1-190h34L92-34l54-156h33" id="bL"/><g id="z"><use transform="matrix(0.04999999999999994,0,0,0.04999999999999994,0,0)" xlink:href="#br"/><use transform="matrix(0.04999999999999994,0,0,0.04999999999999994,8.99999999999999,0)" xlink:href="#bp"/><use transform="matrix(0.04999999999999994,0,0,0.04999999999999994,18.99999999999998,0)" xlink:href="#bk"/><use transform="matrix(0.04999999999999994,0,0,0.04999999999999994,24.94999999999997,0)" xlink:href="#bJ"/><use transform="matrix(0.04999999999999994,0,0,0.04999999999999994,28.899999999999967,0)" xlink:href="#bK"/><use transform="matrix(0.04999999999999994,0,0,0.04999999999999994,33.89999999999996,0)" xlink:href="#bL"/></g><path d="M33 0v-38h34V0H33" id="bM"/><g id="A"><use transform="matrix(0.04999999999999994,0,0,0.04999999999999994,0,0)" xlink:href="#bJ"/><use transform="matrix(0.04999999999999994,0,0,0.04999999999999994,3.9499999999999953,0)" xlink:href="#aV"/><use transform="matrix(0.04999999999999994,0,0,0.04999999999999994,13.949999999999983,0)" xlink:href="#bK"/><use transform="matrix(0.04999999999999994,0,0,0.04999999999999994,18.949999999999978,0)" xlink:href="#bA"/><use transform="matrix(0.04999999999999994,0,0,0.04999999999999994,28.949999999999964,0)" xlink:href="#bM"/></g><path fill="#3a414a" d="M206 0h-36l-40-164L89 0H53L-1-190h32L70-26l43-164h34l41 164 42-164h31" id="bN"/><g id="B"><use transform="matrix(0.04999999999999994,0,0,0.04999999999999994,0,0)" xlink:href="#bN"/><use transform="matrix(0.04999999999999994,0,0,0.04999999999999994,12.949999999999985,0)" xlink:href="#bk"/><use transform="matrix(0.04999999999999994,0,0,0.04999999999999994,18.899999999999977,0)" xlink:href="#bj"/><use transform="matrix(0.04999999999999994,0,0,0.04999999999999994,28.899999999999967,0)" xlink:href="#bo"/><use transform="matrix(0.04999999999999994,0,0,0.04999999999999994,38.89999999999995,0)" xlink:href="#bm"/></g><path fill="#3a414a" d="M115-194c55 1 70 41 70 98S169 2 115 4C84 4 66-9 55-30l1 105H24l-1-265h31l2 30c10-21 28-34 59-34zm-8 174c40 0 45-34 45-75s-6-73-45-74c-42 0-51 32-51 76 0 43 10 73 51 73" id="bO"/><g id="C"><use transform="matrix(0.04999999999999994,0,0,0.04999999999999994,0,0)" xlink:href="#bn"/><use transform="matrix(0.04999999999999994,0,0,0.04999999999999994,3.9499999999999953,0)" xlink:href="#bo"/><use transform="matrix(0.04999999999999994,0,0,0.04999999999999994,13.949999999999983,0)" xlink:href="#bO"/><use transform="matrix(0.04999999999999994,0,0,0.04999999999999994,23.94999999999997,0)" xlink:href="#bt"/><use transform="matrix(0.04999999999999994,0,0,0.04999999999999994,33.94999999999996,0)" xlink:href="#bi"/><use transform="matrix(0.04999999999999994,0,0,0.04999999999999994,38.94999999999995,0)" xlink:href="#bw"/></g><path fill="#3a414a" d="M85-194c31 0 48 13 60 33l-1-100h32l1 261h-30c-2-10 0-23-3-31C134-8 116 4 85 4 32 4 16-35 15-94c0-66 23-100 70-100zm9 24c-40 0-46 34-46 75 0 40 6 74 45 74 42 0 51-32 51-76 0-42-9-74-50-73" id="bP"/><g id="D"><use transform="matrix(0.04999999999999994,0,0,0.04999999999999994,0,0)" xlink:href="#bg"/><use transform="matrix(0.04999999999999994,0,0,0.04999999999999994,11.999999999999986,0)" xlink:href="#bP"/><use transform="matrix(0.04999999999999994,0,0,0.04999999999999994,21.99999999999997,0)" xlink:href="#bP"/></g><g id="E"><use transform="matrix(0.04999999999999994,0,0,0.04999999999999994,0,0)" xlink:href="#bg"/><use transform="matrix(0.04999999999999994,0,0,0.04999999999999994,11.999999999999986,0)" xlink:href="#bh"/><use transform="matrix(0.04999999999999994,0,0,0.04999999999999994,20.999999999999975,0)" xlink:href="#bh"/><use transform="matrix(0.04999999999999994,0,0,0.04999999999999994,29.999999999999964,0)" xlink:href="#bj"/><use transform="matrix(0.04999999999999994,0,0,0.04999999999999994,39.99999999999995,0)" xlink:href="#bt"/><use transform="matrix(0.04999999999999994,0,0,0.04999999999999994,49.999999999999936,0)" xlink:href="#bo"/><use transform="matrix(0.04999999999999994,0,0,0.04999999999999994,59.999999999999915,0)" xlink:href="#bi"/></g><g id="F"><use transform="matrix(0.04999999999999994,0,0,0.04999999999999994,0,0)" xlink:href="#bO"/><use transform="matrix(0.04999999999999994,0,0,0.04999999999999994,9.999999999999988,0)" xlink:href="#bk"/><use transform="matrix(0.04999999999999994,0,0,0.04999999999999994,15.949999999999982,0)" xlink:href="#bj"/><use transform="matrix(0.04999999999999994,0,0,0.04999999999999994,25.949999999999967,0)" xlink:href="#bs"/><use transform="matrix(0.04999999999999994,0,0,0.04999999999999994,30.949999999999957,0)" xlink:href="#bn"/><use transform="matrix(0.04999999999999994,0,0,0.04999999999999994,34.899999999999956,0)" xlink:href="#bl"/><use transform="matrix(0.04999999999999994,0,0,0.04999999999999994,38.84999999999995,0)" xlink:href="#bp"/></g><g id="G"><use transform="matrix(0.04999999999999994,0,0,0.04999999999999994,0,0)" xlink:href="#bq"/><use transform="matrix(0.04999999999999994,0,0,0.04999999999999994,9.999999999999988,0)" xlink:href="#bP"/><use transform="matrix(0.04999999999999994,0,0,0.04999999999999994,19.999999999999975,0)" xlink:href="#bP"/></g><g id="H"><use transform="matrix(0.04999999999999994,0,0,0.04999999999999994,0,0)" xlink:href="#bn"/><use transform="matrix(0.04999999999999994,0,0,0.04999999999999994,3.9499999999999953,0)" xlink:href="#bo"/><use transform="matrix(0.04999999999999994,0,0,0.04999999999999994,13.949999999999983,0)" xlink:href="#bs"/><use transform="matrix(0.04999999999999994,0,0,0.04999999999999994,18.949999999999978,0)" xlink:href="#bj"/></g><g id="I"><use transform="matrix(0.04999999999999994,0,0,0.04999999999999994,0,0)" xlink:href="#bi"/><use transform="matrix(0.04999999999999994,0,0,0.04999999999999994,4.999999999999994,0)" xlink:href="#bj"/></g><path fill="#3a414a" d="M115-194c53 0 69 39 70 98 0 66-23 100-70 100C84 3 66-7 56-30L54 0H23l1-261h32v101c10-23 28-34 59-34zm-8 174c40 0 45-34 45-75 0-40-5-75-45-74-42 0-51 32-51 76 0 43 10 73 51 73" id="bQ"/><g id="J"><use transform="matrix(0.04999999999999994,0,0,0.04999999999999994,0,0)" xlink:href="#bP"/><use transform="matrix(0.04999999999999994,0,0,0.04999999999999994,9.999999999999988,0)" xlink:href="#bq"/><use transform="matrix(0.04999999999999994,0,0,0.04999999999999994,19.999999999999975,0)" xlink:href="#bi"/><use transform="matrix(0.04999999999999994,0,0,0.04999999999999994,24.999999999999968,0)" xlink:href="#bq"/><use transform="matrix(0.04999999999999994,0,0,0.04999999999999994,34.99999999999996,0)" xlink:href="#bQ"/><use transform="matrix(0.04999999999999994,0,0,0.04999999999999994,44.99999999999994,0)" xlink:href="#bq"/><use transform="matrix(0.04999999999999994,0,0,0.04999999999999994,54.999999999999936,0)" xlink:href="#bw"/><use transform="matrix(0.04999999999999994,0,0,0.04999999999999994,63.999999999999915,0)" xlink:href="#bp"/></g><path fill="#3a414a" d="M185-189c-5-48-123-54-124 2 14 75 158 14 163 119 3 78-121 87-175 55-17-10-28-26-33-46l33-7c5 56 141 63 141-1 0-78-155-14-162-118-5-82 145-84 179-34 5 7 8 16 11 25" id="bR"/><g id="K"><use transform="matrix(0.04999999999999994,0,0,0.04999999999999994,0,0)" xlink:href="#bR"/><use transform="matrix(0.04999999999999994,0,0,0.04999999999999994,11.999999999999986,0)" xlink:href="#bn"/><use transform="matrix(0.04999999999999994,0,0,0.04999999999999994,15.949999999999982,0)" xlink:href="#bm"/><use transform="matrix(0.04999999999999994,0,0,0.04999999999999994,25.949999999999967,0)" xlink:href="#bo"/><use transform="matrix(0.04999999999999994,0,0,0.04999999999999994,35.94999999999995,0)" xlink:href="#bt"/><use transform="matrix(0.04999999999999994,0,0,0.04999999999999994,45.94999999999994,0)" xlink:href="#bO"/></g><path fill="#3a414a" d="M212-179c-10-28-35-45-73-45-59 0-87 40-87 99 0 60 29 101 89 101 43 0 62-24 78-52l27 14C228-24 195 4 139 4 59 4 22-46 18-125c-6-104 99-153 187-111 19 9 31 26 39 46" id="bS"/><path fill="#3a414a" d="M210-169c-67 3-38 105-44 169h-31v-121c0-29-5-50-35-48C34-165 62-65 56 0H25l-1-190h30c1 10-1 24 2 32 10-44 99-50 107 0 11-21 27-35 58-36 85-2 47 119 55 194h-31v-121c0-29-5-49-35-48" id="bT"/><g id="L"><use transform="matrix(0.04999999999999994,0,0,0.04999999999999994,0,0)" xlink:href="#bS"/><use transform="matrix(0.04999999999999994,0,0,0.04999999999999994,12.949999999999985,0)" xlink:href="#bj"/><use transform="matrix(0.04999999999999994,0,0,0.04999999999999994,22.949999999999974,0)" xlink:href="#bT"/><use transform="matrix(0.04999999999999994,0,0,0.04999999999999994,37.899999999999956,0)" xlink:href="#bO"/><use transform="matrix(0.04999999999999994,0,0,0.04999999999999994,47.89999999999994,0)" xlink:href="#bl"/><use transform="matrix(0.04999999999999994,0,0,0.04999999999999994,51.84999999999994,0)" xlink:href="#bp"/><use transform="matrix(0.04999999999999994,0,0,0.04999999999999994,61.84999999999992,0)" xlink:href="#bi"/><use transform="matrix(0.04999999999999994,0,0,0.04999999999999994,66.84999999999992,0)" xlink:href="#bp"/><use transform="matrix(0.04999999999999994,0,0,0.04999999999999994,76.84999999999991,0)" xlink:href="#bP"/></g><g id="M"><use transform="matrix(0.04999999999999994,0,0,0.04999999999999994,0,0)" xlink:href="#bS"/><use transform="matrix(0.04999999999999994,0,0,0.04999999999999994,12.949999999999985,0)" xlink:href="#by"/><use transform="matrix(0.04999999999999994,0,0,0.04999999999999994,22.949999999999974,0)" xlink:href="#bj"/><use transform="matrix(0.04999999999999994,0,0,0.04999999999999994,32.94999999999996,0)" xlink:href="#bj"/><use transform="matrix(0.04999999999999994,0,0,0.04999999999999994,42.949999999999946,0)" xlink:href="#bw"/><use transform="matrix(0.04999999999999994,0,0,0.04999999999999994,51.949999999999925,0)" xlink:href="#bp"/></g><g id="N"><use transform="matrix(0.04999999999999994,0,0,0.04999999999999994,0,0)" xlink:href="#bT"/><use transform="matrix(0.04999999999999994,0,0,0.04999999999999994,14.949999999999982,0)" xlink:href="#bp"/><use transform="matrix(0.04999999999999994,0,0,0.04999999999999994,24.949999999999967,0)" xlink:href="#bP"/><use transform="matrix(0.04999999999999994,0,0,0.04999999999999994,34.94999999999995,0)" xlink:href="#bn"/><use transform="matrix(0.04999999999999994,0,0,0.04999999999999994,38.89999999999995,0)" xlink:href="#bq"/></g><path fill="#3a414a" d="M179-190L93 31C79 59 56 82 12 73V49c39 6 53-20 64-50L1-190h34L92-34l54-156h33" id="bU"/><g id="O"><use transform="matrix(0.04999999999999994,0,0,0.04999999999999994,0,0)" xlink:href="#bi"/><use transform="matrix(0.04999999999999994,0,0,0.04999999999999994,4.999999999999994,0)" xlink:href="#bU"/><use transform="matrix(0.04999999999999994,0,0,0.04999999999999994,13.999999999999984,0)" xlink:href="#bO"/><use transform="matrix(0.04999999999999994,0,0,0.04999999999999994,23.99999999999997,0)" xlink:href="#bp"/></g><g id="P"><use transform="matrix(0.04999999999999994,0,0,0.04999999999999994,0,0)" xlink:href="#bq"/><use transform="matrix(0.04999999999999994,0,0,0.04999999999999994,9.999999999999988,0)" xlink:href="#bo"/><use transform="matrix(0.04999999999999994,0,0,0.04999999999999994,19.999999999999975,0)" xlink:href="#bP"/></g><g id="Q"><use transform="matrix(0.04999999999999994,0,0,0.04999999999999994,0,0)" xlink:href="#bt"/><use transform="matrix(0.04999999999999994,0,0,0.04999999999999994,9.999999999999988,0)" xlink:href="#bO"/><use transform="matrix(0.04999999999999994,0,0,0.04999999999999994,19.999999999999975,0)" xlink:href="#bl"/><use transform="matrix(0.04999999999999994,0,0,0.04999999999999994,23.94999999999997,0)" xlink:href="#bj"/><use transform="matrix(0.04999999999999994,0,0,0.04999999999999994,33.94999999999996,0)" xlink:href="#bq"/><use transform="matrix(0.04999999999999994,0,0,0.04999999999999994,43.949999999999946,0)" xlink:href="#bP"/></g><g id="R"><use transform="matrix(0.04999999999999994,0,0,0.04999999999999994,0,0)" xlink:href="#bw"/><use transform="matrix(0.04999999999999994,0,0,0.04999999999999994,8.99999999999999,0)" xlink:href="#bp"/><use transform="matrix(0.04999999999999994,0,0,0.04999999999999994,18.99999999999998,0)" xlink:href="#bo"/><use transform="matrix(0.04999999999999994,0,0,0.04999999999999994,28.999999999999964,0)" xlink:href="#bP"/></g><g id="S"><use transform="matrix(0.04999999999999994,0,0,0.04999999999999994,0,0)" xlink:href="#bT"/><use transform="matrix(0.04999999999999994,0,0,0.04999999999999994,14.949999999999982,0)" xlink:href="#bp"/><use transform="matrix(0.04999999999999994,0,0,0.04999999999999994,24.949999999999967,0)" xlink:href="#bP"/><use transform="matrix(0.04999999999999994,0,0,0.04999999999999994,34.94999999999995,0)" xlink:href="#bn"/><use transform="matrix(0.04999999999999994,0,0,0.04999999999999994,38.89999999999995,0)" xlink:href="#bc"/></g><g id="T"><use transform="matrix(0.04999999999999994,0,0,0.04999999999999994,0,0)" xlink:href="#bd"/><use transform="matrix(0.04999999999999994,0,0,0.04999999999999994,4.999999999999994,0)" xlink:href="#bA"/></g><path d="M210-169c-67 3-38 105-44 169h-31v-121c0-29-5-50-35-48C34-165 62-65 56 0H25l-1-190h30c1 10-1 24 2 32 10-44 99-50 107 0 11-21 27-35 58-36 85-2 47 119 55 194h-31v-121c0-29-5-49-35-48" id="bV"/><g id="U"><use transform="matrix(0.04999999999999994,0,0,0.04999999999999994,0,0)" xlink:href="#bV"/><use transform="matrix(0.04999999999999994,0,0,0.04999999999999994,14.949999999999982,0)" xlink:href="#bA"/><use transform="matrix(0.04999999999999994,0,0,0.04999999999999994,24.949999999999967,0)" xlink:href="#aW"/><use transform="matrix(0.04999999999999994,0,0,0.04999999999999994,34.94999999999995,0)" xlink:href="#aY"/><use transform="matrix(0.04999999999999994,0,0,0.04999999999999994,44.94999999999994,0)" xlink:href="#bH"/></g><g id="V"><use transform="matrix(0.04999999999999994,0,0,0.04999999999999994,0,0)" xlink:href="#bT"/><use transform="matrix(0.04999999999999994,0,0,0.04999999999999994,14.949999999999982,0)" xlink:href="#bp"/><use transform="matrix(0.04999999999999994,0,0,0.04999999999999994,24.949999999999967,0)" xlink:href="#bP"/><use transform="matrix(0.04999999999999994,0,0,0.04999999999999994,34.94999999999995,0)" xlink:href="#bn"/><use transform="matrix(0.04999999999999994,0,0,0.04999999999999994,38.89999999999995,0)" xlink:href="#bq"/></g><g id="W"><use transform="matrix(0.04999999999999994,0,0,0.04999999999999994,0,0)" xlink:href="#bT"/><use transform="matrix(0.04999999999999994,0,0,0.04999999999999994,14.949999999999982,0)" xlink:href="#bj"/><use transform="matrix(0.04999999999999994,0,0,0.04999999999999994,24.949999999999967,0)" xlink:href="#bP"/><use transform="matrix(0.04999999999999994,0,0,0.04999999999999994,34.94999999999995,0)" xlink:href="#bp"/><use transform="matrix(0.04999999999999994,0,0,0.04999999999999994,44.94999999999994,0)" xlink:href="#bl"/></g><g id="X"><use transform="matrix(0.04999999999999994,0,0,0.04999999999999994,0,0)" xlink:href="#bk"/><use transform="matrix(0.04999999999999994,0,0,0.04999999999999994,5.949999999999993,0)" xlink:href="#bp"/><use transform="matrix(0.04999999999999994,0,0,0.04999999999999994,15.949999999999982,0)" xlink:href="#bw"/><use transform="matrix(0.04999999999999994,0,0,0.04999999999999994,24.94999999999997,0)" xlink:href="#bt"/><use transform="matrix(0.04999999999999994,0,0,0.04999999999999994,34.94999999999996,0)" xlink:href="#bl"/><use transform="matrix(0.04999999999999994,0,0,0.04999999999999994,38.899999999999956,0)" xlink:href="#bi"/></g><g id="Y"><use transform="matrix(0.04999999999999994,0,0,0.04999999999999994,0,0)" xlink:href="#bi"/><use transform="matrix(0.04999999999999994,0,0,0.04999999999999994,4.999999999999994,0)" xlink:href="#bj"/></g><g id="Z"><use transform="matrix(0.04999999999999994,0,0,0.04999999999999994,0,0)" xlink:href="#bP"/><use transform="matrix(0.04999999999999994,0,0,0.04999999999999994,9.999999999999988,0)" xlink:href="#bq"/><use transform="matrix(0.04999999999999994,0,0,0.04999999999999994,19.999999999999975,0)" xlink:href="#bi"/><use transform="matrix(0.04999999999999994,0,0,0.04999999999999994,24.999999999999968,0)" xlink:href="#bq"/><use transform="matrix(0.04999999999999994,0,0,0.04999999999999994,34.99999999999996,0)" xlink:href="#bQ"/><use transform="matrix(0.04999999999999994,0,0,0.04999999999999994,44.99999999999994,0)" xlink:href="#bq"/><use transform="matrix(0.04999999999999994,0,0,0.04999999999999994,54.999999999999936,0)" xlink:href="#bw"/><use transform="matrix(0.04999999999999994,0,0,0.04999999999999994,63.999999999999915,0)" xlink:href="#bp"/></g><path d="M106-169C34-169 62-67 57 0H25v-261h32l-1 103c12-21 28-36 61-36 89 0 53 116 60 194h-32v-121c2-32-8-49-39-48" id="bW"/><path d="M206 0h-36l-40-164L89 0H53L-1-190h32L70-26l43-164h34l41 164 42-164h31" id="bX"/><g id="aa"><use transform="matrix(0.04999999999999994,0,0,0.04999999999999994,0,0)" xlink:href="#bw"/><use transform="matrix(0.04999999999999994,0,0,0.04999999999999994,8.99999999999999,0)" xlink:href="#bW"/><use transform="matrix(0.04999999999999994,0,0,0.04999999999999994,18.99999999999998,0)" xlink:href="#bA"/><use transform="matrix(0.04999999999999994,0,0,0.04999999999999994,28.999999999999964,0)" xlink:href="#bX"/></g><g id="ab"><use transform="matrix(0.04999999999999994,0,0,0.04999999999999994,0,0)" xlink:href="#aZ"/><use transform="matrix(0.04999999999999994,0,0,0.04999999999999994,5.949999999999993,0)" xlink:href="#aY"/><use transform="matrix(0.04999999999999994,0,0,0.04999999999999994,15.949999999999982,0)" xlink:href="#bf"/><use transform="matrix(0.04999999999999994,0,0,0.04999999999999994,24.94999999999997,0)" xlink:href="#bB"/><use transform="matrix(0.04999999999999994,0,0,0.04999999999999994,34.94999999999996,0)" xlink:href="#bH"/><use transform="matrix(0.04999999999999994,0,0,0.04999999999999994,38.899999999999956,0)" xlink:href="#bd"/></g><g id="ac"><use transform="matrix(0.04999999999999994,0,0,0.04999999999999994,0,0)" xlink:href="#bB"/><use transform="matrix(0.04999999999999994,0,0,0.04999999999999994,9.999999999999988,0)" xlink:href="#bf"/><use transform="matrix(0.04999999999999994,0,0,0.04999999999999994,18.99999999999998,0)" xlink:href="#aY"/><use transform="matrix(0.04999999999999994,0,0,0.04999999999999994,28.999999999999964,0)" xlink:href="#aZ"/></g><g id="ad"><use transform="matrix(0.04999999999999994,0,0,0.04999999999999994,0,0)" xlink:href="#bw"/><use transform="matrix(0.04999999999999994,0,0,0.04999999999999994,8.99999999999999,0)" xlink:href="#by"/><use transform="matrix(0.04999999999999994,0,0,0.04999999999999994,18.99999999999998,0)" xlink:href="#bj"/><use transform="matrix(0.04999999999999994,0,0,0.04999999999999994,28.999999999999964,0)" xlink:href="#bN"/></g><g id="ae"><use transform="matrix(0.04999999999999994,0,0,0.04999999999999994,0,0)" xlink:href="#bk"/><use transform="matrix(0.04999999999999994,0,0,0.04999999999999994,5.949999999999993,0)" xlink:href="#bp"/><use transform="matrix(0.04999999999999994,0,0,0.04999999999999994,15.949999999999982,0)" xlink:href="#bw"/><use transform="matrix(0.04999999999999994,0,0,0.04999999999999994,24.94999999999997,0)" xlink:href="#bt"/><use transform="matrix(0.04999999999999994,0,0,0.04999999999999994,34.94999999999996,0)" xlink:href="#bl"/><use transform="matrix(0.04999999999999994,0,0,0.04999999999999994,38.899999999999956,0)" xlink:href="#bd"/></g><path d="M87 75C49 33 22-17 22-94c0-76 28-126 65-167h31c-38 41-64 92-64 168S80 34 118 75H87" id="bY"/><g id="af"><use transform="matrix(0.04999999999999994,0,0,0.04999999999999994,0,0)" xlink:href="#bY"/><use transform="matrix(0.04999999999999994,0,0,0.04999999999999994,5.949999999999993,0)" xlink:href="#aZ"/><use transform="matrix(0.04999999999999994,0,0,0.04999999999999994,11.899999999999986,0)" xlink:href="#aY"/><use transform="matrix(0.04999999999999994,0,0,0.04999999999999994,21.899999999999974,0)" xlink:href="#bc"/><use transform="matrix(0.04999999999999994,0,0,0.04999999999999994,31.899999999999963,0)" xlink:href="#bH"/></g><g id="ag"><use transform="matrix(0.04999999999999994,0,0,0.04999999999999994,0,0)" xlink:href="#bA"/><use transform="matrix(0.04999999999999994,0,0,0.04999999999999994,9.999999999999988,0)" xlink:href="#aZ"/></g><path d="M143 0L79-87 56-68V0H24v-261h32v163l83-92h37l-77 82L181 0h-38" id="bZ"/><path d="M33-261c38 41 65 92 65 168S71 34 33 75H2C39 34 66-17 66-93S39-220 2-261h31" id="ca"/><g id="ah"><use transform="matrix(0.04999999999999994,0,0,0.04999999999999994,0,0)" xlink:href="#bK"/><use transform="matrix(0.04999999999999994,0,0,0.04999999999999994,4.999999999999994,0)" xlink:href="#bc"/><use transform="matrix(0.04999999999999994,0,0,0.04999999999999994,14.999999999999982,0)" xlink:href="#bZ"/><use transform="matrix(0.04999999999999994,0,0,0.04999999999999994,23.99999999999997,0)" xlink:href="#aY"/><use transform="matrix(0.04999999999999994,0,0,0.04999999999999994,33.99999999999996,0)" xlink:href="#ca"/></g><path fill="#3a414a" d="M30 0v-248h33v221h125V0H30" id="cb"/><g id="ai"><use transform="matrix(0.04999999999999994,0,0,0.04999999999999994,0,0)" xlink:href="#cb"/><use transform="matrix(0.04999999999999994,0,0,0.04999999999999994,9.999999999999988,0)" xlink:href="#bj"/><use transform="matrix(0.04999999999999994,0,0,0.04999999999999994,19.999999999999975,0)" xlink:href="#bm"/><use transform="matrix(0.04999999999999994,0,0,0.04999999999999994,29.999999999999964,0)" xlink:href="#bn"/><use transform="matrix(0.04999999999999994,0,0,0.04999999999999994,33.94999999999996,0)" xlink:href="#bo"/></g><g id="aj"><use transform="matrix(0.04999999999999994,0,0,0.04999999999999994,0,0)" xlink:href="#aX"/><use transform="matrix(0.04999999999999994,0,0,0.04999999999999994,11.999999999999986,0)" xlink:href="#bB"/><use transform="matrix(0.04999999999999994,0,0,0.04999999999999994,21.99999999999997,0)" xlink:href="#bz"/><use transform="matrix(0.04999999999999994,0,0,0.04999999999999994,30.999999999999964,0)" xlink:href="#bz"/><use transform="matrix(0.04999999999999994,0,0,0.04999999999999994,39.99999999999995,0)" xlink:href="#aY"/><use transform="matrix(0.04999999999999994,0,0,0.04999999999999994,49.999999999999936,0)" xlink:href="#bf"/><use transform="matrix(0.04999999999999994,0,0,0.04999999999999994,58.99999999999993,0)" xlink:href="#bf"/><use transform="matrix(0.04999999999999994,0,0,0.04999999999999994,67.99999999999991,0)" xlink:href="#bK"/><use transform="matrix(0.04999999999999994,0,0,0.04999999999999994,72.99999999999991,0)" xlink:href="#bB"/><use transform="matrix(0.04999999999999994,0,0,0.04999999999999994,82.9999999999999,0)" xlink:href="#bH"/></g><g id="ak"><use transform="matrix(0.04999999999999994,0,0,0.04999999999999994,0,0)" xlink:href="#bk"/><use transform="matrix(0.04999999999999994,0,0,0.04999999999999994,5.949999999999993,0)" xlink:href="#bp"/><use transform="matrix(0.04999999999999994,0,0,0.04999999999999994,15.949999999999982,0)" xlink:href="#bi"/><use transform="matrix(0.04999999999999994,0,0,0.04999999999999994,20.949999999999974,0)" xlink:href="#bt"/><use transform="matrix(0.04999999999999994,0,0,0.04999999999999994,30.949999999999957,0)" xlink:href="#bk"/><use transform="matrix(0.04999999999999994,0,0,0.04999999999999994,36.899999999999956,0)" xlink:href="#bo"/></g><g id="al"><use transform="matrix(0.04999999999999994,0,0,0.04999999999999994,0,0)" xlink:href="#bh"/><use transform="matrix(0.04999999999999994,0,0,0.04999999999999994,8.99999999999999,0)" xlink:href="#by"/><use transform="matrix(0.04999999999999994,0,0,0.04999999999999994,18.99999999999998,0)" xlink:href="#bp"/><use transform="matrix(0.04999999999999994,0,0,0.04999999999999994,28.999999999999964,0)" xlink:href="#bh"/><use transform="matrix(0.04999999999999994,0,0,0.04999999999999994,37.99999999999996,0)" xlink:href="#bI"/><use transform="matrix(0.04999999999999994,0,0,0.04999999999999994,46.99999999999994,0)" xlink:href="#bn"/><use transform="matrix(0.04999999999999994,0,0,0.04999999999999994,50.94999999999994,0)" xlink:href="#bo"/><use transform="matrix(0.04999999999999994,0,0,0.04999999999999994,60.949999999999925,0)" xlink:href="#bm"/></g><g id="am"><use transform="matrix(0.04999999999999994,0,0,0.04999999999999994,0,0)" xlink:href="#bs"/><use transform="matrix(0.04999999999999994,0,0,0.04999999999999994,4.999999999999994,0)" xlink:href="#bl"/><use transform="matrix(0.04999999999999994,0,0,0.04999999999999994,8.949999999999989,0)" xlink:href="#bq"/><use transform="matrix(0.04999999999999994,0,0,0.04999999999999994,18.949999999999974,0)" xlink:href="#bm"/></g><g id="an"><use transform="matrix(0.04999999999999994,0,0,0.04999999999999994,0,0)" xlink:href="#bw"/><use transform="matrix(0.04999999999999994,0,0,0.04999999999999994,8.99999999999999,0)" xlink:href="#bt"/><use transform="matrix(0.04999999999999994,0,0,0.04999999999999994,18.99999999999998,0)" xlink:href="#bQ"/><use transform="matrix(0.04999999999999994,0,0,0.04999999999999994,28.999999999999964,0)" xlink:href="#bw"/><use transform="matrix(0.04999999999999994,0,0,0.04999999999999994,37.99999999999996,0)" xlink:href="#bh"/><use transform="matrix(0.04999999999999994,0,0,0.04999999999999994,46.99999999999994,0)" xlink:href="#bk"/><use transform="matrix(0.04999999999999994,0,0,0.04999999999999994,52.94999999999994,0)" xlink:href="#bn"/><use transform="matrix(0.04999999999999994,0,0,0.04999999999999994,56.899999999999935,0)" xlink:href="#bO"/><use transform="matrix(0.04999999999999994,0,0,0.04999999999999994,66.89999999999992,0)" xlink:href="#bi"/><use transform="matrix(0.04999999999999994,0,0,0.04999999999999994,71.89999999999992,0)" xlink:href="#bn"/><use transform="matrix(0.04999999999999994,0,0,0.04999999999999994,75.84999999999991,0)" xlink:href="#bj"/><use transform="matrix(0.04999999999999994,0,0,0.04999999999999994,85.8499999999999,0)" xlink:href="#bo"/></g><g id="ao"><use transform="matrix(0.04999999999999994,0,0,0.04999999999999994,0,0)" xlink:href="#bO"/><use transform="matrix(0.04999999999999994,0,0,0.04999999999999994,9.999999999999988,0)" xlink:href="#bl"/><use transform="matrix(0.04999999999999994,0,0,0.04999999999999994,13.949999999999983,0)" xlink:href="#bq"/><use transform="matrix(0.04999999999999994,0,0,0.04999999999999994,23.94999999999997,0)" xlink:href="#bo"/><use transform="matrix(0.04999999999999994,0,0,0.04999999999999994,33.94999999999996,0)" xlink:href="#bw"/></g><g id="ap"><use transform="matrix(0.04999999999999994,0,0,0.04999999999999994,0,0)" xlink:href="#bt"/><use transform="matrix(0.04999999999999994,0,0,0.04999999999999994,9.999999999999988,0)" xlink:href="#bw"/><use transform="matrix(0.04999999999999994,0,0,0.04999999999999994,18.99999999999998,0)" xlink:href="#bp"/><use transform="matrix(0.04999999999999994,0,0,0.04999999999999994,28.999999999999964,0)" xlink:href="#bk"/></g><g id="aq"><use transform="matrix(0.04999999999999994,0,0,0.04999999999999994,0,0)" xlink:href="#br"/><use transform="matrix(0.04999999999999994,0,0,0.04999999999999994,8.99999999999999,0)" xlink:href="#bn"/><use transform="matrix(0.04999999999999994,0,0,0.04999999999999994,12.949999999999985,0)" xlink:href="#bp"/><use transform="matrix(0.04999999999999994,0,0,0.04999999999999994,22.949999999999974,0)" xlink:href="#bN"/></g><g id="ar"><use transform="matrix(0.04999999999999994,0,0,0.04999999999999994,0,0)" xlink:href="#bO"/><use transform="matrix(0.04999999999999994,0,0,0.04999999999999994,9.999999999999988,0)" xlink:href="#bl"/><use transform="matrix(0.04999999999999994,0,0,0.04999999999999994,13.949999999999983,0)" xlink:href="#bq"/><use transform="matrix(0.04999999999999994,0,0,0.04999999999999994,23.94999999999997,0)" xlink:href="#bo"/><use transform="matrix(0.04999999999999994,0,0,0.04999999999999994,33.94999999999996,0)" xlink:href="#bw"/></g><g id="as"><use transform="matrix(0.04999999999999994,0,0,0.04999999999999994,0,0)" xlink:href="#bh"/><use transform="matrix(0.04999999999999994,0,0,0.04999999999999994,8.99999999999999,0)" xlink:href="#by"/><use transform="matrix(0.04999999999999994,0,0,0.04999999999999994,18.99999999999998,0)" xlink:href="#bj"/><use transform="matrix(0.04999999999999994,0,0,0.04999999999999994,28.999999999999964,0)" xlink:href="#bj"/><use transform="matrix(0.04999999999999994,0,0,0.04999999999999994,38.99999999999995,0)" xlink:href="#bw"/><use transform="matrix(0.04999999999999994,0,0,0.04999999999999994,47.99999999999994,0)" xlink:href="#bp"/></g><g id="at"><use transform="matrix(0.04999999999999994,0,0,0.04999999999999994,0,0)" xlink:href="#bO"/><use transform="matrix(0.04999999999999994,0,0,0.04999999999999994,9.999999999999988,0)" xlink:href="#bl"/><use transform="matrix(0.04999999999999994,0,0,0.04999999999999994,13.949999999999983,0)" xlink:href="#bq"/><use transform="matrix(0.04999999999999994,0,0,0.04999999999999994,23.94999999999997,0)" xlink:href="#bo"/></g><g id="au"><use transform="matrix(0.04999999999999994,0,0,0.04999999999999994,0,0)" xlink:href="#bO"/><use transform="matrix(0.04999999999999994,0,0,0.04999999999999994,9.999999999999988,0)" xlink:href="#bj"/><use transform="matrix(0.04999999999999994,0,0,0.04999999999999994,19.999999999999975,0)" xlink:href="#bw"/><use transform="matrix(0.04999999999999994,0,0,0.04999999999999994,28.999999999999964,0)" xlink:href="#bi"/></g><g id="av"><use transform="matrix(0.04999999999999994,0,0,0.04999999999999994,0,0)" xlink:href="#bn"/><use transform="matrix(0.04999999999999994,0,0,0.04999999999999994,3.9499999999999953,0)" xlink:href="#bi"/></g><g id="aw"><use transform="matrix(0.04999999999999994,0,0,0.04999999999999994,0,0)" xlink:href="#bn"/><use transform="matrix(0.04999999999999994,0,0,0.04999999999999994,3.9499999999999953,0)" xlink:href="#bo"/><use transform="matrix(0.04999999999999994,0,0,0.04999999999999994,13.949999999999983,0)" xlink:href="#bw"/><use transform="matrix(0.04999999999999994,0,0,0.04999999999999994,22.949999999999974,0)" xlink:href="#bp"/><use transform="matrix(0.04999999999999994,0,0,0.04999999999999994,32.94999999999996,0)" xlink:href="#bk"/><use transform="matrix(0.04999999999999994,0,0,0.04999999999999994,38.899999999999956,0)" xlink:href="#bi"/></g><g id="ax"><use transform="matrix(0.04999999999999994,0,0,0.04999999999999994,0,0)" xlink:href="#bh"/><use transform="matrix(0.04999999999999994,0,0,0.04999999999999994,8.99999999999999,0)" xlink:href="#by"/><use transform="matrix(0.04999999999999994,0,0,0.04999999999999994,18.99999999999998,0)" xlink:href="#bj"/><use transform="matrix(0.04999999999999994,0,0,0.04999999999999994,28.999999999999964,0)" xlink:href="#bj"/><use transform="matrix(0.04999999999999994,0,0,0.04999999999999994,38.99999999999995,0)" xlink:href="#bw"/><use transform="matrix(0.04999999999999994,0,0,0.04999999999999994,47.99999999999994,0)" xlink:href="#bp"/><use transform="matrix(0.04999999999999994,0,0,0.04999999999999994,57.99999999999993,0)" xlink:href="#bo"/></g><g id="ay"><use transform="matrix(0.04999999999999994,0,0,0.04999999999999994,0,0)" xlink:href="#bO"/><use transform="matrix(0.04999999999999994,0,0,0.04999999999999994,9.999999999999988,0)" xlink:href="#bl"/><use transform="matrix(0.04999999999999994,0,0,0.04999999999999994,13.949999999999983,0)" xlink:href="#bq"/><use transform="matrix(0.04999999999999994,0,0,0.04999999999999994,23.94999999999997,0)" xlink:href="#bo"/></g><g id="az"><use transform="matrix(0.04999999999999994,0,0,0.04999999999999994,0,0)" xlink:href="#bt"/><use transform="matrix(0.04999999999999994,0,0,0.04999999999999994,9.999999999999988,0)" xlink:href="#bw"/><use transform="matrix(0.04999999999999994,0,0,0.04999999999999994,18.99999999999998,0)" xlink:href="#bp"/><use transform="matrix(0.04999999999999994,0,0,0.04999999999999994,28.999999999999964,0)" xlink:href="#bk"/></g><g id="aA"><use transform="matrix(0.04999999999999994,0,0,0.04999999999999994,0,0)" xlink:href="#bO"/><use transform="matrix(0.04999999999999994,0,0,0.04999999999999994,9.999999999999988,0)" xlink:href="#bk"/><use transform="matrix(0.04999999999999994,0,0,0.04999999999999994,15.949999999999982,0)" xlink:href="#bj"/><use transform="matrix(0.04999999999999994,0,0,0.04999999999999994,25.949999999999967,0)" xlink:href="#bs"/><use transform="matrix(0.04999999999999994,0,0,0.04999999999999994,30.949999999999957,0)" xlink:href="#bn"/><use transform="matrix(0.04999999999999994,0,0,0.04999999999999994,34.899999999999956,0)" xlink:href="#bl"/><use transform="matrix(0.04999999999999994,0,0,0.04999999999999994,38.84999999999995,0)" xlink:href="#bp"/></g><g id="aB"><use transform="matrix(0.04999999999999994,0,0,0.04999999999999994,0,0)" xlink:href="#bk"/><use transform="matrix(0.04999999999999994,0,0,0.04999999999999994,5.949999999999993,0)" xlink:href="#bp"/><use transform="matrix(0.04999999999999994,0,0,0.04999999999999994,15.949999999999982,0)" xlink:href="#bi"/><use transform="matrix(0.04999999999999994,0,0,0.04999999999999994,20.949999999999974,0)" xlink:href="#bt"/><use transform="matrix(0.04999999999999994,0,0,0.04999999999999994,30.949999999999957,0)" xlink:href="#bk"/><use transform="matrix(0.04999999999999994,0,0,0.04999999999999994,36.899999999999956,0)" xlink:href="#bo"/></g><g id="aC"><use transform="matrix(0.04999999999999994,0,0,0.04999999999999994,0,0)" xlink:href="#bh"/><use transform="matrix(0.04999999999999994,0,0,0.04999999999999994,8.99999999999999,0)" xlink:href="#bj"/><use transform="matrix(0.04999999999999994,0,0,0.04999999999999994,18.99999999999998,0)" xlink:href="#bo"/><use transform="matrix(0.04999999999999994,0,0,0.04999999999999994,28.999999999999964,0)" xlink:href="#bs"/><use transform="matrix(0.04999999999999994,0,0,0.04999999999999994,33.99999999999996,0)" xlink:href="#bn"/><use transform="matrix(0.04999999999999994,0,0,0.04999999999999994,37.94999999999995,0)" xlink:href="#bk"/><use transform="matrix(0.04999999999999994,0,0,0.04999999999999994,43.89999999999995,0)" xlink:href="#bT"/><use transform="matrix(0.04999999999999994,0,0,0.04999999999999994,58.84999999999993,0)" xlink:href="#bq"/><use transform="matrix(0.04999999999999994,0,0,0.04999999999999994,68.84999999999992,0)" xlink:href="#bi"/><use transform="matrix(0.04999999999999994,0,0,0.04999999999999994,73.84999999999992,0)" xlink:href="#bn"/><use transform="matrix(0.04999999999999994,0,0,0.04999999999999994,77.79999999999991,0)" xlink:href="#bj"/><use transform="matrix(0.04999999999999994,0,0,0.04999999999999994,87.7999999999999,0)" xlink:href="#bo"/></g><g id="aD"><use transform="matrix(0.04999999999999994,0,0,0.04999999999999994,0,0)" xlink:href="#bw"/><use transform="matrix(0.04999999999999994,0,0,0.04999999999999994,8.99999999999999,0)" xlink:href="#bt"/><use transform="matrix(0.04999999999999994,0,0,0.04999999999999994,18.99999999999998,0)" xlink:href="#bQ"/><use transform="matrix(0.04999999999999994,0,0,0.04999999999999994,28.999999999999964,0)" xlink:href="#bw"/><use transform="matrix(0.04999999999999994,0,0,0.04999999999999994,37.99999999999996,0)" xlink:href="#bh"/><use transform="matrix(0.04999999999999994,0,0,0.04999999999999994,46.99999999999994,0)" xlink:href="#bk"/><use transform="matrix(0.04999999999999994,0,0,0.04999999999999994,52.94999999999994,0)" xlink:href="#bn"/><use transform="matrix(0.04999999999999994,0,0,0.04999999999999994,56.899999999999935,0)" xlink:href="#bQ"/><use transform="matrix(0.04999999999999994,0,0,0.04999999999999994,66.89999999999992,0)" xlink:href="#bi"/><use transform="matrix(0.04999999999999994,0,0,0.04999999999999994,71.89999999999992,0)" xlink:href="#bn"/><use transform="matrix(0.04999999999999994,0,0,0.04999999999999994,75.84999999999991,0)" xlink:href="#bj"/><use transform="matrix(0.04999999999999994,0,0,0.04999999999999994,85.8499999999999,0)" xlink:href="#bo"/></g><g id="aE"><use transform="matrix(0.04999999999999994,0,0,0.04999999999999994,0,0)" xlink:href="#bh"/><use transform="matrix(0.04999999999999994,0,0,0.04999999999999994,8.99999999999999,0)" xlink:href="#bj"/><use transform="matrix(0.04999999999999994,0,0,0.04999999999999994,18.99999999999998,0)" xlink:href="#bT"/><use transform="matrix(0.04999999999999994,0,0,0.04999999999999994,33.94999999999996,0)" xlink:href="#bO"/><use transform="matrix(0.04999999999999994,0,0,0.04999999999999994,43.949999999999946,0)" xlink:href="#bl"/><use transform="matrix(0.04999999999999994,0,0,0.04999999999999994,47.89999999999994,0)" xlink:href="#bp"/><use transform="matrix(0.04999999999999994,0,0,0.04999999999999994,57.89999999999993,0)" xlink:href="#bi"/><use transform="matrix(0.04999999999999994,0,0,0.04999999999999994,62.89999999999993,0)" xlink:href="#bp"/></g><path d="M24-248c120-7 223 5 221 122C244-46 201 0 124 0H24v-248zM76-40c74 7 117-18 117-86 0-67-45-88-117-82v168" id="cc"/><path d="M25-224v-37h50v37H25zM25 0v-190h50V0H25" id="cd"/><path d="M133-34C117-15 103 5 69 4 32 3 11-16 11-54c-1-60 55-63 116-61 1-26-3-47-28-47-18 1-26 9-28 27l-52-2c7-38 36-58 82-57s74 22 75 68l1 82c-1 14 12 18 25 15v27c-30 8-71 5-69-32zm-48 3c29 0 43-24 42-57-32 0-66-3-65 30 0 17 8 27 23 27" id="ce"/><path d="M195-6C206 82 75 100 31 46c-4-6-6-13-8-21l49-6c3 16 16 24 34 25 40 0 42-37 40-79-11 22-30 35-61 35-53 0-70-43-70-97 0-56 18-96 73-97 30 0 46 14 59 34l2-30h47zm-90-29c32 0 41-27 41-63 0-35-9-62-40-62-32 0-39 29-40 63 0 36 9 62 39 62" id="cf"/><path d="M135-150c-39-12-60 13-60 57V0H25l-1-190h47c2 13-1 29 3 40 6-28 27-53 61-41v41" id="cg"/><path d="M220-157c-53 9-28 100-34 157h-49v-107c1-27-5-49-29-50C55-147 81-57 75 0H25l-1-190h47c2 12-1 28 3 38 10-53 101-56 108 0 13-22 24-43 59-42 82 1 51 116 57 194h-49v-107c-1-25-5-48-29-50" id="ch"/><g id="aF"><use transform="matrix(0.03481889140678393,0,0,0.03481889140678393,0,0)" xlink:href="#cc"/><use transform="matrix(0.03481889140678393,0,0,0.03481889140678393,9.01809287435704,0)" xlink:href="#cd"/><use transform="matrix(0.03481889140678393,0,0,0.03481889140678393,12.499982015035433,0)" xlink:href="#ce"/><use transform="matrix(0.03481889140678393,0,0,0.03481889140678393,19.46376029639222,0)" xlink:href="#cf"/><use transform="matrix(0.03481889140678393,0,0,0.03481889140678393,27.089097514477903,0)" xlink:href="#cg"/><use transform="matrix(0.03481889140678393,0,0,0.03481889140678393,31.96374231142765,0)" xlink:href="#ce"/><use transform="matrix(0.03481889140678393,0,0,0.03481889140678393,38.92752059278444,0)" xlink:href="#ch"/></g><path d="M147 0L96-86 75-71V0H25v-261h50v150l67-79h53l-66 74L201 0h-54" id="ci"/><path d="M185-48c-13 30-37 53-82 52C43 2 14-33 14-96s30-98 90-98c62 0 83 45 84 108H66c0 31 8 55 39 56 18 0 30-7 34-22zm-45-69c5-46-57-63-70-21-2 6-4 13-4 21h74" id="cj"/><path d="M123 10C108 53 80 86 19 72V37c35 8 53-11 59-39L3-190h52l48 148c12-52 28-100 44-148h51" id="ck"/><g id="aG"><use transform="matrix(0.03481889140678393,0,0,0.03481889140678393,0,0)" xlink:href="#ci"/><use transform="matrix(0.03481889140678393,0,0,0.03481889140678393,6.963778281356786,0)" xlink:href="#cj"/><use transform="matrix(0.03481889140678393,0,0,0.03481889140678393,13.927556562713573,0)" xlink:href="#ck"/></g><path d="M232-93c-1 65-40 97-104 97C67 4 28-28 28-90v-158h33c8 89-33 224 67 224 102 0 64-133 71-224h33v155" id="cl"/><g id="aH"><use transform="matrix(0.03481889140678393,0,0,0.03481889140678393,0,0)" xlink:href="#cl"/><use transform="matrix(0.03481889140678393,0,0,0.03481889140678393,9.01809287435704,0)" xlink:href="#aV"/><use transform="matrix(0.03481889140678393,0,0,0.03481889140678393,15.981871155713828,0)" xlink:href="#bd"/><use transform="matrix(0.03481889140678393,0,0,0.03481889140678393,19.46376029639222,0)" xlink:href="#bJ"/><use transform="matrix(0.03481889140678393,0,0,0.03481889140678393,22.214452717528154,0)" xlink:href="#bd"/><use transform="matrix(0.03481889140678393,0,0,0.03481889140678393,25.696341858206548,0)" xlink:href="#bH"/><use transform="matrix(0.03481889140678393,0,0,0.03481889140678393,28.44703427934248,0)" xlink:href="#aY"/><use transform="matrix(0.03481889140678393,0,0,0.03481889140678393,35.41081256069926,0)" xlink:href="#aW"/></g><g id="aI"><use transform="matrix(0.03481889140678393,0,0,0.03481889140678393,0,0)" xlink:href="#bZ"/><use transform="matrix(0.03481889140678393,0,0,0.03481889140678393,6.267400453221108,0)" xlink:href="#aY"/><use transform="matrix(0.03481889140678393,0,0,0.03481889140678393,13.231178734577897,0)" xlink:href="#bL"/></g><g id="aJ"><use transform="matrix(0.03481889140678393,0,0,0.03481889140678393,0,0)" xlink:href="#bJ"/><use transform="matrix(0.03481889140678393,0,0,0.03481889140678393,2.750692421135931,0)" xlink:href="#bd"/><use transform="matrix(0.03481889140678393,0,0,0.03481889140678393,6.2325815618143245,0)" xlink:href="#aY"/><use transform="matrix(0.03481889140678393,0,0,0.03481889140678393,13.19635984317111,0)" xlink:href="#bV"/></g></defs></g></svg>