<svg xmlns="http://www.w3.org/2000/svg" xmlns:xlink="http://www.w3.org/1999/xlink" xmlns:lucid="lucid" width="1749.19" height="1156.52"><g transform="translate(906.2269818422614 742.6561854817992)" lucid:page-tab-id="0_0"><path d="M-1000-1000h2000V500h-2000z" fill="#fff"/><path d="M314-479.16v10.06m0 10.06v20.12m0 10.06v20.1m0 10.07v20.13m0 10.06v20.1m0 10.06v20.12m0 10.06v20.12m0 10.05v20.13m0 10.06v20.1m0 10.06v20.12m0 10.06v20.12m0 10.06v20.1m0 10.07v20.1m0 10.07v20.12m0 10.04v20.12m0 10.06v20.12m0 10.05v20.1m0 10.07V43.9m0 10.05v20.1m0 10.07v20.12m0 10.06v20.1m0 10.07v20.12m0 10.05v20.1m0 10.07v20.12m0 10.06v20.12m0 10.05v20.12m0 10.05v20.12m0 10.05v10.06" stroke="#000" fill="none"/><path d="M314.47-479.14h-.95v-.52h.95z" stroke="#000" stroke-width=".05"/><path d="M314 335.57v.5M-88.47-479.16v9.74m0 9.74v19.48m0 9.74v19.48m0 9.74v19.48m0 9.74v19.48m0 9.74v19.48m0 9.74v19.47m0 9.74v19.47m0 9.75v19.48m0 9.74v19.48m0 9.74v19.47m0 9.74v19.5m0 9.73v19.48m0 9.75v19.48m0 9.74v19.47m0 9.74v19.48m0 9.74v19.48m0 9.74V27.3m0 9.74v19.48m0 9.74v19.48m0 9.74v19.48m0 9.74v19.48m0 9.73v19.5m0 9.73v19.48m0 9.75v19.48m0 9.74v19.48m0 9.74v19.47m0 9.74v19.5m0 9.73v9.74" stroke="#000" fill="none"/><path d="M-88-479.14h-.94v-.52h.95z" stroke="#000" stroke-width=".05"/><path d="M-88.47 338.95v3.52M716.46-477v10.06m0 10.06v20.1m0 10.07v20.1m0 10.07v20.1m0 10.07v20.12m0 10.06v20.12m0 10.06v20.1m0 10.07v20.12m0 10.05v20.1m0 10.07v20.12m0 10.06v20.1m0 10.07V-135m0 10.05v20.12m0 10.05v20.12m0 10.06v20.12m0 10.05v20.12m0 10.05v20.12m0 10.06v20.1m0 10.07v20.12m0 10.06v20.1m0 10.07v20.12m0 10.06v20.12m0 10.05v20.12m0 10.06v20.12m0 10.06v20.1m0 10.07v20.12m0 10.06v20.12m0 10.06v10.06" stroke="#000" fill="none"/><path d="M716.94-477H716v-.5h.94z" stroke="#000" stroke-width=".05"/><path d="M716.46 337.73v.5M-490.93-479.16l-.12 10.1m-.1 10.12l-.23 20.2m-.1 10.12l-.24 20.2m-.1 10.12l-.23 20.2m-.1 10.12l-.24 20.2m-.1 10.12l-.22 20.2m-.1 10.12l-.24 20.2m-.1 10.12l-.23 20.2m-.1 10.12l-.23 20.2m-.1 10.12l-.24 20.22m-.1 10.1l-.23 20.22m-.1 10.1l-.24 20.22m-.1 10.1l-.23 20.22m-.1 10.1l-.24 20.22m-.12 10.1l-.22 20.22m-.12 10.1l-.22 20.22m-.1 10.1l-.24 20.22m-.1 10.1l-.23 20.22m-.1 10.1l-.24 20.22m-.1 10.1l-.22 20.22m-.1 10.1l-.24 20.22m-.1 10.1l-.23 20.22m-.1 10.1l-.23 20.22m-.1 10.1l-.23 20.22m-.12 10.1l-.22 20.22m-.1 10.1l-.24 20.23m-.1 10.1l-.23 20.22m-.1 10.1l-.12 10.1" stroke="#000" fill="none"/><path d="M-490.46-479.14h-.95v-.52h.95z" stroke="#000" stroke-width=".05"/><path d="M-500 339.5v.5" stroke="#000" fill="none"/><path d="M-136.75 308a8 8 0 0 1 8-8h80.57a8 8 0 0 1 8 8v73.86a8 8 0 0 1-8 8h-80.57a8 8 0 0 1-8-8z" fill="none"/><path d="M-127.1 309l77.26 71.88m0-71.9l-77.25 71.9" stroke="#000" stroke-width="8" fill="none"/><path d="M-596.93-714.16a8 8 0 0 1 8-8h196a8 8 0 0 1 8 8v226a8 8 0 0 1-8 8h-196a8 8 0 0 1-8-8z" stroke="#000" fill="#218cbd"/><use xlink:href="#a" transform="matrix(1,0,0,1,-588.929748266238,-714.1561854817992) translate(51.32552083333333 119.15451388888889)"/><use xlink:href="#b" transform="matrix(1,0,0,1,-588.929748266238,-714.1561854817992) translate(98.26128472222223 119.15451388888889)"/><path d="M-194.47-714.16a8 8 0 0 1 8-8h196a8 8 0 0 1 8 8v226a8 8 0 0 1-8 8h-196a8 8 0 0 1-8-8z" stroke="#000" fill="#218cbd"/><use xlink:href="#c" transform="matrix(1,0,0,1,-186.46684743448284,-714.1561854817992) translate(33.248263888888886 119.15451388888889)"/><use xlink:href="#d" transform="matrix(1,0,0,1,-186.46684743448284,-714.1561854817992) translate(109.65451388888889 119.15451388888889)"/><path d="M208-714.16a8 8 0 0 1 8-8h196a8 8 0 0 1 8 8v226a8 8 0 0 1-8 8H216a8 8 0 0 1-8-8z" stroke="#000" fill="#218cbd"/><use xlink:href="#e" transform="matrix(1,0,0,1,215.99605339727188,-714.1561854817992) translate(60.765625 119.15451388888889)"/><path d="M-818.8-664.1c0 12.33-10 22.32-22.3 22.32-12.33 0-22.32-10-22.32-22.3 0-12.33 10-22.3 22.3-22.3 12.33 0 22.32 9.97 22.32 22.3z" stroke="#000" fill="#218cbd"/><path d="M-841.1-641.78v55.5a28.12 28.12 0 0 0 4.2 14.8l40.4 65.27m-44.6-72.08l-44.63 72.07m0-113.27h89.23" stroke="#000" fill="none"/><path d="M-885.73-678.4a8 8 0 0 1 8-8h73.23a8 8 0 0 1 8 8v186.2a8 8 0 0 1-8 8h-73.23a8 8 0 0 1-8-8z" fill="none"/><use xlink:href="#f" transform="matrix(1,0,0,1,-965.7269818422614,-506.205591528584) translate(97.56510416666667 17.15451388888889)"/><path d="M-841.1-576.87l.02 9.86m0 9.84l.04 19.7m0 9.86l.03 19.7m0 9.86l.03 19.7m0 9.86l.03 19.7m.02 9.86l.02 19.7m0 9.86l.03 19.7m0 9.86l.04 19.7m0 9.86l.03 19.7m0 9.86l.04 19.7m0 9.86l.03 19.7m0 9.86l.04 19.7m.02 9.86l.02 19.7m.02 9.86l.02 19.7m0 9.86l.03 19.7m.03 9.86l.02 19.7m0 9.86l.03 19.7m.02 9.86l.02 19.7m0 9.86l.03 19.7m.02 9.86l.02 19.7m0 9.86l.02 19.7m.02 9.86l.02 19.7m0 9.86l.04 19.7m0 9.87l.03 19.7m0 9.85l.03 19.7m.02 9.87l.02 19.7m0 9.84l.04 19.7m0 9.87l.03 19.7m0 9.87l.04 19.7m.02 9.86l.02 19.7m0 9.86l.04 19.7m0 9.85l.02 9.85M-841.1-576.86v-3.5M-840 339.5v.5" stroke="#000" fill="none"/><path d="M-510.93-464.02a8 8 0 0 1 8-8h24a8 8 0 0 1 8 8V-188a8 8 0 0 1-8 8h-24a8 8 0 0 1-8-8z" stroke="#000" stroke-width="2" fill="#218cbd"/><path d="M-840.4-412.34h312.1M-840.38-412.34h-.5" stroke="#000" fill="none"/><path d="M-513.55-412.34l-14.26 4.64v-9.27z" stroke="#000"/><use xlink:href="#g" transform="matrix(1,0,0,1,-697.8340141796874,-437.2896299547217) translate(0.004999999999999005 16.7080078125)"/><path d="M-8.23-412a8 8 0 0 1 8-8h224a8 8 0 0 1 8 8v44a8 8 0 0 1-8 8h-224a8 8 0 0 1-8-8z" fill="none"/><use xlink:href="#h" transform="matrix(1,0,0,1,-8.233392779106282,-420) translate(59.86083984375007 36.23144531249999)"/><use xlink:href="#i" transform="matrix(1,0,0,1,-8.233392779106282,-420) translate(113.84326171875 36.23144531249999)"/><use xlink:href="#j" transform="matrix(1,0,0,1,-8.233392779106282,-420) translate(145.91455078124997 36.23144531249999)"/><path d="M-469.43-396h345.58" stroke="#000" fill="none"/><path d="M-469.42-395.52h-.5v-.96h.5z" stroke="#000" stroke-width=".05"/><path d="M-109.08-396l-14.27 4.63v-9.26z" stroke="#000"/><use xlink:href="#k" transform="matrix(1,0,0,1,-336.0078999930801,-420.953180149735) translate(0.005000000000002558 16.70800781249998)"/><use xlink:href="#l" transform="matrix(1,0,0,1,-336.0078999930801,-420.953180149735) translate(55.61339843749993 16.70800781249998)"/><path d="M-408.7-272a8 8 0 0 1 8-8h224a8 8 0 0 1 8 8v44a8 8 0 0 1-8 8h-224a8 8 0 0 1-8-8z" fill="none"/><use xlink:href="#m" transform="matrix(1,0,0,1,-408.6963554871315,-280) translate(62.84912109375007 36.23144531249999)"/><use xlink:href="#n" transform="matrix(1,0,0,1,-408.6963554871315,-280) translate(123.02783203125 36.23144531249999)"/><path d="M-108.47-300h-10.4m-10.38 0h-20.8m-10.38 0h-20.78m-10.4 0h-20.8m-10.38 0h-20.8m-10.38 0h-20.8m-10.38 0h-20.8m-10.38 0h-20.8m-10.38 0h-20.78m-10.4 0h-20.78m-10.4 0h-20.78m-10.4 0h-10.4" stroke="#000" stroke-width="2" fill="none"/><path d="M-107.47-299.02h-1.02v-1.96h1.03z" stroke="#000" stroke-width=".05"/><path d="M-466.7-300l14.27-4.63v9.26z" stroke="#000" stroke-width="2"/><use xlink:href="#o" transform="matrix(1,0,0,1,-359.41760157044587,-324.9531918951973) translate(0.0049999999999954525 16.70800781249998)"/><use xlink:href="#p" transform="matrix(1,0,0,1,-359.41760157044587,-324.9531918951973) translate(53.16124999999993 16.70800781249998)"/><path d="M-106.47-471.16a8 8 0 0 1 8-8h24a8 8 0 0 1 8 8V-188a8 8 0 0 1-8 8h-24a8 8 0 0 1-8-8zM294-392a8 8 0 0 1 8-8h24a8 8 0 0 1 8 8v64a8 8 0 0 1-8 8h-24a8 8 0 0 1-8-8z" stroke="#000" stroke-width="2" fill="#218cbd"/><path d="M-108.47-229h-10m-10.02 0h-20.02m-10 0h-20.03m-10.02 0h-20.02m-10 0h-20.03m-10.02 0h-20.02m-10 0h-20.88m-10.84 0h-21.7m-10.84 0h-21.7m-10.85 0h-21.68m-10.85 0h-21.7m-10.85 0h-10.85" stroke="#000" stroke-width="2" fill="none"/><path d="M-107.47-228.03h-1.02v-1.94h1.03z" stroke="#000" stroke-width=".05"/><path d="M-466.7-229l14.27-4.63v9.26z" stroke="#000" stroke-width="2"/><path d="M-539.2-352a8 8 0 0 1 8-8h84a8 8 0 0 1 8 8v4.93a17.07 17.07 0 0 1-5 12.07 17.07 17.07 0 0 1-12.08 5h-74.93a8 8 0 0 1-8-8z" fill="#218cbd"/><path d="M-439.2-360v20l-10 10h-90" stroke="#000" stroke-width="2" fill="none"/><path d="M-539.2-352a8 8 0 0 1 8-8H-68a8 8 0 0 1 8 8v144a8 8 0 0 1-8 8h-463.2a8 8 0 0 1-8-8zM-539.2-275h20m15 0h20m15 0h20m15 0h20m15 0h20m15 0h20m15 0h20m15 0h20m15 0h20m15 0h20m15 0h20m15 0h20m15 0h20m15 0h20" stroke="#000" stroke-width="2" fill="none"/><use xlink:href="#q" transform="matrix(1,0,0,1,-531.209250377822,-360) translate(29.974121093750014 21.231445312499993)"/><use xlink:href="#r" transform="matrix(1,0,0,1,-527.209250377822,-322) translate(13.522949218750032 21.231445312499993)"/><use xlink:href="#s" transform="matrix(1,0,0,1,-527.209250377822,-322) translate(30.60009765625001 21.231445312499993)"/><use xlink:href="#t" transform="matrix(1,0,0,1,-527.209250377822,-267) translate(16.256347656250025 21.231445312499993)"/><path d="M-64.97-375.96H276.6" stroke="#000" fill="none"/><path d="M-64.95-375.5h-.52v-.94h.52z" stroke="#000" stroke-width=".05"/><path d="M291.38-375.96l-14.27 4.63v-9.27z" stroke="#000"/><path d="M292.5-351h-4.97m-4.96 0h-9.93m-4.97 0h-9.93m-4.96 0h-9.93m-4.96 0h-9.94m-4.97 0h-9.94m-4.96 0h-9.93m-4.97 0h-9.93m-4.96 0h-9.92m-4.97 0h-9.9m-4.98 0h-9.93m-4.97 0h-9.93m-4.97 0h-9.9m-4.93 0h-9.87m-4.94 0H79.2m-4.93 0H64.4m-4.94 0h-9.86m-4.94 0H34.8m-4.92 0H20m-4.93 0H5.2m-4.93 0H-9.6m-4.94 0h-9.87m-4.94 0h-9.87m-4.95 0h-4.93" stroke="#000" fill="none"/><path d="M293-350.52h-.5v-.96h.5z" stroke="#000" stroke-width=".05"/><path d="M-63.85-351l14.27-4.63v9.26z" stroke="#000"/><path d="M-8.23-354a6 6 0 0 1 6-6h228a6 6 0 0 1 6 6v48a6 6 0 0 1-6 6h-228a6 6 0 0 1-6-6z" fill="none"/><use xlink:href="#u" transform="matrix(1,0,0,1,-8.233392779106282,-360) translate(34.210069444444485 36.154513888888886)"/><use xlink:href="#v" transform="matrix(1,0,0,1,-8.233392779106282,-360) translate(94.1059027777778 36.154513888888886)"/><use xlink:href="#w" transform="matrix(1,0,0,1,-8.233392779106282,-360) translate(174.14062499999997 36.154513888888886)"/><path d="M-840-91.5H679.06M-840-91.5h-.5" stroke="#000" fill="none"/><path d="M693.84-91.5l-14.26 4.65v-9.27z" stroke="#000"/><use xlink:href="#x" transform="matrix(1,0,0,1,-77.32148416346378,-116.18338907518225) translate(0 16.50173611111111)"/><use xlink:href="#y" transform="matrix(1,0,0,1,-77.32148416346378,-116.18338907518225) translate(53.31597222222223 16.50173611111111)"/><use xlink:href="#z" transform="matrix(1,0,0,1,-77.32148416346378,-116.18338907518225) translate(133.515625 16.50173611111111)"/><path d="M694.96-64.5H-51.08" stroke="#000" fill="none"/><path d="M695.46-64.02h-.5v-.95h.5z" stroke="#000" stroke-width=".05"/><path d="M-65.85-64.5l14.27-4.64v9.28z" stroke="#000"/><use xlink:href="#A" transform="matrix(1,0,0,1,222.43550597916646,-60.49925052313981) translate(0 16.50173611111111)"/><use xlink:href="#B" transform="matrix(1,0,0,1,222.43550597916646,-60.49925052313981) translate(33.046875 16.50173611111111)"/><use xlink:href="#C" transform="matrix(1,0,0,1,222.43550597916646,-60.49925052313981) translate(91.76215277777779 16.50173611111111)"/><use xlink:href="#z" transform="matrix(1,0,0,1,222.43550597916646,-60.49925052313981) translate(121.40625 16.50173611111111)"/><path d="M48.06-25.18H-87.97v-.95H48.06zm228.55-1.06H156.48v-.95H276.6z" stroke="#000" stroke-width=".05"/><path d="M-87.95-25.18h-.52v-.95h.52z" stroke="#000" stroke-width=".05"/><path d="M291.38-26.72l-14.27 4.64v-9.28z"/><path d="M292.92-26.72l-16.28 5.3v-10.6zm-15.33 3.98l12.24-3.98-12.25-3.98z" stroke="#000" stroke-width=".05"/><use xlink:href="#D" transform="matrix(1,0,0,1,48.06085507662695,-36.53176862199378) translate(0 16.50173611111111)"/><use xlink:href="#E" transform="matrix(1,0,0,1,48.06085507662695,-36.53176862199378) translate(44.53125 16.50173611111111)"/><path d="M314.5 1.86h4.87m4.88 0H334m4.87 0h9.75m4.88 0h9.75m4.87 0h9.75m4.88 0h9.75m4.88 0h9.75m4.87 0h9.75m4.88 0h9.75m4.87 0H451m4.88 0h9.75m4.87 0h9.75m4.88 0h9.75m4.87 0h4.91l.03.02v.03l.02.02V2h.02v.02l.02.02.03.02H509.67m4.84 0h9.7m4.83 0h9.68m4.85 0h9.68m4.84 0h9.68m4.84 0h9.67m4.84 0h9.7m4.84 0h9.68m4.83 0h9.7m4.83 0h9.68m4.84 0h9.68m4.84 0h9.68m4.84 0h4.84M314.5 1.86h-.5" stroke="#000" fill="none"/><path d="M693.84 2.07L679.58 6.7v-9.27z" stroke="#000"/><g><use xlink:href="#F" transform="matrix(1,0,0,1,443.9266032683149,-22.831529093520338) translate(0 16.50173611111111)"/><use xlink:href="#z" transform="matrix(1,0,0,1,443.9266032683149,-22.831529093520338) translate(59.89583333333333 16.50173611111111)"/></g><path d="M679.5 40h-4.97m-4.96 0h-9.93m-4.97 0h-9.93m-4.96 0h-9.93m-4.97 0h-9.93M610 40h-9.94m-4.97 0h-9.94m-4.96 0h-9.94m-4.96 0h-9.93m-4.97 0h-9.93m-4.96 0h-9.92m-4.97 0h-9.92m-4.96 0h-9.93m-4.98 0h-9.93m-4.97 0H466m-4.97 0h-9.93m-4.97 0h-9.93m-4.96 0h-9.93m-4.96 0h-9.93m-4.95 0h-9.93m-4.97 0h-9.93m-4.96 0h-9.93m-4.97 0h-9.93m-4.96 0h-9.94m-4.96 0h-9.93m-4.97 0h-9.93m-4.96 0h-9.93m-4.97 0h-9.93m-4.96 0h-9.94m-4.97 0h-9.94m-4.96 0h-9.94m-4.96 0h-9.93m-4.97 0h-9.93m-4.96 0H183M178 40h-9.92m-4.96 0h-9.93m-4.98 0h-9.93m-4.97 0h-9.93m-4.97 0h-9.93m-4.97 0H93.6m-4.96 0H78.7m-4.96 0H63.8m-4.95 0h-9.93m-4.97 0h-9.93m-4.96 0h-9.93m-4.97 0H4.23m-4.97 0h-9.93m-4.96 0h-9.93m-4.97 0h-9.93m-4.96 0h-9.93m-4.97 0h-9.93m-4.96 0H-85.15m-4.95 0h-9.9m-4.97 0h-9.92m-4.95 0h-9.9m-4.97 0h-9.92m-4.96 0h-9.92m-4.95 0h-9.92m-4.95 0h-9.92m-4.96 0h-9.9m-4.97 0h-9.92m-4.96 0h-9.92m-4.95 0h-9.92m-4.96 0h-9.92m-4.96 0h-9.92m-4.96 0h-9.92m-4.96 0h-9.9m-4.97 0h-9.92m-4.96 0h-9.93m-4.96 0h-9.9m-4.96 0h-9.92m-4.96 0h-9.9m-4.97 0h-9.93m-4.96 0h-9.9m-4.96 0h-9.92m-4.96 0h-9.92m-4.96 0h-9.9m-4.97 0h-9.9m-4.97 0h-9.92m-4.94 0h-9.92m-4.96 0h-9.92m-4.96 0h-9.9m-4.97 0h-9.92m-4.95 0h-9.9m-4.97 0h-9.92m-4.96 0h-9.92m-4.96 0h-9.9m-4.97 0h-9.92m-4.96 0h-9.9m-4.97 0h-9.92m-4.96 0h-9.92m-4.95 0h-9.92m-4.96 0h-9.92m-4.96 0h-9.92m-4.96 0h-9.92m-4.96 0h-9.9m-4.97 0h-9.92m-4.96 0h-9.93m-4.96 0h-9.9m-4.96 0h-9.92m-4.96 0h-9.9m-4.97 0h-4.97M679.5 40h.5" stroke="#000" fill="none"/><path d="M-838.74 40l14.27-4.63v9.27z" stroke="#000"/><g><use xlink:href="#G" transform="matrix(1,0,0,1,-171.79274677982113,44) translate(0 16.50173611111111)"/><use xlink:href="#H" transform="matrix(1,0,0,1,-171.79274677982113,44) translate(49.33159722222223 16.50173611111111)"/><use xlink:href="#I" transform="matrix(1,0,0,1,-171.79274677982113,44) translate(129.53125 16.50173611111111)"/></g><path d="M610.46-712a8 8 0 0 1 8-8h196a8 8 0 0 1 8 8v226a8 8 0 0 1-8 8h-196a8 8 0 0 1-8-8z" stroke="#000" fill="#218cbd"/><g><use xlink:href="#J" transform="matrix(1,0,0,1,618.4589542290266,-712) translate(45.04947916666667 119.15451388888889)"/><use xlink:href="#b" transform="matrix(1,0,0,1,618.4589542290266,-712) translate(104.53732638888889 119.15451388888889)"/></g><path d="M696.46-172a8 8 0 0 1 8-8h24a8 8 0 0 1 8 8v304a8 8 0 0 1-8 8h-24a8 8 0 0 1-8-8z" stroke="#000" stroke-width="2" fill="#218cbd"/><path d="M-494.24-135l1173.32-4.93M-494.23-135h-.5" stroke="#000" fill="none"/><path d="M693.84-140l-14.24 4.7-.04-9.27z" stroke="#000"/><g><use xlink:href="#K" transform="matrix(1,0,0,1,-451.6271311272784,-160.34192839786667) translate(0 16.50173611111111)"/><use xlink:href="#L" transform="matrix(1,0,0,1,-451.6271311272784,-160.34192839786667) translate(77.86458333333334 16.50173611111111)"/><use xlink:href="#M" transform="matrix(1,0,0,1,-451.6271311272784,-160.34192839786667) translate(100.2170138888889 16.50173611111111)"/><use xlink:href="#N" transform="matrix(1,0,0,1,-451.6271311272784,-160.34192839786667) translate(162.66493055555557 16.50173611111111)"/></g><path d="M-510.93-152a8 8 0 0 1 8-8h24a8 8 0 0 1 8 8v28.33a8 8 0 0 1-8 8h-24a8 8 0 0 1-8-8zM294-32a8 8 0 0 1 8-8h24a8 8 0 0 1 8 8V1.17a8 8 0 0 1-8 8h-24a8 8 0 0 1-8-8zM-108.47-72a8 8 0 0 1 8-8h24a8 8 0 0 1 8 8v44a8 8 0 0 1-8 8h-24a8 8 0 0 1-8-8z" stroke="#000" stroke-width="2" fill="#218cbd"/><defs><path fill="#333" d="M414-233c-4 120 72 154 194 147V0H27v-86c122 7 194-28 194-147v-1098c3-115-76-146-194-139v-86h387v1323" id="O"/><path fill="#333" d="M594-1118c338 0 472 222 475 567 2 360-143 571-481 571S115-205 113-551c-2-359 142-567 481-567zm-4 108c-241 0-279 212-279 459 0 249 39 465 281 465s278-216 278-465c0-248-38-459-280-459" id="P"/><path fill="#333" d="M956-1161c125-12 164 158 62 205-14 6-30 8-49 8 9-84-106-83-156-45 48 62 81 134 80 248-2 265-188 381-475 346-48 26-98 54-99 125-1 68 58 77 127 77h232c215 1 338 97 338 306 0 294-237 379-543 383-249 3-426-81-426-299C47 28 162-41 303-70c-62-29-113-79-113-168 0-105 57-142 134-192-112-50-185-152-185-309 0-249 134-379 385-379 97 0 179 25 234 67 49-50 103-100 198-110zM438-14c-139-3-225 52-225 194 0 158 102 212 264 211 212-1 363-46 371-248C856-58 624-10 438-14zm78-1004c-150 0-184 109-184 273 0 159 39 250 186 253 149 3 184-105 182-256-2-165-33-270-184-270" id="Q"/><path fill="#333" d="M434-233c-3 120 73 154 195 147V0H47v-86c118 6 195-21 195-137v-649c2-108-66-143-174-140v-86h366v865zM330-1303c-79 0-117-45-117-127s37-126 117-126c79 0 116 46 116 126 0 81-37 127-116 127" id="R"/><path fill="#333" d="M434-223c-3 108 66 141 174 137V0H57v-86c118 6 185-31 185-147v-639c2-108-66-143-174-140v-86h331l27 166h10c63-113 148-188 320-186 244 3 343 152 344 401v484c-4 110 54 152 164 147V0H907v-707c0-170-55-282-225-280-187 3-248 145-248 332v432" id="S"/><g id="a"><use transform="matrix(0.008680555555555556,0,0,0.008680555555555556,0,0)" xlink:href="#O"/><use transform="matrix(0.008680555555555556,0,0,0.008680555555555556,5.512152777777778,0)" xlink:href="#P"/><use transform="matrix(0.008680555555555556,0,0,0.008680555555555556,15.598958333333336,0)" xlink:href="#Q"/><use transform="matrix(0.008680555555555556,0,0,0.008680555555555556,25.164930555555557,0)" xlink:href="#R"/><use transform="matrix(0.008680555555555556,0,0,0.008680555555555556,30.850694444444446,0)" xlink:href="#S"/><path fill="#333" d="M-.9.9h48.72v.88H-.88z"/></g><path fill="#333" d="M946-553c0-230-32-430-254-434-242-4-278 193-278 436s40 440 280 440c221 0 252-212 252-442zm-219-565c321 0 418 237 418 567 0 331-96 571-418 571-163 0-254-75-313-180h-8c7 140 10 280 8 428-2 108 66 142 174 138v86H37v-86c118 6 184-32 184-148V-872c3-116-76-146-194-140v-86h358l21 185h8c57-116 142-205 313-205" id="T"/><path fill="#333" d="M467-106c176 0 267-107 272-285v-166c-189 6-378 9-423 154-10 31-15 66-15 106 0 123 47 191 166 191zm272-535c5-199 13-375-190-375-142 0-190 83-187 223-106-2-174-27-174-129 0-169 191-191 369-196 250-7 375 104 375 354v531c-3 100 32 153 133 147V0H788l-32-176h-17C664-76 596 23 420 20 213 16 102-97 102-307c0-109 41-186 116-242 100-75 325-89 521-92" id="U"/><path fill="#333" d="M786-645c-4-191-36-363-223-363-76 0-134 30-175 92s-66 152-73 271h471zm123 393c43 21 51 90 17 136C862-29 744 20 588 20c-331 0-471-225-475-561-4-348 134-577 454-577 327 0 443 231 426 583H311c7 242 67 426 305 426 140 0 234-60 293-143" id="V"/><g id="b"><use transform="matrix(0.008680555555555556,0,0,0.008680555555555556,0,0)" xlink:href="#T"/><use transform="matrix(0.008680555555555556,0,0,0.008680555555555556,10.911458333333334,0)" xlink:href="#U"/><use transform="matrix(0.008680555555555556,0,0,0.008680555555555556,20.92013888888889,0)" xlink:href="#S"/><use transform="matrix(0.008680555555555556,0,0,0.008680555555555556,32.38715277777778,0)" xlink:href="#V"/><use transform="matrix(0.008680555555555556,0,0,0.008680555555555556,41.90104166666667,0)" xlink:href="#O"/><path fill="#333" d="M-.9.9h49.2v.88H-.9z"/></g><path fill="#333" d="M727-1118c321 0 418 237 418 567 0 331-96 571-418 571-163 0-254-75-313-180h-13L365 0H37v-86c117 6 184-31 184-147v-1098c2-112-70-144-184-139v-86h377c-1 217 4 437-8 643h8c57-116 142-205 313-205zm219 565c0-230-32-430-254-434-242-4-278 193-278 436s40 440 280 440c221 0 252-212 252-442" id="W"/><path fill="#333" d="M893-256c39 28 47 103 13 150C845-22 730 20 580 20c-332 0-467-220-467-563 0-349 119-575 456-575 140 0 259 39 325 116 44 51 42 161-14 193-31 18-76 29-137 29-1-134-38-239-174-236-232 6-258 224-258 471 0 264 65 427 310 432 127 2 227-62 272-143" id="X"/><path fill="#333" d="M769-940c21-67-28-74-95-72v-86h452v86c-47 0-94 17-140 50-98 70-204 208-292 303l273 405c63 88 106 163 233 168V0c-163 2-281-2-352-92-100-127-191-290-283-428L414-408v185c-3 108 66 141 174 137V0H37v-86c117 6 184-31 184-147v-1098c2-112-70-144-184-139v-86h377c-3 350 7 709-8 1048 114-131 245-251 345-394 9-13 15-27 18-38" id="Y"/><path fill="#333" d="M844-1331c2-112-71-145-185-139v-86h377v1331c-2 112 71 145 185 139V0H874l-22-184h-8C786-68 701 20 530 20c-321 0-417-237-417-567 0-331 95-571 417-571 163 0 254 76 314 180h12c-10-128-14-255-12-393zM563-987c-219 0-252 212-252 442 0 145 20 254 59 326s104 108 195 108c242 2 279-192 279-436s-41-440-281-440" id="Z"/><g id="c"><use transform="matrix(0.008680555555555556,0,0,0.008680555555555556,0,0)" xlink:href="#W"/><use transform="matrix(0.008680555555555556,0,0,0.008680555555555556,10.911458333333334,0)" xlink:href="#U"/><use transform="matrix(0.008680555555555556,0,0,0.008680555555555556,20.92013888888889,0)" xlink:href="#X"/><use transform="matrix(0.008680555555555556,0,0,0.008680555555555556,29.67013888888889,0)" xlink:href="#Y"/><use transform="matrix(0.008680555555555556,0,0,0.008680555555555556,39.895833333333336,0)" xlink:href="#V"/><use transform="matrix(0.008680555555555556,0,0,0.008680555555555556,49.409722222222236,0)" xlink:href="#S"/><use transform="matrix(0.008680555555555556,0,0,0.008680555555555556,60.876736111111114,0)" xlink:href="#Z"/><path fill="#333" d="M-.9.9h78.2v.88H-.9z"/></g><path fill="#333" d="M834-301C834-70 665 20 430 20 250 20 92-26 92-197c0-88 47-135 129-141 1 157 63 257 221 260 156 3 257-97 214-252-47-85-142-109-240-157-153-75-310-122-310-340 0-212 169-289 386-289 130 0 232 36 280 116 31 53 24 126-20 162-26 22-62 33-109 33 0-130-49-217-176-217-120 1-195 48-195 164 0 149 143 163 254 217 154 74 308 124 308 340" id="aa"/><path fill="#333" d="M434-223C430-95 529-79 659-86V0H68v-86c112 4 174-35 174-147v-639c2-108-66-143-174-140v-86h315l39 203h10c50-120 106-223 281-223 151 0 257 68 211 208-21 64-90 87-181 87-2-101-16-160-108-160-128 0-157 140-183 255-33 148-12 333-18 505" id="ab"/><path fill="#333" d="M886-871c30-101-37-149-145-141v-86h439v86c-127-12-147 70-181 160L676 0H489L160-903c-24-68-57-114-152-109v-86h512v86c-124-19-174 64-133 174 84 228 172 444 229 695h7c82-248 190-477 263-728" id="ac"/><g id="d"><use transform="matrix(0.008680555555555556,0,0,0.008680555555555556,0,0)" xlink:href="#aa"/><use transform="matrix(0.008680555555555556,0,0,0.008680555555555556,8.020833333333334,0)" xlink:href="#V"/><use transform="matrix(0.008680555555555556,0,0,0.008680555555555556,17.53472222222222,0)" xlink:href="#ab"/><use transform="matrix(0.008680555555555556,0,0,0.008680555555555556,26.085069444444443,0)" xlink:href="#ac"/><use transform="matrix(0.008680555555555556,0,0,0.008680555555555556,36.20659722222222,0)" xlink:href="#V"/><use transform="matrix(0.008680555555555556,0,0,0.008680555555555556,45.720486111111114,0)" xlink:href="#ab"/><path fill="#333" d="M-.9.9H55v.88H-.9z"/></g><path fill="#333" d="M387-291c-2 124 47 200 156 203 51 1 88-6 131-14v90C626 8 560 18 492 20 278 25 195-83 195-297v-684H39v-82c170-8 224-133 254-287h94v252h268v117H387v690" id="ad"/><g id="e"><use transform="matrix(0.008680555555555556,0,0,0.008680555555555556,0,0)" xlink:href="#Z"/><use transform="matrix(0.008680555555555556,0,0,0.008680555555555556,10.911458333333334,0)" xlink:href="#U"/><use transform="matrix(0.008680555555555556,0,0,0.008680555555555556,20.74652777777778,0)" xlink:href="#ad"/><use transform="matrix(0.008680555555555556,0,0,0.008680555555555556,27.005208333333336,0)" xlink:href="#U"/><use transform="matrix(0.008680555555555556,0,0,0.008680555555555556,37.01388888888889,0)" xlink:href="#W"/><use transform="matrix(0.008680555555555556,0,0,0.008680555555555556,47.925347222222236,0)" xlink:href="#U"/><use transform="matrix(0.008680555555555556,0,0,0.008680555555555556,57.934027777777786,0)" xlink:href="#aa"/><use transform="matrix(0.008680555555555556,0,0,0.008680555555555556,65.95486111111111,0)" xlink:href="#V"/><path fill="#333" d="M-.9.9h77.26v.88H-.9z"/></g><path fill="#3a414a" d="M467-106c176 0 267-107 272-285v-166c-189 6-378 9-423 154-10 31-15 66-15 106 0 123 47 191 166 191zm272-535c5-199 13-375-190-375-142 0-190 83-187 223-106-2-174-27-174-129 0-169 191-191 369-196 250-7 375 104 375 354v531c-3 100 32 153 133 147V0H788l-32-176h-17C664-76 596 23 420 20 213 16 102-97 102-307c0-109 41-186 116-242 100-75 325-89 521-92" id="ae"/><path fill="#3a414a" d="M844-1331c2-112-71-145-185-139v-86h377v1331c-2 112 71 145 185 139V0H874l-22-184h-8C786-68 701 20 530 20c-321 0-417-237-417-567 0-331 95-571 417-571 163 0 254 76 314 180h12c-10-128-14-255-12-393zM563-987c-219 0-252 212-252 442 0 145 20 254 59 326s104 108 195 108c242 2 279-192 279-436s-41-440-281-440" id="af"/><path fill="#3a414a" d="M434-223c-3 108 66 141 174 137V0H57v-86c121 8 185-28 185-147v-639c3-106-58-144-164-140v-86h321l27 166h10c60-112 141-188 309-186 158 2 252 69 297 186h17c61-114 150-188 321-186 240 3 333 155 334 401v484c-3 110 54 152 164 147V0h-356v-707c0-166-49-282-215-280-172 2-228 132-228 305v449c-3 110 54 152 164 147V0H887v-707c0-166-49-282-215-280-182 3-238 148-238 332v432" id="ag"/><path fill="#3a414a" d="M434-233c-3 120 73 154 195 147V0H47v-86c118 6 195-21 195-137v-649c2-108-66-143-174-140v-86h366v865zM330-1303c-79 0-117-45-117-127s37-126 117-126c79 0 116 46 116 126 0 81-37 127-116 127" id="ah"/><path fill="#3a414a" d="M434-223c-3 108 66 141 174 137V0H57v-86c118 6 185-31 185-147v-639c2-108-66-143-174-140v-86h331l27 166h10c63-113 148-188 320-186 244 3 343 152 344 401v484c-4 110 54 152 164 147V0H907v-707c0-170-55-282-225-280-187 3-248 145-248 332v432" id="ai"/><g id="f"><use transform="matrix(0.008680555555555556,0,0,0.008680555555555556,0,0)" xlink:href="#ae"/><use transform="matrix(0.008680555555555556,0,0,0.008680555555555556,10.008680555555555,0)" xlink:href="#af"/><use transform="matrix(0.008680555555555556,0,0,0.008680555555555556,20.92013888888889,0)" xlink:href="#ag"/><use transform="matrix(0.008680555555555556,0,0,0.008680555555555556,37.717013888888886,0)" xlink:href="#ah"/><use transform="matrix(0.008680555555555556,0,0,0.008680555555555556,43.40277777777777,0)" xlink:href="#ai"/></g><path fill="#3a414a" d="M414-233c-4 120 72 154 194 147V0H27v-86c122 7 194-28 194-147v-1098c3-115-76-146-194-139v-86h387v1323" id="aj"/><path fill="#3a414a" d="M594-1118c338 0 472 222 475 567 2 360-143 571-481 571S115-205 113-551c-2-359 142-567 481-567zm-4 108c-241 0-279 212-279 459 0 249 39 465 281 465s278-216 278-465c0-248-38-459-280-459" id="ak"/><path fill="#3a414a" d="M956-1161c125-12 164 158 62 205-14 6-30 8-49 8 9-84-106-83-156-45 48 62 81 134 80 248-2 265-188 381-475 346-48 26-98 54-99 125-1 68 58 77 127 77h232c215 1 338 97 338 306 0 294-237 379-543 383-249 3-426-81-426-299C47 28 162-41 303-70c-62-29-113-79-113-168 0-105 57-142 134-192-112-50-185-152-185-309 0-249 134-379 385-379 97 0 179 25 234 67 49-50 103-100 198-110zM438-14c-139-3-225 52-225 194 0 158 102 212 264 211 212-1 363-46 371-248C856-58 624-10 438-14zm78-1004c-150 0-184 109-184 273 0 159 39 250 186 253 149 3 184-105 182-256-2-165-33-270-184-270" id="al"/><g id="g"><use transform="matrix(0.0087890625,0,0,0.0087890625,0,0)" xlink:href="#aj"/><use transform="matrix(0.0087890625,0,0,0.0087890625,5.5810546875,0)" xlink:href="#ak"/><use transform="matrix(0.0087890625,0,0,0.0087890625,15.7939453125,0)" xlink:href="#al"/><use transform="matrix(0.0087890625,0,0,0.0087890625,25.4794921875,0)" xlink:href="#ah"/><use transform="matrix(0.0087890625,0,0,0.0087890625,31.236328125,0)" xlink:href="#ai"/></g><path fill="#3a414a" d="M893-256c39 28 47 103 13 150C845-22 730 20 580 20c-332 0-467-220-467-563 0-349 119-575 456-575 140 0 259 39 325 116 44 51 42 161-14 193-31 18-76 29-137 29-1-134-38-239-174-236-232 6-258 224-258 471 0 264 65 427 310 432 127 2 227-62 272-143" id="am"/><path fill="#3a414a" d="M414-223c-3 108 66 141 174 137V0H37v-86c117 6 184-31 184-147v-1098c2-112-70-144-184-139v-86h377c-3 208 7 429-8 624h10c61-124 162-186 301-186 253 1 362 144 362 401v484c-3 110 54 152 164 147V0H887v-707c0-170-55-283-225-280-186 3-248 143-248 332v432" id="an"/><path fill="#3a414a" d="M786-645c-4-191-36-363-223-363-76 0-134 30-175 92s-66 152-73 271h471zm123 393c43 21 51 90 17 136C862-29 744 20 588 20c-331 0-471-225-475-561-4-348 134-577 454-577 327 0 443 231 426 583H311c7 242 67 426 305 426 140 0 234-60 293-143" id="ao"/><path fill="#3a414a" d="M769-940c21-67-28-74-95-72v-86h452v86c-47 0-94 17-140 50-98 70-204 208-292 303l273 405c63 88 106 163 233 168V0c-163 2-281-2-352-92-100-127-191-290-283-428L414-408v185c-3 108 66 141 174 137V0H37v-86c117 6 184-31 184-147v-1098c2-112-70-144-184-139v-86h377c-3 350 7 709-8 1048 114-131 245-251 345-394 9-13 15-27 18-38" id="ap"/><g id="h"><use transform="matrix(0.00878906249999999,0,0,0.00878906249999999,0,0)" xlink:href="#am"/><use transform="matrix(0.00878906249999999,0,0,0.00878906249999999,8.85937499999999,0)" xlink:href="#an"/><use transform="matrix(0.00878906249999999,0,0,0.00878906249999999,20.285156249999975,0)" xlink:href="#ao"/><use transform="matrix(0.00878906249999999,0,0,0.00878906249999999,29.917968749999964,0)" xlink:href="#am"/><use transform="matrix(0.00878906249999999,0,0,0.00878906249999999,38.77734374999996,0)" xlink:href="#ap"/></g><path fill="#3a414a" d="M387-291c-2 124 47 200 156 203 51 1 88-6 131-14v90C626 8 560 18 492 20 278 25 195-83 195-297v-684H39v-82c170-8 224-133 254-287h94v252h268v117H387v690" id="aq"/><g id="i"><use transform="matrix(0.00878906249999999,0,0,0.00878906249999999,0,0)" xlink:href="#aq"/><use transform="matrix(0.00878906249999999,0,0,0.00878906249999999,6.336914062499993,0)" xlink:href="#an"/><use transform="matrix(0.00878906249999999,0,0,0.00878906249999999,17.76269531249998,0)" xlink:href="#ao"/></g><path fill="#3a414a" d="M442-233C435-92 546-78 688-86V0H55v-86c123 7 195-27 195-147v-768H63v-97h187v-102c4-240 124-377 362-377 124 0 225 14 272 85 33 50 8 123-32 144-31 17-72 29-121 29-2-96-37-164-135-164-176 0-152 207-154 385h289v97H442v768" id="ar"/><g id="j"><use transform="matrix(0.00878906249999999,0,0,0.00878906249999999,0,0)" xlink:href="#ah"/><use transform="matrix(0.00878906249999999,0,0,0.00878906249999999,5.756835937499993,0)" xlink:href="#ai"/><use transform="matrix(0.00878906249999999,0,0,0.00878906249999999,17.36718749999998,0)" xlink:href="#ar"/><use transform="matrix(0.00878906249999999,0,0,0.00878906249999999,23.83593749999997,0)" xlink:href="#ak"/></g><path fill="#3a414a" d="M886-871c30-101-37-149-145-141v-86h439v86c-127-12-147 70-181 160L676 0H489L160-903c-24-68-57-114-152-109v-86h512v86c-124-19-174 64-133 174 84 228 172 444 229 695h7c82-248 190-477 263-728" id="as"/><path fill="#3a414a" d="M434-223C430-95 529-79 659-86V0H68v-86c112 4 174-35 174-147v-639c2-108-66-143-174-140v-86h315l39 203h10c50-120 106-223 281-223 151 0 257 68 211 208-21 64-90 87-181 87-2-101-16-160-108-160-128 0-157 140-183 255-33 148-12 333-18 505" id="at"/><path fill="#3a414a" d="M868-871c27-98-34-147-137-141v-86h426v86c-114-4-130 76-162 160C865-510 751-153 616 182c-65 163-156 280-360 302-50 6-113 8-178 8v-97c285-2 394-182 461-403L160-903c-28-65-56-114-152-109v-86h492v86c-114-14-152 77-113 174 88 217 187 419 248 662h6c62-238 163-461 227-695" id="au"/><g id="k"><use transform="matrix(0.00878906249999999,0,0,0.00878906249999999,0,0)" xlink:href="#as"/><use transform="matrix(0.00878906249999999,0,0,0.00878906249999999,10.248046874999988,0)" xlink:href="#ao"/><use transform="matrix(0.00878906249999999,0,0,0.00878906249999999,19.88085937499998,0)" xlink:href="#at"/><use transform="matrix(0.00878906249999999,0,0,0.00878906249999999,28.362304687499968,0)" xlink:href="#ah"/><use transform="matrix(0.00878906249999999,0,0,0.00878906249999999,34.11914062499996,0)" xlink:href="#ar"/><use transform="matrix(0.00878906249999999,0,0,0.00878906249999999,40.76367187499995,0)" xlink:href="#au"/></g><path fill="#3a414a" d="M293 14c-88 0-129-49-129-139 0-91 41-139 129-139 87 0 129 49 129 139-1 89-42 139-129 139" id="av"/><g id="l"><use transform="matrix(0.00878906249999999,0,0,0.00878906249999999,0,0)" xlink:href="#ah"/><use transform="matrix(0.00878906249999999,0,0,0.00878906249999999,5.756835937499993,0)" xlink:href="#ai"/><use transform="matrix(0.00878906249999999,0,0,0.00878906249999999,17.36718749999998,0)" xlink:href="#ar"/><use transform="matrix(0.00878906249999999,0,0,0.00878906249999999,23.83593749999997,0)" xlink:href="#ak"/><use transform="matrix(0.00878906249999999,0,0,0.00878906249999999,33.86425781249996,0)" xlink:href="#av"/></g><path fill="#3a414a" d="M508-1012c-85 0-151 4-150 86 0 28 11 63 17 88 59 216 125 426 168 658h6c20-100 53-202 84-293l213-619h129c98 304 212 592 293 912h6c46-231 140-457 196-684 26-106-33-156-145-148v-86h438v86c-127-12-151 65-180 160L1319 0h-164L911-721l-37-135L584 0H422L154-903c-24-68-57-114-152-109v-86h506v86" id="aw"/><g id="m"><use transform="matrix(0.00878906249999999,0,0,0.00878906249999999,0,0)" xlink:href="#aw"/><use transform="matrix(0.00878906249999999,0,0,0.00878906249999999,15.512695312499982,0)" xlink:href="#at"/><use transform="matrix(0.00878906249999999,0,0,0.00878906249999999,23.81835937499997,0)" xlink:href="#ak"/><use transform="matrix(0.00878906249999999,0,0,0.00878906249999999,34.20703124999996,0)" xlink:href="#ai"/><use transform="matrix(0.00878906249999999,0,0,0.00878906249999999,45.81738281249994,0)" xlink:href="#al"/></g><path fill="#3a414a" d="M946-553c0-230-32-430-254-434-242-4-278 193-278 436s40 440 280 440c221 0 252-212 252-442zm-219-565c321 0 418 237 418 567 0 331-96 571-418 571-163 0-254-75-313-180h-8c7 140 10 280 8 428-2 108 66 142 174 138v86H37v-86c118 6 184-32 184-148V-872c3-116-76-146-194-140v-86h358l21 185h8c57-116 142-205 313-205" id="ax"/><path fill="#3a414a" d="M887-864c2-112-62-153-174-148v-86h366v875c-3 108 66 141 174 137V0H928l-27-166h-10C829-49 733 21 559 20c-245-1-338-153-338-401v-491c2-108-66-143-174-140v-86h367v707c-1 168 46 283 215 280 191-4 258-139 258-331v-422" id="ay"/><path fill="#3a414a" d="M834-301C834-70 665 20 430 20 250 20 92-26 92-197c0-88 47-135 129-141 1 157 63 257 221 260 156 3 257-97 214-252-47-85-142-109-240-157-153-75-310-122-310-340 0-212 169-289 386-289 130 0 232 36 280 116 31 53 24 126-20 162-26 22-62 33-109 33 0-130-49-217-176-217-120 1-195 48-195 164 0 149 143 163 254 217 154 74 308 124 308 340" id="az"/><g id="n"><use transform="matrix(0.00878906249999999,0,0,0.00878906249999999,0,0)" xlink:href="#ah"/><use transform="matrix(0.00878906249999999,0,0,0.00878906249999999,5.756835937499993,0)" xlink:href="#ai"/><use transform="matrix(0.00878906249999999,0,0,0.00878906249999999,17.19140624999998,0)" xlink:href="#ax"/><use transform="matrix(0.00878906249999999,0,0,0.00878906249999999,28.23925781249996,0)" xlink:href="#ay"/><use transform="matrix(0.00878906249999999,0,0,0.00878906249999999,39.66503906249995,0)" xlink:href="#aq"/><use transform="matrix(0.00878906249999999,0,0,0.00878906249999999,46.00195312499994,0)" xlink:href="#az"/></g><path fill="#3a414a" d="M674-1376c-119-7-195 23-195 139v1135h404c178-1 180-179 200-338h107L1176 0H78v-86c122 7 194-27 194-147v-996c4-120-72-154-194-147v-86h596v86" id="aA"/><g id="o"><use transform="matrix(0.00878906249999999,0,0,0.00878906249999999,0,0)" xlink:href="#aA"/><use transform="matrix(0.00878906249999999,0,0,0.00878906249999999,11.214843749999988,0)" xlink:href="#ak"/><use transform="matrix(0.00878906249999999,0,0,0.00878906249999999,21.427734374999975,0)" xlink:href="#al"/><use transform="matrix(0.00878906249999999,0,0,0.00878906249999999,31.113281249999964,0)" xlink:href="#ah"/><use transform="matrix(0.00878906249999999,0,0,0.00878906249999999,36.87011718749996,0)" xlink:href="#ai"/></g><path fill="#3a414a" d="M1010-391c0 288-209 411-504 411-227 0-400-72-408-288-3-85 58-140 148-138 13 184 83 323 276 326 176 3 296-86 293-258-4-208-164-249-317-319-197-90-377-181-377-455 0-256 189-371 448-371 165 0 292 46 357 143 39 57 33 148-18 186-30 22-68 34-117 34-4-156-72-260-230-260-155 0-250 80-250 233 0 217 160 262 318 332 152 68 291 135 355 283 17 42 26 88 26 141" id="aB"/><g id="p"><use transform="matrix(0.00878906249999999,0,0,0.00878906249999999,0,0)" xlink:href="#aB"/><use transform="matrix(0.00878906249999999,0,0,0.00878906249999999,9.615234374999986,0)" xlink:href="#ay"/><use transform="matrix(0.00878906249999999,0,0,0.00878906249999999,21.04101562499997,0)" xlink:href="#am"/><use transform="matrix(0.00878906249999999,0,0,0.00878906249999999,29.90039062499996,0)" xlink:href="#am"/><use transform="matrix(0.00878906249999999,0,0,0.00878906249999999,38.75976562499996,0)" xlink:href="#ao"/><use transform="matrix(0.00878906249999999,0,0,0.00878906249999999,48.39257812499994,0)" xlink:href="#az"/><use transform="matrix(0.00878906249999999,0,0,0.00878906249999999,56.513671874999936,0)" xlink:href="#az"/><use transform="matrix(0.00878906249999999,0,0,0.00878906249999999,64.63476562499993,0)" xlink:href="#ar"/><use transform="matrix(0.00878906249999999,0,0,0.00878906249999999,71.27929687499991,0)" xlink:href="#ay"/><use transform="matrix(0.00878906249999999,0,0,0.00878906249999999,82.7050781249999,0)" xlink:href="#aj"/></g><g id="q"><use transform="matrix(0.00878906249999999,0,0,0.00878906249999999,0,0)" xlink:href="#ae"/><use transform="matrix(0.00878906249999999,0,0,0.00878906249999999,10.133789062499988,0)" xlink:href="#aj"/><use transform="matrix(0.00878906249999999,0,0,0.00878906249999999,15.714843749999982,0)" xlink:href="#aq"/></g><g id="r"><use transform="matrix(0.00878906249999999,0,0,0.00878906249999999,0,0)" xlink:href="#ah"/><use transform="matrix(0.00878906249999999,0,0,0.00878906249999999,5.756835937499993,0)" xlink:href="#ar"/></g><g id="s"><use transform="matrix(0.00878906249999999,0,0,0.00878906249999999,0,0)" xlink:href="#aq"/><use transform="matrix(0.00878906249999999,0,0,0.00878906249999999,6.336914062499993,0)" xlink:href="#at"/><use transform="matrix(0.00878906249999999,0,0,0.00878906249999999,14.818359374999982,0)" xlink:href="#ay"/><use transform="matrix(0.00878906249999999,0,0,0.00878906249999999,26.244140624999968,0)" xlink:href="#ao"/></g><path fill="#3a414a" d="M406 29c-9 145 111 155 256 147v86H205v-1818h457v86c-145-8-256 1-256 147V29" id="aC"/><path fill="#3a414a" d="M272-1229c4-120-72-154-194-147v-86h1032l10 358h-106c-7-141-39-256-191-256H479v545h494v100H479v613h395c120 0 178-65 195-168l14-88h107L1176 0H78v-86c117 6 194-21 194-137v-1006" id="aD"/><path fill="#3a414a" d="M332-1323c2-109-60-150-168-147H76v-86h456V262H76v-86c145 8 256-2 256-147v-1352" id="aE"/><g id="t"><use transform="matrix(0.00878906249999999,0,0,0.00878906249999999,0,0)" xlink:href="#aC"/><use transform="matrix(0.00878906249999999,0,0,0.00878906249999999,6.459960937499992,0)" xlink:href="#aD"/><use transform="matrix(0.00878906249999999,0,0,0.00878906249999999,17.67480468749998,0)" xlink:href="#aj"/><use transform="matrix(0.00878906249999999,0,0,0.00878906249999999,23.25585937499997,0)" xlink:href="#az"/><use transform="matrix(0.00878906249999999,0,0,0.00878906249999999,31.376953124999964,0)" xlink:href="#ao"/><use transform="matrix(0.00878906249999999,0,0,0.00878906249999999,41.00976562499996,0)" xlink:href="#aE"/></g><g id="u"><use transform="matrix(0.008680555555555552,0,0,0.008680555555555552,0,0)" xlink:href="#at"/><use transform="matrix(0.008680555555555552,0,0,0.008680555555555552,8.376736111111109,0)" xlink:href="#ao"/><use transform="matrix(0.008680555555555552,0,0,0.008680555555555552,17.890624999999993,0)" xlink:href="#aq"/><use transform="matrix(0.008680555555555552,0,0,0.008680555555555552,24.149305555555546,0)" xlink:href="#ay"/><use transform="matrix(0.008680555555555552,0,0,0.008680555555555552,35.434027777777764,0)" xlink:href="#at"/><use transform="matrix(0.008680555555555552,0,0,0.008680555555555552,43.81076388888887,0)" xlink:href="#ai"/></g><g id="v"><use transform="matrix(0.008680555555555552,0,0,0.008680555555555552,0,0)" xlink:href="#am"/><use transform="matrix(0.008680555555555552,0,0,0.008680555555555552,8.749999999999996,0)" xlink:href="#an"/><use transform="matrix(0.008680555555555552,0,0,0.008680555555555552,20.034722222222214,0)" xlink:href="#ao"/><use transform="matrix(0.008680555555555552,0,0,0.008680555555555552,29.5486111111111,0)" xlink:href="#am"/><use transform="matrix(0.008680555555555552,0,0,0.008680555555555552,38.2986111111111,0)" xlink:href="#ap"/><use transform="matrix(0.008680555555555552,0,0,0.008680555555555552,48.69791666666665,0)" xlink:href="#ah"/><use transform="matrix(0.008680555555555552,0,0,0.008680555555555552,54.383680555555536,0)" xlink:href="#ai"/><use transform="matrix(0.008680555555555552,0,0,0.008680555555555552,65.85069444444441,0)" xlink:href="#al"/></g><g id="w"><use transform="matrix(0.008680555555555552,0,0,0.008680555555555552,0,0)" xlink:href="#ar"/><use transform="matrix(0.008680555555555552,0,0,0.008680555555555552,6.562499999999997,0)" xlink:href="#aj"/><use transform="matrix(0.008680555555555552,0,0,0.008680555555555552,12.074652777777773,0)" xlink:href="#ae"/><use transform="matrix(0.008680555555555552,0,0,0.008680555555555552,22.083333333333325,0)" xlink:href="#al"/></g><path fill="#333" d="M414-223c-3 108 66 141 174 137V0H37v-86c117 6 184-31 184-147v-1098c2-112-70-144-184-139v-86h377c-3 208 7 429-8 624h10c61-124 162-186 301-186 253 1 362 144 362 401v484c-3 110 54 152 164 147V0H887v-707c0-170-55-283-225-280-186 3-248 143-248 332v432" id="aF"/><g id="x"><use transform="matrix(0.008680555555555556,0,0,0.008680555555555556,0,0)" xlink:href="#X"/><use transform="matrix(0.008680555555555556,0,0,0.008680555555555556,8.75,0)" xlink:href="#aF"/><use transform="matrix(0.008680555555555556,0,0,0.008680555555555556,20.03472222222222,0)" xlink:href="#V"/><use transform="matrix(0.008680555555555556,0,0,0.008680555555555556,29.54861111111111,0)" xlink:href="#X"/><use transform="matrix(0.008680555555555556,0,0,0.008680555555555556,38.298611111111114,0)" xlink:href="#Y"/></g><path fill="#333" d="M868-871c27-98-34-147-137-141v-86h426v86c-114-4-130 76-162 160C865-510 751-153 616 182c-65 163-156 280-360 302-50 6-113 8-178 8v-97c285-2 394-182 461-403L160-903c-28-65-56-114-152-109v-86h492v86c-114-14-152 77-113 174 88 217 187 419 248 662h6c62-238 163-461 227-695" id="aG"/><g id="y"><use transform="matrix(0.008680555555555556,0,0,0.008680555555555556,0,0)" xlink:href="#U"/><use transform="matrix(0.008680555555555556,0,0,0.008680555555555556,10.008680555555555,0)" xlink:href="#S"/><use transform="matrix(0.008680555555555556,0,0,0.008680555555555556,21.475694444444443,0)" xlink:href="#U"/><use transform="matrix(0.008680555555555556,0,0,0.008680555555555556,31.484375,0)" xlink:href="#O"/><use transform="matrix(0.008680555555555556,0,0,0.008680555555555556,36.82291666666666,0)" xlink:href="#aG"/><use transform="matrix(0.008680555555555556,0,0,0.008680555555555556,46.86631944444445,0)" xlink:href="#ad"/><use transform="matrix(0.008680555555555556,0,0,0.008680555555555556,53.125,0)" xlink:href="#R"/><use transform="matrix(0.008680555555555556,0,0,0.008680555555555556,58.810763888888886,0)" xlink:href="#X"/><use transform="matrix(0.008680555555555556,0,0,0.008680555555555556,67.56076388888889,0)" xlink:href="#aa"/></g><g id="z"><use transform="matrix(0.008680555555555556,0,0,0.008680555555555556,0,0)" xlink:href="#ab"/><use transform="matrix(0.008680555555555556,0,0,0.008680555555555556,8.37673611111111,0)" xlink:href="#V"/><use transform="matrix(0.008680555555555556,0,0,0.008680555555555556,17.890625,0)" xlink:href="#T"/><use transform="matrix(0.008680555555555556,0,0,0.008680555555555556,28.802083333333336,0)" xlink:href="#P"/><use transform="matrix(0.008680555555555556,0,0,0.008680555555555556,39.0625,0)" xlink:href="#ab"/><use transform="matrix(0.008680555555555556,0,0,0.008680555555555556,47.439236111111114,0)" xlink:href="#ad"/><use transform="matrix(0.008680555555555556,0,0,0.008680555555555556,53.69791666666667,0)" xlink:href="#aa"/></g><g id="A"><use transform="matrix(0.008680555555555556,0,0,0.008680555555555556,0,0)" xlink:href="#U"/><use transform="matrix(0.008680555555555556,0,0,0.008680555555555556,10.008680555555555,0)" xlink:href="#aa"/><use transform="matrix(0.008680555555555556,0,0,0.008680555555555556,18.02951388888889,0)" xlink:href="#Y"/></g><g id="B"><use transform="matrix(0.008680555555555556,0,0,0.008680555555555556,0,0)" xlink:href="#aa"/><use transform="matrix(0.008680555555555556,0,0,0.008680555555555556,8.020833333333334,0)" xlink:href="#V"/><use transform="matrix(0.008680555555555556,0,0,0.008680555555555556,17.53472222222222,0)" xlink:href="#ab"/><use transform="matrix(0.008680555555555556,0,0,0.008680555555555556,26.085069444444443,0)" xlink:href="#ac"/><use transform="matrix(0.008680555555555556,0,0,0.008680555555555556,36.20659722222222,0)" xlink:href="#V"/><use transform="matrix(0.008680555555555556,0,0,0.008680555555555556,45.720486111111114,0)" xlink:href="#ab"/></g><path fill="#333" d="M442-233C435-92 546-78 688-86V0H55v-86c123 7 195-27 195-147v-768H63v-97h187v-102c4-240 124-377 362-377 124 0 225 14 272 85 33 50 8 123-32 144-31 17-72 29-121 29-2-96-37-164-135-164-176 0-152 207-154 385h289v97H442v768" id="aH"/><g id="C"><use transform="matrix(0.008680555555555556,0,0,0.008680555555555556,0,0)" xlink:href="#aH"/><use transform="matrix(0.008680555555555556,0,0,0.008680555555555556,6.388888888888889,0)" xlink:href="#P"/><use transform="matrix(0.008680555555555556,0,0,0.008680555555555556,16.649305555555557,0)" xlink:href="#ab"/></g><g id="D"><use transform="matrix(0.008680555555555556,0,0,0.008680555555555556,0,0)" xlink:href="#aa"/><use transform="matrix(0.008680555555555556,0,0,0.008680555555555556,8.020833333333334,0)" xlink:href="#V"/><use transform="matrix(0.008680555555555556,0,0,0.008680555555555556,17.53472222222222,0)" xlink:href="#S"/><use transform="matrix(0.008680555555555556,0,0,0.008680555555555556,29.00173611111111,0)" xlink:href="#Z"/></g><path fill="#333" d="M1036 266c-2 112 71 145 185 140v86H608v-86c140 9 239-11 236-148-4-151 0-299 8-442h-8C786-68 701 20 530 20c-321 0-417-237-417-567 0-331 95-571 417-571 163 0 254 76 314 180h12l37-160h328v86c-118-6-185 32-185 148V266zM563-987c-219 0-252 212-252 442 0 145 20 254 59 326s104 108 195 108c242 2 279-192 279-436s-41-440-281-440" id="aI"/><path fill="#333" d="M887-864c2-112-62-153-174-148v-86h366v875c-3 108 66 141 174 137V0H928l-27-166h-10C829-49 733 21 559 20c-245-1-338-153-338-401v-491c2-108-66-143-174-140v-86h367v707c-1 168 46 283 215 280 191-4 258-139 258-331v-422" id="aJ"/><g id="E"><use transform="matrix(0.008680555555555556,0,0,0.008680555555555556,0,0)" xlink:href="#ab"/><use transform="matrix(0.008680555555555556,0,0,0.008680555555555556,8.37673611111111,0)" xlink:href="#V"/><use transform="matrix(0.008680555555555556,0,0,0.008680555555555556,17.890625,0)" xlink:href="#aI"/><use transform="matrix(0.008680555555555556,0,0,0.008680555555555556,28.802083333333336,0)" xlink:href="#aJ"/><use transform="matrix(0.008680555555555556,0,0,0.008680555555555556,40.08680555555556,0)" xlink:href="#V"/><use transform="matrix(0.008680555555555556,0,0,0.008680555555555556,49.60069444444445,0)" xlink:href="#aa"/><use transform="matrix(0.008680555555555556,0,0,0.008680555555555556,57.62152777777778,0)" xlink:href="#ad"/></g><g id="F"><use transform="matrix(0.008680555555555556,0,0,0.008680555555555556,0,0)" xlink:href="#ab"/><use transform="matrix(0.008680555555555556,0,0,0.008680555555555556,8.37673611111111,0)" xlink:href="#V"/><use transform="matrix(0.008680555555555556,0,0,0.008680555555555556,17.890625,0)" xlink:href="#ad"/><use transform="matrix(0.008680555555555556,0,0,0.008680555555555556,24.149305555555557,0)" xlink:href="#aJ"/><use transform="matrix(0.008680555555555556,0,0,0.008680555555555556,35.43402777777778,0)" xlink:href="#ab"/><use transform="matrix(0.008680555555555556,0,0,0.008680555555555556,43.810763888888886,0)" xlink:href="#S"/></g><path fill="#333" d="M508-1012c-85 0-151 4-150 86 0 28 11 63 17 88 59 216 125 426 168 658h6c20-100 53-202 84-293l213-619h129c98 304 212 592 293 912h6c46-231 140-457 196-684 26-106-33-156-145-148v-86h438v86c-127-12-151 65-180 160L1319 0h-164L911-721l-37-135L584 0H422L154-903c-24-68-57-114-152-109v-86h506v86" id="aK"/><g id="G"><use transform="matrix(0.008680555555555556,0,0,0.008680555555555556,0,0)" xlink:href="#aa"/><use transform="matrix(0.008680555555555556,0,0,0.008680555555555556,8.020833333333334,0)" xlink:href="#aF"/><use transform="matrix(0.008680555555555556,0,0,0.008680555555555556,19.305555555555557,0)" xlink:href="#P"/><use transform="matrix(0.008680555555555556,0,0,0.008680555555555556,29.39236111111111,0)" xlink:href="#aK"/></g><g id="H"><use transform="matrix(0.008680555555555556,0,0,0.008680555555555556,0,0)" xlink:href="#U"/><use transform="matrix(0.008680555555555556,0,0,0.008680555555555556,10.008680555555555,0)" xlink:href="#S"/><use transform="matrix(0.008680555555555556,0,0,0.008680555555555556,21.475694444444443,0)" xlink:href="#U"/><use transform="matrix(0.008680555555555556,0,0,0.008680555555555556,31.484375,0)" xlink:href="#O"/><use transform="matrix(0.008680555555555556,0,0,0.008680555555555556,36.99652777777778,0)" xlink:href="#R"/><use transform="matrix(0.008680555555555556,0,0,0.008680555555555556,42.68229166666667,0)" xlink:href="#ad"/><use transform="matrix(0.008680555555555556,0,0,0.008680555555555556,48.940972222222236,0)" xlink:href="#aG"/><use transform="matrix(0.008680555555555556,0,0,0.008680555555555556,58.81076388888889,0)" xlink:href="#X"/><use transform="matrix(0.008680555555555556,0,0,0.008680555555555556,67.56076388888889,0)" xlink:href="#aa"/></g><g id="I"><use transform="matrix(0.008680555555555556,0,0,0.008680555555555556,0,0)" xlink:href="#ab"/><use transform="matrix(0.008680555555555556,0,0,0.008680555555555556,8.37673611111111,0)" xlink:href="#V"/><use transform="matrix(0.008680555555555556,0,0,0.008680555555555556,17.890625,0)" xlink:href="#T"/><use transform="matrix(0.008680555555555556,0,0,0.008680555555555556,28.802083333333336,0)" xlink:href="#P"/><use transform="matrix(0.008680555555555556,0,0,0.008680555555555556,39.0625,0)" xlink:href="#ab"/><use transform="matrix(0.008680555555555556,0,0,0.008680555555555556,47.439236111111114,0)" xlink:href="#ad"/></g><path fill="#333" d="M434-223c-3 108 66 141 174 137V0H57v-86c121 8 185-28 185-147v-639c3-106-58-144-164-140v-86h321l27 166h10c60-112 141-188 309-186 158 2 252 69 297 186h17c61-114 150-188 321-186 240 3 333 155 334 401v484c-3 110 54 152 164 147V0h-356v-707c0-166-49-282-215-280-172 2-228 132-228 305v449c-3 110 54 152 164 147V0H887v-707c0-166-49-282-215-280-182 3-238 148-238 332v432" id="aL"/><g id="J"><use transform="matrix(0.008680555555555556,0,0,0.008680555555555556,0,0)" xlink:href="#U"/><use transform="matrix(0.008680555555555556,0,0,0.008680555555555556,10.008680555555555,0)" xlink:href="#Z"/><use transform="matrix(0.008680555555555556,0,0,0.008680555555555556,20.92013888888889,0)" xlink:href="#aL"/><use transform="matrix(0.008680555555555556,0,0,0.008680555555555556,37.717013888888886,0)" xlink:href="#R"/><use transform="matrix(0.008680555555555556,0,0,0.008680555555555556,43.40277777777777,0)" xlink:href="#S"/><path fill="#333" d="M-.9.9H60.4v.88H-.9z"/></g><path fill="#333" d="M516-246c-4 127 81 146 209 137V0H41v-109c110 5 164-37 164-147v-594c3-104-49-145-154-139v-109h414l41 160h10c46-115 125-184 289-184 142 0 235 41 235 166 0 137-111 200-260 198-1-92-10-170-100-170-129 0-152 146-162 271-11 134 3 274-2 411" id="aM"/><path fill="#333" d="M682-968c-75-53-166-16-210 62-32 57-53 140-56 249h354c-1-134-12-257-88-311zm4 835c147 0 236-69 289-166 63 29 71 123 31 183C939-17 799 20 627 20 270 20 96-185 96-543c0-359 153-581 508-581 315 0 475 175 479 493v105H412c10 217 60 393 274 393" id="aN"/><path fill="#333" d="M811-1321c2-107-74-131-182-127v-108h493v1304c-2 111 68 146 178 143V0H903l-57-160h-19C768-53 677 20 512 20 192 20 94-217 94-547s95-575 414-575c154 0 247 67 305 164h14c-9-120-19-232-16-363zM600-133c203 0 211-207 211-418 0-170-13-323-109-393-48-34-143-39-190 0-88 74-102 228-102 395 0 139 15 244 44 313s77 103 146 103" id="aO"/><path fill="#333" d="M350-1282c-103 0-174-45-174-148 0-104 70-147 174-147 103 0 176 44 176 147 0 102-74 148-176 148zM516-242c0 102 66 138 170 133V0H35v-109c104 5 170-31 170-133v-622c0-98-69-130-170-125v-109h481v856" id="aP"/><path fill="#333" d="M952-299c53 28 65 116 26 173C912-25 777 20 604 20 249 20 96-183 96-545c0-366 147-579 502-579 170 0 310 34 380 130 46 63 27 167-26 205-49 36-119 55-213 54-1-102-14-196-69-243-36-31-106-28-144 0-103 75-114 241-114 431 0 139 19 242 57 311s100 103 186 103c149 0 244-68 297-166" id="aQ"/><path fill="#333" d="M508-324c1 114 29 177 135 179 53 0 102-9 145-19v133C712 3 611 19 498 20 289 22 197-91 197-303v-655H43v-105c87 2 160-42 201-86 42-44 73-112 94-203h170v254h262v140H508v634" id="aR"/><g id="K"><use transform="matrix(0.008680555555555556,0,0,0.008680555555555556,0,0)" xlink:href="#aM"/><use transform="matrix(0.008680555555555556,0,0,0.008680555555555556,9.296875,0)" xlink:href="#aN"/><use transform="matrix(0.008680555555555556,0,0,0.008680555555555556,19.444444444444443,0)" xlink:href="#aO"/><use transform="matrix(0.008680555555555556,0,0,0.008680555555555556,30.98090277777778,0)" xlink:href="#aP"/><use transform="matrix(0.008680555555555556,0,0,0.008680555555555556,37.239583333333336,0)" xlink:href="#aM"/><use transform="matrix(0.008680555555555556,0,0,0.008680555555555556,46.536458333333336,0)" xlink:href="#aN"/><use transform="matrix(0.008680555555555556,0,0,0.008680555555555556,56.68402777777778,0)" xlink:href="#aQ"/><use transform="matrix(0.008680555555555556,0,0,0.008680555555555556,66.05034722222223,0)" xlink:href="#aR"/></g><path fill="#333" d="M631-1124c358 0 526 209 528 571 2 373-172 573-534 573C267 20 98-190 96-553c-2-374 172-571 535-571zM527-966c-131 91-126 390-101 605 16 136 58 252 203 252 203 0 213-228 213-444 0-180-15-339-115-413-51-37-148-36-200 0" id="aS"/><g id="L"><use transform="matrix(0.008680555555555556,0,0,0.008680555555555556,0,0)" xlink:href="#aR"/><use transform="matrix(0.008680555555555556,0,0,0.008680555555555556,6.840277777777778,0)" xlink:href="#aS"/></g><path fill="#333" d="M526-129c139 0 193-116 193-262v-154c-144 3-272 20-298 142-6 28-11 61-11 98 1 103 24 176 116 176zm193-524c-6-153 30-348-127-346-115 1-136 103-137 221-92 0-160-13-207-31-80-31-88-141-36-202 75-88 224-112 388-113 266-2 430 83 430 348v522c-3 99 29 152 131 145V0H780l-43-141h-18C646-52 578 24 414 20 206 14 92-101 92-313c0-254 188-323 459-334" id="aT"/><path fill="#333" d="M1169-254c-4 106 37 152 144 145V0H858v-674c-2-147-22-276-164-276-152 0-178 160-178 317v391c-3 102 51 138 154 133V0H41v-109c107 5 164-34 164-141v-612c3-102-52-138-154-133v-103h430l27 146h10c58-113 144-176 313-172 157 3 265 55 310 172h18c58-115 154-175 326-172 240 4 338 149 338 395v475c-4 105 37 152 143 145V0h-455v-674c-3-152-24-276-163-276-145 0-179 143-179 293v403" id="aU"/><path fill="#333" d="M1169-254c-4 106 37 152 144 145V0H858v-674c-2-147-22-276-164-276-152 0-178 160-178 317v391c-3 102 51 138 154 133V0H41v-109c107 5 164-34 164-141v-606c3-102-52-138-154-133v-109h430l27 146h10c58-113 144-175 313-172 240 5 338 149 338 395v475" id="aV"/><g id="M"><use transform="matrix(0.008680555555555556,0,0,0.008680555555555556,0,0)" xlink:href="#aT"/><use transform="matrix(0.008680555555555556,0,0,0.008680555555555556,10.651041666666668,0)" xlink:href="#aO"/><use transform="matrix(0.008680555555555556,0,0,0.008680555555555556,22.1875,0)" xlink:href="#aU"/><use transform="matrix(0.008680555555555556,0,0,0.008680555555555556,39.71354166666667,0)" xlink:href="#aP"/><use transform="matrix(0.008680555555555556,0,0,0.008680555555555556,45.972222222222236,0)" xlink:href="#aV"/></g><path fill="#333" d="M508 250c-2 110 76 140 190 133v109H27V383c104 5 170-31 170-133V-846c3-105-46-149-152-143v-109h401l37 160h9c59-105 150-180 313-180 324 0 420 241 420 573 0 329-93 565-412 570-159 2-247-66-307-164h-14c13 122 18 252 16 389zm0-795c0 210 7 418 209 418 69 0 115-35 147-103 57-120 56-503 0-626-33-71-78-109-145-109-201 0-211 211-211 420" id="aW"/><path fill="#333" d="M516-242c0 102 66 138 170 133V0H35v-109c104 5 170-31 170-133v-1081c0-98-69-130-170-125v-108h481v1314" id="aX"/><g id="N"><use transform="matrix(0.008680555555555556,0,0,0.008680555555555556,0,0)" xlink:href="#aW"/><use transform="matrix(0.008680555555555556,0,0,0.008680555555555556,11.46701388888889,0)" xlink:href="#aT"/><use transform="matrix(0.008680555555555556,0,0,0.008680555555555556,22.118055555555557,0)" xlink:href="#aV"/><use transform="matrix(0.008680555555555556,0,0,0.008680555555555556,33.97569444444444,0)" xlink:href="#aN"/><use transform="matrix(0.008680555555555556,0,0,0.008680555555555556,44.123263888888886,0)" xlink:href="#aX"/></g></defs></g></svg>