<svg xmlns="http://www.w3.org/2000/svg" xmlns:xlink="http://www.w3.org/1999/xlink" xmlns:lucid="lucid" width="1506" height="1826"><g transform="translate(1323 -237)" lucid:page-tab-id="0_0"><path d="M-1500 0H500v2500h-2000z" fill="#fff"/><path d="M-760 486a6 6 0 0 1 6-6h348a6 6 0 0 1 6 6v88a6 6 0 0 1-6 6h-348a6 6 0 0 1-6-6z" stroke="#0f4761" stroke-width="6" fill="#fff"/><use xlink:href="#a" transform="matrix(1,0,0,1,-755,485) translate(110.68229166666666 39.489583333333336)"/><use xlink:href="#b" transform="matrix(1,0,0,1,-755,485) translate(151.984375 39.489583333333336)"/><use xlink:href="#c" transform="matrix(1,0,0,1,-755,485) translate(41.161458333333314 64.32291666666667)"/><use xlink:href="#d" transform="matrix(1,0,0,1,-755,485) translate(125.34895833333333 64.32291666666667)"/><use xlink:href="#e" transform="matrix(1,0,0,1,-755,485) translate(182.421875 64.32291666666667)"/><path d="M-720 266a6 6 0 0 1 6-6h268a6 6 0 0 1 6 6v128a6 6 0 0 1-6 6h-268a6 6 0 0 1-6-6z" stroke="#0f4761" stroke-width="6" fill="#fff"/><use xlink:href="#f" transform="matrix(1,0,0,1,-708,272) translate(18.614583333333314 66.92708333333334)"/><use xlink:href="#g" transform="matrix(1,0,0,1,-708,272) translate(70.11458333333331 66.92708333333334)"/><use xlink:href="#h" transform="matrix(1,0,0,1,-708,272) translate(167.61458333333331 66.92708333333334)"/><path d="M-770 706a6 6 0 0 1 6-6h368a6 6 0 0 1 6 6v108a6 6 0 0 1-6 6h-368a6 6 0 0 1-6-6z" stroke="#0f4761" stroke-width="6" fill="#fff"/><use xlink:href="#i" transform="matrix(1,0,0,1,-765,705) translate(69.43229166666666 61.052083333333336)"/><use xlink:href="#j" transform="matrix(1,0,0,1,-765,705) translate(226.19270833333334 61.052083333333336)"/><path d="M-384 760h74.03" stroke="#0f4761" stroke-width="6" fill="none"/><path d="M-383.92 762.98H-387V757h3.08z" stroke="#0f4761" stroke-width=".05" fill="#0f4761"/><path d="M-292.7 760l-14.27 4.63v-9.26z" stroke="#0f4761" stroke-width="6" fill="#0f4761"/><path d="M-280 726a6 6 0 0 1 6-6H64a6 6 0 0 1 6 6v68a6 6 0 0 1-6 6h-338a6 6 0 0 1-6-6z" stroke="#0f4761" stroke-width="6" fill="#fff"/><use xlink:href="#f" transform="matrix(1,0,0,1,-275,725) translate(29.81249999999997 41.677083333333336)"/><use xlink:href="#k" transform="matrix(1,0,0,1,-275,725) translate(81.31249999999997 41.677083333333336)"/><use xlink:href="#l" transform="matrix(1,0,0,1,-275,725) translate(179.83333333333334 41.677083333333336)"/><path d="M-580 826v44.03" stroke="#0f4761" stroke-width="6" fill="none"/><path d="M-577.02 826.08H-583V823h5.96z" stroke="#0f4761" stroke-width=".05" fill="#0f4761"/><path d="M-580 887.3l-4.63-14.27h9.26z" stroke="#0f4761" stroke-width="6" fill="#0f4761"/><path d="M-770 906a6 6 0 0 1 6-6h368a6 6 0 0 1 6 6v108a6 6 0 0 1-6 6h-368a6 6 0 0 1-6-6z" stroke="#0f4761" stroke-width="6" fill="#fff"/><use xlink:href="#m" transform="matrix(1,0,0,1,-765,905) translate(52.01562499999997 61.052083333333336)"/><use xlink:href="#n" transform="matrix(1,0,0,1,-765,905) translate(120.91145833333331 61.052083333333336)"/><use xlink:href="#j" transform="matrix(1,0,0,1,-765,905) translate(243.609375 61.052083333333336)"/><path d="M-580 1026v44.03" stroke="#0f4761" stroke-width="6" fill="none"/><path d="M-577.02 1026.08H-583V1023h5.96z" stroke="#0f4761" stroke-width=".05" fill="#0f4761"/><path d="M-580 1087.3l-4.63-14.27h9.26z" stroke="#0f4761" stroke-width="6" fill="#0f4761"/><path d="M-770 1106a6 6 0 0 1 6-6h368a6 6 0 0 1 6 6v108a6 6 0 0 1-6 6h-368a6 6 0 0 1-6-6z" stroke="#0f4761" stroke-width="6" fill="#fff"/><use xlink:href="#o" transform="matrix(1,0,0,1,-765,1105) translate(128.765625 61.052083333333336)"/><use xlink:href="#p" transform="matrix(1,0,0,1,-765,1105) translate(177.78645833333334 61.052083333333336)"/><path d="M-220 1106a6 6 0 0 1 6-6h368a6 6 0 0 1 6 6v108a6 6 0 0 1-6 6h-368a6 6 0 0 1-6-6z" stroke="#0f4761" stroke-width="6" fill="#fff"/><use xlink:href="#q" transform="matrix(1,0,0,1,-215,1105) translate(120.31249999999999 61.052083333333336)"/><use xlink:href="#p" transform="matrix(1,0,0,1,-215,1105) translate(186.23958333333331 61.052083333333336)"/><path d="M-1300 1106a6 6 0 0 1 6-6h368a6 6 0 0 1 6 6v108a6 6 0 0 1-6 6h-368a6 6 0 0 1-6-6z" stroke="#0f4761" stroke-width="6" fill="#fff"/><use xlink:href="#r" transform="matrix(1,0,0,1,-1295,1105) translate(119.16145833333333 61.052083333333336)"/><use xlink:href="#p" transform="matrix(1,0,0,1,-1295,1105) translate(187.390625 61.052083333333336)"/><path d="M-384 960h348a6 6 0 0 1 6 6v104.03" stroke="#0f4761" stroke-width="6" fill="none"/><path d="M-383.92 962.98H-387V957h3.08z" stroke="#0f4761" stroke-width=".05" fill="#0f4761"/><path d="M-30 1087.3l-4.63-14.27h9.27z" stroke="#0f4761" stroke-width="6" fill="#0f4761"/><path d="M-776 960h-328a6 6 0 0 0-6 6v104.03" stroke="#0f4761" stroke-width="6" fill="none"/><path d="M-773 962.98h-3.08V957h3.08z" stroke="#0f4761" stroke-width=".05" fill="#0f4761"/><path d="M-1110 1087.3l-4.63-14.27h9.27z" stroke="#0f4761" stroke-width="6" fill="#0f4761"/><path d="M-580 1226v44.03" stroke="#0f4761" stroke-width="6" fill="none"/><path d="M-577.02 1226.08H-583V1223h5.96z" stroke="#0f4761" stroke-width=".05" fill="#0f4761"/><path d="M-580 1287.3l-4.63-14.27h9.26z" stroke="#0f4761" stroke-width="6" fill="#0f4761"/><path d="M-770 1306a6 6 0 0 1 6-6h368a6 6 0 0 1 6 6v108a6 6 0 0 1-6 6h-368a6 6 0 0 1-6-6z" stroke="#0f4761" stroke-width="6" fill="#fff"/><use xlink:href="#s" transform="matrix(1,0,0,1,-765,1305) translate(55.48437499999997 50.739583333333336)"/><use xlink:href="#t" transform="matrix(1,0,0,1,-765,1305) translate(161.74479166666666 50.739583333333336)"/><use xlink:href="#u" transform="matrix(1,0,0,1,-765,1305) translate(238.97395833333334 50.739583333333336)"/><use xlink:href="#l" transform="matrix(1,0,0,1,-765,1305) translate(119.82291666666666 75.57291666666667)"/><path d="M-30 1226v128a6 6 0 0 1-6 6h-324.03" stroke="#0f4761" stroke-width="6" fill="none"/><path d="M-27.02 1226.08h-5.96V1223h5.95z" stroke="#0f4761" stroke-width=".05" fill="#0f4761"/><path d="M-377.3 1360l14.27-4.63v9.27z" stroke="#0f4761" stroke-width="6" fill="#0f4761"/><path d="M-1110 1226v128a6 6 0 0 0 6 6h304.03" stroke="#0f4761" stroke-width="6" fill="none"/><path d="M-1107.03 1226.08h-5.94V1223h5.94z" stroke="#0f4761" stroke-width=".05" fill="#0f4761"/><path d="M-782.7 1360l-14.27 4.63v-9.27z" stroke="#0f4761" stroke-width="6" fill="#0f4761"/><path d="M-580 1426v4.03" stroke="#0f4761" stroke-width="6" fill="none"/><path d="M-577.02 1426.08H-583V1423h5.96z" stroke="#0f4761" stroke-width=".05" fill="#0f4761"/><path d="M-580 1447.3l-4.63-14.27h9.26z" stroke="#0f4761" stroke-width="6" fill="#0f4761"/><path d="M-770 1466a6 6 0 0 1 6-6h368a6 6 0 0 1 6 6v108a6 6 0 0 1-6 6h-368a6 6 0 0 1-6-6z" stroke="#0f4761" stroke-width="6" fill="#fff"/><use xlink:href="#v" transform="matrix(1,0,0,1,-765,1465) translate(17.645833333333314 61.052083333333336)"/><use xlink:href="#w" transform="matrix(1,0,0,1,-765,1465) translate(60.62499999999998 61.052083333333336)"/><use xlink:href="#x" transform="matrix(1,0,0,1,-765,1465) translate(141.70833333333331 61.052083333333336)"/><use xlink:href="#y" transform="matrix(1,0,0,1,-765,1465) translate(221.625 61.052083333333336)"/><use xlink:href="#z" transform="matrix(1,0,0,1,-765,1465) translate(297.90625 61.052083333333336)"/><path d="M-580 1586v104.03" stroke="#0f4761" stroke-width="6" fill="none"/><path d="M-577.02 1586.08H-583V1583h5.96z" stroke="#0f4761" stroke-width=".05" fill="#0f4761"/><path d="M-580 1707.3l-4.63-14.27h9.26z" stroke="#0f4761" stroke-width="6" fill="#0f4761"/><path d="M-770 1726a6 6 0 0 1 6-6h368a6 6 0 0 1 6 6v108a6 6 0 0 1-6 6h-368a6 6 0 0 1-6-6z" stroke="#0f4761" stroke-width="6" fill="#fff"/><g><use xlink:href="#A" transform="matrix(1,0,0,1,-765,1725) translate(84.97916666666663 61.052083333333336)"/><use xlink:href="#j" transform="matrix(1,0,0,1,-765,1725) translate(210.64583333333334 61.052083333333336)"/></g><path d="M-580 1846v44.03" stroke="#0f4761" stroke-width="6" fill="none"/><path d="M-577.02 1846.08H-583V1843h5.96z" stroke="#0f4761" stroke-width=".05" fill="#0f4761"/><path d="M-580 1907.3l-4.63-14.27h9.26z" stroke="#0f4761" stroke-width="6" fill="#0f4761"/><path d="M-770 1926a6 6 0 0 1 6-6h368a6 6 0 0 1 6 6v108a6 6 0 0 1-6 6h-368a6 6 0 0 1-6-6z" stroke="#0f4761" stroke-width="6" fill="#fff"/><g><use xlink:href="#f" transform="matrix(1,0,0,1,-765,1925) translate(75.61458333333331 61.052083333333336)"/><use xlink:href="#g" transform="matrix(1,0,0,1,-765,1925) translate(127.11458333333331 61.052083333333336)"/><use xlink:href="#h" transform="matrix(1,0,0,1,-765,1925) translate(224.61458333333331 61.052083333333336)"/></g><path d="M-580 586v84.03" stroke="#0f4761" stroke-width="6" fill="none"/><path d="M-577.02 586.08H-583V583h5.96z" stroke="#0f4761" stroke-width=".05" fill="#0f4761"/><path d="M-580 687.3l-4.63-14.27h9.26z" stroke="#0f4761" stroke-width="6" fill="#0f4761"/><path d="M-580 406v44.03" stroke="#0f4761" stroke-width="6" fill="none"/><path d="M-577.02 406.08H-583V403h5.96z" stroke="#0f4761" stroke-width=".05" fill="#0f4761"/><path d="M-580 467.3l-4.63-14.27h9.26z" stroke="#0f4761" stroke-width="6" fill="#0f4761"/><defs><path d="M322-226C292-111 376-75 500-86V0H0v-86c136 16 160-66 195-160l454-1216h160l463 1267c24 75 65 118 172 109V0H881v-86c113 10 195-27 165-133-27-93-63-180-94-270H414c-30 88-68 171-92 263zm593-366c-76-225-168-445-229-682-56 246-156 455-233 682h462" id="B"/><path d="M479-223C473-90 582-80 715-86V0H78v-86c122 7 194-27 194-147v-1004c3-115-76-146-194-139v-86h575c309 2 504 125 504 428 0 321-213 462-549 465H479v346zm457-803c0-225-92-342-318-338H479v698h109c246 7 348-114 348-360" id="C"/><path d="M479-233c-3 120 73 154 195 147V0H78v-86c122 7 194-27 194-147v-996c4-120-72-154-194-147v-86h596v86c-122-7-195 27-195 147v996" id="D"/><g id="a"><use transform="matrix(0.010416666666666668,0,0,0.010416666666666668,0,0)" xlink:href="#B"/><use transform="matrix(0.010416666666666668,0,0,0.010416666666666668,15.041666666666668,0)" xlink:href="#C"/><use transform="matrix(0.010416666666666668,0,0,0.010416666666666668,27.927083333333336,0)" xlink:href="#D"/></g><path d="M1274-74c-132 61-266 94-453 94-474 0-704-280-704-753 0-356 149-589 406-695 216-89 625-74 735 84 44 64 27 162-28 196-34 21-79 38-134 38-6-168-97-264-271-264-372 0-481 264-481 641 0 387 125 639 510 637 76 0 155-7 213-25v-330c2-109-68-142-176-139v-86h532v86c-105-6-149 43-149 148v368" id="E"/><path d="M467-106c176 0 267-107 272-285v-166c-189 6-378 9-423 154-10 31-15 66-15 106 0 123 47 191 166 191zm272-535c5-199 13-375-190-375-142 0-190 83-187 223-106-2-174-27-174-129 0-169 191-191 369-196 250-7 375 104 375 354v531c-3 100 32 153 133 147V0H788l-32-176h-17C664-76 596 23 420 20 213 16 102-97 102-307c0-109 41-186 116-242 100-75 325-89 521-92" id="F"/><path d="M387-291c-2 124 47 200 156 203 51 1 88-6 131-14v90C626 8 560 18 492 20 278 25 195-83 195-297v-684H39v-82c170-8 224-133 254-287h94v252h268v117H387v690" id="G"/><path d="M786-645c-4-191-36-363-223-363-76 0-134 30-175 92s-66 152-73 271h471zm123 393c43 21 51 90 17 136C862-29 744 20 588 20c-331 0-471-225-475-561-4-348 134-577 454-577 327 0 443 231 426 583H311c7 242 67 426 305 426 140 0 234-60 293-143" id="H"/><path d="M508-1012c-85 0-151 4-150 86 0 28 11 63 17 88 59 216 125 426 168 658h6c20-100 53-202 84-293l213-619h129c98 304 212 592 293 912h6c46-231 140-457 196-684 26-106-33-156-145-148v-86h438v86c-127-12-151 65-180 160L1319 0h-164L911-721l-37-135L584 0H422L154-903c-24-68-57-114-152-109v-86h506v86" id="I"/><path d="M868-871c27-98-34-147-137-141v-86h426v86c-114-4-130 76-162 160C865-510 751-153 616 182c-65 163-156 280-360 302-50 6-113 8-178 8v-97c285-2 394-182 461-403L160-903c-28-65-56-114-152-109v-86h492v86c-114-14-152 77-113 174 88 217 187 419 248 662h6c62-238 163-461 227-695" id="J"/><g id="b"><use transform="matrix(0.010416666666666668,0,0,0.010416666666666668,0,0)" xlink:href="#E"/><use transform="matrix(0.010416666666666668,0,0,0.010416666666666668,15.656250000000002,0)" xlink:href="#F"/><use transform="matrix(0.010416666666666668,0,0,0.010416666666666668,27.458333333333336,0)" xlink:href="#G"/><use transform="matrix(0.010416666666666668,0,0,0.010416666666666668,34.76041666666667,0)" xlink:href="#H"/><use transform="matrix(0.010416666666666668,0,0,0.010416666666666668,46.177083333333336,0)" xlink:href="#I"/><use transform="matrix(0.010416666666666668,0,0,0.010416666666666668,63.906250000000014,0)" xlink:href="#F"/><use transform="matrix(0.010416666666666668,0,0,0.010416666666666668,75.28125000000001,0)" xlink:href="#J"/></g><path d="M643-1464c-244 139-313 433-313 815s69 678 313 817v94C288 130 117-156 117-649c0-361 84-614 285-771 67-53 147-99 241-136v92" id="K"/><path d="M705-1462c450 9 667 274 667 729S1160 0 705 0H78v-86c122 7 194-27 194-147v-1004c3-115-76-146-194-139v-86h627zm440 729c2-374-134-623-486-627H479v1256h178c362-7 486-260 488-629" id="L"/><path d="M221-872c2-108-66-143-174-140v-86h367V16c2 313-123 488-439 476v-97c213 5 246-165 246-377v-890zm88-431c-79 0-116-45-116-127 0-81 36-126 116-126s117 45 117 126-38 127-117 127" id="M"/><path d="M434-223c-3 108 66 141 174 137V0H57v-86c118 6 185-31 185-147v-639c2-108-66-143-174-140v-86h331l27 166h10c63-113 148-188 320-186 244 3 343 152 344 401v484c-4 110 54 152 164 147V0H907v-707c0-170-55-282-225-280-187 3-248 145-248 332v432" id="N"/><path d="M956-1161c125-12 164 158 62 205-14 6-30 8-49 8 9-84-106-83-156-45 48 62 81 134 80 248-2 265-188 381-475 346-48 26-98 54-99 125-1 68 58 77 127 77h232c215 1 338 97 338 306 0 294-237 379-543 383-249 3-426-81-426-299C47 28 162-41 303-70c-62-29-113-79-113-168 0-105 57-142 134-192-112-50-185-152-185-309 0-249 134-379 385-379 97 0 179 25 234 67 49-50 103-100 198-110zM438-14c-139-3-225 52-225 194 0 158 102 212 264 211 212-1 363-46 371-248C856-58 624-10 438-14zm78-1004c-150 0-184 109-184 273 0 159 39 250 186 253 149 3 184-105 182-256-2-165-33-270-184-270" id="O"/><path d="M594-1118c338 0 472 222 475 567 2 360-143 571-481 571S115-205 113-551c-2-359 142-567 481-567zm-4 108c-241 0-279 212-279 459 0 249 39 465 281 465s278-216 278-465c0-248-38-459-280-459" id="P"/><g id="c"><use transform="matrix(0.010416666666666668,0,0,0.010416666666666668,0,0)" xlink:href="#K"/><use transform="matrix(0.010416666666666668,0,0,0.010416666666666668,7.385416666666668,0)" xlink:href="#L"/><use transform="matrix(0.010416666666666668,0,0,0.010416666666666668,22.895833333333336,0)" xlink:href="#M"/><use transform="matrix(0.010416666666666668,0,0,0.010416666666666668,29.29166666666667,0)" xlink:href="#F"/><use transform="matrix(0.010416666666666668,0,0,0.010416666666666668,41.30208333333334,0)" xlink:href="#N"/><use transform="matrix(0.010416666666666668,0,0,0.010416666666666668,55.062500000000014,0)" xlink:href="#O"/><use transform="matrix(0.010416666666666668,0,0,0.010416666666666668,66.33333333333334,0)" xlink:href="#P"/></g><path d="M1155-1067c0 217-140 315-301 373l281 444c62 88 98 158 221 164V0c-166 1-292-2-364-90-20-24-43-55-66-94L649-645H479v422c-3 116 77 143 195 137V0H78v-86c117 6 194-21 194-137v-1014c3-115-76-146-194-139v-86h551c321 0 526 100 526 395zm-219 6c0-217-101-309-318-303H479v623h144c221 5 313-101 313-320" id="Q"/><path d="M272-1229c4-120-72-154-194-147v-86h1032l10 358h-106c-7-141-39-256-191-256H479v545h494v100H479v613h395c120 0 178-65 195-168l14-88h107L1176 0H78v-86c117 6 194-21 194-137v-1006" id="R"/><path d="M1010-391c0 288-209 411-504 411-227 0-400-72-408-288-3-85 58-140 148-138 13 184 83 323 276 326 176 3 296-86 293-258-4-208-164-249-317-319-197-90-377-181-377-455 0-256 189-371 448-371 165 0 292 46 357 143 39 57 33 148-18 186-30 22-68 34-117 34-4-156-72-260-230-260-155 0-250 80-250 233 0 217 160 262 318 332 152 68 291 135 355 283 17 42 26 88 26 141" id="S"/><path d="M307-86c126 7 215-13 215-137v-1137c-117 7-264-23-322 50-39 48-42 130-53 206H41l10-358h1153l10 358h-106c-10-135-29-256-180-256H729v1127c-5 128 84 155 215 147V0H307v-86" id="T"/><g id="d"><use transform="matrix(0.010416666666666668,0,0,0.010416666666666668,0,0)" xlink:href="#Q"/><use transform="matrix(0.010416666666666668,0,0,0.010416666666666668,13.989583333333336,0)" xlink:href="#R"/><use transform="matrix(0.010416666666666668,0,0,0.010416666666666668,27.281250000000004,0)" xlink:href="#S"/><use transform="matrix(0.010416666666666668,0,0,0.010416666666666668,38.45833333333334,0)" xlink:href="#T"/></g><path d="M272-1237c3-115-76-146-194-139v-86h1032l10 358h-106c-6-145-43-256-199-256H479v592h494v100H479v435C472-96 576-78 715-86V0H78v-86c117 6 194-21 194-137v-1014" id="U"/><path d="M434-223C430-95 529-79 659-86V0H68v-86c112 4 174-35 174-147v-639c2-108-66-143-174-140v-86h315l39 203h10c50-120 106-223 281-223 151 0 257 68 211 208-21 64-90 87-181 87-2-101-16-160-108-160-128 0-157 140-183 255-33 148-12 333-18 505" id="V"/><path d="M434-223c-3 108 66 141 174 137V0H57v-86c121 8 185-28 185-147v-639c3-106-58-144-164-140v-86h321l27 166h10c60-112 141-188 309-186 158 2 252 69 297 186h17c61-114 150-188 321-186 240 3 333 155 334 401v484c-3 110 54 152 164 147V0h-356v-707c0-166-49-282-215-280-172 2-228 132-228 305v449c-3 110 54 152 164 147V0H887v-707c0-166-49-282-215-280-182 3-238 148-238 332v432" id="W"/><path d="M769-940c21-67-28-74-95-72v-86h452v86c-47 0-94 17-140 50-98 70-204 208-292 303l273 405c63 88 106 163 233 168V0c-163 2-281-2-352-92-100-127-191-290-283-428L414-408v185c-3 108 66 141 174 137V0H37v-86c117 6 184-31 184-147v-1098c2-112-70-144-184-139v-86h377c-3 350 7 709-8 1048 114-131 245-251 345-394 9-13 15-27 18-38" id="X"/><path d="M66 168C309 28 379-267 379-649s-70-676-313-815v-92c355 132 526 415 526 907 0 361-85 617-285 775-67 53-147 99-241 136v-94" id="Y"/><g id="e"><use transform="matrix(0.010416666666666668,0,0,0.010416666666666668,0,0)" xlink:href="#U"/><use transform="matrix(0.010416666666666668,0,0,0.010416666666666668,12.583333333333334,0)" xlink:href="#V"/><use transform="matrix(0.010416666666666668,0,0,0.010416666666666668,22.635416666666668,0)" xlink:href="#F"/><use transform="matrix(0.010416666666666668,0,0,0.010416666666666668,34.645833333333336,0)" xlink:href="#W"/><use transform="matrix(0.010416666666666668,0,0,0.010416666666666668,54.80208333333334,0)" xlink:href="#H"/><use transform="matrix(0.010416666666666668,0,0,0.010416666666666668,66.21875000000001,0)" xlink:href="#I"/><use transform="matrix(0.010416666666666668,0,0,0.010416666666666668,84.39583333333336,0)" xlink:href="#P"/><use transform="matrix(0.010416666666666668,0,0,0.010416666666666668,96.70833333333336,0)" xlink:href="#V"/><use transform="matrix(0.010416666666666668,0,0,0.010416666666666668,106.55208333333336,0)" xlink:href="#X"/><use transform="matrix(0.010416666666666668,0,0,0.010416666666666668,119.03125000000003,0)" xlink:href="#Y"/></g><path d="M1243-418c-7 302-195 436-502 438-327 2-516-134-516-462v-795c3-115-76-146-194-139v-86h596v86c-122-7-195 27-195 147v799c1 222 123 328 342 328 218 0 344-107 344-320v-815c3-115-76-146-194-139v-86h514v86c-122-7-195 27-195 147v811" id="Z"/><path d="M834-301C834-70 665 20 430 20 250 20 92-26 92-197c0-88 47-135 129-141 1 157 63 257 221 260 156 3 257-97 214-252-47-85-142-109-240-157-153-75-310-122-310-340 0-212 169-289 386-289 130 0 232 36 280 116 31 53 24 126-20 162-26 22-62 33-109 33 0-130-49-217-176-217-120 1-195 48-195 164 0 149 143 163 254 217 154 74 308 124 308 340" id="aa"/><g id="f"><use transform="matrix(0.010416666666666668,0,0,0.010416666666666668,0,0)" xlink:href="#Z"/><use transform="matrix(0.010416666666666668,0,0,0.010416666666666668,14.864583333333336,0)" xlink:href="#aa"/><use transform="matrix(0.010416666666666668,0,0,0.010416666666666668,24.489583333333336,0)" xlink:href="#H"/><use transform="matrix(0.010416666666666668,0,0,0.010416666666666668,35.90625,0)" xlink:href="#V"/></g><path d="M442-233C435-92 546-78 688-86V0H55v-86c123 7 195-27 195-147v-768H63v-97h187v-102c4-240 124-377 362-377 124 0 225 14 272 85 33 50 8 123-32 144-31 17-72 29-121 29-2-96-37-164-135-164-176 0-152 207-154 385h289v97H442v768" id="ab"/><path d="M893-256c39 28 47 103 13 150C845-22 730 20 580 20c-332 0-467-220-467-563 0-349 119-575 456-575 140 0 259 39 325 116 44 51 42 161-14 193-31 18-76 29-137 29-1-134-38-239-174-236-232 6-258 224-258 471 0 264 65 427 310 432 127 2 227-62 272-143" id="ac"/><g id="g"><use transform="matrix(0.010416666666666668,0,0,0.010416666666666668,0,0)" xlink:href="#D"/><use transform="matrix(0.010416666666666668,0,0,0.010416666666666668,7.833333333333334,0)" xlink:href="#N"/><use transform="matrix(0.010416666666666668,0,0,0.010416666666666668,21.385416666666668,0)" xlink:href="#G"/><use transform="matrix(0.010416666666666668,0,0,0.010416666666666668,28.687500000000004,0)" xlink:href="#H"/><use transform="matrix(0.010416666666666668,0,0,0.010416666666666668,40.10416666666667,0)" xlink:href="#V"/><use transform="matrix(0.010416666666666668,0,0,0.010416666666666668,50.15625000000001,0)" xlink:href="#ab"/><use transform="matrix(0.010416666666666668,0,0,0.010416666666666668,58.03125000000001,0)" xlink:href="#F"/><use transform="matrix(0.010416666666666668,0,0,0.010416666666666668,70.04166666666667,0)" xlink:href="#ac"/><use transform="matrix(0.010416666666666668,0,0,0.010416666666666668,80.54166666666667,0)" xlink:href="#H"/></g><g id="h"><use transform="matrix(0.010416666666666668,0,0,0.010416666666666668,0,0)" xlink:href="#K"/><use transform="matrix(0.010416666666666668,0,0,0.010416666666666668,7.385416666666668,0)" xlink:href="#Q"/><use transform="matrix(0.010416666666666668,0,0,0.010416666666666668,20.94791666666667,0)" xlink:href="#H"/><use transform="matrix(0.010416666666666668,0,0,0.010416666666666668,32.36458333333334,0)" xlink:href="#F"/><use transform="matrix(0.010416666666666668,0,0,0.010416666666666668,44.375000000000014,0)" xlink:href="#ac"/><use transform="matrix(0.010416666666666668,0,0,0.010416666666666668,54.875000000000014,0)" xlink:href="#G"/><use transform="matrix(0.010416666666666668,0,0,0.010416666666666668,62.385416666666686,0)" xlink:href="#Y"/></g><path d="M887-864c2-112-62-153-174-148v-86h366v875c-3 108 66 141 174 137V0H928l-27-166h-10C829-49 733 21 559 20c-245-1-338-153-338-401v-491c2-108-66-143-174-140v-86h367v707c-1 168 46 283 215 280 191-4 258-139 258-331v-422" id="ad"/><path d="M414-223c-3 108 66 141 174 137V0H37v-86c117 6 184-31 184-147v-1098c2-112-70-144-184-139v-86h377c-3 208 7 429-8 624h10c61-124 162-186 301-186 253 1 362 144 362 401v484c-3 110 54 152 164 147V0H887v-707c0-170-55-283-225-280-186 3-248 143-248 332v432" id="ae"/><path d="M434-233c-3 120 73 154 195 147V0H47v-86c118 6 195-21 195-137v-649c2-108-66-143-174-140v-86h366v865zM330-1303c-79 0-117-45-117-127s37-126 117-126c79 0 116 46 116 126 0 81-37 127-116 127" id="af"/><g id="i"><use transform="matrix(0.010416666666666668,0,0,0.010416666666666668,0,0)" xlink:href="#B"/><use transform="matrix(0.010416666666666668,0,0,0.010416666666666668,14.614583333333336,0)" xlink:href="#ad"/><use transform="matrix(0.010416666666666668,0,0,0.010416666666666668,28.15625,0)" xlink:href="#G"/><use transform="matrix(0.010416666666666668,0,0,0.010416666666666668,35.66666666666667,0)" xlink:href="#ae"/><use transform="matrix(0.010416666666666668,0,0,0.010416666666666668,49.208333333333336,0)" xlink:href="#H"/><use transform="matrix(0.010416666666666668,0,0,0.010416666666666668,60.625000000000014,0)" xlink:href="#N"/><use transform="matrix(0.010416666666666668,0,0,0.010416666666666668,74.17708333333334,0)" xlink:href="#G"/><use transform="matrix(0.010416666666666668,0,0,0.010416666666666668,81.68750000000001,0)" xlink:href="#af"/><use transform="matrix(0.010416666666666668,0,0,0.010416666666666668,88.51041666666667,0)" xlink:href="#ac"/><use transform="matrix(0.010416666666666668,0,0,0.010416666666666668,99.01041666666667,0)" xlink:href="#F"/><use transform="matrix(0.010416666666666668,0,0,0.010416666666666668,110.81250000000003,0)" xlink:href="#G"/><use transform="matrix(0.010416666666666668,0,0,0.010416666666666668,118.3229166666667,0)" xlink:href="#af"/><use transform="matrix(0.010416666666666668,0,0,0.010416666666666668,125.14583333333337,0)" xlink:href="#P"/><use transform="matrix(0.010416666666666668,0,0,0.010416666666666668,137.45833333333337,0)" xlink:href="#N"/></g><path d="M886-871c30-101-37-149-145-141v-86h439v86c-127-12-147 70-181 160L676 0H489L160-903c-24-68-57-114-152-109v-86h512v86c-124-19-174 64-133 174 84 228 172 444 229 695h7c82-248 190-477 263-728" id="ag"/><g id="j"><use transform="matrix(0.010416666666666668,0,0,0.010416666666666668,0,0)" xlink:href="#S"/><use transform="matrix(0.010416666666666668,0,0,0.010416666666666668,11.604166666666668,0)" xlink:href="#H"/><use transform="matrix(0.010416666666666668,0,0,0.010416666666666668,23.020833333333336,0)" xlink:href="#V"/><use transform="matrix(0.010416666666666668,0,0,0.010416666666666668,33.28125,0)" xlink:href="#ag"/><use transform="matrix(0.010416666666666668,0,0,0.010416666666666668,45.63541666666667,0)" xlink:href="#af"/><use transform="matrix(0.010416666666666668,0,0,0.010416666666666668,52.458333333333336,0)" xlink:href="#ac"/><use transform="matrix(0.010416666666666668,0,0,0.010416666666666668,62.95833333333334,0)" xlink:href="#H"/></g><path d="M727-1118c321 0 418 237 418 567 0 331-96 571-418 571-163 0-254-75-313-180h-13L365 0H37v-86c117 6 184-31 184-147v-1098c2-112-70-144-184-139v-86h377c-1 217 4 437-8 643h8c57-116 142-205 313-205zm219 565c0-230-32-430-254-434-242-4-278 193-278 436s40 440 280 440c221 0 252-212 252-442" id="ah"/><g id="k"><use transform="matrix(0.010416666666666668,0,0,0.010416666666666668,0,0)" xlink:href="#L"/><use transform="matrix(0.010416666666666668,0,0,0.010416666666666668,15.510416666666668,0)" xlink:href="#F"/><use transform="matrix(0.010416666666666668,0,0,0.010416666666666668,27.3125,0)" xlink:href="#G"/><use transform="matrix(0.010416666666666668,0,0,0.010416666666666668,34.82291666666667,0)" xlink:href="#F"/><use transform="matrix(0.010416666666666668,0,0,0.010416666666666668,46.833333333333336,0)" xlink:href="#ah"/><use transform="matrix(0.010416666666666668,0,0,0.010416666666666668,59.92708333333334,0)" xlink:href="#F"/><use transform="matrix(0.010416666666666668,0,0,0.010416666666666668,71.93750000000001,0)" xlink:href="#aa"/><use transform="matrix(0.010416666666666668,0,0,0.010416666666666668,81.56250000000001,0)" xlink:href="#H"/></g><path d="M115-735c0-455 195-750 647-750 335 0 517 182 599 443 29 92 42 195 42 309 0 405-166 671-506 741 20 221 90 379 336 367v96C886 491 697 338 672 16 286-31 115-308 115-735zm647-639c-345 0-420 288-420 641S416-90 760-90s416-291 416-643c0-351-70-641-414-641" id="ai"/><path d="M674-1376c-119-7-195 23-195 139v1135h404c178-1 180-179 200-338h107L1176 0H78v-86c122 7 194-27 194-147v-996c4-120-72-154-194-147v-86h596v86" id="aj"/><g id="l"><use transform="matrix(0.010416666666666668,0,0,0.010416666666666668,0,0)" xlink:href="#K"/><use transform="matrix(0.010416666666666668,0,0,0.010416666666666668,7.385416666666668,0)" xlink:href="#C"/><use transform="matrix(0.010416666666666668,0,0,0.010416666666666668,20.270833333333336,0)" xlink:href="#P"/><use transform="matrix(0.010416666666666668,0,0,0.010416666666666668,32.583333333333336,0)" xlink:href="#aa"/><use transform="matrix(0.010416666666666668,0,0,0.010416666666666668,42.208333333333336,0)" xlink:href="#G"/><use transform="matrix(0.010416666666666668,0,0,0.010416666666666668,49.29166666666667,0)" xlink:href="#O"/><use transform="matrix(0.010416666666666668,0,0,0.010416666666666668,60.77083333333334,0)" xlink:href="#V"/><use transform="matrix(0.010416666666666668,0,0,0.010416666666666668,70.82291666666667,0)" xlink:href="#H"/><use transform="matrix(0.010416666666666668,0,0,0.010416666666666668,82.23958333333334,0)" xlink:href="#S"/><use transform="matrix(0.010416666666666668,0,0,0.010416666666666668,93.84375000000001,0)" xlink:href="#ai"/><use transform="matrix(0.010416666666666668,0,0,0.010416666666666668,109.67708333333334,0)" xlink:href="#aj"/><use transform="matrix(0.010416666666666668,0,0,0.010416666666666668,122.96875000000001,0)" xlink:href="#Y"/></g><path d="M1649-233c-4 120 72 154 194 147V0h-545v-86c102 5 154-32 154-129v-1094L983 0H872L397-1305v1072c-4 108 46 153 154 147V0H78v-86c117 6 194-21 194-137v-1014c3-115-76-146-194-139v-86h467L969-291l420-1171h454v86c-122-7-194 27-194 147v996" id="ak"/><path d="M844-1331c2-112-71-145-185-139v-86h377v1331c-2 112 71 145 185 139V0H874l-22-184h-8C786-68 701 20 530 20c-321 0-417-237-417-567 0-331 95-571 417-571 163 0 254 76 314 180h12c-10-128-14-255-12-393zM563-987c-219 0-252 212-252 442 0 145 20 254 59 326s104 108 195 108c242 2 279-192 279-436s-41-440-281-440" id="al"/><g id="m"><use transform="matrix(0.010416666666666668,0,0,0.010416666666666668,0,0)" xlink:href="#ak"/><use transform="matrix(0.010416666666666668,0,0,0.010416666666666668,20.010416666666668,0)" xlink:href="#H"/><use transform="matrix(0.010416666666666668,0,0,0.010416666666666668,31.427083333333336,0)" xlink:href="#al"/><use transform="matrix(0.010416666666666668,0,0,0.010416666666666668,44.520833333333336,0)" xlink:href="#af"/><use transform="matrix(0.010416666666666668,0,0,0.010416666666666668,51.34374999999999,0)" xlink:href="#F"/></g><g id="n"><use transform="matrix(0.010416666666666668,0,0,0.010416666666666668,0,0)" xlink:href="#S"/><use transform="matrix(0.010416666666666668,0,0,0.010416666666666668,11.395833333333334,0)" xlink:href="#ad"/><use transform="matrix(0.010416666666666668,0,0,0.010416666666666668,24.937499999999996,0)" xlink:href="#ah"/><use transform="matrix(0.010416666666666668,0,0,0.010416666666666668,38.03125,0)" xlink:href="#W"/><use transform="matrix(0.010416666666666668,0,0,0.010416666666666668,58.1875,0)" xlink:href="#af"/><use transform="matrix(0.010416666666666668,0,0,0.010416666666666668,65.01041666666667,0)" xlink:href="#aa"/><use transform="matrix(0.010416666666666668,0,0,0.010416666666666668,74.63541666666667,0)" xlink:href="#aa"/><use transform="matrix(0.010416666666666668,0,0,0.010416666666666668,84.26041666666667,0)" xlink:href="#af"/><use transform="matrix(0.010416666666666668,0,0,0.010416666666666668,91.08333333333334,0)" xlink:href="#P"/><use transform="matrix(0.010416666666666668,0,0,0.010416666666666668,103.39583333333334,0)" xlink:href="#N"/></g><path d="M569-1012c-63 1-123 4-123 60 0 43 23 60 48 94l135 184c47-72 105-140 143-219 9-21 14-40 14-59 0-56-58-59-116-60v-86h448v86c-127-7-170 57-225 131L682-600l301 405c54 66 89 110 191 109V0H645v-86c110 6 163-43 118-118-57-95-135-185-200-275-60 87-128 167-180 261-10 19-18 42-18 68 0 62 57 62 133 64V0H10v-86c134 8 184-56 242-131l258-334-258-352c-56-60-97-113-203-109v-86h520v86" id="am"/><g id="o"><use transform="matrix(0.010416666666666668,0,0,0.010416666666666668,0,0)" xlink:href="#T"/><use transform="matrix(0.010416666666666668,0,0,0.010416666666666668,12.218750000000002,0)" xlink:href="#H"/><use transform="matrix(0.010416666666666668,0,0,0.010416666666666668,23.635416666666668,0)" xlink:href="#am"/><use transform="matrix(0.010416666666666668,0,0,0.010416666666666668,35.96875000000001,0)" xlink:href="#G"/></g><path d="M414-233c-4 120 72 154 194 147V0H27v-86c122 7 194-28 194-147v-1098c3-115-76-146-194-139v-86h387v1323" id="an"/><g id="p"><use transform="matrix(0.010416666666666668,0,0,0.010416666666666668,0,0)" xlink:href="#ak"/><use transform="matrix(0.010416666666666668,0,0,0.010416666666666668,20.010416666666668,0)" xlink:href="#P"/><use transform="matrix(0.010416666666666668,0,0,0.010416666666666668,32.32291666666667,0)" xlink:href="#al"/><use transform="matrix(0.010416666666666668,0,0,0.010416666666666668,45.41666666666667,0)" xlink:href="#H"/><use transform="matrix(0.010416666666666668,0,0,0.010416666666666668,56.83333333333334,0)" xlink:href="#an"/></g><g id="q"><use transform="matrix(0.010416666666666668,0,0,0.010416666666666668,0,0)" xlink:href="#B"/><use transform="matrix(0.010416666666666668,0,0,0.010416666666666668,14.614583333333336,0)" xlink:href="#ad"/><use transform="matrix(0.010416666666666668,0,0,0.010416666666666668,28.15625,0)" xlink:href="#al"/><use transform="matrix(0.010416666666666668,0,0,0.010416666666666668,41.25,0)" xlink:href="#af"/><use transform="matrix(0.010416666666666668,0,0,0.010416666666666668,48.07291666666667,0)" xlink:href="#P"/></g><g id="r"><use transform="matrix(0.010416666666666668,0,0,0.010416666666666668,0,0)" xlink:href="#D"/><use transform="matrix(0.010416666666666668,0,0,0.010416666666666668,7.833333333333334,0)" xlink:href="#W"/><use transform="matrix(0.010416666666666668,0,0,0.010416666666666668,27.989583333333336,0)" xlink:href="#F"/><use transform="matrix(0.010416666666666668,0,0,0.010416666666666668,40,0)" xlink:href="#O"/><use transform="matrix(0.010416666666666668,0,0,0.010416666666666668,51.27083333333333,0)" xlink:href="#H"/></g><g id="s"><use transform="matrix(0.010416666666666668,0,0,0.010416666666666668,0,0)" xlink:href="#C"/><use transform="matrix(0.010416666666666668,0,0,0.010416666666666668,12.885416666666668,0)" xlink:href="#V"/><use transform="matrix(0.010416666666666668,0,0,0.010416666666666668,22.729166666666668,0)" xlink:href="#P"/><use transform="matrix(0.010416666666666668,0,0,0.010416666666666668,35.04166666666667,0)" xlink:href="#ac"/><use transform="matrix(0.010416666666666668,0,0,0.010416666666666668,45.54166666666667,0)" xlink:href="#H"/><use transform="matrix(0.010416666666666668,0,0,0.010416666666666668,56.95833333333334,0)" xlink:href="#aa"/><use transform="matrix(0.010416666666666668,0,0,0.010416666666666668,66.58333333333334,0)" xlink:href="#aa"/><use transform="matrix(0.010416666666666668,0,0,0.010416666666666668,76.20833333333334,0)" xlink:href="#H"/><use transform="matrix(0.010416666666666668,0,0,0.010416666666666668,87.62500000000001,0)" xlink:href="#al"/></g><g id="t"><use transform="matrix(0.010416666666666668,0,0,0.010416666666666668,0,0)" xlink:href="#Q"/><use transform="matrix(0.010416666666666668,0,0,0.010416666666666668,13.562500000000002,0)" xlink:href="#H"/><use transform="matrix(0.010416666666666668,0,0,0.010416666666666668,24.979166666666668,0)" xlink:href="#aa"/><use transform="matrix(0.010416666666666668,0,0,0.010416666666666668,34.39583333333334,0)" xlink:href="#ad"/><use transform="matrix(0.010416666666666668,0,0,0.010416666666666668,47.937500000000014,0)" xlink:href="#an"/><use transform="matrix(0.010416666666666668,0,0,0.010416666666666668,54.55208333333335,0)" xlink:href="#G"/><use transform="matrix(0.010416666666666668,0,0,0.010416666666666668,62.062500000000014,0)" xlink:href="#aa"/></g><g id="u"><use transform="matrix(0.010416666666666668,0,0,0.010416666666666668,0,0)" xlink:href="#S"/><use transform="matrix(0.010416666666666668,0,0,0.010416666666666668,11.395833333333334,0)" xlink:href="#G"/><use transform="matrix(0.010416666666666668,0,0,0.010416666666666668,18.479166666666668,0)" xlink:href="#P"/><use transform="matrix(0.010416666666666668,0,0,0.010416666666666668,30.79166666666667,0)" xlink:href="#V"/><use transform="matrix(0.010416666666666668,0,0,0.010416666666666668,40.84375000000001,0)" xlink:href="#F"/><use transform="matrix(0.010416666666666668,0,0,0.010416666666666668,52.85416666666667,0)" xlink:href="#O"/><use transform="matrix(0.010416666666666668,0,0,0.010416666666666668,64.125,0)" xlink:href="#H"/></g><g id="v"><use transform="matrix(0.010416666666666668,0,0,0.010416666666666668,0,0)" xlink:href="#U"/><use transform="matrix(0.010416666666666668,0,0,0.010416666666666668,12.583333333333334,0)" xlink:href="#af"/><use transform="matrix(0.010416666666666668,0,0,0.010416666666666668,19.40625,0)" xlink:href="#an"/><use transform="matrix(0.010416666666666668,0,0,0.010416666666666668,26.020833333333336,0)" xlink:href="#H"/></g><g id="w"><use transform="matrix(0.010416666666666668,0,0,0.010416666666666668,0,0)" xlink:href="#S"/><use transform="matrix(0.010416666666666668,0,0,0.010416666666666668,11.395833333333334,0)" xlink:href="#G"/><use transform="matrix(0.010416666666666668,0,0,0.010416666666666668,18.479166666666668,0)" xlink:href="#P"/><use transform="matrix(0.010416666666666668,0,0,0.010416666666666668,30.79166666666667,0)" xlink:href="#V"/><use transform="matrix(0.010416666666666668,0,0,0.010416666666666668,40.84375000000001,0)" xlink:href="#F"/><use transform="matrix(0.010416666666666668,0,0,0.010416666666666668,52.85416666666667,0)" xlink:href="#O"/><use transform="matrix(0.010416666666666668,0,0,0.010416666666666668,64.125,0)" xlink:href="#H"/></g><g id="x"><use transform="matrix(0.010416666666666668,0,0,0.010416666666666668,0,0)" xlink:href="#S"/><use transform="matrix(0.010416666666666668,0,0,0.010416666666666668,11.604166666666668,0)" xlink:href="#H"/><use transform="matrix(0.010416666666666668,0,0,0.010416666666666668,23.020833333333336,0)" xlink:href="#V"/><use transform="matrix(0.010416666666666668,0,0,0.010416666666666668,33.28125,0)" xlink:href="#ag"/><use transform="matrix(0.010416666666666668,0,0,0.010416666666666668,45.63541666666667,0)" xlink:href="#af"/><use transform="matrix(0.010416666666666668,0,0,0.010416666666666668,52.458333333333336,0)" xlink:href="#ac"/><use transform="matrix(0.010416666666666668,0,0,0.010416666666666668,62.95833333333334,0)" xlink:href="#H"/></g><g id="y"><use transform="matrix(0.010416666666666668,0,0,0.010416666666666668,0,0)" xlink:href="#K"/><use transform="matrix(0.010416666666666668,0,0,0.010416666666666668,7.385416666666668,0)" xlink:href="#ak"/><use transform="matrix(0.010416666666666668,0,0,0.010416666666666668,27.395833333333336,0)" xlink:href="#H"/><use transform="matrix(0.010416666666666668,0,0,0.010416666666666668,38.8125,0)" xlink:href="#al"/><use transform="matrix(0.010416666666666668,0,0,0.010416666666666668,51.90624999999999,0)" xlink:href="#af"/><use transform="matrix(0.010416666666666668,0,0,0.010416666666666668,58.72916666666667,0)" xlink:href="#F"/></g><g id="z"><use transform="matrix(0.010416666666666668,0,0,0.010416666666666668,0,0)" xlink:href="#U"/><use transform="matrix(0.010416666666666668,0,0,0.010416666666666668,12.583333333333334,0)" xlink:href="#af"/><use transform="matrix(0.010416666666666668,0,0,0.010416666666666668,19.40625,0)" xlink:href="#an"/><use transform="matrix(0.010416666666666668,0,0,0.010416666666666668,26.020833333333336,0)" xlink:href="#H"/><use transform="matrix(0.010416666666666668,0,0,0.010416666666666668,37.4375,0)" xlink:href="#aa"/><use transform="matrix(0.010416666666666668,0,0,0.010416666666666668,47.06249999999999,0)" xlink:href="#Y"/></g><path d="M1505-1376c-122-7-194 27-194 147V0h-146L397-1180v947c-3 120 73 154 195 147V0H78v-86c122 7 194-27 194-147v-1004c3-115-76-146-194-139v-86h375l733 1132v-907c3-116-76-146-195-139v-86h514v86" id="ao"/><g id="A"><use transform="matrix(0.010416666666666668,0,0,0.010416666666666668,0,0)" xlink:href="#ao"/><use transform="matrix(0.010416666666666668,0,0,0.010416666666666668,16.07291666666667,0)" xlink:href="#P"/><use transform="matrix(0.010416666666666668,0,0,0.010416666666666668,28.38541666666667,0)" xlink:href="#G"/><use transform="matrix(0.010416666666666668,0,0,0.010416666666666668,35.89583333333334,0)" xlink:href="#af"/><use transform="matrix(0.010416666666666668,0,0,0.010416666666666668,42.718750000000014,0)" xlink:href="#ab"/><use transform="matrix(0.010416666666666668,0,0,0.010416666666666668,50.593750000000014,0)" xlink:href="#af"/><use transform="matrix(0.010416666666666668,0,0,0.010416666666666668,57.416666666666686,0)" xlink:href="#ac"/><use transform="matrix(0.010416666666666668,0,0,0.010416666666666668,67.91666666666669,0)" xlink:href="#F"/><use transform="matrix(0.010416666666666668,0,0,0.010416666666666668,79.71875000000003,0)" xlink:href="#G"/><use transform="matrix(0.010416666666666668,0,0,0.010416666666666668,87.2291666666667,0)" xlink:href="#af"/><use transform="matrix(0.010416666666666668,0,0,0.010416666666666668,94.05208333333336,0)" xlink:href="#P"/><use transform="matrix(0.010416666666666668,0,0,0.010416666666666668,106.36458333333336,0)" xlink:href="#N"/></g></defs></g></svg>