<svg xmlns="http://www.w3.org/2000/svg" xmlns:xlink="http://www.w3.org/1999/xlink" xmlns:lucid="lucid" width="1506" height="1726"><g transform="translate(1323 3)" lucid:page-tab-id="0_0"><path d="M-1500 0H500v2000h-2000z" fill="#fff"/><path d="M-760 233.64a6 6 0 0 1 6-6h348a6 6 0 0 1 6 6v82.38a6 6 0 0 1-6 6h-348a6 6 0 0 1-6-6z" stroke="#0f4761" stroke-width="6" fill="#fff"/><use xlink:href="#a" transform="matrix(1,0,0,1,-755,232.64044943820232) translate(97.28276909722223 37.208767361111114)"/><use xlink:href="#b" transform="matrix(1,0,0,1,-755,232.64044943820232) translate(147.189453125 37.208767361111114)"/><use xlink:href="#c" transform="matrix(1,0,0,1,-755,232.64044943820232) translate(13.278428819444457 67.21571180555556)"/><use xlink:href="#d" transform="matrix(1,0,0,1,-755,232.64044943820232) translate(115.00499131944447 67.21571180555556)"/><use xlink:href="#e" transform="matrix(1,0,0,1,-755,232.64044943820232) translate(183.96809895833337 67.21571180555556)"/><path d="M-720 26a6 6 0 0 1 6-6h268a6 6 0 0 1 6 6v120.13a6 6 0 0 1-6 6h-268a6 6 0 0 1-6-6z" stroke="#0f4761" stroke-width="6" fill="#fff"/><use xlink:href="#f" transform="matrix(1,0,0,1,-708,32) translate(41.32725694444444 47.771267361111114)"/><use xlink:href="#g" transform="matrix(1,0,0,1,-708,32) translate(103.55642361111111 47.771267361111114)"/><use xlink:href="#h" transform="matrix(1,0,0,1,-708,32) translate(85.84678819444444 77.77821180555556)"/><path d="M-770 441.28a6 6 0 0 1 6-6h368a6 6 0 0 1 6 6v101.26a6 6 0 0 1-6 6h-368a6 6 0 0 1-6-6z" stroke="#0f4761" stroke-width="6" fill="#fff"/><use xlink:href="#i" transform="matrix(1,0,0,1,-765,440.2808988764045) translate(45.355685763888914 59.677517361111114)"/><use xlink:href="#j" transform="matrix(1,0,0,1,-765,440.2808988764045) translate(234.7745225694444 59.677517361111114)"/><path d="M-384 491.9h74.03" stroke="#0f4761" stroke-width="6" fill="none"/><path d="M-383.92 494.9H-387v-5.96h3.08z" stroke="#0f4761" stroke-width=".05" fill="#0f4761"/><path d="M-292.7 491.9l-14.27 4.65v-9.28z" stroke="#0f4761" stroke-width="6" fill="#0f4761"/><path d="M-280 460.16a6 6 0 0 1 6-6H64a6 6 0 0 1 6 6v63.5a6 6 0 0 1-6 6h-338a6 6 0 0 1-6-6z" stroke="#0f4761" stroke-width="6" fill="#fff"/><use xlink:href="#f" transform="matrix(1,0,0,1,-275,459.1573033707865) translate(26.178819444444457 42.490234375)"/><use xlink:href="#k" transform="matrix(1,0,0,1,-275,459.1573033707865) translate(88.40798611111113 42.490234375)"/><use xlink:href="#l" transform="matrix(1,0,0,1,-275,459.1573033707865) translate(207.45399305555557 42.490234375)"/><path d="M-580 554.54v39.53" stroke="#0f4761" stroke-width="6" fill="none"/><path d="M-577.02 554.62H-583v-3.08h5.96z" stroke="#0f4761" stroke-width=".05" fill="#0f4761"/><path d="M-580 611.34l-4.63-14.27h9.26z" stroke="#0f4761" stroke-width="6" fill="#0f4761"/><path d="M-770 630.04a6 6 0 0 1 6-6h368a6 6 0 0 1 6 6V731.3a6 6 0 0 1-6 6h-368a6 6 0 0 1-6-6z" stroke="#0f4761" stroke-width="6" fill="#fff"/><use xlink:href="#m" transform="matrix(1,0,0,1,-765,629.0449438202248) translate(24.310546875 59.677517361111114)"/><use xlink:href="#n" transform="matrix(1,0,0,1,-765,629.0449438202248) translate(107.55967881944446 59.677517361111114)"/><use xlink:href="#j" transform="matrix(1,0,0,1,-765,629.0449438202248) translate(255.81966145833334 59.677517361111114)"/><path d="M-580 743.3v39.54" stroke="#0f4761" stroke-width="6" fill="none"/><path d="M-577.02 743.38H-583v-3.08h5.96z" stroke="#0f4761" stroke-width=".05" fill="#0f4761"/><path d="M-580 800.1l-4.63-14.26h9.26z" stroke="#0f4761" stroke-width="6" fill="#0f4761"/><path d="M-770 818.8a6 6 0 0 1 6-6h368a6 6 0 0 1 6 6v101.27a6 6 0 0 1-6 6h-368a6 6 0 0 1-6-6z" stroke="#0f4761" stroke-width="6" fill="#fff"/><use xlink:href="#o" transform="matrix(1,0,0,1,-765,817.8089887640448) translate(117.05013020833333 59.677517361111114)"/><use xlink:href="#p" transform="matrix(1,0,0,1,-765,817.8089887640448) translate(176.28363715277777 59.677517361111114)"/><path d="M-220 818.8a6 6 0 0 1 6-6h368a6 6 0 0 1 6 6v101.27a6 6 0 0 1-6 6h-368a6 6 0 0 1-6-6z" stroke="#0f4761" stroke-width="6" fill="#fff"/><use xlink:href="#q" transform="matrix(1,0,0,1,-215,817.8089887640448) translate(106.8359375 59.677517361111114)"/><use xlink:href="#p" transform="matrix(1,0,0,1,-215,817.8089887640448) translate(186.49782986111111 59.677517361111114)"/><path d="M-1300 818.8a6 6 0 0 1 6-6h368a6 6 0 0 1 6 6v101.27a6 6 0 0 1-6 6h-368a6 6 0 0 1-6-6z" stroke="#0f4761" stroke-width="6" fill="#fff"/><use xlink:href="#r" transform="matrix(1,0,0,1,-1295,817.8089887640448) translate(105.44509548611111 59.677517361111114)"/><use xlink:href="#p" transform="matrix(1,0,0,1,-1295,817.8089887640448) translate(187.888671875 59.677517361111114)"/><path d="M-384 680.67h348a6 6 0 0 1 6 6v96.17" stroke="#0f4761" stroke-width="6" fill="none"/><path d="M-383.92 683.65H-387v-5.95h3.08z" stroke="#0f4761" stroke-width=".05" fill="#0f4761"/><path d="M-30 800.1l-4.63-14.26h9.27z" stroke="#0f4761" stroke-width="6" fill="#0f4761"/><path d="M-776 680.67h-328a6 6 0 0 0-6 6v96.17" stroke="#0f4761" stroke-width="6" fill="none"/><path d="M-773 683.65h-3.08v-5.95h3.08z" stroke="#0f4761" stroke-width=".05" fill="#0f4761"/><path d="M-1110 800.1l-4.63-14.26h9.27z" stroke="#0f4761" stroke-width="6" fill="#0f4761"/><path d="M-580 932.07v39.53" stroke="#0f4761" stroke-width="6" fill="none"/><path d="M-577.02 932.14H-583v-3.07h5.96z" stroke="#0f4761" stroke-width=".05" fill="#0f4761"/><path d="M-580 988.87l-4.63-14.27h9.26z" stroke="#0f4761" stroke-width="6" fill="#0f4761"/><path d="M-770 1007.57a6 6 0 0 1 6-6h368a6 6 0 0 1 6 6v101.26a6 6 0 0 1-6 6h-368a6 6 0 0 1-6-6z" stroke="#0f4761" stroke-width="6" fill="#fff"/><use xlink:href="#s" transform="matrix(1,0,0,1,-765,1006.5730337078651) translate(28.501953125 46.677517361111114)"/><use xlink:href="#t" transform="matrix(1,0,0,1,-765,1006.5730337078651) translate(156.8999565972222 46.677517361111114)"/><use xlink:href="#u" transform="matrix(1,0,0,1,-765,1006.5730337078651) translate(250.2185329861111 46.677517361111114)"/><use xlink:href="#v" transform="matrix(1,0,0,1,-765,1006.5730337078651) translate(106.24435763888889 76.68446180555556)"/><path d="M-30 932.07v120.13a6 6 0 0 1-6 6h-324.03" stroke="#0f4761" stroke-width="6" fill="none"/><path d="M-27.02 932.14h-5.96v-3.07h5.95z" stroke="#0f4761" stroke-width=".05" fill="#0f4761"/><path d="M-377.3 1058.2l14.27-4.63v9.27z" stroke="#0f4761" stroke-width="6" fill="#0f4761"/><path d="M-1110 932.07v120.13a6 6 0 0 0 6 6h304.03" stroke="#0f4761" stroke-width="6" fill="none"/><path d="M-1107.03 932.14h-5.94v-3.07h5.94z" stroke="#0f4761" stroke-width=".05" fill="#0f4761"/><path d="M-782.7 1058.2l-14.27 4.64v-9.27z" stroke="#0f4761" stroke-width="6" fill="#0f4761"/><path d="M-580 1120.83v1.78" stroke="#0f4761" stroke-width="6" fill="none"/><path d="M-577.02 1120.9H-583v-3.07h5.96z" stroke="#0f4761" stroke-width=".05" fill="#0f4761"/><path d="M-580 1139.88l-4.63-14.27h9.26z" stroke="#0f4761" stroke-width="6" fill="#0f4761"/><path d="M-770 1158.58a6 6 0 0 1 6-6h368a6 6 0 0 1 6 6v101.26a6 6 0 0 1-6 6h-368a6 6 0 0 1-6-6z" stroke="#0f4761" stroke-width="6" fill="#fff"/><use xlink:href="#w" transform="matrix(1,0,0,1,-765,1157.5842696629213) translate(19.024088541666657 46.677517361111114)"/><use xlink:href="#x" transform="matrix(1,0,0,1,-765,1157.5842696629213) translate(70.95724826388889 46.677517361111114)"/><use xlink:href="#y" transform="matrix(1,0,0,1,-765,1157.5842696629213) translate(168.93294270833334 46.677517361111114)"/><use xlink:href="#z" transform="matrix(1,0,0,1,-765,1157.5842696629213) translate(265.49891493055554 46.677517361111114)"/><use xlink:href="#A" transform="matrix(1,0,0,1,-765,1157.5842696629213) translate(152.10438368055554 76.68446180555556)"/><path d="M-580 1271.84V1368" stroke="#0f4761" stroke-width="6" fill="none"/><path d="M-577.02 1271.92H-583v-3.08h5.96z" stroke="#0f4761" stroke-width=".05" fill="#0f4761"/><path d="M-580 1385.27l-4.63-14.27h9.26z" stroke="#0f4761" stroke-width="6" fill="#0f4761"/><path d="M-770 1403.98a6 6 0 0 1 6-6h368a6 6 0 0 1 6 6v101.26a6 6 0 0 1-6 6h-368a6 6 0 0 1-6-6z" stroke="#0f4761" stroke-width="6" fill="#fff"/><g><use xlink:href="#B" transform="matrix(1,0,0,1,-765,1402.9775280898875) translate(64.14149305555557 59.677517361111114)"/><use xlink:href="#j" transform="matrix(1,0,0,1,-765,1402.9775280898875) translate(215.98871527777777 59.677517361111114)"/></g><path d="M-580 1517.24v39.53" stroke="#0f4761" stroke-width="6" fill="none"/><path d="M-577.02 1517.3H-583v-3.06h5.96z" stroke="#0f4761" stroke-width=".05" fill="#0f4761"/><path d="M-580 1574.03l-4.63-14.26h9.26z" stroke="#0f4761" stroke-width="6" fill="#0f4761"/><path d="M-770 1592.74a6 6 0 0 1 6-6h368a6 6 0 0 1 6 6V1694a6 6 0 0 1-6 6h-368a6 6 0 0 1-6-6z" stroke="#0f4761" stroke-width="6" fill="#fff"/><g><use xlink:href="#f" transform="matrix(1,0,0,1,-765,1591.741573033708) translate(52.825954861111086 59.677517361111114)"/><use xlink:href="#C" transform="matrix(1,0,0,1,-765,1591.741573033708) translate(115.05512152777776 59.677517361111114)"/><use xlink:href="#h" transform="matrix(1,0,0,1,-765,1591.741573033708) translate(232.86762152777777 59.677517361111114)"/></g><path d="M-580 328.02v77.3" stroke="#0f4761" stroke-width="6" fill="none"/><path d="M-577.02 328.1H-583v-3.08h5.96z" stroke="#0f4761" stroke-width=".05" fill="#0f4761"/><path d="M-580 422.57l-4.63-14.26h9.26z" stroke="#0f4761" stroke-width="6" fill="#0f4761"/><path d="M-580 158.13v39.54" stroke="#0f4761" stroke-width="6" fill="none"/><path d="M-577.02 158.2H-583v-3.06h5.96z" stroke="#0f4761" stroke-width=".05" fill="#0f4761"/><path d="M-580 214.93l-4.63-14.26h9.26z" stroke="#0f4761" stroke-width="6" fill="#0f4761"/><defs><path d="M322-226C292-111 376-75 500-86V0H0v-86c136 16 160-66 195-160l454-1216h160l463 1267c24 75 65 118 172 109V0H881v-86c113 10 195-27 165-133-27-93-63-180-94-270H414c-30 88-68 171-92 263zm593-366c-76-225-168-445-229-682-56 246-156 455-233 682h462" id="D"/><path d="M479-223C473-90 582-80 715-86V0H78v-86c122 7 194-27 194-147v-1004c3-115-76-146-194-139v-86h575c309 2 504 125 504 428 0 321-213 462-549 465H479v346zm457-803c0-225-92-342-318-338H479v698h109c246 7 348-114 348-360" id="E"/><path d="M479-233c-3 120 73 154 195 147V0H78v-86c122 7 194-27 194-147v-996c4-120-72-154-194-147v-86h596v86c-122-7-195 27-195 147v996" id="F"/><g id="a"><use transform="matrix(0.012586805555555556,0,0,0.012586805555555556,0,0)" xlink:href="#D"/><use transform="matrix(0.012586805555555556,0,0,0.012586805555555556,18.17534722222222,0)" xlink:href="#E"/><use transform="matrix(0.012586805555555556,0,0,0.012586805555555556,33.74522569444444,0)" xlink:href="#F"/></g><path d="M1274-74c-132 61-266 94-453 94-474 0-704-280-704-753 0-356 149-589 406-695 216-89 625-74 735 84 44 64 27 162-28 196-34 21-79 38-134 38-6-168-97-264-271-264-372 0-481 264-481 641 0 387 125 639 510 637 76 0 155-7 213-25v-330c2-109-68-142-176-139v-86h532v86c-105-6-149 43-149 148v368" id="G"/><path d="M467-106c176 0 267-107 272-285v-166c-189 6-378 9-423 154-10 31-15 66-15 106 0 123 47 191 166 191zm272-535c5-199 13-375-190-375-142 0-190 83-187 223-106-2-174-27-174-129 0-169 191-191 369-196 250-7 375 104 375 354v531c-3 100 32 153 133 147V0H788l-32-176h-17C664-76 596 23 420 20 213 16 102-97 102-307c0-109 41-186 116-242 100-75 325-89 521-92" id="H"/><path d="M387-291c-2 124 47 200 156 203 51 1 88-6 131-14v90C626 8 560 18 492 20 278 25 195-83 195-297v-684H39v-82c170-8 224-133 254-287h94v252h268v117H387v690" id="I"/><path d="M786-645c-4-191-36-363-223-363-76 0-134 30-175 92s-66 152-73 271h471zm123 393c43 21 51 90 17 136C862-29 744 20 588 20c-331 0-471-225-475-561-4-348 134-577 454-577 327 0 443 231 426 583H311c7 242 67 426 305 426 140 0 234-60 293-143" id="J"/><path d="M508-1012c-85 0-151 4-150 86 0 28 11 63 17 88 59 216 125 426 168 658h6c20-100 53-202 84-293l213-619h129c98 304 212 592 293 912h6c46-231 140-457 196-684 26-106-33-156-145-148v-86h438v86c-127-12-151 65-180 160L1319 0h-164L911-721l-37-135L584 0H422L154-903c-24-68-57-114-152-109v-86h506v86" id="K"/><path d="M868-871c27-98-34-147-137-141v-86h426v86c-114-4-130 76-162 160C865-510 751-153 616 182c-65 163-156 280-360 302-50 6-113 8-178 8v-97c285-2 394-182 461-403L160-903c-28-65-56-114-152-109v-86h492v86c-114-14-152 77-113 174 88 217 187 419 248 662h6c62-238 163-461 227-695" id="L"/><g id="b"><use transform="matrix(0.012586805555555556,0,0,0.012586805555555556,0,0)" xlink:href="#G"/><use transform="matrix(0.012586805555555556,0,0,0.012586805555555556,18.91796875,0)" xlink:href="#H"/><use transform="matrix(0.012586805555555556,0,0,0.012586805555555556,33.17881944444444,0)" xlink:href="#I"/><use transform="matrix(0.012586805555555556,0,0,0.012586805555555556,42.002170138888886,0)" xlink:href="#J"/><use transform="matrix(0.012586805555555556,0,0,0.012586805555555556,55.79730902777777,0)" xlink:href="#K"/><use transform="matrix(0.012586805555555556,0,0,0.012586805555555556,77.22005208333333,0)" xlink:href="#H"/><use transform="matrix(0.012586805555555556,0,0,0.012586805555555556,90.96484375,0)" xlink:href="#L"/></g><path d="M643-1464c-244 139-313 433-313 815s69 678 313 817v94C288 130 117-156 117-649c0-361 84-614 285-771 67-53 147-99 241-136v92" id="M"/><path d="M705-1462c450 9 667 274 667 729S1160 0 705 0H78v-86c122 7 194-27 194-147v-1004c3-115-76-146-194-139v-86h627zm440 729c2-374-134-623-486-627H479v1256h178c362-7 486-260 488-629" id="N"/><path d="M221-872c2-108-66-143-174-140v-86h367V16c2 313-123 488-439 476v-97c213 5 246-165 246-377v-890zm88-431c-79 0-116-45-116-127 0-81 36-126 116-126s117 45 117 126-38 127-117 127" id="O"/><path d="M434-223c-3 108 66 141 174 137V0H57v-86c118 6 185-31 185-147v-639c2-108-66-143-174-140v-86h331l27 166h10c63-113 148-188 320-186 244 3 343 152 344 401v484c-4 110 54 152 164 147V0H907v-707c0-170-55-282-225-280-187 3-248 145-248 332v432" id="P"/><path d="M956-1161c125-12 164 158 62 205-14 6-30 8-49 8 9-84-106-83-156-45 48 62 81 134 80 248-2 265-188 381-475 346-48 26-98 54-99 125-1 68 58 77 127 77h232c215 1 338 97 338 306 0 294-237 379-543 383-249 3-426-81-426-299C47 28 162-41 303-70c-62-29-113-79-113-168 0-105 57-142 134-192-112-50-185-152-185-309 0-249 134-379 385-379 97 0 179 25 234 67 49-50 103-100 198-110zM438-14c-139-3-225 52-225 194 0 158 102 212 264 211 212-1 363-46 371-248C856-58 624-10 438-14zm78-1004c-150 0-184 109-184 273 0 159 39 250 186 253 149 3 184-105 182-256-2-165-33-270-184-270" id="Q"/><path d="M594-1118c338 0 472 222 475 567 2 360-143 571-481 571S115-205 113-551c-2-359 142-567 481-567zm-4 108c-241 0-279 212-279 459 0 249 39 465 281 465s278-216 278-465c0-248-38-459-280-459" id="R"/><g id="c"><use transform="matrix(0.012586805555555556,0,0,0.012586805555555556,0,0)" xlink:href="#M"/><use transform="matrix(0.012586805555555556,0,0,0.012586805555555556,8.92404513888889,0)" xlink:href="#N"/><use transform="matrix(0.012586805555555556,0,0,0.012586805555555556,27.66579861111111,0)" xlink:href="#O"/><use transform="matrix(0.012586805555555556,0,0,0.012586805555555556,35.39409722222222,0)" xlink:href="#H"/><use transform="matrix(0.012586805555555556,0,0,0.012586805555555556,49.90668402777778,0)" xlink:href="#P"/><use transform="matrix(0.012586805555555556,0,0,0.012586805555555556,66.53385416666667,0)" xlink:href="#Q"/><use transform="matrix(0.012586805555555556,0,0,0.012586805555555556,80.15277777777779,0)" xlink:href="#R"/></g><path d="M1155-1067c0 217-140 315-301 373l281 444c62 88 98 158 221 164V0c-166 1-292-2-364-90-20-24-43-55-66-94L649-645H479v422c-3 116 77 143 195 137V0H78v-86c117 6 194-21 194-137v-1014c3-115-76-146-194-139v-86h551c321 0 526 100 526 395zm-219 6c0-217-101-309-318-303H479v623h144c221 5 313-101 313-320" id="S"/><path d="M272-1229c4-120-72-154-194-147v-86h1032l10 358h-106c-7-141-39-256-191-256H479v545h494v100H479v613h395c120 0 178-65 195-168l14-88h107L1176 0H78v-86c117 6 194-21 194-137v-1006" id="T"/><path d="M1010-391c0 288-209 411-504 411-227 0-400-72-408-288-3-85 58-140 148-138 13 184 83 323 276 326 176 3 296-86 293-258-4-208-164-249-317-319-197-90-377-181-377-455 0-256 189-371 448-371 165 0 292 46 357 143 39 57 33 148-18 186-30 22-68 34-117 34-4-156-72-260-230-260-155 0-250 80-250 233 0 217 160 262 318 332 152 68 291 135 355 283 17 42 26 88 26 141" id="U"/><path d="M307-86c126 7 215-13 215-137v-1137c-117 7-264-23-322 50-39 48-42 130-53 206H41l10-358h1153l10 358h-106c-10-135-29-256-180-256H729v1127c-5 128 84 155 215 147V0H307v-86" id="V"/><g id="d"><use transform="matrix(0.012586805555555556,0,0,0.012586805555555556,0,0)" xlink:href="#S"/><use transform="matrix(0.012586805555555556,0,0,0.012586805555555556,16.90407986111111,0)" xlink:href="#T"/><use transform="matrix(0.012586805555555556,0,0,0.012586805555555556,32.96484375,0)" xlink:href="#U"/><use transform="matrix(0.012586805555555556,0,0,0.012586805555555556,46.470486111111114,0)" xlink:href="#V"/></g><path d="M272-1237c3-115-76-146-194-139v-86h1032l10 358h-106c-6-145-43-256-199-256H479v592h494v100H479v435C472-96 576-78 715-86V0H78v-86c117 6 194-21 194-137v-1014" id="W"/><path d="M434-223C430-95 529-79 659-86V0H68v-86c112 4 174-35 174-147v-639c2-108-66-143-174-140v-86h315l39 203h10c50-120 106-223 281-223 151 0 257 68 211 208-21 64-90 87-181 87-2-101-16-160-108-160-128 0-157 140-183 255-33 148-12 333-18 505" id="X"/><path d="M434-223c-3 108 66 141 174 137V0H57v-86c121 8 185-28 185-147v-639c3-106-58-144-164-140v-86h321l27 166h10c60-112 141-188 309-186 158 2 252 69 297 186h17c61-114 150-188 321-186 240 3 333 155 334 401v484c-3 110 54 152 164 147V0h-356v-707c0-166-49-282-215-280-172 2-228 132-228 305v449c-3 110 54 152 164 147V0H887v-707c0-166-49-282-215-280-182 3-238 148-238 332v432" id="Y"/><path d="M769-940c21-67-28-74-95-72v-86h452v86c-47 0-94 17-140 50-98 70-204 208-292 303l273 405c63 88 106 163 233 168V0c-163 2-281-2-352-92-100-127-191-290-283-428L414-408v185c-3 108 66 141 174 137V0H37v-86c117 6 184-31 184-147v-1098c2-112-70-144-184-139v-86h377c-3 350 7 709-8 1048 114-131 245-251 345-394 9-13 15-27 18-38" id="Z"/><path d="M66 168C309 28 379-267 379-649s-70-676-313-815v-92c355 132 526 415 526 907 0 361-85 617-285 775-67 53-147 99-241 136v-94" id="aa"/><g id="e"><use transform="matrix(0.012586805555555556,0,0,0.012586805555555556,0,0)" xlink:href="#W"/><use transform="matrix(0.012586805555555556,0,0,0.012586805555555556,15.20486111111111,0)" xlink:href="#X"/><use transform="matrix(0.012586805555555556,0,0,0.012586805555555556,27.35112847222222,0)" xlink:href="#H"/><use transform="matrix(0.012586805555555556,0,0,0.012586805555555556,41.86371527777778,0)" xlink:href="#Y"/><use transform="matrix(0.012586805555555556,0,0,0.012586805555555556,66.21918402777777,0)" xlink:href="#J"/><use transform="matrix(0.012586805555555556,0,0,0.012586805555555556,80.01432291666666,0)" xlink:href="#K"/><use transform="matrix(0.012586805555555556,0,0,0.012586805555555556,101.9782986111111,0)" xlink:href="#R"/><use transform="matrix(0.012586805555555556,0,0,0.012586805555555556,116.85590277777779,0)" xlink:href="#X"/><use transform="matrix(0.012586805555555556,0,0,0.012586805555555556,128.75043402777777,0)" xlink:href="#Z"/><use transform="matrix(0.012586805555555556,0,0,0.012586805555555556,143.82942708333331,0)" xlink:href="#aa"/></g><path d="M1243-418c-7 302-195 436-502 438-327 2-516-134-516-462v-795c3-115-76-146-194-139v-86h596v86c-122-7-195 27-195 147v799c1 222 123 328 342 328 218 0 344-107 344-320v-815c3-115-76-146-194-139v-86h514v86c-122-7-195 27-195 147v811" id="ab"/><path d="M834-301C834-70 665 20 430 20 250 20 92-26 92-197c0-88 47-135 129-141 1 157 63 257 221 260 156 3 257-97 214-252-47-85-142-109-240-157-153-75-310-122-310-340 0-212 169-289 386-289 130 0 232 36 280 116 31 53 24 126-20 162-26 22-62 33-109 33 0-130-49-217-176-217-120 1-195 48-195 164 0 149 143 163 254 217 154 74 308 124 308 340" id="ac"/><g id="f"><use transform="matrix(0.012586805555555556,0,0,0.012586805555555556,0,0)" xlink:href="#ab"/><use transform="matrix(0.012586805555555556,0,0,0.012586805555555556,17.96137152777778,0)" xlink:href="#ac"/><use transform="matrix(0.012586805555555556,0,0,0.012586805555555556,29.59157986111111,0)" xlink:href="#J"/><use transform="matrix(0.012586805555555556,0,0,0.012586805555555556,43.38671875,0)" xlink:href="#X"/></g><path d="M442-233C435-92 546-78 688-86V0H55v-86c123 7 195-27 195-147v-768H63v-97h187v-102c4-240 124-377 362-377 124 0 225 14 272 85 33 50 8 123-32 144-31 17-72 29-121 29-2-96-37-164-135-164-176 0-152 207-154 385h289v97H442v768" id="ad"/><path d="M893-256c39 28 47 103 13 150C845-22 730 20 580 20c-332 0-467-220-467-563 0-349 119-575 456-575 140 0 259 39 325 116 44 51 42 161-14 193-31 18-76 29-137 29-1-134-38-239-174-236-232 6-258 224-258 471 0 264 65 427 310 432 127 2 227-62 272-143" id="ae"/><g id="g"><use transform="matrix(0.012586805555555556,0,0,0.012586805555555556,0,0)" xlink:href="#F"/><use transform="matrix(0.012586805555555556,0,0,0.012586805555555556,9.465277777777779,0)" xlink:href="#P"/><use transform="matrix(0.012586805555555556,0,0,0.012586805555555556,25.840711805555557,0)" xlink:href="#I"/><use transform="matrix(0.012586805555555556,0,0,0.012586805555555556,34.6640625,0)" xlink:href="#J"/><use transform="matrix(0.012586805555555556,0,0,0.012586805555555556,48.459201388888886,0)" xlink:href="#X"/><use transform="matrix(0.012586805555555556,0,0,0.012586805555555556,60.60546875,0)" xlink:href="#ad"/><use transform="matrix(0.012586805555555556,0,0,0.012586805555555556,70.12109375,0)" xlink:href="#H"/><use transform="matrix(0.012586805555555556,0,0,0.012586805555555556,84.63368055555556,0)" xlink:href="#ae"/><use transform="matrix(0.012586805555555556,0,0,0.012586805555555556,97.32118055555556,0)" xlink:href="#J"/></g><g id="h"><use transform="matrix(0.012586805555555556,0,0,0.012586805555555556,0,0)" xlink:href="#M"/><use transform="matrix(0.012586805555555556,0,0,0.012586805555555556,8.92404513888889,0)" xlink:href="#S"/><use transform="matrix(0.012586805555555556,0,0,0.012586805555555556,25.31206597222222,0)" xlink:href="#J"/><use transform="matrix(0.012586805555555556,0,0,0.012586805555555556,39.107204861111114,0)" xlink:href="#H"/><use transform="matrix(0.012586805555555556,0,0,0.012586805555555556,53.61979166666667,0)" xlink:href="#ae"/><use transform="matrix(0.012586805555555556,0,0,0.012586805555555556,66.30729166666667,0)" xlink:href="#I"/><use transform="matrix(0.012586805555555556,0,0,0.012586805555555556,75.38237847222223,0)" xlink:href="#aa"/></g><path d="M887-864c2-112-62-153-174-148v-86h366v875c-3 108 66 141 174 137V0H928l-27-166h-10C829-49 733 21 559 20c-245-1-338-153-338-401v-491c2-108-66-143-174-140v-86h367v707c-1 168 46 283 215 280 191-4 258-139 258-331v-422" id="af"/><path d="M414-223c-3 108 66 141 174 137V0H37v-86c117 6 184-31 184-147v-1098c2-112-70-144-184-139v-86h377c-3 208 7 429-8 624h10c61-124 162-186 301-186 253 1 362 144 362 401v484c-3 110 54 152 164 147V0H887v-707c0-170-55-283-225-280-186 3-248 143-248 332v432" id="ag"/><path d="M434-233c-3 120 73 154 195 147V0H47v-86c118 6 195-21 195-137v-649c2-108-66-143-174-140v-86h366v865zM330-1303c-79 0-117-45-117-127s37-126 117-126c79 0 116 46 116 126 0 81-37 127-116 127" id="ah"/><g id="i"><use transform="matrix(0.012586805555555556,0,0,0.012586805555555556,0,0)" xlink:href="#D"/><use transform="matrix(0.012586805555555556,0,0,0.012586805555555556,17.659288194444443,0)" xlink:href="#af"/><use transform="matrix(0.012586805555555556,0,0,0.012586805555555556,34.022135416666664,0)" xlink:href="#I"/><use transform="matrix(0.012586805555555556,0,0,0.012586805555555556,43.09722222222222,0)" xlink:href="#ag"/><use transform="matrix(0.012586805555555556,0,0,0.012586805555555556,59.46006944444444,0)" xlink:href="#J"/><use transform="matrix(0.012586805555555556,0,0,0.012586805555555556,73.25520833333333,0)" xlink:href="#P"/><use transform="matrix(0.012586805555555556,0,0,0.012586805555555556,89.6306423611111,0)" xlink:href="#I"/><use transform="matrix(0.012586805555555556,0,0,0.012586805555555556,98.70572916666666,0)" xlink:href="#ah"/><use transform="matrix(0.012586805555555556,0,0,0.012586805555555556,106.95008680555554,0)" xlink:href="#ae"/><use transform="matrix(0.012586805555555556,0,0,0.012586805555555556,119.63758680555554,0)" xlink:href="#H"/><use transform="matrix(0.012586805555555556,0,0,0.012586805555555556,133.89843749999997,0)" xlink:href="#I"/><use transform="matrix(0.012586805555555556,0,0,0.012586805555555556,142.97352430555551,0)" xlink:href="#ah"/><use transform="matrix(0.012586805555555556,0,0,0.012586805555555556,151.2178819444444,0)" xlink:href="#R"/><use transform="matrix(0.012586805555555556,0,0,0.012586805555555556,166.09548611111106,0)" xlink:href="#P"/></g><path d="M886-871c30-101-37-149-145-141v-86h439v86c-127-12-147 70-181 160L676 0H489L160-903c-24-68-57-114-152-109v-86h512v86c-124-19-174 64-133 174 84 228 172 444 229 695h7c82-248 190-477 263-728" id="ai"/><g id="j"><use transform="matrix(0.012586805555555556,0,0,0.012586805555555556,0,0)" xlink:href="#U"/><use transform="matrix(0.012586805555555556,0,0,0.012586805555555556,14.02170138888889,0)" xlink:href="#J"/><use transform="matrix(0.012586805555555556,0,0,0.012586805555555556,27.81684027777778,0)" xlink:href="#X"/><use transform="matrix(0.012586805555555556,0,0,0.012586805555555556,40.21484375,0)" xlink:href="#ai"/><use transform="matrix(0.012586805555555556,0,0,0.012586805555555556,55.14279513888889,0)" xlink:href="#ah"/><use transform="matrix(0.012586805555555556,0,0,0.012586805555555556,63.38715277777777,0)" xlink:href="#ae"/><use transform="matrix(0.012586805555555556,0,0,0.012586805555555556,76.07465277777777,0)" xlink:href="#J"/></g><path d="M727-1118c321 0 418 237 418 567 0 331-96 571-418 571-163 0-254-75-313-180h-13L365 0H37v-86c117 6 184-31 184-147v-1098c2-112-70-144-184-139v-86h377c-1 217 4 437-8 643h8c57-116 142-205 313-205zm219 565c0-230-32-430-254-434-242-4-278 193-278 436s40 440 280 440c221 0 252-212 252-442" id="aj"/><g id="k"><use transform="matrix(0.012586805555555556,0,0,0.012586805555555556,0,0)" xlink:href="#N"/><use transform="matrix(0.012586805555555556,0,0,0.012586805555555556,18.74175347222222,0)" xlink:href="#H"/><use transform="matrix(0.012586805555555556,0,0,0.012586805555555556,33.002604166666664,0)" xlink:href="#I"/><use transform="matrix(0.012586805555555556,0,0,0.012586805555555556,42.07769097222222,0)" xlink:href="#H"/><use transform="matrix(0.012586805555555556,0,0,0.012586805555555556,56.59027777777778,0)" xlink:href="#aj"/><use transform="matrix(0.012586805555555556,0,0,0.012586805555555556,72.41189236111111,0)" xlink:href="#H"/><use transform="matrix(0.012586805555555556,0,0,0.012586805555555556,86.92447916666667,0)" xlink:href="#ac"/><use transform="matrix(0.012586805555555556,0,0,0.012586805555555556,98.5546875,0)" xlink:href="#J"/></g><path d="M115-735c0-455 195-750 647-750 335 0 517 182 599 443 29 92 42 195 42 309 0 405-166 671-506 741 20 221 90 379 336 367v96C886 491 697 338 672 16 286-31 115-308 115-735zm647-639c-345 0-420 288-420 641S416-90 760-90s416-291 416-643c0-351-70-641-414-641" id="ak"/><path d="M674-1376c-119-7-195 23-195 139v1135h404c178-1 180-179 200-338h107L1176 0H78v-86c122 7 194-27 194-147v-996c4-120-72-154-194-147v-86h596v86" id="al"/><g id="l"><use transform="matrix(0.013671875,0,0,0.013671875,0,0)" xlink:href="#M"/><use transform="matrix(0.013671875,0,0,0.013671875,9.693359375,0)" xlink:href="#U"/><use transform="matrix(0.013671875,0,0,0.013671875,24.923828125,0)" xlink:href="#ak"/><use transform="matrix(0.013671875,0,0,0.013671875,45.705078125,0)" xlink:href="#al"/><use transform="matrix(0.013671875,0,0,0.013671875,63.150390625,0)" xlink:href="#ah"/><use transform="matrix(0.013671875,0,0,0.013671875,72.10546875,0)" xlink:href="#I"/><use transform="matrix(0.013671875,0,0,0.013671875,81.689453125,0)" xlink:href="#J"/><use transform="matrix(0.013671875,0,0,0.013671875,96.673828125,0)" xlink:href="#aa"/></g><path d="M1649-233c-4 120 72 154 194 147V0h-545v-86c102 5 154-32 154-129v-1094L983 0H872L397-1305v1072c-4 108 46 153 154 147V0H78v-86c117 6 194-21 194-137v-1014c3-115-76-146-194-139v-86h467L969-291l420-1171h454v86c-122-7-194 27-194 147v996" id="am"/><path d="M844-1331c2-112-71-145-185-139v-86h377v1331c-2 112 71 145 185 139V0H874l-22-184h-8C786-68 701 20 530 20c-321 0-417-237-417-567 0-331 95-571 417-571 163 0 254 76 314 180h12c-10-128-14-255-12-393zM563-987c-219 0-252 212-252 442 0 145 20 254 59 326s104 108 195 108c242 2 279-192 279-436s-41-440-281-440" id="an"/><g id="m"><use transform="matrix(0.012586805555555556,0,0,0.012586805555555556,0,0)" xlink:href="#am"/><use transform="matrix(0.012586805555555556,0,0,0.012586805555555556,24.17925347222222,0)" xlink:href="#J"/><use transform="matrix(0.012586805555555556,0,0,0.012586805555555556,37.974392361111114,0)" xlink:href="#an"/><use transform="matrix(0.012586805555555556,0,0,0.012586805555555556,53.79600694444444,0)" xlink:href="#ah"/><use transform="matrix(0.012586805555555556,0,0,0.012586805555555556,62.04036458333335,0)" xlink:href="#H"/></g><g id="n"><use transform="matrix(0.012586805555555556,0,0,0.012586805555555556,0,0)" xlink:href="#U"/><use transform="matrix(0.012586805555555556,0,0,0.012586805555555556,13.769965277777779,0)" xlink:href="#af"/><use transform="matrix(0.012586805555555556,0,0,0.012586805555555556,30.1328125,0)" xlink:href="#aj"/><use transform="matrix(0.012586805555555556,0,0,0.012586805555555556,45.954427083333336,0)" xlink:href="#Y"/><use transform="matrix(0.012586805555555556,0,0,0.012586805555555556,70.30989583333334,0)" xlink:href="#ah"/><use transform="matrix(0.012586805555555556,0,0,0.012586805555555556,78.55425347222223,0)" xlink:href="#ac"/><use transform="matrix(0.012586805555555556,0,0,0.012586805555555556,90.18446180555556,0)" xlink:href="#ac"/><use transform="matrix(0.012586805555555556,0,0,0.012586805555555556,101.81467013888889,0)" xlink:href="#ah"/><use transform="matrix(0.012586805555555556,0,0,0.012586805555555556,110.05902777777779,0)" xlink:href="#R"/><use transform="matrix(0.012586805555555556,0,0,0.012586805555555556,124.93663194444444,0)" xlink:href="#P"/></g><path d="M569-1012c-63 1-123 4-123 60 0 43 23 60 48 94l135 184c47-72 105-140 143-219 9-21 14-40 14-59 0-56-58-59-116-60v-86h448v86c-127-7-170 57-225 131L682-600l301 405c54 66 89 110 191 109V0H645v-86c110 6 163-43 118-118-57-95-135-185-200-275-60 87-128 167-180 261-10 19-18 42-18 68 0 62 57 62 133 64V0H10v-86c134 8 184-56 242-131l258-334-258-352c-56-60-97-113-203-109v-86h520v86" id="ao"/><g id="o"><use transform="matrix(0.012586805555555556,0,0,0.012586805555555556,0,0)" xlink:href="#V"/><use transform="matrix(0.012586805555555556,0,0,0.012586805555555556,14.764322916666668,0)" xlink:href="#J"/><use transform="matrix(0.012586805555555556,0,0,0.012586805555555556,28.559461805555557,0)" xlink:href="#ao"/><use transform="matrix(0.012586805555555556,0,0,0.012586805555555556,43.462239583333336,0)" xlink:href="#I"/></g><path d="M414-233c-4 120 72 154 194 147V0H27v-86c122 7 194-28 194-147v-1098c3-115-76-146-194-139v-86h387v1323" id="ap"/><g id="p"><use transform="matrix(0.012586805555555556,0,0,0.012586805555555556,0,0)" xlink:href="#am"/><use transform="matrix(0.012586805555555556,0,0,0.012586805555555556,24.17925347222222,0)" xlink:href="#R"/><use transform="matrix(0.012586805555555556,0,0,0.012586805555555556,39.056857638888886,0)" xlink:href="#an"/><use transform="matrix(0.012586805555555556,0,0,0.012586805555555556,54.87847222222222,0)" xlink:href="#J"/><use transform="matrix(0.012586805555555556,0,0,0.012586805555555556,68.67361111111111,0)" xlink:href="#ap"/></g><g id="q"><use transform="matrix(0.012586805555555556,0,0,0.012586805555555556,0,0)" xlink:href="#D"/><use transform="matrix(0.012586805555555556,0,0,0.012586805555555556,17.659288194444443,0)" xlink:href="#af"/><use transform="matrix(0.012586805555555556,0,0,0.012586805555555556,34.022135416666664,0)" xlink:href="#an"/><use transform="matrix(0.012586805555555556,0,0,0.012586805555555556,49.84375,0)" xlink:href="#ah"/><use transform="matrix(0.012586805555555556,0,0,0.012586805555555556,58.08810763888889,0)" xlink:href="#R"/></g><g id="r"><use transform="matrix(0.012586805555555556,0,0,0.012586805555555556,0,0)" xlink:href="#F"/><use transform="matrix(0.012586805555555556,0,0,0.012586805555555556,9.465277777777779,0)" xlink:href="#Y"/><use transform="matrix(0.012586805555555556,0,0,0.012586805555555556,33.82074652777778,0)" xlink:href="#H"/><use transform="matrix(0.012586805555555556,0,0,0.012586805555555556,48.333333333333336,0)" xlink:href="#Q"/><use transform="matrix(0.012586805555555556,0,0,0.012586805555555556,61.95225694444444,0)" xlink:href="#J"/></g><g id="s"><use transform="matrix(0.012586805555555556,0,0,0.012586805555555556,0,0)" xlink:href="#E"/><use transform="matrix(0.012586805555555556,0,0,0.012586805555555556,15.569878472222223,0)" xlink:href="#X"/><use transform="matrix(0.012586805555555556,0,0,0.012586805555555556,27.46440972222222,0)" xlink:href="#R"/><use transform="matrix(0.012586805555555556,0,0,0.012586805555555556,42.342013888888886,0)" xlink:href="#ae"/><use transform="matrix(0.012586805555555556,0,0,0.012586805555555556,55.02951388888889,0)" xlink:href="#J"/><use transform="matrix(0.012586805555555556,0,0,0.012586805555555556,68.82465277777777,0)" xlink:href="#ac"/><use transform="matrix(0.012586805555555556,0,0,0.012586805555555556,80.4548611111111,0)" xlink:href="#ac"/><use transform="matrix(0.012586805555555556,0,0,0.012586805555555556,92.08506944444443,0)" xlink:href="#J"/><use transform="matrix(0.012586805555555556,0,0,0.012586805555555556,105.88020833333331,0)" xlink:href="#an"/></g><g id="t"><use transform="matrix(0.012586805555555556,0,0,0.012586805555555556,0,0)" xlink:href="#S"/><use transform="matrix(0.012586805555555556,0,0,0.012586805555555556,16.388020833333332,0)" xlink:href="#J"/><use transform="matrix(0.012586805555555556,0,0,0.012586805555555556,30.18315972222222,0)" xlink:href="#ac"/><use transform="matrix(0.012586805555555556,0,0,0.012586805555555556,41.56163194444444,0)" xlink:href="#af"/><use transform="matrix(0.012586805555555556,0,0,0.012586805555555556,57.92447916666667,0)" xlink:href="#ap"/><use transform="matrix(0.012586805555555556,0,0,0.012586805555555556,65.91710069444444,0)" xlink:href="#I"/><use transform="matrix(0.012586805555555556,0,0,0.012586805555555556,74.9921875,0)" xlink:href="#ac"/></g><g id="u"><use transform="matrix(0.012586805555555556,0,0,0.012586805555555556,0,0)" xlink:href="#U"/><use transform="matrix(0.012586805555555556,0,0,0.012586805555555556,13.769965277777779,0)" xlink:href="#I"/><use transform="matrix(0.012586805555555556,0,0,0.012586805555555556,22.328993055555557,0)" xlink:href="#R"/><use transform="matrix(0.012586805555555556,0,0,0.012586805555555556,37.20659722222223,0)" xlink:href="#X"/><use transform="matrix(0.012586805555555556,0,0,0.012586805555555556,49.35286458333334,0)" xlink:href="#H"/><use transform="matrix(0.012586805555555556,0,0,0.012586805555555556,63.8654513888889,0)" xlink:href="#Q"/><use transform="matrix(0.012586805555555556,0,0,0.012586805555555556,77.48437500000001,0)" xlink:href="#J"/></g><g id="v"><use transform="matrix(0.012586805555555556,0,0,0.012586805555555556,0,0)" xlink:href="#M"/><use transform="matrix(0.012586805555555556,0,0,0.012586805555555556,8.92404513888889,0)" xlink:href="#E"/><use transform="matrix(0.012586805555555556,0,0,0.012586805555555556,24.493923611111114,0)" xlink:href="#R"/><use transform="matrix(0.012586805555555556,0,0,0.012586805555555556,39.371527777777786,0)" xlink:href="#ac"/><use transform="matrix(0.012586805555555556,0,0,0.012586805555555556,51.00173611111112,0)" xlink:href="#I"/><use transform="matrix(0.012586805555555556,0,0,0.012586805555555556,59.5607638888889,0)" xlink:href="#Q"/><use transform="matrix(0.012586805555555556,0,0,0.012586805555555556,73.43142361111113,0)" xlink:href="#X"/><use transform="matrix(0.012586805555555556,0,0,0.012586805555555556,85.57769097222224,0)" xlink:href="#J"/><use transform="matrix(0.012586805555555556,0,0,0.012586805555555556,99.37282986111113,0)" xlink:href="#U"/><use transform="matrix(0.012586805555555556,0,0,0.012586805555555556,113.39453125,0)" xlink:href="#ak"/><use transform="matrix(0.012586805555555556,0,0,0.012586805555555556,132.52647569444446,0)" xlink:href="#al"/><use transform="matrix(0.012586805555555556,0,0,0.012586805555555556,148.58723958333334,0)" xlink:href="#aa"/></g><g id="w"><use transform="matrix(0.012586805555555556,0,0,0.012586805555555556,0,0)" xlink:href="#W"/><use transform="matrix(0.012586805555555556,0,0,0.012586805555555556,15.20486111111111,0)" xlink:href="#ah"/><use transform="matrix(0.012586805555555556,0,0,0.012586805555555556,23.44921875,0)" xlink:href="#ap"/><use transform="matrix(0.012586805555555556,0,0,0.012586805555555556,31.44184027777778,0)" xlink:href="#J"/></g><g id="x"><use transform="matrix(0.012586805555555556,0,0,0.012586805555555556,0,0)" xlink:href="#U"/><use transform="matrix(0.012586805555555556,0,0,0.012586805555555556,13.769965277777779,0)" xlink:href="#I"/><use transform="matrix(0.012586805555555556,0,0,0.012586805555555556,22.328993055555557,0)" xlink:href="#R"/><use transform="matrix(0.012586805555555556,0,0,0.012586805555555556,37.20659722222223,0)" xlink:href="#X"/><use transform="matrix(0.012586805555555556,0,0,0.012586805555555556,49.35286458333334,0)" xlink:href="#H"/><use transform="matrix(0.012586805555555556,0,0,0.012586805555555556,63.8654513888889,0)" xlink:href="#Q"/><use transform="matrix(0.012586805555555556,0,0,0.012586805555555556,77.48437500000001,0)" xlink:href="#J"/></g><g id="y"><use transform="matrix(0.012586805555555556,0,0,0.012586805555555556,0,0)" xlink:href="#U"/><use transform="matrix(0.012586805555555556,0,0,0.012586805555555556,14.02170138888889,0)" xlink:href="#J"/><use transform="matrix(0.012586805555555556,0,0,0.012586805555555556,27.81684027777778,0)" xlink:href="#X"/><use transform="matrix(0.012586805555555556,0,0,0.012586805555555556,40.21484375,0)" xlink:href="#ai"/><use transform="matrix(0.012586805555555556,0,0,0.012586805555555556,55.14279513888889,0)" xlink:href="#ah"/><use transform="matrix(0.012586805555555556,0,0,0.012586805555555556,63.38715277777777,0)" xlink:href="#ae"/><use transform="matrix(0.012586805555555556,0,0,0.012586805555555556,76.07465277777777,0)" xlink:href="#J"/></g><g id="z"><use transform="matrix(0.012586805555555556,0,0,0.012586805555555556,0,0)" xlink:href="#M"/><use transform="matrix(0.012586805555555556,0,0,0.012586805555555556,8.92404513888889,0)" xlink:href="#am"/><use transform="matrix(0.012586805555555556,0,0,0.012586805555555556,33.103298611111114,0)" xlink:href="#J"/><use transform="matrix(0.012586805555555556,0,0,0.012586805555555556,46.8984375,0)" xlink:href="#an"/><use transform="matrix(0.012586805555555556,0,0,0.012586805555555556,62.720052083333336,0)" xlink:href="#ah"/><use transform="matrix(0.012586805555555556,0,0,0.012586805555555556,70.96440972222223,0)" xlink:href="#H"/></g><g id="A"><use transform="matrix(0.012586805555555556,0,0,0.012586805555555556,0,0)" xlink:href="#W"/><use transform="matrix(0.012586805555555556,0,0,0.012586805555555556,15.20486111111111,0)" xlink:href="#ah"/><use transform="matrix(0.012586805555555556,0,0,0.012586805555555556,23.44921875,0)" xlink:href="#ap"/><use transform="matrix(0.012586805555555556,0,0,0.012586805555555556,31.44184027777778,0)" xlink:href="#J"/><use transform="matrix(0.012586805555555556,0,0,0.012586805555555556,45.23697916666667,0)" xlink:href="#ac"/><use transform="matrix(0.012586805555555556,0,0,0.012586805555555556,56.8671875,0)" xlink:href="#aa"/></g><path d="M1505-1376c-122-7-194 27-194 147V0h-146L397-1180v947c-3 120 73 154 195 147V0H78v-86c122 7 194-27 194-147v-1004c3-115-76-146-194-139v-86h375l733 1132v-907c3-116-76-146-195-139v-86h514v86" id="aq"/><g id="B"><use transform="matrix(0.012586805555555556,0,0,0.012586805555555556,0,0)" xlink:href="#aq"/><use transform="matrix(0.012586805555555556,0,0,0.012586805555555556,19.421440972222225,0)" xlink:href="#R"/><use transform="matrix(0.012586805555555556,0,0,0.012586805555555556,34.29904513888889,0)" xlink:href="#I"/><use transform="matrix(0.012586805555555556,0,0,0.012586805555555556,43.37413194444445,0)" xlink:href="#ah"/><use transform="matrix(0.012586805555555556,0,0,0.012586805555555556,51.61848958333335,0)" xlink:href="#ad"/><use transform="matrix(0.012586805555555556,0,0,0.012586805555555556,61.13411458333335,0)" xlink:href="#ah"/><use transform="matrix(0.012586805555555556,0,0,0.012586805555555556,69.37847222222223,0)" xlink:href="#ae"/><use transform="matrix(0.012586805555555556,0,0,0.012586805555555556,82.06597222222223,0)" xlink:href="#H"/><use transform="matrix(0.012586805555555556,0,0,0.012586805555555556,96.32682291666667,0)" xlink:href="#I"/><use transform="matrix(0.012586805555555556,0,0,0.012586805555555556,105.40190972222223,0)" xlink:href="#ah"/><use transform="matrix(0.012586805555555556,0,0,0.012586805555555556,113.64626736111111,0)" xlink:href="#R"/><use transform="matrix(0.012586805555555556,0,0,0.012586805555555556,128.52387152777777,0)" xlink:href="#P"/></g><g id="C"><use transform="matrix(0.012586805555555556,0,0,0.012586805555555556,0,0)" xlink:href="#F"/><use transform="matrix(0.012586805555555556,0,0,0.012586805555555556,9.465277777777779,0)" xlink:href="#P"/><use transform="matrix(0.012586805555555556,0,0,0.012586805555555556,25.840711805555557,0)" xlink:href="#I"/><use transform="matrix(0.012586805555555556,0,0,0.012586805555555556,34.6640625,0)" xlink:href="#J"/><use transform="matrix(0.012586805555555556,0,0,0.012586805555555556,48.459201388888886,0)" xlink:href="#X"/><use transform="matrix(0.012586805555555556,0,0,0.012586805555555556,60.60546875,0)" xlink:href="#ad"/><use transform="matrix(0.012586805555555556,0,0,0.012586805555555556,70.12109375,0)" xlink:href="#H"/><use transform="matrix(0.012586805555555556,0,0,0.012586805555555556,84.63368055555556,0)" xlink:href="#ae"/><use transform="matrix(0.012586805555555556,0,0,0.012586805555555556,97.32118055555556,0)" xlink:href="#J"/></g></defs></g></svg>