<svg xmlns="http://www.w3.org/2000/svg" xmlns:xlink="http://www.w3.org/1999/xlink" xmlns:lucid="lucid" width="1749.19" height="1156.52"><g transform="translate(906.2269818422614 742.6561854817992)" lucid:page-tab-id="0_0"><path d="M314-478.66v10.06m0 10.05v20.1m0 10.06v20.1m0 10.06v20.1m0 10.06v20.1m0 10.06v20.1m0 10.05v20.1m0 10.06v20.1m0 10.05v20.1m0 10.06v20.1m0 10.06v20.1m0 10.06v20.1m0 10.06v20.1m0 10.05v20.1m0 10.06v20.1m0 10.05v20.1m0 10.05v20.1m0 10.06v20.1m0 10.06v20.1m0 10.06v20.1m0 10.05v20.1m0 10.06v20.1m0 10.05v20.1m0 10.05V225m0 10.06v20.1m0 10.06v20.1m0 10.05v20.1m0 10.06v10.05" stroke="#333" fill="none"/><path d="M314.5-478.64h-1v-.52h1z" stroke="#333" stroke-width=".05" fill="#333"/><path d="M314 335.57v.5M-88.47-478.66v9.74m0 9.73v19.48m0 9.73v19.48m0 9.73v19.48m0 9.73v19.48m0 9.73v19.48m0 9.74v19.46m0 9.74v19.46m0 9.74v19.46m0 9.74v19.47m0 9.72v19.47m0 9.72v19.47m0 9.72v19.47m0 9.72v19.47m0 9.72v19.47m0 9.72v19.47m0 9.72V-1.7m0 9.72V27.5m0 9.73v19.46m0 9.72V85.9m0 9.73v19.46m0 9.73v19.46m0 9.73v19.47m0 9.73v19.47m0 9.73v19.47m0 9.73v19.47m0 9.73v19.47m0 9.73v19.47m0 9.73v9.74" stroke="#333" fill="none"/><path d="M-87.97-478.64h-1v-.52h1z" stroke="#333" stroke-width=".05" fill="#333"/><path d="M-88.47 338.95v3.52M716.46-476.5v10.05m0 10.06v20.1m0 10.06v20.1m0 10.06v20.1m0 10.06v20.1m0 10.05v20.1m0 10.06v20.1m0 10.05v20.1m0 10.05v20.1m0 10.06v20.1m0 10.06v20.1m0 10.06v20.1m0 10.05v20.1m0 10.06v20.1m0 10.05v20.1m0 10.05v20.1m0 10.06v20.1m0 10.06v20.1m0 10.05v20.1m0 10.06v20.1m0 10.06v20.1m0 10.05v20.1m0 10.05V197m0 10.06v20.1m0 10.06v20.1m0 10.05v20.1m0 10.06v20.1m0 10.06v10.04" stroke="#333" fill="none"/><path d="M716.96-476.5h-1v-.5h1z" stroke="#333" stroke-width=".05" fill="#333"/><path d="M716.46 337.73v.5M-490.93-478.66l-.12 10.1m-.1 10.1l-.23 20.2m-.1 10.1l-.24 20.2m-.1 10.1l-.23 20.2m-.1 10.1l-.24 20.2m-.1 10.1l-.22 20.2m-.1 10.12l-.24 20.2m-.1 10.1l-.23 20.2m-.1 10.1l-.23 20.2m-.1 10.1l-.24 20.2m-.1 10.1l-.23 20.2m-.1 10.1l-.24 20.2m-.1 10.1l-.23 20.2m-.1 10.1l-.24 20.2m-.12 10.1l-.22 20.2m-.12 10.1l-.22 20.22m-.1 10.1l-.24 20.2m-.1 10.1l-.23 20.2m-.1 10.1l-.24 20.2m-.1 10.1l-.22 20.2m-.1 10.1l-.24 20.2m-.1 10.1l-.23 20.2m-.1 10.1l-.23 20.2m-.1 10.1l-.23 20.2m-.12 10.1l-.22 20.2m-.1 10.12l-.24 20.2m-.1 10.1l-.23 20.2m-.1 10.1l-.12 10.1" stroke="#333" fill="none"/><path d="M-490.43-478.64h-1v-.52h1z" stroke="#333" stroke-width=".05" fill="#333"/><path d="M-500 339.5v.5" stroke="#333" fill="none"/><path d="M-136.75 308a8 8 0 0 1 8-8h80.57a8 8 0 0 1 8 8v73.86a8 8 0 0 1-8 8h-80.57a8 8 0 0 1-8-8z" fill="none"/><path d="M-127.1 309l77.26 71.88m0-71.9l-77.25 71.9" stroke="#5d646f" stroke-width="8" fill="none"/><path d="M-596.93-714.16a8 8 0 0 1 8-8h196a8 8 0 0 1 8 8v227a8 8 0 0 1-8 8h-196a8 8 0 0 1-8-8z" stroke="#000" stroke-opacity="0" fill="#6db1ff"/><use xlink:href="#a" transform="matrix(1,0,0,1,-588.929748266238,-714.1561854817992) translate(55.61111111111111 117.05555555555556)"/><use xlink:href="#b" transform="matrix(1,0,0,1,-588.929748266238,-714.1561854817992) translate(97.98148148148148 117.05555555555556)"/><path d="M-194.47-714.16a8 8 0 0 1 8-8h196a8 8 0 0 1 8 8v227a8 8 0 0 1-8 8h-196a8 8 0 0 1-8-8z" stroke="#000" stroke-opacity="0" fill="#6db1ff"/><use xlink:href="#c" transform="matrix(1,0,0,1,-186.46684743448284,-714.1561854817992) translate(37.80864197530863 117.05555555555556)"/><use xlink:href="#d" transform="matrix(1,0,0,1,-186.46684743448284,-714.1561854817992) translate(109.90740740740742 117.05555555555556)"/><path d="M208-714.16a8 8 0 0 1 8-8h196a8 8 0 0 1 8 8v227a8 8 0 0 1-8 8H216a8 8 0 0 1-8-8z" stroke="#000" stroke-opacity="0" fill="#6db1ff"/><use xlink:href="#e" transform="matrix(1,0,0,1,215.99605339727188,-714.1561854817992) translate(61.956790123456784 117.05555555555556)"/><path d="M-818.8-664.1c0 12.33-10 22.32-22.3 22.32-12.33 0-22.32-10-22.32-22.3 0-12.33 10-22.3 22.3-22.3 12.33 0 22.32 9.97 22.32 22.3z" stroke="#333" fill="#fff"/><path d="M-841.1-641.78v55.5a28.12 28.12 0 0 0 4.2 14.8l40.4 65.27m-44.6-72.08l-44.63 72.07m0-113.27h89.23" stroke="#333" fill="none"/><path d="M-885.73-678.4a8 8 0 0 1 8-8h73.23a8 8 0 0 1 8 8v186.2a8 8 0 0 1-8 8h-73.23a8 8 0 0 1-8-8z" fill="none"/><use xlink:href="#f" transform="matrix(1,0,0,1,-965.7269818422614,-506.205591528584) translate(100.85185185185185 14.555555555555555)"/><path d="M-841.1-576.87l.02 9.86m0 9.84l.04 19.7m0 9.86l.03 19.7m0 9.86l.03 19.7m0 9.86l.03 19.7m.02 9.86l.02 19.7m0 9.86l.03 19.7m0 9.86l.04 19.7m0 9.86l.03 19.7m0 9.86l.04 19.7m0 9.86l.03 19.7m0 9.86l.04 19.7m.02 9.86l.02 19.7m.02 9.86l.02 19.7m0 9.86l.03 19.7m.03 9.86l.02 19.7m0 9.86l.03 19.7m.02 9.86l.02 19.7m0 9.86l.03 19.7m.02 9.86l.02 19.7m0 9.86l.02 19.7m.02 9.86l.02 19.7m0 9.86l.04 19.7m0 9.87l.03 19.7m0 9.85l.03 19.7m.02 9.87l.02 19.7m0 9.84l.04 19.7m0 9.87l.03 19.7m0 9.87l.04 19.7m.02 9.86l.02 19.7m0 9.86l.04 19.7m0 9.85l.02 9.85M-841.1-576.86v-3.5M-840 339.5v.5" stroke="#333" fill="none"/><path d="M-510.93-464.02a8 8 0 0 1 8-8h24a8 8 0 0 1 8 8V-188a8 8 0 0 1-8 8h-24a8 8 0 0 1-8-8z" stroke="#3a414a" stroke-width="2" fill="#fff"/><path d="M-840.4-412.34h312.1M-840.38-412.34h-.5" stroke="#3a414a" fill="none"/><path d="M-513.55-412.34l-14.26 4.64v-9.27z" stroke="#3a414a" fill="#3a414a"/><use xlink:href="#g" transform="matrix(1,0,0,1,-695.3606743359375,-437.9365049547217) translate(0.004999999999999005 14.4)"/><path d="M-8.23-412a8 8 0 0 1 8-8h224a8 8 0 0 1 8 8v44a8 8 0 0 1-8 8h-224a8 8 0 0 1-8-8z" fill="none"/><use xlink:href="#h" transform="matrix(1,0,0,1,-8.233392779106282,-420) translate(64.52500000000006 33.599999999999994)"/><use xlink:href="#i" transform="matrix(1,0,0,1,-8.233392779106282,-420) translate(116.525 33.599999999999994)"/><use xlink:href="#j" transform="matrix(1,0,0,1,-8.233392779106282,-420) translate(146.52499999999998 33.599999999999994)"/><path d="M-469.43-396h343.58" stroke="#3a414a" fill="none"/><path d="M-469.42-395.5h-.5v-1h.5z" stroke="#3a414a" stroke-width=".05" fill="#3a414a"/><path d="M-111.08-396l-14.27 4.63v-9.26z" stroke="#3a414a" fill="#3a414a"/><use xlink:href="#k" transform="matrix(1,0,0,1,-330.62134510981156,-421.60005502973036) translate(0.005000000000002558 14.399999999999984)"/><use xlink:href="#l" transform="matrix(1,0,0,1,-330.62134510981156,-421.60005502973036) translate(47.904999999999944 14.399999999999984)"/><path d="M-408.7-272a8 8 0 0 1 8-8h224a8 8 0 0 1 8 8v44a8 8 0 0 1-8 8h-224a8 8 0 0 1-8-8z" fill="none"/><use xlink:href="#m" transform="matrix(1,0,0,1,-408.6963554871315,-280) translate(69.07500000000006 33.599999999999994)"/><use xlink:href="#n" transform="matrix(1,0,0,1,-408.6963554871315,-280) translate(122.975 33.599999999999994)"/><path d="M-110.47-300h-10.33m-10.33 0h-20.66m-10.33 0h-20.66m-10.32 0h-20.67m-10.32 0h-20.66m-10.34 0h-20.66m-10.33 0h-20.68m-10.33 0h-20.67m-10.33 0h-20.67m-10.33 0h-20.66m-10.34 0h-20.66m-10.33 0h-10.33" stroke="#3a414a" stroke-width="2" fill="none"/><path d="M-109.47-299h-1.02v-2h1.03z" stroke="#3a414a" stroke-width=".05" fill="#3a414a"/><path d="M-466.7-300l14.27-4.63v9.26z" stroke="#3a414a" stroke-width="2" fill="#3a414a"/><use xlink:href="#o" transform="matrix(1,0,0,1,-357.64637376919234,-325.6000668951977) translate(0.0049999999999954525 14.399999999999984)"/><use xlink:href="#p" transform="matrix(1,0,0,1,-357.64637376919234,-325.6000668951977) translate(48.954999999999934 14.399999999999984)"/><path d="M-108.47-471.16a8 8 0 0 1 8-8h24a8 8 0 0 1 8 8V-188a8 8 0 0 1-8 8h-24a8 8 0 0 1-8-8zM294-392a8 8 0 0 1 8-8h24a8 8 0 0 1 8 8v64a8 8 0 0 1-8 8h-24a8 8 0 0 1-8-8z" stroke="#3a414a" stroke-width="2" fill="#fff"/><path d="M-109.97-229h-343.57" stroke="#3a414a" fill="none"/><path d="M-109.47-228.5h-.5v-1h.5z" stroke="#3a414a" stroke-width=".05" fill="#3a414a"/><path d="M-468.3-229l14.26-4.63v9.26z" stroke="#3a414a" fill="#3a414a"/><path d="M-539.2-352a8 8 0 0 1 8-8h84a8 8 0 0 1 8 8v4.93a17.07 17.07 0 0 1-5 12.07 17.07 17.07 0 0 1-12.08 5h-74.93a8 8 0 0 1-8-8z" fill="#fff"/><path d="M-439.2-360v20l-10 10h-90" stroke="#3a414a" stroke-width="2" fill="none"/><path d="M-539.2-352a8 8 0 0 1 8-8H-68a8 8 0 0 1 8 8v144a8 8 0 0 1-8 8h-463.2a8 8 0 0 1-8-8zM-539.2-275h20m15 0h20m15 0h20m15 0h20m15 0h20m15 0h20m15 0h20m15 0h20m15 0h20m15 0h20m15 0h20m15 0h20m15 0h20m15 0h20" stroke="#3a414a" stroke-width="2" fill="none"/><use xlink:href="#q" transform="matrix(1,0,0,1,-531.209250377822,-360) translate(24.02500000000002 18.599999999999994)"/><use xlink:href="#r" transform="matrix(1,0,0,1,-527.209250377822,-322) translate(17.55000000000003 18.599999999999994)"/><use xlink:href="#s" transform="matrix(1,0,0,1,-527.209250377822,-322) translate(31.50000000000001 18.599999999999994)"/><use xlink:href="#t" transform="matrix(1,0,0,1,-527.209250377822,-267) translate(17.525000000000027 18.599999999999994)"/><path d="M-66.97-375.96H276.6" stroke="#3a414a" fill="none"/><path d="M-66.95-375.46h-.52v-1h.52z" stroke="#3a414a" stroke-width=".05" fill="#3a414a"/><path d="M291.38-375.96l-14.27 4.63v-9.27z" stroke="#3a414a" fill="#3a414a"/><path d="M292.5-351h-5m-5 0h-9.97m-5 0h-9.98m-5 0h-9.98m-5 0h-9.97m-5 0h-9.98m-5 0h-9.98m-5 0h-9.98m-5 0h-9.97m-5 0h-10m-5 0h-9.97m-5 0h-9.98m-5 0h-9.95m-4.96 0H92.9m-4.96 0H78m-4.95 0h-9.93m-4.97 0h-9.93m-4.96 0h-9.93m-4.97 0h-9.93m-4.96 0H3.53m-4.96 0h-9.93m-4.96 0h-9.93m-4.97 0h-9.93m-4.97 0h-4.96" stroke="#3a414a" fill="none"/><path d="M293-350.5h-.5v-1h.5z" stroke="#3a414a" stroke-width=".05" fill="#3a414a"/><path d="M-65.85-351l14.27-4.63v9.26z" stroke="#3a414a" fill="#3a414a"/><path d="M-8.23-354a6 6 0 0 1 6-6h228a6 6 0 0 1 6 6v48a6 6 0 0 1-6 6h-228a6 6 0 0 1-6-6z" fill="none"/><use xlink:href="#u" transform="matrix(1,0,0,1,-8.233392779106282,-360) translate(42.56790123456793 33.55555555555556)"/><use xlink:href="#v" transform="matrix(1,0,0,1,-8.233392779106282,-360) translate(93.82716049382717 33.55555555555556)"/><use xlink:href="#w" transform="matrix(1,0,0,1,-8.233392779106282,-360) translate(168.8395061728395 33.55555555555556)"/><path d="M-840-91.5H679.06M-840-91.5h-.5" stroke="#3a414a" fill="none"/><path d="M693.84-91.5l-14.26 4.65v-9.27z" stroke="#3a414a" fill="#3a414a"/><use xlink:href="#x" transform="matrix(1,0,0,1,-69.97590160173539,-116.82227796407112) translate(0 14.222222222222223)"/><use xlink:href="#y" transform="matrix(1,0,0,1,-69.97590160173539,-116.82227796407112) translate(51.35802469135803 14.222222222222223)"/><use xlink:href="#z" transform="matrix(1,0,0,1,-69.97590160173539,-116.82227796407112) translate(125.33333333333334 14.222222222222223)"/><path d="M694.96-64.5H-51.08" stroke="#3a414a" fill="none"/><path d="M695.46-64h-.5v-1h.5z" stroke="#3a414a" stroke-width=".05" fill="#3a414a"/><path d="M-65.85-64.5l14.27-4.64v9.28z" stroke="#3a414a" fill="#3a414a"/><use xlink:href="#A" transform="matrix(1,0,0,1,230.17084581801439,-60.49925052313981) translate(0 14.222222222222223)"/><use xlink:href="#B" transform="matrix(1,0,0,1,230.17084581801439,-60.49925052313981) translate(32.592592592592595 14.222222222222223)"/><use xlink:href="#C" transform="matrix(1,0,0,1,230.17084581801439,-60.49925052313981) translate(86.81481481481482 14.222222222222223)"/><use xlink:href="#z" transform="matrix(1,0,0,1,230.17084581801439,-60.49925052313981) translate(112.44444444444446 14.222222222222223)"/><path d="M50.93-24.93h-138.9v-1h138.9zm225.68-1.3h-123v-1h123z" stroke="#3a414a" stroke-width=".05" fill="#3a414a"/><path d="M-87.95-24.93h-.52v-1h.52z" stroke="#3a414a" stroke-width=".05" fill="#3a414a"/><path d="M291.38-26.72l-14.27 4.64v-9.28z" fill="#3a414a"/><path d="M293-26.72l-16.4 5.32v-10.64zm-15.4 3.95l12.16-3.95-12.15-3.95z" stroke="#3a414a" stroke-width=".05" fill="#3a414a"/><use xlink:href="#D" transform="matrix(1,0,0,1,50.933250909960286,-36.739778165463946) translate(0 14.222222222222223)"/><use xlink:href="#E" transform="matrix(1,0,0,1,50.933250909960286,-36.739778165463946) translate(43.45679012345679 14.222222222222223)"/><path d="M314.5 2.07h4.88m4.87 0H334m4.9 0h9.74m4.88 0h9.75m4.88 0h9.76m4.9 0h9.74m4.88 0h9.75m4.88 0h9.76m4.9 0h9.74m4.88 0h9.75m4.88 0h9.76m4.88 0h9.76m4.88 0h9.75m4.88 0H509.57m4.85 0h9.68m4.85 0h9.68m4.84 0h9.7m4.83 0h9.7m4.83 0h9.7m4.83 0h9.7m4.83 0h9.67m4.85 0h9.68m4.85 0h9.68m4.85 0h9.68m4.85 0h9.7m4.83 0h4.85M314.5 2.07h-.5" stroke="#3a414a" fill="none"/><path d="M693.84 2.07L679.58 6.7v-9.27z" stroke="#3a414a" fill="#3a414a"/><g><use xlink:href="#F" transform="matrix(1,0,0,1,451.4949268901588,-23.266383096164006) translate(0 14.222222222222223)"/><use xlink:href="#z" transform="matrix(1,0,0,1,451.4949268901588,-23.266383096164006) translate(51.25925925925927 14.222222222222223)"/></g><path d="M679.5 40h-4.97m-4.96 0h-9.93m-4.97 0h-9.93m-4.96 0h-9.93m-4.97 0h-9.93M610 40h-9.94m-4.97 0h-9.94m-4.96 0h-9.94m-4.96 0h-9.93m-4.97 0h-9.93m-4.96 0h-9.92m-4.97 0h-9.92m-4.96 0h-9.93m-4.98 0h-9.93m-4.97 0H466m-4.97 0h-9.93m-4.97 0h-9.93m-4.96 0h-9.93m-4.96 0h-9.93m-4.95 0h-9.93m-4.97 0h-9.93m-4.96 0h-9.93m-4.97 0h-9.93m-4.96 0h-9.94m-4.96 0h-9.93m-4.97 0h-9.93m-4.96 0h-9.93m-4.97 0h-9.93m-4.96 0h-9.94m-4.97 0h-9.94m-4.96 0h-9.94m-4.96 0h-9.93m-4.97 0h-9.93m-4.96 0H183M178 40h-9.92m-4.96 0h-9.93m-4.98 0h-9.93m-4.97 0h-9.93m-4.97 0h-9.93m-4.97 0H93.6m-4.96 0H78.7m-4.96 0H63.8m-4.95 0h-9.93m-4.97 0h-9.93m-4.96 0h-9.93m-4.97 0H4.23m-4.97 0h-9.93m-4.96 0h-9.93m-4.97 0h-9.93m-4.96 0h-9.93m-4.97 0h-9.93m-4.96 0H-85.15m-4.95 0h-9.9m-4.97 0h-9.92m-4.95 0h-9.9m-4.97 0h-9.92m-4.96 0h-9.92m-4.95 0h-9.92m-4.95 0h-9.92m-4.96 0h-9.9m-4.97 0h-9.92m-4.96 0h-9.92m-4.95 0h-9.92m-4.96 0h-9.92m-4.96 0h-9.92m-4.96 0h-9.92m-4.96 0h-9.9m-4.97 0h-9.92m-4.96 0h-9.93m-4.96 0h-9.9m-4.96 0h-9.92m-4.96 0h-9.9m-4.97 0h-9.93m-4.96 0h-9.9m-4.96 0h-9.92m-4.96 0h-9.92m-4.96 0h-9.9m-4.97 0h-9.9m-4.97 0h-9.92m-4.94 0h-9.92m-4.96 0h-9.92m-4.96 0h-9.9m-4.97 0h-9.92m-4.95 0h-9.9m-4.97 0h-9.92m-4.96 0h-9.92m-4.96 0h-9.9m-4.97 0h-9.92m-4.96 0h-9.9m-4.97 0h-9.92m-4.96 0h-9.92m-4.95 0h-9.92m-4.96 0h-9.92m-4.96 0h-9.92m-4.96 0h-9.92m-4.96 0h-9.9m-4.97 0h-9.92m-4.96 0h-9.93m-4.96 0h-9.9m-4.96 0h-9.92m-4.96 0h-9.9m-4.97 0h-4.97M679.5 40h.5" stroke="#3a414a" fill="none"/><path d="M-838.74 40l14.27-4.63v9.27z" stroke="#3a414a" fill="#3a414a"/><g><use xlink:href="#G" transform="matrix(1,0,0,1,-163.5114967798211,44) translate(0 14.222222222222223)"/><use xlink:href="#H" transform="matrix(1,0,0,1,-163.5114967798211,44) translate(46.370370370370374 14.222222222222223)"/><use xlink:href="#I" transform="matrix(1,0,0,1,-163.5114967798211,44) translate(120.3456790123457 14.222222222222223)"/></g><path d="M610.46-712a8 8 0 0 1 8-8h196a8 8 0 0 1 8 8v227a8 8 0 0 1-8 8h-196a8 8 0 0 1-8-8z" stroke="#000" stroke-opacity="0" fill="#6db1ff"/><g><use xlink:href="#J" transform="matrix(1,0,0,1,618.4589542290266,-712) translate(50.17901234567901 117.05555555555556)"/><use xlink:href="#b" transform="matrix(1,0,0,1,618.4589542290266,-712) translate(103.41358024691358 117.05555555555556)"/></g><path d="M696.46-172a8 8 0 0 1 8-8h24a8 8 0 0 1 8 8v304a8 8 0 0 1-8 8h-24a8 8 0 0 1-8-8z" stroke="#3a414a" stroke-width="2" fill="#fff"/><path d="M-494.24-134.72l1173.32-5.2M-494.23-134.72h-.5" stroke="#3a414a" fill="none"/><path d="M693.84-140l-14.24 4.7-.04-9.26z" stroke="#3a414a" fill="#3a414a"/><g><use xlink:href="#K" transform="matrix(1,0,0,1,-442.22348661599756,-160.7289713946238) translate(0 14.222222222222223)"/><use xlink:href="#L" transform="matrix(1,0,0,1,-442.22348661599756,-160.7289713946238) translate(70.02469135802471 14.222222222222223)"/><use xlink:href="#M" transform="matrix(1,0,0,1,-442.22348661599756,-160.7289713946238) translate(91.65432098765434 14.222222222222223)"/><use xlink:href="#N" transform="matrix(1,0,0,1,-442.22348661599756,-160.7289713946238) translate(148.83950617283955 14.222222222222223)"/></g><path d="M-510.93-152a8 8 0 0 1 8-8h24a8 8 0 0 1 8 8v28.33a8 8 0 0 1-8 8h-24a8 8 0 0 1-8-8zM294-32a8 8 0 0 1 8-8h24a8 8 0 0 1 8 8V1.17a8 8 0 0 1-8 8h-24a8 8 0 0 1-8-8zM-108.47-72a8 8 0 0 1 8-8h24a8 8 0 0 1 8 8v44a8 8 0 0 1-8 8h-24a8 8 0 0 1-8-8z" stroke="#3a414a" stroke-width="2" fill="#fff"/><defs><path fill="#333" d="M24 0v-261h32V0H24" id="O"/><path fill="#333" d="M100-194c62-1 85 37 85 99 1 63-27 99-86 99S16-35 15-95c0-66 28-99 85-99zM99-20c44 1 53-31 53-75 0-43-8-75-51-75s-53 32-53 75 10 74 51 75" id="P"/><path fill="#333" d="M177-190C167-65 218 103 67 71c-23-6-38-20-44-43l32-5c15 47 100 32 89-28v-30C133-14 115 1 83 1 29 1 15-40 15-95c0-56 16-97 71-98 29-1 48 16 59 35 1-10 0-23 2-32h30zM94-22c36 0 50-32 50-73 0-42-14-75-50-75-39 0-46 34-46 75s6 73 46 73" id="Q"/><path fill="#333" d="M24-231v-30h32v30H24zM24 0v-190h32V0H24" id="R"/><path fill="#333" d="M117-194c89-4 53 116 60 194h-32v-121c0-31-8-49-39-48C34-167 62-67 57 0H25l-1-190h30c1 10-1 24 2 32 11-22 29-35 61-36" id="S"/><g id="a"><use transform="matrix(0.04938271604938272,0,0,0.04938271604938272,0,0)" xlink:href="#O"/><use transform="matrix(0.04938271604938272,0,0,0.04938271604938272,3.901234567901235,0)" xlink:href="#P"/><use transform="matrix(0.04938271604938272,0,0,0.04938271604938272,13.777777777777779,0)" xlink:href="#Q"/><use transform="matrix(0.04938271604938272,0,0,0.04938271604938272,23.654320987654323,0)" xlink:href="#R"/><use transform="matrix(0.04938271604938272,0,0,0.04938271604938272,27.555555555555557,0)" xlink:href="#S"/><path fill="#333" d="M-.9 1.23h44.16v1.3H-.9z"/></g><path fill="#333" d="M115-194c55 1 70 41 70 98S169 2 115 4C84 4 66-9 55-30l1 105H24l-1-265h31l2 30c10-21 28-34 59-34zm-8 174c40 0 45-34 45-75s-6-73-45-74c-42 0-51 32-51 76 0 43 10 73 51 73" id="T"/><path fill="#333" d="M141-36C126-15 110 5 73 4 37 3 15-17 15-53c-1-64 63-63 125-63 3-35-9-54-41-54-24 1-41 7-42 31l-33-3c5-37 33-52 76-52 45 0 72 20 72 64v82c-1 20 7 32 28 27v20c-31 9-61-2-59-35zM48-53c0 20 12 33 32 33 41-3 63-29 60-74-43 2-92-5-92 41" id="U"/><path fill="#333" d="M100-194c63 0 86 42 84 106H49c0 40 14 67 53 68 26 1 43-12 49-29l28 8c-11 28-37 45-77 45C44 4 14-33 15-96c1-61 26-98 85-98zm52 81c6-60-76-77-97-28-3 7-6 17-6 28h103" id="V"/><g id="b"><use transform="matrix(0.04938271604938272,0,0,0.04938271604938272,0,0)" xlink:href="#T"/><use transform="matrix(0.04938271604938272,0,0,0.04938271604938272,9.876543209876544,0)" xlink:href="#U"/><use transform="matrix(0.04938271604938272,0,0,0.04938271604938272,19.75308641975309,0)" xlink:href="#S"/><use transform="matrix(0.04938271604938272,0,0,0.04938271604938272,29.629629629629633,0)" xlink:href="#V"/><use transform="matrix(0.04938271604938272,0,0,0.04938271604938272,39.50617283950618,0)" xlink:href="#O"/><path fill="#333" d="M-.9 1.23h45.2v1.3H-.9z"/></g><path fill="#333" d="M115-194c53 0 69 39 70 98 0 66-23 100-70 100C84 3 66-7 56-30L54 0H23l1-261h32v101c10-23 28-34 59-34zm-8 174c40 0 45-34 45-75 0-40-5-75-45-74-42 0-51 32-51 76 0 43 10 73 51 73" id="W"/><path fill="#333" d="M96-169c-40 0-48 33-48 73s9 75 48 75c24 0 41-14 43-38l32 2c-6 37-31 61-74 61-59 0-76-41-82-99-10-93 101-131 147-64 4 7 5 14 7 22l-32 3c-4-21-16-35-41-35" id="X"/><path fill="#333" d="M143 0L79-87 56-68V0H24v-261h32v163l83-92h37l-77 82L181 0h-38" id="Y"/><path fill="#333" d="M85-194c31 0 48 13 60 33l-1-100h32l1 261h-30c-2-10 0-23-3-31C134-8 116 4 85 4 32 4 16-35 15-94c0-66 23-100 70-100zm9 24c-40 0-46 34-46 75 0 40 6 74 45 74 42 0 51-32 51-76 0-42-9-74-50-73" id="Z"/><g id="c"><use transform="matrix(0.04938271604938272,0,0,0.04938271604938272,0,0)" xlink:href="#W"/><use transform="matrix(0.04938271604938272,0,0,0.04938271604938272,9.876543209876544,0)" xlink:href="#U"/><use transform="matrix(0.04938271604938272,0,0,0.04938271604938272,19.75308641975309,0)" xlink:href="#X"/><use transform="matrix(0.04938271604938272,0,0,0.04938271604938272,28.641975308641978,0)" xlink:href="#Y"/><use transform="matrix(0.04938271604938272,0,0,0.04938271604938272,37.53086419753087,0)" xlink:href="#V"/><use transform="matrix(0.04938271604938272,0,0,0.04938271604938272,47.40740740740741,0)" xlink:href="#S"/><use transform="matrix(0.04938271604938272,0,0,0.04938271604938272,57.283950617283956,0)" xlink:href="#Z"/><path fill="#333" d="M-.9 1.23H73v1.3H-.9z"/></g><path fill="#333" d="M135-143c-3-34-86-38-87 0 15 53 115 12 119 90S17 21 10-45l28-5c4 36 97 45 98 0-10-56-113-15-118-90-4-57 82-63 122-42 12 7 21 19 24 35" id="aa"/><path fill="#333" d="M114-163C36-179 61-72 57 0H25l-1-190h30c1 12-1 29 2 39 6-27 23-49 58-41v29" id="ab"/><path fill="#333" d="M108 0H70L1-190h34L89-25l56-165h34" id="ac"/><g id="d"><use transform="matrix(0.04938271604938272,0,0,0.04938271604938272,0,0)" xlink:href="#aa"/><use transform="matrix(0.04938271604938272,0,0,0.04938271604938272,8.88888888888889,0)" xlink:href="#V"/><use transform="matrix(0.04938271604938272,0,0,0.04938271604938272,18.765432098765434,0)" xlink:href="#ab"/><use transform="matrix(0.04938271604938272,0,0,0.04938271604938272,24.641975308641978,0)" xlink:href="#ac"/><use transform="matrix(0.04938271604938272,0,0,0.04938271604938272,33.53086419753087,0)" xlink:href="#V"/><use transform="matrix(0.04938271604938272,0,0,0.04938271604938272,43.40740740740741,0)" xlink:href="#ab"/><path fill="#333" d="M-.9 1.23h51.07v1.3H-.9z"/></g><path fill="#333" d="M59-47c-2 24 18 29 38 22v24C64 9 27 4 27-40v-127H5v-23h24l9-43h21v43h35v23H59v120" id="ad"/><g id="e"><use transform="matrix(0.04938271604938272,0,0,0.04938271604938272,0,0)" xlink:href="#Z"/><use transform="matrix(0.04938271604938272,0,0,0.04938271604938272,9.876543209876544,0)" xlink:href="#U"/><use transform="matrix(0.04938271604938272,0,0,0.04938271604938272,19.75308641975309,0)" xlink:href="#ad"/><use transform="matrix(0.04938271604938272,0,0,0.04938271604938272,24.69135802469136,0)" xlink:href="#U"/><use transform="matrix(0.04938271604938272,0,0,0.04938271604938272,34.567901234567906,0)" xlink:href="#W"/><use transform="matrix(0.04938271604938272,0,0,0.04938271604938272,44.44444444444445,0)" xlink:href="#U"/><use transform="matrix(0.04938271604938272,0,0,0.04938271604938272,54.320987654320994,0)" xlink:href="#aa"/><use transform="matrix(0.04938271604938272,0,0,0.04938271604938272,63.20987654320988,0)" xlink:href="#V"/><path fill="#333" d="M-.9 1.23h74.87v1.3H-.9z"/></g><path fill="#3a414a" d="M141-36C126-15 110 5 73 4 37 3 15-17 15-53c-1-64 63-63 125-63 3-35-9-54-41-54-24 1-41 7-42 31l-33-3c5-37 33-52 76-52 45 0 72 20 72 64v82c-1 20 7 32 28 27v20c-31 9-61-2-59-35zM48-53c0 20 12 33 32 33 41-3 63-29 60-74-43 2-92-5-92 41" id="ae"/><path fill="#3a414a" d="M85-194c31 0 48 13 60 33l-1-100h32l1 261h-30c-2-10 0-23-3-31C134-8 116 4 85 4 32 4 16-35 15-94c0-66 23-100 70-100zm9 24c-40 0-46 34-46 75 0 40 6 74 45 74 42 0 51-32 51-76 0-42-9-74-50-73" id="af"/><path fill="#3a414a" d="M210-169c-67 3-38 105-44 169h-31v-121c0-29-5-50-35-48C34-165 62-65 56 0H25l-1-190h30c1 10-1 24 2 32 10-44 99-50 107 0 11-21 27-35 58-36 85-2 47 119 55 194h-31v-121c0-29-5-49-35-48" id="ag"/><path fill="#3a414a" d="M24-231v-30h32v30H24zM24 0v-190h32V0H24" id="ah"/><path fill="#3a414a" d="M117-194c89-4 53 116 60 194h-32v-121c0-31-8-49-39-48C34-167 62-67 57 0H25l-1-190h30c1 10-1 24 2 32 11-22 29-35 61-36" id="ai"/><g id="f"><use transform="matrix(0.04938271604938272,0,0,0.04938271604938272,0,0)" xlink:href="#ae"/><use transform="matrix(0.04938271604938272,0,0,0.04938271604938272,9.876543209876544,0)" xlink:href="#af"/><use transform="matrix(0.04938271604938272,0,0,0.04938271604938272,19.75308641975309,0)" xlink:href="#ag"/><use transform="matrix(0.04938271604938272,0,0,0.04938271604938272,34.51851851851852,0)" xlink:href="#ah"/><use transform="matrix(0.04938271604938272,0,0,0.04938271604938272,38.41975308641975,0)" xlink:href="#ai"/></g><path fill="#3a414a" d="M24 0v-261h32V0H24" id="aj"/><path fill="#3a414a" d="M100-194c62-1 85 37 85 99 1 63-27 99-86 99S16-35 15-95c0-66 28-99 85-99zM99-20c44 1 53-31 53-75 0-43-8-75-51-75s-53 32-53 75 10 74 51 75" id="ak"/><path fill="#3a414a" d="M177-190C167-65 218 103 67 71c-23-6-38-20-44-43l32-5c15 47 100 32 89-28v-30C133-14 115 1 83 1 29 1 15-40 15-95c0-56 16-97 71-98 29-1 48 16 59 35 1-10 0-23 2-32h30zM94-22c36 0 50-32 50-73 0-42-14-75-50-75-39 0-46 34-46 75s6 73 46 73" id="al"/><g id="g"><use transform="matrix(0.05,0,0,0.05,0,0)" xlink:href="#aj"/><use transform="matrix(0.05,0,0,0.05,3.95,0)" xlink:href="#ak"/><use transform="matrix(0.05,0,0,0.05,13.949999999999998,0)" xlink:href="#al"/><use transform="matrix(0.05,0,0,0.05,23.95,0)" xlink:href="#ah"/><use transform="matrix(0.05,0,0,0.05,27.899999999999995,0)" xlink:href="#ai"/></g><path fill="#3a414a" d="M96-169c-40 0-48 33-48 73s9 75 48 75c24 0 41-14 43-38l32 2c-6 37-31 61-74 61-59 0-76-41-82-99-10-93 101-131 147-64 4 7 5 14 7 22l-32 3c-4-21-16-35-41-35" id="am"/><path fill="#3a414a" d="M106-169C34-169 62-67 57 0H25v-261h32l-1 103c12-21 28-36 61-36 89 0 53 116 60 194h-32v-121c2-32-8-49-39-48" id="an"/><path fill="#3a414a" d="M100-194c63 0 86 42 84 106H49c0 40 14 67 53 68 26 1 43-12 49-29l28 8c-11 28-37 45-77 45C44 4 14-33 15-96c1-61 26-98 85-98zm52 81c6-60-76-77-97-28-3 7-6 17-6 28h103" id="ao"/><path fill="#3a414a" d="M143 0L79-87 56-68V0H24v-261h32v163l83-92h37l-77 82L181 0h-38" id="ap"/><g id="h"><use transform="matrix(0.04999999999999994,0,0,0.04999999999999994,0,0)" xlink:href="#am"/><use transform="matrix(0.04999999999999994,0,0,0.04999999999999994,8.99999999999999,0)" xlink:href="#an"/><use transform="matrix(0.04999999999999994,0,0,0.04999999999999994,18.99999999999998,0)" xlink:href="#ao"/><use transform="matrix(0.04999999999999994,0,0,0.04999999999999994,28.999999999999964,0)" xlink:href="#am"/><use transform="matrix(0.04999999999999994,0,0,0.04999999999999994,37.99999999999996,0)" xlink:href="#ap"/></g><path fill="#3a414a" d="M59-47c-2 24 18 29 38 22v24C64 9 27 4 27-40v-127H5v-23h24l9-43h21v43h35v23H59v120" id="aq"/><g id="i"><use transform="matrix(0.04999999999999994,0,0,0.04999999999999994,0,0)" xlink:href="#aq"/><use transform="matrix(0.04999999999999994,0,0,0.04999999999999994,4.999999999999994,0)" xlink:href="#an"/><use transform="matrix(0.04999999999999994,0,0,0.04999999999999994,14.999999999999982,0)" xlink:href="#ao"/></g><path fill="#3a414a" d="M101-234c-31-9-42 10-38 44h38v23H63V0H32v-167H5v-23h27c-7-52 17-82 69-68v24" id="ar"/><g id="j"><use transform="matrix(0.04999999999999994,0,0,0.04999999999999994,0,0)" xlink:href="#ah"/><use transform="matrix(0.04999999999999994,0,0,0.04999999999999994,3.9499999999999953,0)" xlink:href="#ai"/><use transform="matrix(0.04999999999999994,0,0,0.04999999999999994,13.949999999999983,0)" xlink:href="#ar"/><use transform="matrix(0.04999999999999994,0,0,0.04999999999999994,18.949999999999978,0)" xlink:href="#ak"/></g><path fill="#3a414a" d="M108 0H70L1-190h34L89-25l56-165h34" id="as"/><path fill="#3a414a" d="M114-163C36-179 61-72 57 0H25l-1-190h30c1 12-1 29 2 39 6-27 23-49 58-41v29" id="at"/><path d="M24-231v-30h32v30H24zM24 0v-190h32V0H24" id="au"/><path d="M101-234c-31-9-42 10-38 44h38v23H63V0H32v-167H5v-23h27c-7-52 17-82 69-68v24" id="av"/><path d="M179-190L93 31C79 59 56 82 12 73V49c39 6 53-20 64-50L1-190h34L92-34l54-156h33" id="aw"/><g id="k"><use transform="matrix(0.04999999999999994,0,0,0.04999999999999994,0,0)" xlink:href="#as"/><use transform="matrix(0.04999999999999994,0,0,0.04999999999999994,8.99999999999999,0)" xlink:href="#ao"/><use transform="matrix(0.04999999999999994,0,0,0.04999999999999994,18.99999999999998,0)" xlink:href="#at"/><use transform="matrix(0.04999999999999994,0,0,0.04999999999999994,24.94999999999997,0)" xlink:href="#au"/><use transform="matrix(0.04999999999999994,0,0,0.04999999999999994,28.899999999999967,0)" xlink:href="#av"/><use transform="matrix(0.04999999999999994,0,0,0.04999999999999994,33.89999999999996,0)" xlink:href="#aw"/></g><path d="M117-194c89-4 53 116 60 194h-32v-121c0-31-8-49-39-48C34-167 62-67 57 0H25l-1-190h30c1 10-1 24 2 32 11-22 29-35 61-36" id="ax"/><path d="M100-194c62-1 85 37 85 99 1 63-27 99-86 99S16-35 15-95c0-66 28-99 85-99zM99-20c44 1 53-31 53-75 0-43-8-75-51-75s-53 32-53 75 10 74 51 75" id="ay"/><path d="M33 0v-38h34V0H33" id="az"/><g id="l"><use transform="matrix(0.04999999999999994,0,0,0.04999999999999994,0,0)" xlink:href="#au"/><use transform="matrix(0.04999999999999994,0,0,0.04999999999999994,3.9499999999999953,0)" xlink:href="#ax"/><use transform="matrix(0.04999999999999994,0,0,0.04999999999999994,13.949999999999983,0)" xlink:href="#av"/><use transform="matrix(0.04999999999999994,0,0,0.04999999999999994,18.949999999999978,0)" xlink:href="#ay"/><use transform="matrix(0.04999999999999994,0,0,0.04999999999999994,28.949999999999964,0)" xlink:href="#az"/></g><path fill="#3a414a" d="M206 0h-36l-40-164L89 0H53L-1-190h32L70-26l43-164h34l41 164 42-164h31" id="aA"/><g id="m"><use transform="matrix(0.04999999999999994,0,0,0.04999999999999994,0,0)" xlink:href="#aA"/><use transform="matrix(0.04999999999999994,0,0,0.04999999999999994,12.949999999999985,0)" xlink:href="#at"/><use transform="matrix(0.04999999999999994,0,0,0.04999999999999994,18.899999999999977,0)" xlink:href="#ak"/><use transform="matrix(0.04999999999999994,0,0,0.04999999999999994,28.899999999999967,0)" xlink:href="#ai"/><use transform="matrix(0.04999999999999994,0,0,0.04999999999999994,38.89999999999995,0)" xlink:href="#al"/></g><path fill="#3a414a" d="M115-194c55 1 70 41 70 98S169 2 115 4C84 4 66-9 55-30l1 105H24l-1-265h31l2 30c10-21 28-34 59-34zm-8 174c40 0 45-34 45-75s-6-73-45-74c-42 0-51 32-51 76 0 43 10 73 51 73" id="aB"/><path fill="#3a414a" d="M84 4C-5 8 30-112 23-190h32v120c0 31 7 50 39 49 72-2 45-101 50-169h31l1 190h-30c-1-10 1-25-2-33-11 22-28 36-60 37" id="aC"/><path fill="#3a414a" d="M135-143c-3-34-86-38-87 0 15 53 115 12 119 90S17 21 10-45l28-5c4 36 97 45 98 0-10-56-113-15-118-90-4-57 82-63 122-42 12 7 21 19 24 35" id="aD"/><g id="n"><use transform="matrix(0.04999999999999994,0,0,0.04999999999999994,0,0)" xlink:href="#ah"/><use transform="matrix(0.04999999999999994,0,0,0.04999999999999994,3.9499999999999953,0)" xlink:href="#ai"/><use transform="matrix(0.04999999999999994,0,0,0.04999999999999994,13.949999999999983,0)" xlink:href="#aB"/><use transform="matrix(0.04999999999999994,0,0,0.04999999999999994,23.94999999999997,0)" xlink:href="#aC"/><use transform="matrix(0.04999999999999994,0,0,0.04999999999999994,33.94999999999996,0)" xlink:href="#aq"/><use transform="matrix(0.04999999999999994,0,0,0.04999999999999994,38.94999999999995,0)" xlink:href="#aD"/></g><path fill="#3a414a" d="M30 0v-248h33v221h125V0H30" id="aE"/><g id="o"><use transform="matrix(0.04999999999999994,0,0,0.04999999999999994,0,0)" xlink:href="#aE"/><use transform="matrix(0.04999999999999994,0,0,0.04999999999999994,9.999999999999988,0)" xlink:href="#ak"/><use transform="matrix(0.04999999999999994,0,0,0.04999999999999994,19.999999999999975,0)" xlink:href="#al"/><use transform="matrix(0.04999999999999994,0,0,0.04999999999999994,29.999999999999964,0)" xlink:href="#ah"/><use transform="matrix(0.04999999999999994,0,0,0.04999999999999994,33.94999999999996,0)" xlink:href="#ai"/></g><path d="M185-189c-5-48-123-54-124 2 14 75 158 14 163 119 3 78-121 87-175 55-17-10-28-26-33-46l33-7c5 56 141 63 141-1 0-78-155-14-162-118-5-82 145-84 179-34 5 7 8 16 11 25" id="aF"/><path d="M84 4C-5 8 30-112 23-190h32v120c0 31 7 50 39 49 72-2 45-101 50-169h31l1 190h-30c-1-10 1-25-2-33-11 22-28 36-60 37" id="aG"/><path d="M96-169c-40 0-48 33-48 73s9 75 48 75c24 0 41-14 43-38l32 2c-6 37-31 61-74 61-59 0-76-41-82-99-10-93 101-131 147-64 4 7 5 14 7 22l-32 3c-4-21-16-35-41-35" id="aH"/><path d="M100-194c63 0 86 42 84 106H49c0 40 14 67 53 68 26 1 43-12 49-29l28 8c-11 28-37 45-77 45C44 4 14-33 15-96c1-61 26-98 85-98zm52 81c6-60-76-77-97-28-3 7-6 17-6 28h103" id="aI"/><path d="M135-143c-3-34-86-38-87 0 15 53 115 12 119 90S17 21 10-45l28-5c4 36 97 45 98 0-10-56-113-15-118-90-4-57 82-63 122-42 12 7 21 19 24 35" id="aJ"/><path d="M24 0v-261h32V0H24" id="aK"/><g id="p"><use transform="matrix(0.04999999999999994,0,0,0.04999999999999994,0,0)" xlink:href="#aF"/><use transform="matrix(0.04999999999999994,0,0,0.04999999999999994,11.999999999999986,0)" xlink:href="#aG"/><use transform="matrix(0.04999999999999994,0,0,0.04999999999999994,21.99999999999997,0)" xlink:href="#aH"/><use transform="matrix(0.04999999999999994,0,0,0.04999999999999994,30.999999999999964,0)" xlink:href="#aH"/><use transform="matrix(0.04999999999999994,0,0,0.04999999999999994,39.99999999999995,0)" xlink:href="#aI"/><use transform="matrix(0.04999999999999994,0,0,0.04999999999999994,49.999999999999936,0)" xlink:href="#aJ"/><use transform="matrix(0.04999999999999994,0,0,0.04999999999999994,58.99999999999993,0)" xlink:href="#aJ"/><use transform="matrix(0.04999999999999994,0,0,0.04999999999999994,67.99999999999991,0)" xlink:href="#av"/><use transform="matrix(0.04999999999999994,0,0,0.04999999999999994,72.99999999999991,0)" xlink:href="#aG"/><use transform="matrix(0.04999999999999994,0,0,0.04999999999999994,82.9999999999999,0)" xlink:href="#aK"/></g><g id="q"><use transform="matrix(0.04999999999999994,0,0,0.04999999999999994,0,0)" xlink:href="#aj"/><use transform="matrix(0.04999999999999994,0,0,0.04999999999999994,3.9499999999999953,0)" xlink:href="#ak"/><use transform="matrix(0.04999999999999994,0,0,0.04999999999999994,13.949999999999983,0)" xlink:href="#ak"/><use transform="matrix(0.04999999999999994,0,0,0.04999999999999994,23.94999999999997,0)" xlink:href="#aB"/></g><g id="r"><use transform="matrix(0.04999999999999994,0,0,0.04999999999999994,0,0)" xlink:href="#ah"/><use transform="matrix(0.04999999999999994,0,0,0.04999999999999994,3.9499999999999953,0)" xlink:href="#ar"/></g><g id="s"><use transform="matrix(0.04999999999999994,0,0,0.04999999999999994,0,0)" xlink:href="#aq"/><use transform="matrix(0.04999999999999994,0,0,0.04999999999999994,4.999999999999994,0)" xlink:href="#at"/><use transform="matrix(0.04999999999999994,0,0,0.04999999999999994,10.949999999999987,0)" xlink:href="#aC"/><use transform="matrix(0.04999999999999994,0,0,0.04999999999999994,20.949999999999974,0)" xlink:href="#ao"/></g><path fill="#3a414a" d="M26 75v-336h71v23H56V52h41v23H26" id="aL"/><path fill="#3a414a" d="M30 0v-248h187v28H63v79h144v27H63v87h162V0H30" id="aM"/><path fill="#3a414a" d="M3 75V52h41v-290H3v-23h71V75H3" id="aN"/><g id="t"><use transform="matrix(0.04999999999999994,0,0,0.04999999999999994,0,0)" xlink:href="#aL"/><use transform="matrix(0.04999999999999994,0,0,0.04999999999999994,4.999999999999994,0)" xlink:href="#aM"/><use transform="matrix(0.04999999999999994,0,0,0.04999999999999994,16.99999999999998,0)" xlink:href="#aj"/><use transform="matrix(0.04999999999999994,0,0,0.04999999999999994,20.949999999999974,0)" xlink:href="#aD"/><use transform="matrix(0.04999999999999994,0,0,0.04999999999999994,29.949999999999964,0)" xlink:href="#ao"/><use transform="matrix(0.04999999999999994,0,0,0.04999999999999994,39.94999999999995,0)" xlink:href="#aN"/></g><g id="u"><use transform="matrix(0.0493827160493827,0,0,0.0493827160493827,0,0)" xlink:href="#at"/><use transform="matrix(0.0493827160493827,0,0,0.0493827160493827,5.876543209876541,0)" xlink:href="#ao"/><use transform="matrix(0.0493827160493827,0,0,0.0493827160493827,15.753086419753082,0)" xlink:href="#aq"/><use transform="matrix(0.0493827160493827,0,0,0.0493827160493827,20.69135802469135,0)" xlink:href="#aC"/><use transform="matrix(0.0493827160493827,0,0,0.0493827160493827,30.56790123456789,0)" xlink:href="#at"/><use transform="matrix(0.0493827160493827,0,0,0.0493827160493827,36.44444444444443,0)" xlink:href="#ai"/></g><g id="v"><use transform="matrix(0.0493827160493827,0,0,0.0493827160493827,0,0)" xlink:href="#am"/><use transform="matrix(0.0493827160493827,0,0,0.0493827160493827,8.888888888888886,0)" xlink:href="#an"/><use transform="matrix(0.0493827160493827,0,0,0.0493827160493827,18.765432098765423,0)" xlink:href="#ao"/><use transform="matrix(0.0493827160493827,0,0,0.0493827160493827,28.64197530864196,0)" xlink:href="#am"/><use transform="matrix(0.0493827160493827,0,0,0.0493827160493827,37.530864197530846,0)" xlink:href="#ap"/><use transform="matrix(0.0493827160493827,0,0,0.0493827160493827,46.41975308641973,0)" xlink:href="#ah"/><use transform="matrix(0.0493827160493827,0,0,0.0493827160493827,50.320987654320966,0)" xlink:href="#ai"/><use transform="matrix(0.0493827160493827,0,0,0.0493827160493827,60.197530864197496,0)" xlink:href="#al"/></g><g id="w"><use transform="matrix(0.0493827160493827,0,0,0.0493827160493827,0,0)" xlink:href="#ar"/><use transform="matrix(0.0493827160493827,0,0,0.0493827160493827,4.9382716049382696,0)" xlink:href="#aj"/><use transform="matrix(0.0493827160493827,0,0,0.0493827160493827,8.839506172839503,0)" xlink:href="#ae"/><use transform="matrix(0.0493827160493827,0,0,0.0493827160493827,18.716049382716044,0)" xlink:href="#al"/></g><path fill="#333" d="M106-169C34-169 62-67 57 0H25v-261h32l-1 103c12-21 28-36 61-36 89 0 53 116 60 194h-32v-121c2-32-8-49-39-48" id="aO"/><g id="x"><use transform="matrix(0.04938271604938272,0,0,0.04938271604938272,0,0)" xlink:href="#X"/><use transform="matrix(0.04938271604938272,0,0,0.04938271604938272,8.88888888888889,0)" xlink:href="#aO"/><use transform="matrix(0.04938271604938272,0,0,0.04938271604938272,18.765432098765434,0)" xlink:href="#V"/><use transform="matrix(0.04938271604938272,0,0,0.04938271604938272,28.641975308641978,0)" xlink:href="#X"/><use transform="matrix(0.04938271604938272,0,0,0.04938271604938272,37.53086419753087,0)" xlink:href="#Y"/></g><path fill="#333" d="M179-190L93 31C79 59 56 82 12 73V49c39 6 53-20 64-50L1-190h34L92-34l54-156h33" id="aP"/><g id="y"><use transform="matrix(0.04938271604938272,0,0,0.04938271604938272,0,0)" xlink:href="#U"/><use transform="matrix(0.04938271604938272,0,0,0.04938271604938272,9.876543209876544,0)" xlink:href="#S"/><use transform="matrix(0.04938271604938272,0,0,0.04938271604938272,19.75308641975309,0)" xlink:href="#U"/><use transform="matrix(0.04938271604938272,0,0,0.04938271604938272,29.629629629629633,0)" xlink:href="#O"/><use transform="matrix(0.04938271604938272,0,0,0.04938271604938272,33.53086419753087,0)" xlink:href="#aP"/><use transform="matrix(0.04938271604938272,0,0,0.04938271604938272,42.41975308641976,0)" xlink:href="#ad"/><use transform="matrix(0.04938271604938272,0,0,0.04938271604938272,47.35802469135803,0)" xlink:href="#R"/><use transform="matrix(0.04938271604938272,0,0,0.04938271604938272,51.25925925925927,0)" xlink:href="#X"/><use transform="matrix(0.04938271604938272,0,0,0.04938271604938272,60.14814814814815,0)" xlink:href="#aa"/></g><g id="z"><use transform="matrix(0.04938271604938272,0,0,0.04938271604938272,0,0)" xlink:href="#ab"/><use transform="matrix(0.04938271604938272,0,0,0.04938271604938272,5.8765432098765435,0)" xlink:href="#V"/><use transform="matrix(0.04938271604938272,0,0,0.04938271604938272,15.753086419753087,0)" xlink:href="#T"/><use transform="matrix(0.04938271604938272,0,0,0.04938271604938272,25.629629629629633,0)" xlink:href="#P"/><use transform="matrix(0.04938271604938272,0,0,0.04938271604938272,35.50617283950618,0)" xlink:href="#ab"/><use transform="matrix(0.04938271604938272,0,0,0.04938271604938272,41.38271604938272,0)" xlink:href="#ad"/><use transform="matrix(0.04938271604938272,0,0,0.04938271604938272,46.320987654320994,0)" xlink:href="#aa"/></g><g id="A"><use transform="matrix(0.04938271604938272,0,0,0.04938271604938272,0,0)" xlink:href="#U"/><use transform="matrix(0.04938271604938272,0,0,0.04938271604938272,9.876543209876544,0)" xlink:href="#aa"/><use transform="matrix(0.04938271604938272,0,0,0.04938271604938272,18.765432098765434,0)" xlink:href="#Y"/></g><g id="B"><use transform="matrix(0.04938271604938272,0,0,0.04938271604938272,0,0)" xlink:href="#aa"/><use transform="matrix(0.04938271604938272,0,0,0.04938271604938272,8.88888888888889,0)" xlink:href="#V"/><use transform="matrix(0.04938271604938272,0,0,0.04938271604938272,18.765432098765434,0)" xlink:href="#ab"/><use transform="matrix(0.04938271604938272,0,0,0.04938271604938272,24.641975308641978,0)" xlink:href="#ac"/><use transform="matrix(0.04938271604938272,0,0,0.04938271604938272,33.53086419753087,0)" xlink:href="#V"/><use transform="matrix(0.04938271604938272,0,0,0.04938271604938272,43.40740740740741,0)" xlink:href="#ab"/></g><path fill="#333" d="M101-234c-31-9-42 10-38 44h38v23H63V0H32v-167H5v-23h27c-7-52 17-82 69-68v24" id="aQ"/><g id="C"><use transform="matrix(0.04938271604938272,0,0,0.04938271604938272,0,0)" xlink:href="#aQ"/><use transform="matrix(0.04938271604938272,0,0,0.04938271604938272,4.938271604938272,0)" xlink:href="#P"/><use transform="matrix(0.04938271604938272,0,0,0.04938271604938272,14.814814814814817,0)" xlink:href="#ab"/></g><g id="D"><use transform="matrix(0.04938271604938272,0,0,0.04938271604938272,0,0)" xlink:href="#aa"/><use transform="matrix(0.04938271604938272,0,0,0.04938271604938272,8.88888888888889,0)" xlink:href="#V"/><use transform="matrix(0.04938271604938272,0,0,0.04938271604938272,18.765432098765434,0)" xlink:href="#S"/><use transform="matrix(0.04938271604938272,0,0,0.04938271604938272,28.641975308641978,0)" xlink:href="#Z"/></g><path fill="#333" d="M145-31C134-9 116 4 85 4 32 4 16-35 15-94c0-59 17-99 70-100 32-1 48 14 60 33 0-11-1-24 2-32h30l-1 268h-32zM93-21c41 0 51-33 51-76s-8-73-50-73c-40 0-46 35-46 75s5 74 45 74" id="aR"/><path fill="#333" d="M84 4C-5 8 30-112 23-190h32v120c0 31 7 50 39 49 72-2 45-101 50-169h31l1 190h-30c-1-10 1-25-2-33-11 22-28 36-60 37" id="aS"/><g id="E"><use transform="matrix(0.04938271604938272,0,0,0.04938271604938272,0,0)" xlink:href="#ab"/><use transform="matrix(0.04938271604938272,0,0,0.04938271604938272,5.8765432098765435,0)" xlink:href="#V"/><use transform="matrix(0.04938271604938272,0,0,0.04938271604938272,15.753086419753087,0)" xlink:href="#aR"/><use transform="matrix(0.04938271604938272,0,0,0.04938271604938272,25.629629629629633,0)" xlink:href="#aS"/><use transform="matrix(0.04938271604938272,0,0,0.04938271604938272,35.50617283950618,0)" xlink:href="#V"/><use transform="matrix(0.04938271604938272,0,0,0.04938271604938272,45.38271604938272,0)" xlink:href="#aa"/><use transform="matrix(0.04938271604938272,0,0,0.04938271604938272,54.27160493827161,0)" xlink:href="#ad"/></g><g id="F"><use transform="matrix(0.04938271604938272,0,0,0.04938271604938272,0,0)" xlink:href="#ab"/><use transform="matrix(0.04938271604938272,0,0,0.04938271604938272,5.8765432098765435,0)" xlink:href="#V"/><use transform="matrix(0.04938271604938272,0,0,0.04938271604938272,15.753086419753087,0)" xlink:href="#ad"/><use transform="matrix(0.04938271604938272,0,0,0.04938271604938272,20.69135802469136,0)" xlink:href="#aS"/><use transform="matrix(0.04938271604938272,0,0,0.04938271604938272,30.567901234567906,0)" xlink:href="#ab"/><use transform="matrix(0.04938271604938272,0,0,0.04938271604938272,36.44444444444445,0)" xlink:href="#S"/></g><path fill="#333" d="M206 0h-36l-40-164L89 0H53L-1-190h32L70-26l43-164h34l41 164 42-164h31" id="aT"/><g id="G"><use transform="matrix(0.04938271604938272,0,0,0.04938271604938272,0,0)" xlink:href="#aa"/><use transform="matrix(0.04938271604938272,0,0,0.04938271604938272,8.88888888888889,0)" xlink:href="#aO"/><use transform="matrix(0.04938271604938272,0,0,0.04938271604938272,18.765432098765434,0)" xlink:href="#P"/><use transform="matrix(0.04938271604938272,0,0,0.04938271604938272,28.641975308641978,0)" xlink:href="#aT"/></g><g id="H"><use transform="matrix(0.04938271604938272,0,0,0.04938271604938272,0,0)" xlink:href="#U"/><use transform="matrix(0.04938271604938272,0,0,0.04938271604938272,9.876543209876544,0)" xlink:href="#S"/><use transform="matrix(0.04938271604938272,0,0,0.04938271604938272,19.75308641975309,0)" xlink:href="#U"/><use transform="matrix(0.04938271604938272,0,0,0.04938271604938272,29.629629629629633,0)" xlink:href="#O"/><use transform="matrix(0.04938271604938272,0,0,0.04938271604938272,33.53086419753087,0)" xlink:href="#R"/><use transform="matrix(0.04938271604938272,0,0,0.04938271604938272,37.4320987654321,0)" xlink:href="#ad"/><use transform="matrix(0.04938271604938272,0,0,0.04938271604938272,42.370370370370374,0)" xlink:href="#aP"/><use transform="matrix(0.04938271604938272,0,0,0.04938271604938272,51.25925925925927,0)" xlink:href="#X"/><use transform="matrix(0.04938271604938272,0,0,0.04938271604938272,60.14814814814815,0)" xlink:href="#aa"/></g><g id="I"><use transform="matrix(0.04938271604938272,0,0,0.04938271604938272,0,0)" xlink:href="#ab"/><use transform="matrix(0.04938271604938272,0,0,0.04938271604938272,5.8765432098765435,0)" xlink:href="#V"/><use transform="matrix(0.04938271604938272,0,0,0.04938271604938272,15.753086419753087,0)" xlink:href="#T"/><use transform="matrix(0.04938271604938272,0,0,0.04938271604938272,25.629629629629633,0)" xlink:href="#P"/><use transform="matrix(0.04938271604938272,0,0,0.04938271604938272,35.50617283950618,0)" xlink:href="#ab"/><use transform="matrix(0.04938271604938272,0,0,0.04938271604938272,41.38271604938272,0)" xlink:href="#ad"/></g><path fill="#333" d="M210-169c-67 3-38 105-44 169h-31v-121c0-29-5-50-35-48C34-165 62-65 56 0H25l-1-190h30c1 10-1 24 2 32 10-44 99-50 107 0 11-21 27-35 58-36 85-2 47 119 55 194h-31v-121c0-29-5-49-35-48" id="aU"/><g id="J"><use transform="matrix(0.04938271604938272,0,0,0.04938271604938272,0,0)" xlink:href="#U"/><use transform="matrix(0.04938271604938272,0,0,0.04938271604938272,9.876543209876544,0)" xlink:href="#Z"/><use transform="matrix(0.04938271604938272,0,0,0.04938271604938272,19.75308641975309,0)" xlink:href="#aU"/><use transform="matrix(0.04938271604938272,0,0,0.04938271604938272,34.51851851851852,0)" xlink:href="#R"/><use transform="matrix(0.04938271604938272,0,0,0.04938271604938272,38.41975308641975,0)" xlink:href="#S"/><path fill="#333" d="M-.9 1.23h55.02v1.3h-55z"/></g><path fill="#333" d="M135-150c-39-12-60 13-60 57V0H25l-1-190h47c2 13-1 29 3 40 6-28 27-53 61-41v41" id="aV"/><path fill="#333" d="M185-48c-13 30-37 53-82 52C43 2 14-33 14-96s30-98 90-98c62 0 83 45 84 108H66c0 31 8 55 39 56 18 0 30-7 34-22zm-45-69c5-46-57-63-70-21-2 6-4 13-4 21h74" id="aW"/><path fill="#333" d="M88-194c31-1 46 15 58 34l-1-101h50l1 261h-48c-2-10 0-23-3-31C134-8 116 4 84 4 32 4 16-41 15-95c0-56 19-97 73-99zm17 164c33 0 40-30 41-66 1-37-9-64-41-64s-38 30-39 65c0 43 13 65 39 65" id="aX"/><path fill="#333" d="M25-224v-37h50v37H25zM25 0v-190h50V0H25" id="aY"/><path fill="#333" d="M190-63c-7 42-38 67-86 67-59 0-84-38-90-98-12-110 154-137 174-36l-49 2c-2-19-15-32-35-32-30 0-35 28-38 64-6 74 65 87 74 30" id="aZ"/><path fill="#333" d="M115-3C79 11 28 4 28-45v-112H4v-33h27l15-45h31v45h36v33H77v99c-1 23 16 31 38 25v30" id="ba"/><g id="K"><use transform="matrix(0.04938271604938272,0,0,0.04938271604938272,0,0)" xlink:href="#aV"/><use transform="matrix(0.04938271604938272,0,0,0.04938271604938272,6.913580246913581,0)" xlink:href="#aW"/><use transform="matrix(0.04938271604938272,0,0,0.04938271604938272,16.790123456790127,0)" xlink:href="#aX"/><use transform="matrix(0.04938271604938272,0,0,0.04938271604938272,27.604938271604947,0)" xlink:href="#aY"/><use transform="matrix(0.04938271604938272,0,0,0.04938271604938272,32.543209876543216,0)" xlink:href="#aV"/><use transform="matrix(0.04938271604938272,0,0,0.04938271604938272,39.4567901234568,0)" xlink:href="#aW"/><use transform="matrix(0.04938271604938272,0,0,0.04938271604938272,49.33333333333334,0)" xlink:href="#aZ"/><use transform="matrix(0.04938271604938272,0,0,0.04938271604938272,59.209876543209894,0)" xlink:href="#ba"/></g><path fill="#333" d="M110-194c64 0 96 36 96 99 0 64-35 99-97 99-61 0-95-36-95-99 0-62 34-99 96-99zm-1 164c35 0 45-28 45-65 0-40-10-65-43-65-34 0-45 26-45 65 0 36 10 65 43 65" id="bb"/><g id="L"><use transform="matrix(0.04938271604938272,0,0,0.04938271604938272,0,0)" xlink:href="#ba"/><use transform="matrix(0.04938271604938272,0,0,0.04938271604938272,5.8765432098765435,0)" xlink:href="#bb"/></g><path fill="#333" d="M133-34C117-15 103 5 69 4 32 3 11-16 11-54c-1-60 55-63 116-61 1-26-3-47-28-47-18 1-26 9-28 27l-52-2c7-38 36-58 82-57s74 22 75 68l1 82c-1 14 12 18 25 15v27c-30 8-71 5-69-32zm-48 3c29 0 43-24 42-57-32 0-66-3-65 30 0 17 8 27 23 27" id="bc"/><path fill="#333" d="M220-157c-53 9-28 100-34 157h-49v-107c1-27-5-49-29-50C55-147 81-57 75 0H25l-1-190h47c2 12-1 28 3 38 10-53 101-56 108 0 13-22 24-43 59-42 82 1 51 116 57 194h-49v-107c-1-25-5-48-29-50" id="bd"/><path fill="#333" d="M135-194c87-1 58 113 63 194h-50c-7-57 23-157-34-157-59 0-34 97-39 157H25l-1-190h47c2 12-1 28 3 38 12-26 28-41 61-42" id="be"/><g id="M"><use transform="matrix(0.04938271604938272,0,0,0.04938271604938272,0,0)" xlink:href="#bc"/><use transform="matrix(0.04938271604938272,0,0,0.04938271604938272,9.876543209876544,0)" xlink:href="#aX"/><use transform="matrix(0.04938271604938272,0,0,0.04938271604938272,20.69135802469136,0)" xlink:href="#bd"/><use transform="matrix(0.04938271604938272,0,0,0.04938271604938272,36.49382716049383,0)" xlink:href="#aY"/><use transform="matrix(0.04938271604938272,0,0,0.04938271604938272,41.4320987654321,0)" xlink:href="#be"/></g><path fill="#333" d="M135-194c53 0 70 44 70 98 0 56-19 98-73 100-31 1-45-17-59-34 3 33 2 69 2 105H25l-1-265h48c2 10 0 23 3 31 11-24 29-35 60-35zM114-30c33 0 39-31 40-66 0-38-9-64-40-64-56 0-55 130 0 130" id="bf"/><path fill="#333" d="M25 0v-261h50V0H25" id="bg"/><g id="N"><use transform="matrix(0.04938271604938272,0,0,0.04938271604938272,0,0)" xlink:href="#bf"/><use transform="matrix(0.04938271604938272,0,0,0.04938271604938272,10.814814814814815,0)" xlink:href="#bc"/><use transform="matrix(0.04938271604938272,0,0,0.04938271604938272,20.69135802469136,0)" xlink:href="#be"/><use transform="matrix(0.04938271604938272,0,0,0.04938271604938272,31.506172839506174,0)" xlink:href="#aW"/><use transform="matrix(0.04938271604938272,0,0,0.04938271604938272,41.38271604938272,0)" xlink:href="#bg"/></g></defs></g></svg>